<?xml version="1.0" encoding="UTF-8"?>
<!DOCTYPE svg PUBLIC "-//W3C//DTD SVG 1.1//EN" "http://www.w3.org/Graphics/SVG/1.1/DTD/svg11.dtd">
<svg xmlns="http://www.w3.org/2000/svg" version="1.1" width="60px" height="72px" style="shape-rendering:geometricPrecision; text-rendering:geometricPrecision; image-rendering:optimizeQuality; fill-rule:evenodd; clip-rule:evenodd" xmlns:xlink="http://www.w3.org/1999/xlink">
    <g><path style="opacity:0.873" fill="#e6cb66" d="M 38.5,5.5 C 40.8568,5.33669 43.1902,5.50335 45.5,6C 46.056,6.38258 46.3893,6.88258 46.5,7.5C 45.7321,8.26253 45.2321,9.26253 45,10.5C 44.7216,9.5842 44.2216,8.91753 43.5,8.5C 42.2524,6.30997 40.5857,5.97663 38.5,7.5C 38.5,6.83333 38.5,6.16667 38.5,5.5 Z"/></g>
    <g><path style="opacity:0.929" fill="#edd678" d="M 38.5,5.5 C 38.5,6.16667 38.5,6.83333 38.5,7.5C 37.0937,7.97306 36.427,8.97306 36.5,10.5C 35.8333,11.1667 35.1667,11.8333 34.5,12.5C 34.149,9.18837 35.4823,6.85504 38.5,5.5 Z"/></g>
    <g><path style="opacity:1" fill="#d5992b" d="M 43.5,8.5 C 43.5,8.83333 43.5,9.16667 43.5,9.5C 40.715,8.91618 39.0483,9.91618 38.5,12.5C 37.8333,12.5 37.1667,12.5 36.5,12.5C 36.5,11.8333 36.5,11.1667 36.5,10.5C 36.427,8.97306 37.0937,7.97306 38.5,7.5C 40.5857,5.97663 42.2524,6.30997 43.5,8.5 Z"/></g>
    <g><path style="opacity:1" fill="#e2c255" d="M 46.5,7.5 C 46.3862,9.71791 45.7196,11.7179 44.5,13.5C 43.5084,13.3284 42.8417,13.6618 42.5,14.5C 40.8212,14.7148 39.8212,14.0481 39.5,12.5C 41.7564,13.2923 43.0897,12.2923 43.5,9.5C 43.5,9.16667 43.5,8.83333 43.5,8.5C 44.2216,8.91753 44.7216,9.5842 45,10.5C 45.2321,9.26253 45.7321,8.26253 46.5,7.5 Z"/></g>
    <g><path style="opacity:0.946" fill="#e9cf65" d="M 36.5,10.5 C 36.5,11.1667 36.5,11.8333 36.5,12.5C 36.5,13.5 36.5,14.5 36.5,15.5C 36.1667,15.5 35.8333,15.5 35.5,15.5C 32.728,14.2329 30.0613,14.2329 27.5,15.5C 26.5041,15.4142 25.6708,15.7476 25,16.5C 24.5357,15.9056 24.369,15.2389 24.5,14.5C 27.6348,12.9767 30.9682,12.31 34.5,12.5C 35.1667,11.8333 35.8333,11.1667 36.5,10.5 Z"/></g>
    <g><path style="opacity:1" fill="#dfbd48" d="M 36.5,12.5 C 37.1667,12.5 37.8333,12.5 38.5,12.5C 38.8333,12.5 39.1667,12.5 39.5,12.5C 39.8212,14.0481 40.8212,14.7148 42.5,14.5C 42.5,15.1667 42.1667,15.5 41.5,15.5C 40.5,15.5 39.5,15.5 38.5,15.5C 38.7373,16.791 38.404,17.791 37.5,18.5C 37.7373,17.209 37.404,16.209 36.5,15.5C 36.5,14.5 36.5,13.5 36.5,12.5 Z"/></g>
    <g><path style="opacity:0.671" fill="#b07a2e" d="M 46.5,7.5 C 47.9171,10.3404 47.5838,13.007 45.5,15.5C 45.1667,15.5 44.8333,15.5 44.5,15.5C 43.4937,15.0623 43.4937,14.3957 44.5,13.5C 45.7196,11.7179 46.3862,9.71791 46.5,7.5 Z"/></g>
    <g><path style="opacity:1" fill="#e8cf78" d="M 27.5,15.5 C 30.0613,14.2329 32.728,14.2329 35.5,15.5C 35.5,16.5 35.5,17.5 35.5,18.5C 34.5,18.5 33.5,18.5 32.5,18.5C 33.5669,16.1205 32.5669,15.1205 29.5,15.5C 28.8333,15.5 28.1667,15.5 27.5,15.5 Z"/></g>
    <g><path style="opacity:1" fill="#d2aa3d" d="M 44.5,13.5 C 43.4937,14.3957 43.4937,15.0623 44.5,15.5C 44.5,16.1667 44.5,16.8333 44.5,17.5C 44.5,18.1667 44.5,18.8333 44.5,19.5C 43.8333,19.5 43.1667,19.5 42.5,19.5C 42.6716,18.5084 42.3382,17.8417 41.5,17.5C 41.5,16.8333 41.5,16.1667 41.5,15.5C 42.1667,15.5 42.5,15.1667 42.5,14.5C 42.8417,13.6618 43.5084,13.3284 44.5,13.5 Z"/></g>
    <g><path style="opacity:1" fill="#eddb94" d="M 24.5,14.5 C 24.369,15.2389 24.5357,15.9056 25,16.5C 25.6708,15.7476 26.5041,15.4142 27.5,15.5C 28.1667,15.5 28.8333,15.5 29.5,15.5C 26.5256,18.1379 23.5256,20.8046 20.5,23.5C 20.5106,21.9826 21.1772,20.8159 22.5,20C 21.9056,19.5357 21.2389,19.369 20.5,19.5C 22.2294,18.7638 23.2294,17.4305 23.5,15.5C 23.5,14.8333 23.8333,14.5 24.5,14.5 Z"/></g>
    <g><path style="opacity:1" fill="#debe54" d="M 35.5,15.5 C 35.8333,15.5 36.1667,15.5 36.5,15.5C 37.404,16.209 37.7373,17.209 37.5,18.5C 35.5,20.5 33.5,22.5 31.5,24.5C 31.7329,22.9382 32.3995,21.6049 33.5,20.5C 34.1667,19.8333 34.8333,19.1667 35.5,18.5C 35.5,17.5 35.5,16.5 35.5,15.5 Z"/></g>
    <g><path style="opacity:1" fill="#d0a82c" d="M 41.5,17.5 C 42.3382,17.8417 42.6716,18.5084 42.5,19.5C 41.1667,20.5 39.8333,21.5 38.5,22.5C 38.5,21.8333 38.5,21.1667 38.5,20.5C 38.8564,18.8102 39.8564,17.8102 41.5,17.5 Z"/></g>
    <g><path style="opacity:1" fill="#ead585" d="M 29.5,15.5 C 32.5669,15.1205 33.5669,16.1205 32.5,18.5C 31.5084,18.3284 30.8417,18.6618 30.5,19.5C 28.4458,19.3653 26.7791,20.032 25.5,21.5C 22.6361,24.1109 20.3028,27.1109 18.5,30.5C 19.1667,28.1667 19.8333,25.8333 20.5,23.5C 23.5256,20.8046 26.5256,18.1379 29.5,15.5 Z"/></g>
    <g><path style="opacity:1" fill="#e7cf76" d="M 30.5,19.5 C 28.0908,21.9024 26.0908,24.5691 24.5,27.5C 23.8333,27.5 23.5,27.8333 23.5,28.5C 23.1667,28.5 22.8333,28.5 22.5,28.5C 23.242,26.0202 24.242,23.6869 25.5,21.5C 26.7791,20.032 28.4458,19.3653 30.5,19.5 Z"/></g>
    <g><path style="opacity:0.765" fill="#c8ac7a" d="M 44.5,15.5 C 44.8333,15.5 45.1667,15.5 45.5,15.5C 47.8847,17.8838 49.8847,20.5505 51.5,23.5C 50.5,23.5 49.5,23.5 48.5,23.5C 48.1551,20.8021 46.8218,18.8021 44.5,17.5C 44.5,16.8333 44.5,16.1667 44.5,15.5 Z"/></g>
    <g><path style="opacity:0.98" fill="#edd77f" d="M 23.5,15.5 C 23.2294,17.4305 22.2294,18.7638 20.5,19.5C 18.0152,21.6523 16.3485,24.3189 15.5,27.5C 14.8333,28.1667 14.1667,28.8333 13.5,29.5C 13.5,29.1667 13.5,28.8333 13.5,28.5C 15.3716,22.9714 18.7049,18.6381 23.5,15.5 Z"/></g>
    <g><path style="opacity:1" fill="#e4ca6d" d="M 32.5,18.5 C 33.5,18.5 34.5,18.5 35.5,18.5C 34.8333,19.1667 34.1667,19.8333 33.5,20.5C 32.7611,20.369 32.0944,20.5357 31.5,21C 29.2956,22.7645 27.6289,24.9312 26.5,27.5C 25.8333,27.5 25.1667,27.5 24.5,27.5C 26.0908,24.5691 28.0908,21.9024 30.5,19.5C 30.8417,18.6618 31.5084,18.3284 32.5,18.5 Z"/></g>
    <g><path style="opacity:1" fill="#d8b33c" d="M 41.5,15.5 C 41.5,16.1667 41.5,16.8333 41.5,17.5C 39.8564,17.8102 38.8564,18.8102 38.5,20.5C 35.8587,22.8044 33.192,25.1377 30.5,27.5C 30.5569,26.391 30.8902,25.391 31.5,24.5C 33.5,22.5 35.5,20.5 37.5,18.5C 38.404,17.791 38.7373,16.791 38.5,15.5C 39.5,15.5 40.5,15.5 41.5,15.5 Z"/></g>
    <g><path style="opacity:1" fill="#d0a82b" d="M 38.5,20.5 C 38.5,21.1667 38.5,21.8333 38.5,22.5C 36.7484,24.2459 35.4151,26.2459 34.5,28.5C 33.1667,29.5 31.8333,30.5 30.5,31.5C 30.5,30.8333 30.5,30.1667 30.5,29.5C 30.5,28.8333 30.5,28.1667 30.5,27.5C 33.192,25.1377 35.8587,22.8044 38.5,20.5 Z"/></g>
    <g><path style="opacity:1" fill="#e0c25d" d="M 33.5,20.5 C 32.3995,21.6049 31.7329,22.9382 31.5,24.5C 30.8902,25.391 30.5569,26.391 30.5,27.5C 28.9699,28.2112 27.6366,29.2112 26.5,30.5C 26.5,29.5 26.5,28.5 26.5,27.5C 27.6289,24.9312 29.2956,22.7645 31.5,21C 32.0944,20.5357 32.7611,20.369 33.5,20.5 Z"/></g>
    <g><path style="opacity:1" fill="#c79b21" d="M 42.5,19.5 C 43.1667,19.5 43.8333,19.5 44.5,19.5C 42.9092,22.4309 40.9092,25.0976 38.5,27.5C 37.5,27.8333 36.8333,28.5 36.5,29.5C 35.8333,29.5 35.1667,29.5 34.5,29.5C 34.5,29.1667 34.5,28.8333 34.5,28.5C 35.4151,26.2459 36.7484,24.2459 38.5,22.5C 39.8333,21.5 41.1667,20.5 42.5,19.5 Z"/></g>
    <g><path style="opacity:1" fill="#bd964a" d="M 44.5,17.5 C 46.8218,18.8021 48.1551,20.8021 48.5,23.5C 48.8333,24.1667 49.1667,24.8333 49.5,25.5C 49.5,25.8333 49.5,26.1667 49.5,26.5C 48.8333,26.1667 48.1667,25.8333 47.5,25.5C 47.6716,24.5084 47.3382,23.8417 46.5,23.5C 46.5,22.8333 46.1667,22.5 45.5,22.5C 45.7373,21.209 45.404,20.209 44.5,19.5C 44.5,18.8333 44.5,18.1667 44.5,17.5 Z"/></g>
    <g><path style="opacity:1" fill="#ebd68c" d="M 20.5,23.5 C 19.8333,25.8333 19.1667,28.1667 18.5,30.5C 17.4625,31.9303 16.7959,33.597 16.5,35.5C 15.596,34.791 15.2627,33.791 15.5,32.5C 15.4326,31.0413 15.7659,29.7079 16.5,28.5C 17.593,26.6508 18.9263,24.9842 20.5,23.5 Z"/></g>
    <g><path style="opacity:1" fill="#eddb9b" d="M 20.5,19.5 C 21.2389,19.369 21.9056,19.5357 22.5,20C 21.1772,20.8159 20.5106,21.9826 20.5,23.5C 18.9263,24.9842 17.593,26.6508 16.5,28.5C 15.8333,28.5 15.5,28.1667 15.5,27.5C 16.3485,24.3189 18.0152,21.6523 20.5,19.5 Z"/></g>
    <g><path style="opacity:1" fill="#bf911f" d="M 44.5,19.5 C 45.404,20.209 45.7373,21.209 45.5,22.5C 45.5,23.1667 45.1667,23.5 44.5,23.5C 42.1394,25.1939 40.1394,27.1939 38.5,29.5C 38.5,28.8333 38.5,28.1667 38.5,27.5C 40.9092,25.0976 42.9092,22.4309 44.5,19.5 Z"/></g>
    <g><path style="opacity:1" fill="#b48521" d="M 45.5,22.5 C 46.1667,22.5 46.5,22.8333 46.5,23.5C 46.5674,24.9587 46.2341,26.2921 45.5,27.5C 43.5887,28.075 41.922,29.075 40.5,30.5C 41.8333,28.1667 43.1667,25.8333 44.5,23.5C 45.1667,23.5 45.5,23.1667 45.5,22.5 Z"/></g>
    <g><path style="opacity:1" fill="#e9d17b" d="M 25.5,21.5 C 24.242,23.6869 23.242,26.0202 22.5,28.5C 19.6403,30.6055 18.9736,33.2722 20.5,36.5C 19.1667,36.5 17.8333,36.5 16.5,36.5C 16.5,36.1667 16.5,35.8333 16.5,35.5C 16.7959,33.597 17.4625,31.9303 18.5,30.5C 20.3028,27.1109 22.6361,24.1109 25.5,21.5 Z"/></g>
    <g><path style="opacity:1" fill="#ecd997" d="M 15.5,27.5 C 15.5,28.1667 15.8333,28.5 16.5,28.5C 15.7659,29.7079 15.4326,31.0413 15.5,32.5C 14.7321,33.2625 14.2321,34.2625 14,35.5C 13.51,34.2068 13.3433,32.8734 13.5,31.5C 13.5,30.8333 13.5,30.1667 13.5,29.5C 14.1667,28.8333 14.8333,28.1667 15.5,27.5 Z"/></g>
    <g><path style="opacity:1" fill="#e3c766" d="M 24.5,27.5 C 25.1667,27.5 25.8333,27.5 26.5,27.5C 26.5,28.5 26.5,29.5 26.5,30.5C 24.087,31.6798 23.087,33.6798 23.5,36.5C 23.1667,36.5 22.8333,36.5 22.5,36.5C 22.4013,33.7628 22.7347,31.0961 23.5,28.5C 23.5,27.8333 23.8333,27.5 24.5,27.5 Z"/></g>
    <g><path style="opacity:1" fill="#cb9f22" d="M 34.5,28.5 C 34.5,28.8333 34.5,29.1667 34.5,29.5C 32.1289,31.9966 31.1289,34.9966 31.5,38.5C 30.5318,36.3926 30.1984,34.0593 30.5,31.5C 31.8333,30.5 33.1667,29.5 34.5,28.5 Z"/></g>
    <g><path style="opacity:1" fill="#ab7b1f" d="M 46.5,23.5 C 47.3382,23.8417 47.6716,24.5084 47.5,25.5C 47.5674,26.9587 47.2341,28.2921 46.5,29.5C 44.457,30.5794 43.1237,32.246 42.5,34.5C 42.1667,34.5 41.8333,34.5 41.5,34.5C 41.5,34.1667 41.5,33.8333 41.5,33.5C 42.4151,31.2459 43.7484,29.2459 45.5,27.5C 46.2341,26.2921 46.5674,24.9587 46.5,23.5 Z"/></g>
    <g><path style="opacity:1" fill="#dbb84b" d="M 30.5,27.5 C 30.5,28.1667 30.5,28.8333 30.5,29.5C 29.5416,29.9528 28.7083,30.6195 28,31.5C 27.8138,34.0356 27.3138,36.369 26.5,38.5C 25.2857,35.8707 25.2857,33.204 26.5,30.5C 27.6366,29.2112 28.9699,28.2112 30.5,27.5 Z"/></g>
    <g><path style="opacity:1" fill="#b98a1a" d="M 44.5,23.5 C 43.1667,25.8333 41.8333,28.1667 40.5,30.5C 40.1667,31.5 39.5,32.1667 38.5,32.5C 38.1667,32.5 37.8333,32.5 37.5,32.5C 37.5,32.1667 37.5,31.8333 37.5,31.5C 37.3284,30.5084 37.6618,29.8417 38.5,29.5C 40.1394,27.1939 42.1394,25.1939 44.5,23.5 Z"/></g>
    <g><path style="opacity:0.388" fill="#e9d273" d="M 13.5,28.5 C 13.5,28.8333 13.5,29.1667 13.5,29.5C 13.5,30.1667 13.5,30.8333 13.5,31.5C 12.4625,32.9303 11.7959,34.597 11.5,36.5C 10.8333,36.5 10.1667,36.5 9.5,36.5C 10.6553,33.6717 11.9886,31.0051 13.5,28.5 Z"/></g>
    <g><path style="opacity:1" fill="#e3c45e" d="M 26.5,30.5 C 25.2857,33.204 25.2857,35.8707 26.5,38.5C 25.5084,38.3284 24.8417,38.6618 24.5,39.5C 23.609,38.8902 22.609,38.5569 21.5,38.5C 21.1667,38.5 20.8333,38.5 20.5,38.5C 21.5,37.8333 22.5,37.1667 23.5,36.5C 23.087,33.6798 24.087,31.6798 26.5,30.5 Z"/></g>
    <g><path style="opacity:1" fill="#dab43a" d="M 30.5,29.5 C 30.5,30.1667 30.5,30.8333 30.5,31.5C 29.0069,32.3121 28.3402,33.6455 28.5,35.5C 28.1104,37.9818 29.1104,39.3152 31.5,39.5C 31.5,39.8333 31.5,40.1667 31.5,40.5C 31.5,41.1667 31.1667,41.5 30.5,41.5C 29.8333,41.1667 29.1667,40.8333 28.5,40.5C 27.391,40.4431 26.391,40.1098 25.5,39.5C 25.1667,39.5 24.8333,39.5 24.5,39.5C 24.8417,38.6618 25.5084,38.3284 26.5,38.5C 27.3138,36.369 27.8138,34.0356 28,31.5C 28.7083,30.6195 29.5416,29.9528 30.5,29.5 Z"/></g>
    <g><path style="opacity:1" fill="#b27f16" d="M 45.5,27.5 C 43.7484,29.2459 42.4151,31.2459 41.5,33.5C 39.0181,35.5027 38.0181,38.1694 38.5,41.5C 37.3187,38.6377 37.3187,35.6377 38.5,32.5C 39.5,32.1667 40.1667,31.5 40.5,30.5C 41.922,29.075 43.5887,28.075 45.5,27.5 Z"/></g>
    <g><path style="opacity:1" fill="#a27421" d="M 47.5,25.5 C 48.1667,25.8333 48.8333,26.1667 49.5,26.5C 49.5,27.1667 49.5,27.8333 49.5,28.5C 48.8333,29.8333 48.1667,31.1667 47.5,32.5C 46.5,33.1667 45.5,33.8333 44.5,34.5C 45.1667,32.8333 45.8333,31.1667 46.5,29.5C 47.2341,28.2921 47.5674,26.9587 47.5,25.5 Z"/></g>
    <g><path style="opacity:1" fill="#e6cb6e" d="M 22.5,28.5 C 22.8333,28.5 23.1667,28.5 23.5,28.5C 22.7347,31.0961 22.4013,33.7628 22.5,36.5C 21.8333,36.5 21.1667,36.5 20.5,36.5C 18.9736,33.2722 19.6403,30.6055 22.5,28.5 Z"/></g>
    <g><path style="opacity:1" fill="#a4731a" d="M 46.5,29.5 C 45.8333,31.1667 45.1667,32.8333 44.5,34.5C 44.0679,35.7095 43.4013,36.7095 42.5,37.5C 42.5,36.5 42.5,35.5 42.5,34.5C 43.1237,32.246 44.457,30.5794 46.5,29.5 Z"/></g>
    <g><path style="opacity:1" fill="#a16e1b" d="M 47.5,32.5 C 47.5,33.1667 47.5,33.8333 47.5,34.5C 46.0337,35.347 45.2004,36.6803 45,38.5C 44.2042,41.0385 44.3709,43.3718 45.5,45.5C 45.5,45.8333 45.5,46.1667 45.5,46.5C 43.9731,46.573 42.9731,45.9063 42.5,44.5C 41.1667,42.1667 41.1667,39.8333 42.5,37.5C 43.4013,36.7095 44.0679,35.7095 44.5,34.5C 45.5,33.8333 46.5,33.1667 47.5,32.5 Z"/></g>
    <g><path style="opacity:1" fill="#9b6e24" d="M 49.5,28.5 C 49.9688,30.9946 49.9688,33.6613 49.5,36.5C 48.8333,36.5 48.1667,36.5 47.5,36.5C 47.5,35.8333 47.5,35.1667 47.5,34.5C 47.5,33.8333 47.5,33.1667 47.5,32.5C 48.1667,31.1667 48.8333,29.8333 49.5,28.5 Z"/></g>
    <g><path style="opacity:1" fill="#9c7231" d="M 49.5,25.5 C 50.1174,25.6107 50.6174,25.944 51,26.5C 51.499,30.8206 51.6657,35.1539 51.5,39.5C 50.8333,39.8333 50.1667,40.1667 49.5,40.5C 49.5,39.1667 49.5,37.8333 49.5,36.5C 49.9688,33.6613 49.9688,30.9946 49.5,28.5C 49.5,27.8333 49.5,27.1667 49.5,26.5C 49.5,26.1667 49.5,25.8333 49.5,25.5 Z"/></g>
    <g><path style="opacity:1" fill="#c9991d" d="M 34.5,29.5 C 35.1667,29.5 35.8333,29.5 36.5,29.5C 33.3931,32.6809 32.3931,36.3476 33.5,40.5C 32.8333,40.5 32.1667,40.5 31.5,40.5C 31.5,40.1667 31.5,39.8333 31.5,39.5C 31.5,39.1667 31.5,38.8333 31.5,38.5C 31.1289,34.9966 32.1289,31.9966 34.5,29.5 Z"/></g>
    <g><path style="opacity:1" fill="#edd991" d="M 13.5,31.5 C 13.3433,32.8734 13.51,34.2068 14,35.5C 14.2321,34.2625 14.7321,33.2625 15.5,32.5C 15.2627,33.791 15.596,34.791 16.5,35.5C 16.5,35.8333 16.5,36.1667 16.5,36.5C 14.8333,36.5 13.1667,36.5 11.5,36.5C 11.7959,34.597 12.4625,32.9303 13.5,31.5 Z"/></g>
    <g><path style="opacity:1" fill="#c29118" d="M 38.5,27.5 C 38.5,28.1667 38.5,28.8333 38.5,29.5C 37.6618,29.8417 37.3284,30.5084 37.5,31.5C 34.925,33.8453 33.925,36.8453 34.5,40.5C 34.1667,40.5 33.8333,40.5 33.5,40.5C 32.3931,36.3476 33.3931,32.6809 36.5,29.5C 36.8333,28.5 37.5,27.8333 38.5,27.5 Z"/></g>
    <g><path style="opacity:1" fill="#bf8c17" d="M 37.5,31.5 C 37.5,31.8333 37.5,32.1667 37.5,32.5C 35.4621,35.3435 35.1288,38.3435 36.5,41.5C 35.5084,41.6716 34.8417,41.3382 34.5,40.5C 33.925,36.8453 34.925,33.8453 37.5,31.5 Z"/></g>
    <g><path style="opacity:1" fill="#a37f4e" d="M 48.5,23.5 C 49.5,23.5 50.5,23.5 51.5,23.5C 53.9969,32.2249 53.6636,40.8915 50.5,49.5C 50.1667,49.5 49.8333,49.5 49.5,49.5C 49.8511,46.0968 50.5178,42.7635 51.5,39.5C 51.6657,35.1539 51.499,30.8206 51,26.5C 50.6174,25.944 50.1174,25.6107 49.5,25.5C 49.1667,24.8333 48.8333,24.1667 48.5,23.5 Z"/></g>
    <g><path style="opacity:1" fill="#d1a529" d="M 30.5,31.5 C 30.1984,34.0593 30.5318,36.3926 31.5,38.5C 31.5,38.8333 31.5,39.1667 31.5,39.5C 29.1104,39.3152 28.1104,37.9818 28.5,35.5C 28.3402,33.6455 29.0069,32.3121 30.5,31.5 Z"/></g>
    <g><path style="opacity:1" fill="#ebd478" d="M 6.5,36.5 C 7.5,36.5 8.5,36.5 9.5,36.5C 10.1667,36.5 10.8333,36.5 11.5,36.5C 13.1667,36.5 14.8333,36.5 16.5,36.5C 17.8333,36.5 19.1667,36.5 20.5,36.5C 21.1667,36.5 21.8333,36.5 22.5,36.5C 22.8333,36.5 23.1667,36.5 23.5,36.5C 22.5,37.1667 21.5,37.8333 20.5,38.5C 15.7305,37.8829 11.0638,37.2162 6.5,36.5 Z"/></g>
    <g><path style="opacity:1" fill="#b98415" d="M 37.5,32.5 C 37.8333,32.5 38.1667,32.5 38.5,32.5C 37.3187,35.6377 37.3187,38.6377 38.5,41.5C 38.5,41.8333 38.5,42.1667 38.5,42.5C 38.1667,42.5 37.8333,42.5 37.5,42.5C 36.8333,42.5 36.5,42.1667 36.5,41.5C 35.1288,38.3435 35.4621,35.3435 37.5,32.5 Z"/></g>
    <g><path style="opacity:1" fill="#b07b17" d="M 41.5,33.5 C 41.5,33.8333 41.5,34.1667 41.5,34.5C 40.0366,37.4868 39.7032,40.4868 40.5,43.5C 39.5084,43.6716 38.8417,43.3382 38.5,42.5C 38.5,42.1667 38.5,41.8333 38.5,41.5C 38.0181,38.1694 39.0181,35.5027 41.5,33.5 Z"/></g>
    <g><path style="opacity:1" fill="#9a691d" d="M 47.5,34.5 C 47.5,35.1667 47.5,35.8333 47.5,36.5C 47.3003,39.6296 46.6336,42.6296 45.5,45.5C 44.3709,43.3718 44.2042,41.0385 45,38.5C 45.2004,36.6803 46.0337,35.347 47.5,34.5 Z"/></g>
    <g><path style="opacity:1" fill="#9a6a25" d="M 47.5,36.5 C 48.1667,36.5 48.8333,36.5 49.5,36.5C 49.5,37.8333 49.5,39.1667 49.5,40.5C 49.2927,43.2406 48.2927,45.5739 46.5,47.5C 45.8333,47.5 45.5,47.1667 45.5,46.5C 45.5,46.1667 45.5,45.8333 45.5,45.5C 46.6336,42.6296 47.3003,39.6296 47.5,36.5 Z"/></g>
    <g><path style="opacity:1" fill="#e8d48c" d="M 6.5,36.5 C 11.0638,37.2162 15.7305,37.8829 20.5,38.5C 20.8333,38.5 21.1667,38.5 21.5,38.5C 15.6298,39.7662 9.62979,39.7662 3.5,38.5C 4.29049,37.5987 5.29049,36.9321 6.5,36.5 Z"/></g>
    <g><path style="opacity:1" fill="#e7cf7c" d="M 3.5,38.5 C 9.62979,39.7662 15.6298,39.7662 21.5,38.5C 22.609,38.5569 23.609,38.8902 24.5,39.5C 24.8333,39.5 25.1667,39.5 25.5,39.5C 21.7016,40.4834 17.7016,40.8168 13.5,40.5C 9.67065,41.069 6.33732,40.4023 3.5,38.5 Z"/></g>
    <g><path style="opacity:1" fill="#e4ca6c" d="M 3.5,38.5 C 6.33732,40.4023 9.67065,41.069 13.5,40.5C 13.5,40.8333 13.5,41.1667 13.5,41.5C 9.5,41.5 5.5,41.5 1.5,41.5C 1.42702,39.9731 2.09368,38.9731 3.5,38.5 Z"/></g>
    <g><path style="opacity:1" fill="#e1c465" d="M 25.5,39.5 C 26.391,40.1098 27.391,40.4431 28.5,40.5C 23.6946,41.4872 18.6946,41.8205 13.5,41.5C 13.5,41.1667 13.5,40.8333 13.5,40.5C 17.7016,40.8168 21.7016,40.4834 25.5,39.5 Z"/></g>
    <g><path style="opacity:1" fill="#d9b74a" d="M 28.5,40.5 C 29.1667,40.8333 29.8333,41.1667 30.5,41.5C 19.9644,42.0339 11.9644,42.7005 6.5,43.5C 6.5,43.8333 6.5,44.1667 6.5,44.5C 4.5,44.5 2.5,44.5 0.5,44.5C 0.262695,43.209 0.596028,42.209 1.5,41.5C 5.5,41.5 9.5,41.5 13.5,41.5C 18.6946,41.8205 23.6946,41.4872 28.5,40.5 Z"/></g>
    <g><path style="opacity:1" fill="#ab7519" d="M 41.5,34.5 C 41.8333,34.5 42.1667,34.5 42.5,34.5C 42.5,35.5 42.5,36.5 42.5,37.5C 41.1667,39.8333 41.1667,42.1667 42.5,44.5C 41.8333,44.5 41.1667,44.5 40.5,44.5C 40.5,44.1667 40.5,43.8333 40.5,43.5C 39.7032,40.4868 40.0366,37.4868 41.5,34.5 Z"/></g>
    <g><path style="opacity:1" fill="#d2aa2c" d="M 31.5,40.5 C 32.1667,40.5 32.8333,40.5 33.5,40.5C 33.8333,40.5 34.1667,40.5 34.5,40.5C 34.8417,41.3382 35.5084,41.6716 36.5,41.5C 36.5,42.1667 36.8333,42.5 37.5,42.5C 27.3468,43.4942 17.0135,43.8276 6.5,43.5C 11.9644,42.7005 19.9644,42.0339 30.5,41.5C 31.1667,41.5 31.5,41.1667 31.5,40.5 Z"/></g>
    <g><path style="opacity:1" fill="#c99e24" d="M 37.5,42.5 C 37.8333,42.5 38.1667,42.5 38.5,42.5C 38.8417,43.3382 39.5084,43.6716 40.5,43.5C 40.5,43.8333 40.5,44.1667 40.5,44.5C 39.8333,44.5 39.1667,44.5 38.5,44.5C 31.1667,44.5 23.8333,44.5 16.5,44.5C 15.1667,44.5 13.8333,44.5 12.5,44.5C 10.5,44.5 8.5,44.5 6.5,44.5C 6.5,44.1667 6.5,43.8333 6.5,43.5C 17.0135,43.8276 27.3468,43.4942 37.5,42.5 Z"/></g>
    <g><path style="opacity:1" fill="#c1a067" d="M 0.5,45.5 C 4.37141,45.185 8.03808,45.5184 11.5,46.5C 10.8333,46.5 10.1667,46.5 9.5,46.5C 9.16667,46.5 8.83333,46.5 8.5,46.5C 5.98143,48.3591 5.98143,50.3591 8.5,52.5C 4.6194,51.5589 1.95274,49.2256 0.5,45.5 Z"/></g>
    <g><path style="opacity:1" fill="#bc9645" d="M 0.5,45.5 C 0.5,45.1667 0.5,44.8333 0.5,44.5C 2.5,44.5 4.5,44.5 6.5,44.5C 8.5,44.5 10.5,44.5 12.5,44.5C 14.5,45.5 16.5,46.5 18.5,47.5C 17.1667,47.5 15.8333,47.5 14.5,47.5C 13.791,46.596 12.791,46.2627 11.5,46.5C 8.03808,45.5184 4.37141,45.185 0.5,45.5 Z"/></g>
    <g><path style="opacity:1" fill="#bb8d19" d="M 16.5,44.5 C 23.8333,44.5 31.1667,44.5 38.5,44.5C 39.3065,45.7281 40.3065,46.7281 41.5,47.5C 40.5,47.5 39.5,47.5 38.5,47.5C 31.1048,46.9668 23.7714,45.9668 16.5,44.5 Z"/></g>
    <g><path style="opacity:1" fill="#b3851d" d="M 12.5,44.5 C 13.8333,44.5 15.1667,44.5 16.5,44.5C 23.7714,45.9668 31.1048,46.9668 38.5,47.5C 35.1667,47.5 31.8333,47.5 28.5,47.5C 25.1667,47.5 21.8333,47.5 18.5,47.5C 16.5,46.5 14.5,45.5 12.5,44.5 Z"/></g>
    <g><path style="opacity:1" fill="#a0763d" d="M 51.5,39.5 C 50.5178,42.7635 49.8511,46.0968 49.5,49.5C 49.0623,50.5063 48.3957,50.5063 47.5,49.5C 47.1667,48.8333 46.8333,48.1667 46.5,47.5C 48.2927,45.5739 49.2927,43.2406 49.5,40.5C 50.1667,40.1667 50.8333,39.8333 51.5,39.5 Z"/></g>
    <g><path style="opacity:1" fill="#994e0a" d="M 13.5,47.5 C 13.8333,47.5 14.1667,47.5 14.5,47.5C 15.8333,47.5 17.1667,47.5 18.5,47.5C 18.5,48.1667 18.8333,48.5 19.5,48.5C 19.1667,49.1667 18.8333,49.8333 18.5,50.5C 16.326,50.2503 14.6594,49.2503 13.5,47.5 Z"/></g>
    <g><path style="opacity:1" fill="#ad7f23" d="M 18.5,47.5 C 21.8333,47.5 25.1667,47.5 28.5,47.5C 28.8417,48.3382 29.5084,48.6716 30.5,48.5C 30.5,49.8333 29.8333,50.5 28.5,50.5C 27.5,50.5 26.5,50.5 25.5,50.5C 23.6976,49.5418 21.6976,48.8751 19.5,48.5C 18.8333,48.5 18.5,48.1667 18.5,47.5 Z"/></g>
    <g><path style="opacity:1" fill="#c0973f" d="M 38.5,44.5 C 39.1667,44.5 39.8333,44.5 40.5,44.5C 41.1667,44.5 41.8333,44.5 42.5,44.5C 42.9731,45.9063 43.9731,46.573 45.5,46.5C 45.5,47.1667 45.8333,47.5 46.5,47.5C 46.8333,48.1667 47.1667,48.8333 47.5,49.5C 45.5,48.8333 43.5,48.1667 41.5,47.5C 40.3065,46.7281 39.3065,45.7281 38.5,44.5 Z"/></g>
    <g><path style="opacity:1" fill="#a3720e" d="M 28.5,47.5 C 31.8333,47.5 35.1667,47.5 38.5,47.5C 39.1667,48.1667 39.8333,48.8333 40.5,49.5C 37.8033,50.6303 35.1367,50.6303 32.5,49.5C 31.8333,49.1667 31.1667,48.8333 30.5,48.5C 29.5084,48.6716 28.8417,48.3382 28.5,47.5 Z"/></g>
    <g><path style="opacity:1" fill="#ae8029" d="M 38.5,47.5 C 39.5,47.5 40.5,47.5 41.5,47.5C 43.5,48.1667 45.5,48.8333 47.5,49.5C 48.3957,50.5063 49.0623,50.5063 49.5,49.5C 49.8333,49.5 50.1667,49.5 50.5,49.5C 50.5,50.1667 50.5,50.8333 50.5,51.5C 50.5,52.1667 50.5,52.8333 50.5,53.5C 49.8333,53.1667 49.1667,52.8333 48.5,52.5C 47.8333,52.5 47.5,52.1667 47.5,51.5C 45.4855,50.0762 43.1522,49.4095 40.5,49.5C 39.8333,48.8333 39.1667,48.1667 38.5,47.5 Z"/></g>
    <g><path style="opacity:1" fill="#b8904b" d="M 8.5,46.5 C 8.40027,49.1085 9.06694,51.4418 10.5,53.5C 9.50838,53.6716 8.84171,53.3382 8.5,52.5C 5.98143,50.3591 5.98143,48.3591 8.5,46.5 Z"/></g>
    <g><path style="opacity:1" fill="#a7781d" d="M 30.5,48.5 C 31.1667,48.8333 31.8333,49.1667 32.5,49.5C 33.6718,51.539 35.3384,52.8724 37.5,53.5C 36.8333,53.5 36.1667,53.5 35.5,53.5C 35.1667,53.5 34.8333,53.5 34.5,53.5C 32.4261,52.4861 30.4261,51.4861 28.5,50.5C 29.8333,50.5 30.5,49.8333 30.5,48.5 Z"/></g>
    <g><path style="opacity:1" fill="#ad7926" d="M 8.5,46.5 C 8.83333,46.5 9.16667,46.5 9.5,46.5C 10.3159,50.9843 12.9826,53.3176 17.5,53.5C 17.6309,54.3764 17.2975,55.0431 16.5,55.5C 14.5504,54.6279 12.5504,53.9612 10.5,53.5C 9.06694,51.4418 8.40027,49.1085 8.5,46.5 Z"/></g>
    <g><path style="opacity:1" fill="#a46617" d="M 9.5,46.5 C 10.1667,46.5 10.8333,46.5 11.5,46.5C 12.791,46.2627 13.791,46.596 14.5,47.5C 14.1667,47.5 13.8333,47.5 13.5,47.5C 11.5096,47.9931 11.5096,49.1598 13.5,51C 15.1341,51.4935 16.8008,51.6602 18.5,51.5C 18.5,51.8333 18.5,52.1667 18.5,52.5C 17.8333,52.5 17.5,52.8333 17.5,53.5C 12.9826,53.3176 10.3159,50.9843 9.5,46.5 Z"/></g>
    <g><path style="opacity:1" fill="#a05b0c" d="M 13.5,47.5 C 14.6594,49.2503 16.326,50.2503 18.5,50.5C 20.099,50.2322 21.4324,50.5655 22.5,51.5C 21.1667,51.5 19.8333,51.5 18.5,51.5C 16.8008,51.6602 15.1341,51.4935 13.5,51C 11.5096,49.1598 11.5096,47.9931 13.5,47.5 Z"/></g>
    <g><path style="opacity:1" fill="#986916" d="M 44.5,51.5 C 43.5946,52.7024 43.5946,54.0357 44.5,55.5C 42.6203,55.7709 41.287,55.1042 40.5,53.5C 39.4019,52.603 39.4019,51.7697 40.5,51C 41.9285,50.4209 43.2618,50.5876 44.5,51.5 Z"/></g>
    <g><path style="opacity:1" fill="#a96c16" d="M 18.5,52.5 C 18.5,52.1667 18.5,51.8333 18.5,51.5C 19.8333,51.5 21.1667,51.5 22.5,51.5C 22.8417,52.3382 23.5084,52.6716 24.5,52.5C 25.1667,53.5 25.8333,54.5 26.5,55.5C 25.8333,55.5 25.1667,55.5 24.5,55.5C 24.1667,55.5 23.8333,55.5 23.5,55.5C 22.5994,53.2729 20.9328,52.2729 18.5,52.5 Z"/></g>
    <g><path style="opacity:1" fill="#a05406" d="M 19.5,48.5 C 21.6976,48.8751 23.6976,49.5418 25.5,50.5C 25.8333,51.1667 26.1667,51.8333 26.5,52.5C 25.8333,52.5 25.1667,52.5 24.5,52.5C 23.5084,52.6716 22.8417,52.3382 22.5,51.5C 21.4324,50.5655 20.099,50.2322 18.5,50.5C 18.8333,49.8333 19.1667,49.1667 19.5,48.5 Z"/></g>
    <g><path style="opacity:1" fill="#9e6f17" d="M 32.5,49.5 C 35.1367,50.6303 37.8033,50.6303 40.5,49.5C 43.1522,49.4095 45.4855,50.0762 47.5,51.5C 46.5,51.5 45.5,51.5 44.5,51.5C 43.2618,50.5876 41.9285,50.4209 40.5,51C 39.4019,51.7697 39.4019,52.603 40.5,53.5C 39.5,53.5 38.5,53.5 37.5,53.5C 35.3384,52.8724 33.6718,51.539 32.5,49.5 Z"/></g>
    <g><path style="opacity:1" fill="#994b04" d="M 25.5,50.5 C 26.5,50.5 27.5,50.5 28.5,50.5C 30.4261,51.4861 32.4261,52.4861 34.5,53.5C 34.1788,55.0481 33.1788,55.7148 31.5,55.5C 30.0351,54.2632 28.3684,53.2632 26.5,52.5C 26.1667,51.8333 25.8333,51.1667 25.5,50.5 Z"/></g>
    <g><path style="opacity:1" fill="#9c5a0a" d="M 24.5,52.5 C 25.1667,52.5 25.8333,52.5 26.5,52.5C 28.3684,53.2632 30.0351,54.2632 31.5,55.5C 30.8333,55.5 30.1667,55.5 29.5,55.5C 28.5,55.5 27.5,55.5 26.5,55.5C 25.8333,54.5 25.1667,53.5 24.5,52.5 Z"/></g>
    <g><path style="opacity:1" fill="#a2731d" d="M 35.5,53.5 C 36.1667,53.5 36.8333,53.5 37.5,53.5C 38.5,53.5 39.5,53.5 40.5,53.5C 41.287,55.1042 42.6203,55.7709 44.5,55.5C 45.1667,55.5 45.5,55.8333 45.5,56.5C 45.5,57.1667 45.5,57.8333 45.5,58.5C 44.8333,58.5 44.1667,58.5 43.5,58.5C 43.5,57.8333 43.1667,57.5 42.5,57.5C 41.8333,57.1667 41.1667,56.8333 40.5,56.5C 39.8333,56.1667 39.1667,55.8333 38.5,55.5C 37.2905,55.0679 36.2905,54.4013 35.5,53.5 Z"/></g>
    <g><path style="opacity:1" fill="#96681a" d="M 44.5,51.5 C 45.5,51.5 46.5,51.5 47.5,51.5C 47.5,52.1667 47.8333,52.5 48.5,52.5C 49.038,54.1172 49.3713,55.7839 49.5,57.5C 48.1667,57.1667 46.8333,56.8333 45.5,56.5C 45.5,55.8333 45.1667,55.5 44.5,55.5C 43.5946,54.0357 43.5946,52.7024 44.5,51.5 Z"/></g>
    <g><path style="opacity:1" fill="#b17e1f" d="M 17.5,53.5 C 17.5,52.8333 17.8333,52.5 18.5,52.5C 20.9328,52.2729 22.5994,53.2729 23.5,55.5C 23.7845,57.4147 23.4511,59.0813 22.5,60.5C 22.9236,56.9983 21.5902,54.665 18.5,53.5C 18.1667,53.5 17.8333,53.5 17.5,53.5 Z"/></g>
    <g><path style="opacity:1" fill="#a87925" d="M 23.5,55.5 C 23.8333,55.5 24.1667,55.5 24.5,55.5C 24.7691,58.0145 25.7691,60.0145 27.5,61.5C 28.1667,61.5 28.8333,61.5 29.5,61.5C 27.1667,62.8333 24.8333,62.8333 22.5,61.5C 22.5,61.1667 22.5,60.8333 22.5,60.5C 23.4511,59.0813 23.7845,57.4147 23.5,55.5 Z"/></g>
    <g><path style="opacity:1" fill="#a26e15" d="M 24.5,55.5 C 25.1667,55.5 25.8333,55.5 26.5,55.5C 27.1495,57.4352 27.4828,59.4352 27.5,61.5C 25.7691,60.0145 24.7691,58.0145 24.5,55.5 Z"/></g>
    <g><path style="opacity:1" fill="#9a6312" d="M 26.5,55.5 C 27.5,55.5 28.5,55.5 29.5,55.5C 29.9321,56.7095 30.5987,57.7095 31.5,58.5C 31.5,58.8333 31.5,59.1667 31.5,59.5C 30.5,59.8333 29.8333,60.5 29.5,61.5C 28.8333,61.5 28.1667,61.5 27.5,61.5C 27.4828,59.4352 27.1495,57.4352 26.5,55.5 Z"/></g>
    <g><path style="opacity:1" fill="#99530f" d="M 34.5,53.5 C 34.8333,53.5 35.1667,53.5 35.5,53.5C 36.2905,54.4013 37.2905,55.0679 38.5,55.5C 36.1667,56.8333 33.8333,56.8333 31.5,55.5C 33.1788,55.7148 34.1788,55.0481 34.5,53.5 Z"/></g>
    <g><path style="opacity:1" fill="#a2804e" d="M 50.5,51.5 C 52.6801,53.0313 53.6801,55.1979 53.5,58C 53.6932,60.0081 53.0265,61.5081 51.5,62.5C 51.81,59.2869 51.4767,56.2869 50.5,53.5C 50.5,52.8333 50.5,52.1667 50.5,51.5 Z"/></g>
    <g><path style="opacity:1" fill="#bd954b" d="M 10.5,53.5 C 12.5504,53.9612 14.5504,54.6279 16.5,55.5C 17.2975,55.0431 17.6309,54.3764 17.5,53.5C 17.8333,53.5 18.1667,53.5 18.5,53.5C 19.688,55.9885 21.0213,58.3218 22.5,60.5C 22.5,60.8333 22.5,61.1667 22.5,61.5C 18.8392,58.3354 14.8392,55.6688 10.5,53.5 Z"/></g>
    <g><path style="opacity:1" fill="#b88928" d="M 18.5,53.5 C 21.5902,54.665 22.9236,56.9983 22.5,60.5C 21.0213,58.3218 19.688,55.9885 18.5,53.5 Z"/></g>
    <g><path style="opacity:1" fill="#9c5c15" d="M 29.5,55.5 C 30.1667,55.5 30.8333,55.5 31.5,55.5C 33.8333,56.8333 36.1667,56.8333 38.5,55.5C 39.1667,55.8333 39.8333,56.1667 40.5,56.5C 37.5,57.1667 34.5,57.8333 31.5,58.5C 30.5987,57.7095 29.9321,56.7095 29.5,55.5 Z"/></g>
    <g><path style="opacity:1" fill="#9b6d1d" d="M 45.5,56.5 C 46.8333,56.8333 48.1667,57.1667 49.5,57.5C 49.573,59.0269 48.9063,60.0269 47.5,60.5C 46.5,60.1667 45.8333,59.5 45.5,58.5C 45.5,57.8333 45.5,57.1667 45.5,56.5 Z"/></g>
    <g><path style="opacity:1" fill="#a0641f" d="M 40.5,56.5 C 41.1667,56.8333 41.8333,57.1667 42.5,57.5C 40.3926,58.4682 38.0593,58.8016 35.5,58.5C 34.209,58.2627 33.209,58.596 32.5,59.5C 32.1667,59.5 31.8333,59.5 31.5,59.5C 31.5,59.1667 31.5,58.8333 31.5,58.5C 34.5,57.8333 37.5,57.1667 40.5,56.5 Z"/></g>
    <g><path style="opacity:1" fill="#996c26" d="M 48.5,52.5 C 49.1667,52.8333 49.8333,53.1667 50.5,53.5C 50.5,56.1667 50.5,58.8333 50.5,61.5C 49.5,61.5 48.5,61.5 47.5,61.5C 47.5,61.1667 47.5,60.8333 47.5,60.5C 48.9063,60.0269 49.573,59.0269 49.5,57.5C 49.3713,55.7839 49.038,54.1172 48.5,52.5 Z"/></g>
    <g><path style="opacity:1" fill="#9a7133" d="M 50.5,53.5 C 51.4767,56.2869 51.81,59.2869 51.5,62.5C 50.1667,62.5 48.8333,62.5 47.5,62.5C 47.5,62.1667 47.5,61.8333 47.5,61.5C 48.5,61.5 49.5,61.5 50.5,61.5C 50.5,58.8333 50.5,56.1667 50.5,53.5 Z"/></g>
    <g><path style="opacity:1" fill="#a26b1c" d="M 35.5,58.5 C 36.0577,59.7899 37.0577,60.6232 38.5,61C 37.2068,61.49 35.8734,61.6567 34.5,61.5C 33.1667,61.5 32.5,60.8333 32.5,59.5C 33.209,58.596 34.209,58.2627 35.5,58.5 Z"/></g>
    <g><path style="opacity:1" fill="#a36e26" d="M 42.5,57.5 C 43.1667,57.5 43.5,57.8333 43.5,58.5C 40.9017,59.4722 40.9017,60.4722 43.5,61.5C 40.5,62.8333 37.5,62.8333 34.5,61.5C 35.8734,61.6567 37.2068,61.49 38.5,61C 37.0577,60.6232 36.0577,59.7899 35.5,58.5C 38.0593,58.8016 40.3926,58.4682 42.5,57.5 Z"/></g>
    <g><path style="opacity:1" fill="#a77a3c" d="M 43.5,58.5 C 44.1667,58.5 44.8333,58.5 45.5,58.5C 45.8333,59.5 46.5,60.1667 47.5,60.5C 47.5,60.8333 47.5,61.1667 47.5,61.5C 47.5,61.8333 47.5,62.1667 47.5,62.5C 47.1667,62.5 46.8333,62.5 46.5,62.5C 45.391,62.4431 44.391,62.1098 43.5,61.5C 40.9017,60.4722 40.9017,59.4722 43.5,58.5 Z"/></g>
    <g><path style="opacity:1" fill="#a17636" d="M 31.5,59.5 C 31.8333,59.5 32.1667,59.5 32.5,59.5C 32.5,60.8333 33.1667,61.5 34.5,61.5C 37.5,62.8333 40.5,62.8333 43.5,61.5C 44.391,62.1098 45.391,62.4431 46.5,62.5C 44.0521,63.4731 41.3854,63.8064 38.5,63.5C 35.3033,63.5946 32.3033,62.9279 29.5,61.5C 29.8333,60.5 30.5,59.8333 31.5,59.5 Z"/></g>
    <g><path style="opacity:0.547" fill="#9b7648" d="M 46.5,62.5 C 46.8333,62.5 47.1667,62.5 47.5,62.5C 48.8333,62.5 50.1667,62.5 51.5,62.5C 51.3893,63.1174 51.056,63.6174 50.5,64C 46.3112,64.8119 42.3112,64.6453 38.5,63.5C 41.3854,63.8064 44.0521,63.4731 46.5,62.5 Z"/></g>
</svg>
