<?xml version="1.0" encoding="UTF-8"?>
<!DOCTYPE svg PUBLIC "-//W3C//DTD SVG 1.1//EN" "http://www.w3.org/Graphics/SVG/1.1/DTD/svg11.dtd">
<svg xmlns="http://www.w3.org/2000/svg" version="1.1" width="176px" height="188px" style="shape-rendering:geometricPrecision; text-rendering:geometricPrecision; image-rendering:optimizeQuality; fill-rule:evenodd; clip-rule:evenodd" xmlns:xlink="http://www.w3.org/1999/xlink">
<g><path style="opacity:0.961" fill="#ded8ef" d="M 99.5,-0.5 C 102.833,-0.5 106.167,-0.5 109.5,-0.5C 111.349,0.593015 113.016,1.92635 114.5,3.5C 111.813,3.33591 109.146,3.50258 106.5,4C 102.05,6.61928 98.0496,9.78594 94.5,13.5C 93.267,11.2036 91.267,9.87025 88.5,9.5C 91.5425,5.45643 95.2092,2.12309 99.5,-0.5 Z"/></g>
<g><path style="opacity:0.977" fill="#f4f2f9" d="M 114.5,3.5 C 117.091,4.25429 118.924,5.92096 120,8.5C 121.237,12.0601 121.737,15.7267 121.5,19.5C 116.239,23.297 110.572,26.297 104.5,28.5C 104.666,23.1563 104.499,17.8229 104,12.5C 103.282,11.5494 102.449,11.3828 101.5,12C 100.522,18.4102 100.189,24.9102 100.5,31.5C 96.4828,34.2671 92.3161,36.9337 88,39.5C 87.5026,36.854 87.3359,34.1873 87.5,31.5C 88.7365,25.0343 91.0699,19.0343 94.5,13.5C 98.0496,9.78594 102.05,6.61928 106.5,4C 109.146,3.50258 111.813,3.33591 114.5,3.5 Z"/></g>
<g><path style="opacity:0.978" fill="#eaca9f" d="M 72.5,17.5 C 57.531,26.9895 42.1977,35.9895 26.5,44.5C 26.1667,44.5 25.8333,44.5 25.5,44.5C 18.4725,41.3231 11.8059,37.6565 5.5,33.5C 20.8272,23.6965 36.3272,14.0298 52,4.5C 59.0071,8.69641 65.8404,13.0297 72.5,17.5 Z"/></g>
<g><path style="opacity:1" fill="#534878" d="M 104.5,28.5 C 106.367,30.9086 108.534,33.2419 111,35.5C 111.781,36.9437 111.614,38.277 110.5,39.5C 107.393,36.3756 104.059,33.709 100.5,31.5C 100.189,24.9102 100.522,18.4102 101.5,12C 102.449,11.3828 103.282,11.5494 104,12.5C 104.499,17.8229 104.666,23.1563 104.5,28.5 Z"/></g>
<g><path style="opacity:1" fill="#fd4a58" d="M 72.5,17.5 C 75.6071,18.5527 78.6071,19.886 81.5,21.5C 81.7214,24.2788 81.388,26.9455 80.5,29.5C 66.6989,36.9012 53.0322,44.5679 39.5,52.5C 39.1667,52.5 38.8333,52.5 38.5,52.5C 33.7369,50.7986 29.7369,48.1319 26.5,44.5C 42.1977,35.9895 57.531,26.9895 72.5,17.5 Z"/></g>
<g><path style="opacity:0.997" fill="#ae9ce9" d="M 88.5,9.5 C 91.267,9.87025 93.267,11.2036 94.5,13.5C 91.0699,19.0343 88.7365,25.0343 87.5,31.5C 85.5925,38.2234 86.5925,44.5567 90.5,50.5C 85.0233,48.6939 81.69,45.0272 80.5,39.5C 80.5,36.1667 80.5,32.8333 80.5,29.5C 81.388,26.9455 81.7214,24.2788 81.5,21.5C 83.315,17.2042 85.6483,13.2042 88.5,9.5 Z"/></g>
<g><path style="opacity:1" fill="#e9c79d" d="M 80.5,29.5 C 80.5,32.8333 80.5,36.1667 80.5,39.5C 80.5,43.5 80.5,47.5 80.5,51.5C 79.8485,50.9094 79.1818,50.2427 78.5,49.5C 70.8603,54.2354 63.0269,58.5687 55,62.5C 49.53,59.5225 44.3633,56.1892 39.5,52.5C 53.0322,44.5679 66.6989,36.9012 80.5,29.5 Z"/></g>
<g><path style="opacity:1" fill="#e4e0f0" d="M 121.5,19.5 C 121.071,30.6864 117.071,40.3531 109.5,48.5C 105.53,50.9799 101.197,52.6465 96.5,53.5C 93.8984,53.5328 91.8984,52.5328 90.5,50.5C 86.5925,44.5567 85.5925,38.2234 87.5,31.5C 87.3359,34.1873 87.5026,36.854 88,39.5C 92.3161,36.9337 96.4828,34.2671 100.5,31.5C 104.059,33.709 107.393,36.3756 110.5,39.5C 111.614,38.277 111.781,36.9437 111,35.5C 108.534,33.2419 106.367,30.9086 104.5,28.5C 110.572,26.297 116.239,23.297 121.5,19.5 Z"/></g>
<g><path style="opacity:1" fill="#ad2f38" d="M 25.5,44.5 C 25.8333,44.5 26.1667,44.5 26.5,44.5C 29.7369,48.1319 33.7369,50.7986 38.5,52.5C 38.8226,56.226 38.4892,59.8927 37.5,63.5C 33.5834,61.2922 29.75,58.9589 26,56.5C 25.5012,52.5138 25.3345,48.5138 25.5,44.5 Z"/></g>
<g><path style="opacity:0.998" fill="#e6c08d" d="M 5.5,33.5 C 11.8059,37.6565 18.4725,41.3231 25.5,44.5C 25.3345,48.5138 25.5012,52.5138 26,56.5C 29.75,58.9589 33.5834,61.2922 37.5,63.5C 38.4892,59.8927 38.8226,56.226 38.5,52.5C 38.8333,52.5 39.1667,52.5 39.5,52.5C 44.3633,56.1892 49.53,59.5225 55,62.5C 63.0269,58.5687 70.8603,54.2354 78.5,49.5C 79.1818,50.2427 79.8485,50.9094 80.5,51.5C 80.5,51.8333 80.5,52.1667 80.5,52.5C 73.7215,56.1058 67.0548,59.9392 60.5,64C 59.8288,64.9862 59.8288,66.1529 60.5,67.5C 41.4238,67.82 22.4238,67.4867 3.5,66.5C 3.16667,66.5 2.83333,66.5 2.5,66.5C 2.33351,56.1613 2.50017,45.828 3,35.5C 3.41691,34.244 4.25025,33.5774 5.5,33.5 Z"/></g>
<g><path style="opacity:1" fill="#906556" d="M 80.5,39.5 C 81.69,45.0272 85.0233,48.6939 90.5,50.5C 91.8984,52.5328 93.8984,53.5328 96.5,53.5C 101.197,52.6465 105.53,50.9799 109.5,48.5C 109.5,49.5 109.5,50.5 109.5,51.5C 107.211,53.448 104.878,55.448 102.5,57.5C 95.5,57.5 88.5,57.5 81.5,57.5C 81.3713,55.7839 81.038,54.1172 80.5,52.5C 80.5,52.1667 80.5,51.8333 80.5,51.5C 80.5,47.5 80.5,43.5 80.5,39.5 Z"/></g>
<g><path style="opacity:0.992" fill="#fe7a85" d="M 109.5,57.5 C 116.671,61.2505 123.671,65.2505 130.5,69.5C 128.821,69.8923 127.154,70.3923 125.5,71C 114.599,77.6136 103.599,83.947 92.5,90C 90.6022,91.417 88.9355,92.917 87.5,94.5C 80.5,90.5 73.5,86.5 66.5,82.5C 80.5723,73.7707 94.9056,65.4374 109.5,57.5 Z"/></g>
<g><path style="opacity:1" fill="#bd8b5a" d="M 81.5,57.5 C 88.5,57.5 95.5,57.5 102.5,57.5C 98.2707,63.2044 92.6041,65.0377 85.5,63C 84.2899,61.9609 83.2899,60.7942 82.5,59.5C 82.1667,58.8333 81.8333,58.1667 81.5,57.5 Z"/></g>
<g><path style="opacity:1" fill="#dea762" d="M 109.5,51.5 C 109.5,53.5 109.5,55.5 109.5,57.5C 94.9056,65.4374 80.5723,73.7707 66.5,82.5C 64.9382,82.7329 63.6049,83.3995 62.5,84.5C 62.1734,79.7863 62.5067,75.1196 63.5,70.5C 70.0244,67.0742 76.3577,63.4075 82.5,59.5C 83.2899,60.7942 84.2899,61.9609 85.5,63C 92.6041,65.0377 98.2707,63.2044 102.5,57.5C 104.878,55.448 107.211,53.448 109.5,51.5 Z"/></g>
<g><path style="opacity:1" fill="#fe8a93" d="M 130.5,69.5 C 132.975,71.7703 134.975,74.437 136.5,77.5C 129.223,78.2905 122.889,81.1239 117.5,86C 112.81,87.1698 108.81,89.5031 105.5,93C 100.578,94.5937 96.2443,97.0937 92.5,100.5C 90.8437,98.5398 89.177,96.5398 87.5,94.5C 88.9355,92.917 90.6022,91.417 92.5,90C 103.599,83.947 114.599,77.6136 125.5,71C 127.154,70.3923 128.821,69.8923 130.5,69.5 Z"/></g>
<g><path style="opacity:0.997" fill="#e3b67b" d="M 80.5,52.5 C 81.038,54.1172 81.3713,55.7839 81.5,57.5C 81.8333,58.1667 82.1667,58.8333 82.5,59.5C 76.3577,63.4075 70.0244,67.0742 63.5,70.5C 62.5067,75.1196 62.1734,79.7863 62.5,84.5C 62.6665,96.1714 62.4999,107.838 62,119.5C 61.4387,120.022 60.772,120.355 60,120.5C 44.0688,111.453 28.2354,102.286 12.5,93C 10.3496,91.5886 8.01632,90.7553 5.5,90.5C 4.19947,89.1184 3.36614,87.4517 3,85.5C 2.50046,79.1754 2.33379,72.8421 2.5,66.5C 2.83333,66.5 3.16667,66.5 3.5,66.5C 3.20299,70.7675 3.53632,74.9341 4.5,79C 23.4971,79.4999 42.4971,79.6666 61.5,79.5C 61.8168,75.2984 61.4834,71.2984 60.5,67.5C 59.8288,66.1529 59.8288,64.9862 60.5,64C 67.0548,59.9392 73.7215,56.1058 80.5,52.5 Z"/></g>
<g><path style="opacity:0.998" fill="#e5bc86" d="M 3.5,66.5 C 22.4238,67.4867 41.4238,67.82 60.5,67.5C 61.4834,71.2984 61.8168,75.2984 61.5,79.5C 42.4971,79.6666 23.4971,79.4999 4.5,79C 3.53632,74.9341 3.20299,70.7675 3.5,66.5 Z"/></g>
<g><path style="opacity:1" fill="#745db3" d="M 133.5,80.5 C 136.592,89.6229 138.926,98.9563 140.5,108.5C 127.01,109.496 113.344,109.829 99.5,109.5C 98.1951,106.947 97.1951,104.28 96.5,101.5C 108.338,93.7442 120.672,86.7442 133.5,80.5 Z"/></g>
<g><path style="opacity:0.996" fill="#fd4a5a" d="M 136.5,79.5 C 140.039,89.8369 142.706,100.504 144.5,111.5C 143.609,112.11 142.609,112.443 141.5,112.5C 141.768,110.901 141.434,109.568 140.5,108.5C 138.926,98.9563 136.592,89.6229 133.5,80.5C 134.209,79.596 135.209,79.2627 136.5,79.5 Z"/></g>
<g><path style="opacity:1" fill="#fb6977" d="M 136.5,77.5 C 136.5,78.1667 136.5,78.8333 136.5,79.5C 135.209,79.2627 134.209,79.596 133.5,80.5C 120.672,86.7442 108.338,93.7442 96.5,101.5C 95.391,101.557 94.391,101.89 93.5,102.5C 92.6618,102.158 92.3284,101.492 92.5,100.5C 96.2443,97.0937 100.578,94.5937 105.5,93C 108.81,89.5031 112.81,87.1698 117.5,86C 122.889,81.1239 129.223,78.2905 136.5,77.5 Z"/></g>
<g><path style="opacity:1" fill="#66539f" d="M 67.5,88.5 C 72.938,91.0534 78.2713,93.8867 83.5,97C 87.5613,100.623 89.8946,105.123 90.5,110.5C 90.5,111.167 90.5,111.833 90.5,112.5C 90.5654,112.938 90.3988,113.272 90,113.5C 82.7599,109.81 75.2599,106.81 67.5,104.5C 67.5,99.1667 67.5,93.8333 67.5,88.5 Z"/></g>
<g><path style="opacity:1" fill="#f74758" d="M 96.5,101.5 C 97.1951,104.28 98.1951,106.947 99.5,109.5C 100.852,117.573 102.519,125.573 104.5,133.5C 104.027,134.906 103.027,135.573 101.5,135.5C 99.285,127.528 97.285,119.528 95.5,111.5C 94.99,108.461 94.3234,105.461 93.5,102.5C 94.391,101.89 95.391,101.557 96.5,101.5 Z"/></g>
<g><path style="opacity:0.995" fill="#fd7984" d="M 144.5,111.5 C 152.095,116.758 159.095,122.758 165.5,129.5C 163.072,130.212 160.739,131.212 158.5,132.5C 156.325,135.279 153.658,137.446 150.5,139C 143.792,141.187 137.459,144.187 131.5,148C 129.328,150.17 127.328,152.503 125.5,155C 124.552,155.483 123.552,155.649 122.5,155.5C 116.157,149.158 109.491,143.158 102.5,137.5C 102.167,136.833 101.833,136.167 101.5,135.5C 103.027,135.573 104.027,134.906 104.5,133.5C 117.328,127.256 129.662,120.256 141.5,112.5C 142.609,112.443 143.609,112.11 144.5,111.5 Z"/></g>
<g><path style="opacity:1" fill="#5c4b89" d="M 41.5,127.5 C 39.9582,126.699 38.2915,126.366 36.5,126.5C 36.8016,129.059 36.4682,131.393 35.5,133.5C 33.9778,130.971 32.3112,128.471 30.5,126C 28.8659,125.506 27.1992,125.34 25.5,125.5C 26.533,119.741 29.033,119.074 33,123.5C 33.5074,122.004 33.0074,120.837 31.5,120C 27.5168,118.752 25.1835,120.086 24.5,124C 24.8219,127.148 25.8219,129.981 27.5,132.5C 25.1667,132.5 22.8333,132.5 20.5,132.5C 19.2066,129.321 18.5399,125.988 18.5,122.5C 17.3803,113.789 21.047,109.956 29.5,111C 35.8185,114.8 39.8185,120.3 41.5,127.5 Z"/></g>
<g><path style="opacity:1" fill="#53417d" d="M 67.5,88.5 C 67.5,93.8333 67.5,99.1667 67.5,104.5C 75.2599,106.81 82.7599,109.81 90,113.5C 90.3988,113.272 90.5654,112.938 90.5,112.5C 93.2458,118.822 94.7458,125.489 95,132.5C 87.0502,127.442 78.8835,122.775 70.5,118.5C 69.7387,117.609 68.7387,116.942 67.5,116.5C 66.1778,107.008 66.1778,97.6749 67.5,88.5 Z"/></g>
<g><path style="opacity:1" fill="#564584" d="M 140.5,108.5 C 141.434,109.568 141.768,110.901 141.5,112.5C 129.662,120.256 117.328,127.256 104.5,133.5C 102.519,125.573 100.852,117.573 99.5,109.5C 113.344,109.829 127.01,109.496 140.5,108.5 Z"/></g>
<g><path style="opacity:1" fill="#c13440" d="M 66.5,82.5 C 73.5,86.5 80.5,90.5 87.5,94.5C 89.177,96.5398 90.8437,98.5398 92.5,100.5C 92.3284,101.492 92.6618,102.158 93.5,102.5C 94.3234,105.461 94.99,108.461 95.5,111.5C 93.7085,111.634 92.0418,111.301 90.5,110.5C 89.8946,105.123 87.5613,100.623 83.5,97C 78.2713,93.8867 72.938,91.0534 67.5,88.5C 66.1778,97.6749 66.1778,107.008 67.5,116.5C 68.7387,116.942 69.7387,117.609 70.5,118.5C 70.1667,119.167 69.8333,119.833 69.5,120.5C 68.5,120.5 67.5,120.5 66.5,120.5C 66.3505,121.552 66.5172,122.552 67,123.5C 68.6667,124.733 70.1667,126.067 71.5,127.5C 61.5,127.5 51.5,127.5 41.5,127.5C 39.8185,120.3 35.8185,114.8 29.5,111C 21.047,109.956 17.3803,113.789 18.5,122.5C 7.54973,114.674 3.2164,104.007 5.5,90.5C 8.01632,90.7553 10.3496,91.5886 12.5,93C 28.2354,102.286 44.0688,111.453 60,120.5C 60.772,120.355 61.4387,120.022 62,119.5C 62.4999,107.838 62.6665,96.1714 62.5,84.5C 63.6049,83.3995 64.9382,82.7329 66.5,82.5 Z"/></g>
<g><path style="opacity:1" fill="#e0d2e9" d="M 69.5,120.5 C 70.7653,121.479 72.0986,122.479 73.5,123.5C 74.4287,124.689 74.762,126.022 74.5,127.5C 73.5,127.5 72.5,127.5 71.5,127.5C 70.1667,126.067 68.6667,124.733 67,123.5C 66.5172,122.552 66.3505,121.552 66.5,120.5C 67.5,120.5 68.5,120.5 69.5,120.5 Z"/></g>
<g><path style="opacity:1" fill="#afa2db" d="M 35.5,133.5 C 35.5824,135.252 34.7491,136.252 33,136.5C 30.4945,136.006 28.6612,134.672 27.5,132.5C 25.8219,129.981 24.8219,127.148 24.5,124C 25.1835,120.086 27.5168,118.752 31.5,120C 33.0074,120.837 33.5074,122.004 33,123.5C 29.033,119.074 26.533,119.741 25.5,125.5C 27.1992,125.34 28.8659,125.506 30.5,126C 32.3112,128.471 33.9778,130.971 35.5,133.5 Z"/></g>
<g><path style="opacity:1" fill="#b22f3a" d="M 90.5,110.5 C 92.0418,111.301 93.7085,111.634 95.5,111.5C 97.285,119.528 99.285,127.528 101.5,135.5C 101.833,136.167 102.167,136.833 102.5,137.5C 83.5,137.5 64.5,137.5 45.5,137.5C 44.5041,137.586 43.6708,137.252 43,136.5C 42.7411,133.413 42.2411,130.413 41.5,127.5C 51.5,127.5 61.5,127.5 71.5,127.5C 72.5,127.5 73.5,127.5 74.5,127.5C 74.762,126.022 74.4287,124.689 73.5,123.5C 72.0986,122.479 70.7653,121.479 69.5,120.5C 69.8333,119.833 70.1667,119.167 70.5,118.5C 78.8835,122.775 87.0502,127.442 95,132.5C 94.7458,125.489 93.2458,118.822 90.5,112.5C 90.5,111.833 90.5,111.167 90.5,110.5 Z"/></g>
<g><path style="opacity:0.975" fill="#473a6f" d="M 41.5,127.5 C 42.2411,130.413 42.7411,133.413 43,136.5C 43.6708,137.252 44.5041,137.586 45.5,137.5C 46.1667,138.5 46.8333,139.5 47.5,140.5C 44.0392,141.731 40.7059,143.231 37.5,145C 29.2643,144.63 23.5977,140.463 20.5,132.5C 22.8333,132.5 25.1667,132.5 27.5,132.5C 28.6612,134.672 30.4945,136.006 33,136.5C 34.7491,136.252 35.5824,135.252 35.5,133.5C 36.4682,131.393 36.8016,129.059 36.5,126.5C 38.2915,126.366 39.9582,126.699 41.5,127.5 Z"/></g>
<g><path style="opacity:0.995" fill="#ab2d39" d="M 167.5,133.5 C 169.118,136.171 169.785,139.171 169.5,142.5C 155.393,150.056 141.393,157.889 127.5,166C 126.54,169.73 126.207,173.563 126.5,177.5C 124.254,176.545 121.921,175.878 119.5,175.5C 119.5,177.167 119.5,178.833 119.5,180.5C 118.504,180.586 117.671,180.252 117,179.5C 116.529,169.726 112.696,161.559 105.5,155C 100.334,151.168 96.1672,152.002 93,157.5C 92.8171,160.365 92.3171,163.031 91.5,165.5C 76.8333,157.167 62.1667,148.833 47.5,140.5C 46.8333,139.5 46.1667,138.5 45.5,137.5C 64.5,137.5 83.5,137.5 102.5,137.5C 109.491,143.158 116.157,149.158 122.5,155.5C 123.614,156.885 124.614,158.385 125.5,160C 126.5,160.667 127.5,160.667 128.5,160C 136.298,155.036 143.965,149.869 151.5,144.5C 155.645,142.426 159.979,140.926 164.5,140C 166.451,138.266 167.451,136.099 167.5,133.5 Z"/></g>
<g><path style="opacity:1" fill="#e05d68" d="M 165.5,129.5 C 166.167,130.833 166.833,132.167 167.5,133.5C 167.451,136.099 166.451,138.266 164.5,140C 159.979,140.926 155.645,142.426 151.5,144.5C 143.965,149.869 136.298,155.036 128.5,160C 127.5,160.667 126.5,160.667 125.5,160C 124.614,158.385 123.614,156.885 122.5,155.5C 123.552,155.649 124.552,155.483 125.5,155C 127.328,152.503 129.328,150.17 131.5,148C 137.459,144.187 143.792,141.187 150.5,139C 153.658,137.446 156.325,135.279 158.5,132.5C 160.739,131.212 163.072,130.212 165.5,129.5 Z"/></g>
<g><path style="opacity:1" fill="#54457e" d="M 169.5,142.5 C 169.5,145.167 169.5,147.833 169.5,150.5C 169.67,151.822 169.337,152.989 168.5,154C 161.106,157.689 154.106,161.856 147.5,166.5C 140.658,170.422 133.658,174.088 126.5,177.5C 126.207,173.563 126.54,169.73 127.5,166C 141.393,157.889 155.393,150.056 169.5,142.5 Z"/></g>
<g><path style="opacity:1" fill="#d2cbe9" d="M 158.5,149.5 C 159.496,149.414 160.329,149.748 161,150.5C 162.328,155.338 160.494,157.671 155.5,157.5C 155.394,154.385 156.394,151.719 158.5,149.5 Z"/></g>
<g><path style="opacity:1" fill="#ddd8ef" d="M 165.5,145.5 C 167.484,145.484 168.484,146.484 168.5,148.5C 168.159,151.187 166.826,153.187 164.5,154.5C 163.119,154 162.453,153 162.5,151.5C 162.984,149.199 163.984,147.199 165.5,145.5 Z"/></g>
<g><path style="opacity:0.955" fill="#e3ddf4" d="M 169.5,150.5 C 172.833,154.01 173.333,158.01 171,162.5C 163.222,167.304 155.388,171.971 147.5,176.5C 147.5,173.167 147.5,169.833 147.5,166.5C 154.106,161.856 161.106,157.689 168.5,154C 169.337,152.989 169.67,151.822 169.5,150.5 Z"/></g>
<g><path style="opacity:1" fill="#dbd5ee" d="M 136.5,162.5 C 141.411,163.876 141.744,166.376 137.5,170C 136.552,170.483 135.552,170.649 134.5,170.5C 134.283,167.579 134.949,164.913 136.5,162.5 Z"/></g>
<g><path style="opacity:1" fill="#dad4ed" d="M 129.5,166.5 C 134.411,167.876 134.744,170.376 130.5,174C 129.552,174.483 128.552,174.649 127.5,174.5C 127.283,171.579 127.949,168.913 129.5,166.5 Z"/></g>
<g><path style="opacity:0.966" fill="#4c3e77" d="M 119.5,180.5 C 119.5,181.5 119.5,182.5 119.5,183.5C 117.118,184.351 115.118,185.684 113.5,187.5C 110.5,187.5 107.5,187.5 104.5,187.5C 97.097,182.034 92.7637,174.701 91.5,165.5C 92.3171,163.031 92.8171,160.365 93,157.5C 96.1672,152.002 100.334,151.168 105.5,155C 112.696,161.559 116.529,169.726 117,179.5C 117.671,180.252 118.504,180.586 119.5,180.5 Z"/></g>
<g><path style="opacity:1" fill="#ab9ed9" d="M 105.5,163.5 C 110.044,167.302 111.21,171.968 109,177.5C 107.204,178.767 105.371,178.767 103.5,177.5C 98.455,172.987 97.455,167.82 100.5,162C 102.674,161.123 104.341,161.623 105.5,163.5 Z"/></g>
<g><path style="opacity:1" fill="#5f5094" d="M 105.5,163.5 C 106.072,165.255 106.906,166.922 108,168.5C 108.667,170.167 108.667,171.833 108,173.5C 104.179,170.389 103.345,167.056 105.5,163.5 Z"/></g>
<g><path style="opacity:0.957" fill="#cec4ec" d="M 147.5,166.5 C 147.5,169.833 147.5,173.167 147.5,176.5C 140.886,179.803 134.553,183.47 128.5,187.5C 127.167,187.5 125.833,187.5 124.5,187.5C 122.858,186.197 121.191,184.864 119.5,183.5C 119.5,182.5 119.5,181.5 119.5,180.5C 119.5,178.833 119.5,177.167 119.5,175.5C 121.921,175.878 124.254,176.545 126.5,177.5C 133.658,174.088 140.658,170.422 147.5,166.5 Z"/></g>
</svg>
