<?xml version="1.0" encoding="UTF-8"?>
<!DOCTYPE svg PUBLIC "-//W3C//DTD SVG 1.1//EN" "http://www.w3.org/Graphics/SVG/1.1/DTD/svg11.dtd">
<svg xmlns="http://www.w3.org/2000/svg" version="1.1" width="170px" height="172px" style="shape-rendering:geometricPrecision; text-rendering:geometricPrecision; image-rendering:optimizeQuality; fill-rule:evenodd; clip-rule:evenodd" xmlns:xlink="http://www.w3.org/1999/xlink">
    <g><path style="opacity:0.961" fill="#fec955" d="M 116.5,30.5 C 100.545,19.2318 83.2114,16.7318 64.5,23C 60.0834,24.9331 56.0834,27.4331 52.5,30.5C 53.5438,10.4637 64.2105,0.797 84.5,1.5C 104.751,0.756284 115.418,10.423 116.5,30.5 Z"/></g>
    <g><path style="opacity:1" fill="#fce096" d="M 116.5,30.5 C 116.5,30.8333 116.5,31.1667 116.5,31.5C 114.855,32.4787 113.521,33.812 112.5,35.5C 111.393,36.0219 110.226,36.3552 109,36.5C 104.584,34.8611 100.084,33.5278 95.5,32.5C 94.4324,31.5655 93.099,31.2322 91.5,31.5C 80.3505,30.3742 69.6839,32.0409 59.5,36.5C 58.5,36.3333 57.5,36.1667 56.5,36C 55.2668,34.3333 53.9335,32.8333 52.5,31.5C 52.5,31.1667 52.5,30.8333 52.5,30.5C 56.0834,27.4331 60.0834,24.9331 64.5,23C 83.2114,16.7318 100.545,19.2318 116.5,30.5 Z"/></g>
    <g><path style="opacity:0.978" fill="#53332f" d="M 52.5,31.5 C 53.9335,32.8333 55.2668,34.3333 56.5,36C 57.5,36.1667 58.5,36.3333 59.5,36.5C 69.6839,32.0409 80.3505,30.3742 91.5,31.5C 86.6561,37.8288 80.3228,41.9955 72.5,44C 67.5298,44.8856 62.5298,45.5523 57.5,46C 55.313,47.025 53.6464,48.525 52.5,50.5C 52.5,44.1667 52.5,37.8333 52.5,31.5 Z"/></g>
    <g><path style="opacity:1" fill="#a2534b" d="M 91.5,31.5 C 93.099,31.2322 94.4324,31.5655 95.5,32.5C 94.5028,32.4701 93.8361,32.9701 93.5,34C 96.3702,42.4501 102.37,46.4501 111.5,46C 113.687,47.025 115.354,48.525 116.5,50.5C 116.5,51.8333 116.5,53.1667 116.5,54.5C 114.585,57.961 111.585,59.6277 107.5,59.5C 107.311,64.5672 105.811,69.2339 103,73.5C 94.4005,79.2771 94.5672,84.6104 103.5,89.5C 99.5181,92.1518 95.8514,95.1518 92.5,98.5C 89.5074,101.501 86.8407,104.835 84.5,108.5C 82.1593,104.835 79.4926,101.501 76.5,98.5C 73.0711,94.7376 69.0711,91.7376 64.5,89.5C 74.3276,85.1695 74.8276,79.8362 66,73.5C 63.2641,69.2205 61.7641,64.5539 61.5,59.5C 57.2848,59.9393 54.2848,58.2726 52.5,54.5C 52.5,53.1667 52.5,51.8333 52.5,50.5C 53.6464,48.525 55.313,47.025 57.5,46C 62.5298,45.5523 67.5298,44.8856 72.5,44C 80.3228,41.9955 86.6561,37.8288 91.5,31.5 Z"/></g>
    <g><path style="opacity:0.961" fill="#54332f" d="M 116.5,31.5 C 116.5,37.8333 116.5,44.1667 116.5,50.5C 115.354,48.525 113.687,47.025 111.5,46C 102.37,46.4501 96.3702,42.4501 93.5,34C 93.8361,32.9701 94.5028,32.4701 95.5,32.5C 100.084,33.5278 104.584,34.8611 109,36.5C 110.226,36.3552 111.393,36.0219 112.5,35.5C 113.521,33.812 114.855,32.4787 116.5,31.5 Z"/></g>
    <g><path style="opacity:0.977" fill="#51312e" d="M 52.5,54.5 C 54.2848,58.2726 57.2848,59.9393 61.5,59.5C 61.7641,64.5539 63.2641,69.2205 66,73.5C 74.8276,79.8362 74.3276,85.1695 64.5,89.5C 60.4214,90.6373 56.4214,91.9706 52.5,93.5C 52.1667,93.5 51.8333,93.5 51.5,93.5C 46.982,91.6589 43.3154,88.6589 40.5,84.5C 48.5992,76.2143 52.5992,66.2143 52.5,54.5 Z"/></g>
    <g><path style="opacity:0.977" fill="#51312e" d="M 116.5,54.5 C 116.401,66.2143 120.401,76.2143 128.5,84.5C 125.685,88.6589 122.018,91.6589 117.5,93.5C 117.167,93.5 116.833,93.5 116.5,93.5C 112.155,92.1625 107.822,90.8292 103.5,89.5C 94.5672,84.6104 94.4005,79.2771 103,73.5C 105.811,69.2339 107.311,64.5672 107.5,59.5C 111.585,59.6277 114.585,57.961 116.5,54.5 Z"/></g>
    <g><path style="opacity:1" fill="#fbdf94" d="M 64.5,89.5 C 69.0711,91.7376 73.0711,94.7376 76.5,98.5C 70.7866,99.375 65.1199,100.208 59.5,101C 56.9614,98.6303 54.6281,96.1303 52.5,93.5C 56.4214,91.9706 60.4214,90.6373 64.5,89.5 Z"/></g>
    <g><path style="opacity:1" fill="#fde095" d="M 103.5,89.5 C 107.822,90.8292 112.155,92.1625 116.5,93.5C 114.332,96.4999 111.666,98.9999 108.5,101C 103.137,100.492 97.8034,99.6587 92.5,98.5C 95.8514,95.1518 99.5181,92.1518 103.5,89.5 Z"/></g>
    <g><path style="opacity:0.985" fill="#fec854" d="M 51.5,93.5 C 51.8333,93.5 52.1667,93.5 52.5,93.5C 54.6281,96.1303 56.9614,98.6303 59.5,101C 65.1199,100.208 70.7866,99.375 76.5,98.5C 79.4926,101.501 82.1593,104.835 84.5,108.5C 86.8407,104.835 89.5074,101.501 92.5,98.5C 97.8034,99.6587 103.137,100.492 108.5,101C 111.666,98.9999 114.332,96.4999 116.5,93.5C 116.833,93.5 117.167,93.5 117.5,93.5C 122.871,94.7865 127.704,97.1198 132,100.5C 132.667,101.833 133.333,103.167 134,104.5C 134.924,111.562 136.09,118.562 137.5,125.5C 131.319,127.232 124.986,128.232 118.5,128.5C 118.807,122.907 118.473,117.407 117.5,112C 109.507,111.5 101.507,111.334 93.5,111.5C 87.5,111.5 81.5,111.5 75.5,111.5C 67.4931,111.334 59.4931,111.5 51.5,112C 50.5268,117.407 50.1934,122.907 50.5,128.5C 43.9303,128.877 37.597,127.877 31.5,125.5C 32.4784,116.956 34.3117,108.623 37,100.5C 41.2957,97.1198 46.129,94.7865 51.5,93.5 Z"/></g>
    <g><path style="opacity:1" fill="#f29545" d="M 75.5,111.5 C 75.3337,118.508 75.5004,125.508 76,132.5C 76.5,133 77,133.5 77.5,134C 82.1667,134.667 86.8333,134.667 91.5,134C 92,133.5 92.5,133 93,132.5C 93.4996,125.508 93.6663,118.508 93.5,111.5C 101.507,111.334 109.507,111.5 117.5,112C 118.473,117.407 118.807,122.907 118.5,128.5C 118.187,141.246 118.52,153.913 119.5,166.5C 119.047,167.458 118.381,168.292 117.5,169C 95.5,169.667 73.5,169.667 51.5,169C 50.6195,168.292 49.9528,167.458 49.5,166.5C 50.4798,153.913 50.8131,141.246 50.5,128.5C 50.1934,122.907 50.5268,117.407 51.5,112C 59.4931,111.5 67.4931,111.334 75.5,111.5 Z"/></g>
    <g><path style="opacity:1" fill="#8a4d41" d="M 75.5,111.5 C 81.5,111.5 87.5,111.5 93.5,111.5C 93.6663,118.508 93.4996,125.508 93,132.5C 92.5,133 92,133.5 91.5,134C 86.8333,134.667 82.1667,134.667 77.5,134C 77,133.5 76.5,133 76,132.5C 75.5004,125.508 75.3337,118.508 75.5,111.5 Z"/></g>
    <g><path style="opacity:0.972" fill="#a5554b" d="M 31.5,125.5 C 37.597,127.877 43.9303,128.877 50.5,128.5C 50.8131,141.246 50.4798,153.913 49.5,166.5C 43.1901,165.523 39.5234,161.857 38.5,155.5C 35.0626,154.364 32.2293,152.364 30,149.5C 29.836,141.472 30.336,133.472 31.5,125.5 Z"/></g>
    <g><path style="opacity:0.969" fill="#a5554b" d="M 137.5,125.5 C 138.664,133.472 139.164,141.472 139,149.5C 136.771,152.364 133.937,154.364 130.5,155.5C 129.477,161.857 125.81,165.523 119.5,166.5C 118.52,153.913 118.187,141.246 118.5,128.5C 124.986,128.232 131.319,127.232 137.5,125.5 Z"/></g>
    <g><path style="opacity:1" fill="#3d3c3f" d="M 59.5,148.5 C 61.3904,148.297 62.8904,148.963 64,150.5C 64.7772,153.429 64.6105,156.263 63.5,159C 61.8876,159.72 60.3876,159.554 59,158.5C 58.2534,155.076 58.42,151.743 59.5,148.5 Z"/></g>
    <g><path style="opacity:1" fill="#37393f" d="M 71.5,148.5 C 72.8221,148.33 73.9887,148.663 75,149.5C 75.4983,152.817 75.665,156.15 75.5,159.5C 73.8333,159.5 72.1667,159.5 70.5,159.5C 70.244,155.731 70.5773,152.064 71.5,148.5 Z"/></g>
</svg>
