<?xml version="1.0" encoding="UTF-8"?>
<!DOCTYPE svg PUBLIC "-//W3C//DTD SVG 1.1//EN" "http://www.w3.org/Graphics/SVG/1.1/DTD/svg11.dtd">
<svg xmlns="http://www.w3.org/2000/svg" version="1.1" width="154px" height="154px" style="shape-rendering:geometricPrecision; text-rendering:geometricPrecision; image-rendering:optimizeQuality; fill-rule:evenodd; clip-rule:evenodd" xmlns:xlink="http://www.w3.org/1999/xlink">
    <g><path style="opacity:1" fill="#decbe8" d="M 3.5,-0.5 C 5.16667,-0.5 6.83333,-0.5 8.5,-0.5C 8.5,45.5 8.5,91.5 8.5,137.5C 6.83333,137.5 5.16667,137.5 3.5,137.5C 3.5,91.8333 3.5,46.1667 3.5,0.5C 3.5,0.166667 3.5,-0.166667 3.5,-0.5 Z"/></g>
    <g><path style="opacity:0.997" fill="#cdb9d4" d="M 8.5,-0.5 C 9.83333,-0.5 11.1667,-0.5 12.5,-0.5C 12.8333,0.166667 13.1667,0.833333 13.5,1.5C 12.5013,46.3302 12.1679,91.3302 12.5,136.5C 13.8333,136.5 15.1667,136.5 16.5,136.5C 14.0521,137.473 11.3854,137.806 8.5,137.5C 8.5,91.5 8.5,45.5 8.5,-0.5 Z"/></g>
    <g><path style="opacity:0.988" fill="#eedbfa" d="M 3.5,0.5 C 3.5,46.1667 3.5,91.8333 3.5,137.5C 5.16667,137.5 6.83333,137.5 8.5,137.5C 11.3854,137.806 14.0521,137.473 16.5,136.5C 19.5,136.5 22.5,136.5 25.5,136.5C 35.3194,137.494 45.3194,137.827 55.5,137.5C 65.1667,137.5 74.8333,137.5 84.5,137.5C 94.1667,137.5 103.833,137.5 113.5,137.5C 123.681,137.827 133.681,137.494 143.5,136.5C 146.716,136.345 149.383,137.345 151.5,139.5C 100.688,139.834 50.0214,140.834 -0.5,142.5C -0.5,96.1667 -0.5,49.8333 -0.5,3.5C 0.236209,1.77055 1.56954,0.770553 3.5,0.5 Z"/></g>
    <g><path style="opacity:0.996" fill="#beacc5" d="M 13.5,1.5 C 14.9663,2.347 15.7996,3.68034 16,5.5C 16.5,49.1654 16.6667,92.8321 16.5,136.5C 15.1667,136.5 13.8333,136.5 12.5,136.5C 12.1679,91.3302 12.5013,46.3302 13.5,1.5 Z"/></g>
    <g><path style="opacity:0.983" fill="#4593ee" d="M 102.5,2.5 C 106.76,4.35234 108.427,7.68567 107.5,12.5C 105.5,14.1667 103.5,15.8333 101.5,17.5C 99.5,17.5 97.5,17.5 95.5,17.5C 94.8333,16.5 94.1667,15.5 93.5,14.5C 96.5244,10.4815 99.5244,6.48152 102.5,2.5 Z"/></g>
    <g><path style="opacity:1" fill="#39aef7" d="M 102.5,2.5 C 99.5244,6.48152 96.5244,10.4815 93.5,14.5C 92.5987,13.7095 91.9321,12.7095 91.5,11.5C 91.2018,3.37545 94.8685,0.375448 102.5,2.5 Z"/></g>
    <g><path style="opacity:0.946" fill="#fa4626" d="M 91.5,11.5 C 91.9321,12.7095 92.5987,13.7095 93.5,14.5C 94.1667,15.5 94.8333,16.5 95.5,17.5C 90.1667,21.8333 84.8333,26.1667 79.5,30.5C 77.863,28.5248 76.1964,26.5248 74.5,24.5C 79.9867,19.9242 85.6533,15.5909 91.5,11.5 Z"/></g>
    <g><path style="opacity:0.916" fill="#fc5f37" d="M 107.5,12.5 C 113.595,20.3509 119.928,28.0176 126.5,35.5C 124.508,36.8304 122.508,38.1637 120.5,39.5C 114.167,32.1667 107.833,24.8333 101.5,17.5C 103.5,15.8333 105.5,14.1667 107.5,12.5 Z"/></g>
    <g><path style="opacity:0.972" fill="#4399f0" d="M 74.5,24.5 C 76.1964,26.5248 77.863,28.5248 79.5,30.5C 79.4649,38.5323 75.4649,41.8657 67.5,40.5C 65.823,38.4602 64.1563,36.4602 62.5,34.5C 62.537,26.4753 66.537,23.1419 74.5,24.5 Z"/></g>
    <g><path style="opacity:0.99" fill="#fb4d2c" d="M 96.5,29.5 C 99.8333,29.5 103.167,29.5 106.5,29.5C 107.485,46.423 107.818,63.423 107.5,80.5C 103.167,76.8333 99.1667,72.8333 95.5,68.5C 96.4955,55.6774 96.8288,42.6774 96.5,29.5 Z"/></g>
    <g><path style="opacity:1" fill="#fd653c" d="M 96.5,29.5 C 96.8288,42.6774 96.4955,55.6774 95.5,68.5C 91.8333,65.1667 88.1667,61.8333 84.5,58.5C 84.5,56.8333 84.5,55.1667 84.5,53.5C 84.3337,46.825 84.5004,40.1583 85,33.5C 85.3742,32.5838 85.8742,31.7504 86.5,31C 89.7256,29.8011 93.059,29.3011 96.5,29.5 Z"/></g>
    <g><path style="opacity:0.928" fill="#f7351d" d="M 62.5,34.5 C 64.1563,36.4602 65.823,38.4602 67.5,40.5C 61.7861,45.5487 55.7861,50.2154 49.5,54.5C 47.8333,53.1667 46.1667,51.8333 44.5,50.5C 44.5,50.1667 44.5,49.8333 44.5,49.5C 50.5,44.5 56.5,39.5 62.5,34.5 Z"/></g>
    <g><path style="opacity:1" fill="#35aff8" d="M 126.5,35.5 C 128.735,35.2053 130.735,35.5386 132.5,36.5C 129.194,40.4729 125.527,44.1396 121.5,47.5C 120.527,45.0521 120.194,42.3854 120.5,39.5C 122.508,38.1637 124.508,36.8304 126.5,35.5 Z"/></g>
    <g><path style="opacity:0.969" fill="#4092ee" d="M 132.5,36.5 C 137.817,41.2124 137.817,46.0457 132.5,51C 127.819,52.4811 124.152,51.3144 121.5,47.5C 125.527,44.1396 129.194,40.4729 132.5,36.5 Z"/></g>
    <g><path style="opacity:0.979" fill="#ffcf3f" d="M 74.5,50.5 C 75.1514,58.2575 75.4848,66.0909 75.5,74C 75.4975,81.8644 74.8308,89.3644 73.5,96.5C 67.8333,90.1667 61.8333,84.1667 55.5,78.5C 55.634,76.7085 55.3007,75.0418 54.5,73.5C 54.1226,66.7431 54.6226,60.0764 56,53.5C 56.9025,52.2986 58.0692,51.4652 59.5,51C 64.4889,50.5007 69.4889,50.3341 74.5,50.5 Z"/></g>
    <g><path style="opacity:1" fill="#feb731" d="M 74.5,50.5 C 78.3375,50.0216 81.6709,51.0216 84.5,53.5C 84.5,55.1667 84.5,56.8333 84.5,58.5C 84.5,74.5 84.5,90.5 84.5,106.5C 82.5,104.833 80.5,103.167 78.5,101.5C 77.0527,99.5968 75.386,97.9301 73.5,96.5C 74.8308,89.3644 75.4975,81.8644 75.5,74C 75.4848,66.0909 75.1514,58.2575 74.5,50.5 Z"/></g>
    <g><path style="opacity:1" fill="#31b3f9" d="M 44.5,49.5 C 44.5,49.8333 44.5,50.1667 44.5,50.5C 41.8197,54.843 38.4864,58.5097 34.5,61.5C 31.6446,52.5878 34.9779,48.5878 44.5,49.5 Z"/></g>
    <g><path style="opacity:0.948" fill="#4295f1" d="M 44.5,50.5 C 46.1667,51.8333 47.8333,53.1667 49.5,54.5C 50.0133,63.1532 46.0133,66.6532 37.5,65C 36.2899,63.9609 35.2899,62.7942 34.5,61.5C 38.4864,58.5097 41.8197,54.843 44.5,50.5 Z"/></g>
    <g><path style="opacity:0.93" fill="#cbeb7a" d="M 32.5,70.5 C 34.4723,92.2691 35.139,114.269 34.5,136.5C 36.8333,136.5 39.1667,136.5 41.5,136.5C 46.1667,136.5 50.8333,136.5 55.5,136.5C 55.5,136.833 55.5,137.167 55.5,137.5C 45.3194,137.827 35.3194,137.494 25.5,136.5C 25.3334,116.164 25.5,95.8306 26,75.5C 27.1641,72.5052 29.3308,70.8386 32.5,70.5 Z"/></g>
    <g><path style="opacity:0.998" fill="#c1ea76" d="M 32.5,70.5 C 34.5,70.5 36.5,70.5 38.5,70.5C 39.6085,71.29 40.9419,71.79 42.5,72C 41.5064,93.4245 41.1731,114.925 41.5,136.5C 39.1667,136.5 36.8333,136.5 34.5,136.5C 35.139,114.269 34.4723,92.2691 32.5,70.5 Z"/></g>
    <g><path style="opacity:1" fill="#ace76e" d="M 38.5,70.5 C 44.2549,69.8315 49.5883,70.8315 54.5,73.5C 55.3007,75.0418 55.634,76.7085 55.5,78.5C 55.5,94.5 55.5,110.5 55.5,126.5C 55.5,129.833 55.5,133.167 55.5,136.5C 50.8333,136.5 46.1667,136.5 41.5,136.5C 41.1731,114.925 41.5064,93.4245 42.5,72C 40.9419,71.79 39.6085,71.29 38.5,70.5 Z"/></g>
    <g><path style="opacity:0.998" fill="#ade46f" d="M 143.5,136.5 C 133.681,137.494 123.681,137.827 113.5,137.5C 113.5,137.167 113.5,136.833 113.5,136.5C 113.208,119.132 113.542,101.799 114.5,84.5C 115.473,84.0133 116.473,83.5133 117.5,83C 124.833,82.3333 132.167,82.3333 139.5,83C 140.416,83.3742 141.25,83.8742 142,84.5C 143.472,101.739 143.972,119.072 143.5,136.5 Z"/></g>
    <g><path style="opacity:1" fill="#e84630" d="M 84.5,58.5 C 88.1667,61.8333 91.8333,65.1667 95.5,68.5C 99.1667,72.8333 103.167,76.8333 107.5,80.5C 107.66,82.1992 107.494,83.8659 107,85.5C 101.235,92.4507 99.4022,100.284 101.5,109C 98.1001,112.913 95.7668,117.413 94.5,122.5C 95.8977,126.939 96.8977,131.439 97.5,136C 102.823,136.499 108.156,136.666 113.5,136.5C 113.5,136.833 113.5,137.167 113.5,137.5C 103.833,137.5 94.1667,137.5 84.5,137.5C 84.5,127.167 84.5,116.833 84.5,106.5C 84.5,90.5 84.5,74.5 84.5,58.5 Z"/></g>
    <g><path style="opacity:1" fill="#f73d23" d="M 106.5,29.5 C 110.09,29.5441 112.59,31.2108 114,34.5C 114.5,51.1633 114.667,67.83 114.5,84.5C 113.542,101.799 113.208,119.132 113.5,136.5C 108.156,136.666 102.823,136.499 97.5,136C 96.8977,131.439 95.8977,126.939 94.5,122.5C 95.7668,117.413 98.1001,112.913 101.5,109C 99.4022,100.284 101.235,92.4507 107,85.5C 107.494,83.8659 107.66,82.1992 107.5,80.5C 107.818,63.423 107.485,46.423 106.5,29.5 Z"/></g>
    <g><path style="opacity:1" fill="#f9a74a" d="M 55.5,78.5 C 61.8333,84.1667 67.8333,90.1667 73.5,96.5C 75.386,97.9301 77.0527,99.5968 78.5,101.5C 77.8313,106.847 76.9979,112.18 76,117.5C 74.2862,115.063 72.4529,112.73 70.5,110.5C 69.8076,111.025 69.3076,111.692 69,112.5C 66.3282,108.299 65.1615,108.633 65.5,113.5C 64.325,113.281 63.325,113.614 62.5,114.5C 60.1537,118.531 57.8203,122.531 55.5,126.5C 55.5,110.5 55.5,94.5 55.5,78.5 Z"/></g>
    <g><path style="opacity:1" fill="#fbb140" d="M 78.5,101.5 C 80.5,103.167 82.5,104.833 84.5,106.5C 84.5,116.833 84.5,127.167 84.5,137.5C 74.8333,137.5 65.1667,137.5 55.5,137.5C 55.5,137.167 55.5,136.833 55.5,136.5C 55.5,133.167 55.5,129.833 55.5,126.5C 57.8203,122.531 60.1537,118.531 62.5,114.5C 63.325,113.614 64.325,113.281 65.5,113.5C 65.1615,108.633 66.3282,108.299 69,112.5C 69.3076,111.692 69.8076,111.025 70.5,110.5C 72.4529,112.73 74.2862,115.063 76,117.5C 76.9979,112.18 77.8313,106.847 78.5,101.5 Z"/></g>
    <g><path style="opacity:1" fill="#e2cfec" d="M 151.5,139.5 C 152.167,139.833 152.833,140.167 153.5,140.5C 153.5,141.833 153.5,143.167 153.5,144.5C 102.167,144.5 50.8333,144.5 -0.5,144.5C -0.5,143.833 -0.5,143.167 -0.5,142.5C 50.0214,140.834 100.688,139.834 151.5,139.5 Z"/></g>
    <g><path style="opacity:0.996" fill="#d2bfdb" d="M -0.5,144.5 C 50.8333,144.5 102.167,144.5 153.5,144.5C 153.5,146.167 153.5,147.833 153.5,149.5C 153.167,149.5 152.833,149.5 152.5,149.5C 101.669,148.501 50.6694,148.168 -0.5,148.5C -0.5,147.167 -0.5,145.833 -0.5,144.5 Z"/></g>
    <g><path style="opacity:0.998" fill="#c5b2cb" d="M -0.5,149.5 C -0.5,149.167 -0.5,148.833 -0.5,148.5C 50.6694,148.168 101.669,148.501 152.5,149.5C 152.229,151.43 151.229,152.764 149.5,153.5C 100.833,153.5 52.1667,153.5 3.5,153.5C 1.83333,152.5 0.5,151.167 -0.5,149.5 Z"/></g>
</svg>
