<?xml version="1.0" encoding="UTF-8"?>
<!DOCTYPE svg PUBLIC "-//W3C//DTD SVG 1.1//EN" "http://www.w3.org/Graphics/SVG/1.1/DTD/svg11.dtd">
<svg xmlns="http://www.w3.org/2000/svg" version="1.1" width="512px" height="512px" style="shape-rendering:geometricPrecision; text-rendering:geometricPrecision; image-rendering:optimizeQuality; fill-rule:evenodd; clip-rule:evenodd" xmlns:xlink="http://www.w3.org/1999/xlink">
<g><path style="opacity:0.998" fill="#e04f5f" d="M 232.5,-0.5 C 247.833,-0.5 263.167,-0.5 278.5,-0.5C 368.144,10.3879 435.644,54.7213 481,132.5C 497.695,163.971 507.861,197.304 511.5,232.5C 511.5,247.833 511.5,263.167 511.5,278.5C 500.612,368.144 456.279,435.644 378.5,481C 347.029,497.695 313.696,507.861 278.5,511.5C 263.167,511.5 247.833,511.5 232.5,511.5C 142.856,500.612 75.3562,456.279 30,378.5C 13.3053,347.029 3.1386,313.696 -0.5,278.5C -0.5,263.167 -0.5,247.833 -0.5,232.5C 10.3875,142.857 54.7208,75.3573 132.5,30C 163.971,13.3053 197.304,3.1386 232.5,-0.5 Z"/></g>
<g><path style="opacity:1" fill="#fefefe" d="M 325.5,126.5 C 278.998,125.169 232.332,125.169 185.5,126.5C 185.624,127.107 185.957,127.44 186.5,127.5C 211.275,141.39 235.942,155.557 260.5,170C 267.11,175.717 271.277,182.884 273,191.5C 273.5,245.166 273.667,298.832 273.5,352.5C 291.836,352.667 310.17,352.5 328.5,352C 332.333,350.833 334.833,348.333 336,344.5C 336.333,328.833 336.667,313.167 337,297.5C 340.323,291.092 345.489,288.925 352.5,291C 354.624,292.122 356.457,293.622 358,295.5C 359.141,304.57 359.641,313.737 359.5,323C 359.333,331.5 359.167,340 359,348.5C 354.735,364.215 344.568,373.382 328.5,376C 310.17,376.5 291.836,376.667 273.5,376.5C 273.666,383.508 273.5,390.508 273,397.5C 267.024,420.419 252.191,430.253 228.5,427C 199.54,411.187 170.873,394.853 142.5,378C 136.75,372.671 132.916,366.171 131,358.5C 130.333,282.5 130.333,206.5 131,130.5C 135.073,117.427 143.573,108.594 156.5,104C 216.211,103.015 275.878,103.349 335.5,105C 347.493,109.66 355.327,118.16 359,130.5C 359.667,149.167 359.667,167.833 359,186.5C 355.456,194.435 349.622,196.602 341.5,193C 339.106,191.048 337.606,188.548 337,185.5C 336.667,168.5 336.333,151.5 336,134.5C 333.869,130.02 330.369,127.353 325.5,126.5 Z"/></g>
<g><path style="opacity:1" fill="#f9dcdf" d="M 325.5,126.5 C 278.997,126.168 232.664,126.501 186.5,127.5C 185.957,127.44 185.624,127.107 185.5,126.5C 232.332,125.169 278.998,125.169 325.5,126.5 Z"/></g>
<g><path style="opacity:1" fill="#fefdfd" d="M 292.5,228.5 C 321.841,228.833 351.174,228.5 380.5,227.5C 380.376,226.893 380.043,226.56 379.5,226.5C 375.537,222.036 371.37,217.702 367,213.5C 362.963,206.884 364.13,201.384 370.5,197C 374.471,195.087 378.471,195.087 382.5,197C 394.667,209.167 406.833,221.333 419,233.5C 421.147,238.327 420.814,242.994 418,247.5C 406.833,258.667 395.667,269.833 384.5,281C 374.081,286.555 367.415,283.722 364.5,272.5C 364.763,269.972 365.596,267.639 367,265.5C 371.5,261 376,256.5 380.5,252C 350.833,251.667 321.167,251.333 291.5,251C 283.835,247.175 281.668,241.341 285,233.5C 286.857,230.8 289.357,229.134 292.5,228.5 Z"/></g>
<g><path style="opacity:1" fill="#f0acb3" d="M 379.5,226.5 C 380.043,226.56 380.376,226.893 380.5,227.5C 351.174,228.5 321.841,228.833 292.5,228.5C 321.5,227.833 350.5,227.167 379.5,226.5 Z"/></g>
</svg>
