<?xml version="1.0" encoding="UTF-8"?>
<!DOCTYPE svg PUBLIC "-//W3C//DTD SVG 1.1//EN" "http://www.w3.org/Graphics/SVG/1.1/DTD/svg11.dtd">
<svg xmlns="http://www.w3.org/2000/svg" version="1.1" width="180px" height="180px" style="shape-rendering:geometricPrecision; text-rendering:geometricPrecision; image-rendering:optimizeQuality; fill-rule:evenodd; clip-rule:evenodd" xmlns:xlink="http://www.w3.org/1999/xlink">
    <g><path style="opacity:0.998" fill="#b22e30" d="M 87.5,-0.5 C 91.8333,-0.5 96.1667,-0.5 100.5,-0.5C 104.044,0.789469 107.377,2.45614 110.5,4.5C 108.577,8.0293 107.911,12.0293 108.5,16.5C 107.469,15.645 106.303,14.9783 105,14.5C 102.683,15.9852 100.516,17.6519 98.5,19.5C 85.7873,16.5762 77.454,21.2428 73.5,33.5C 70.6047,33.4829 68.438,35.1496 67,38.5C 66.502,35.5184 66.3354,32.5184 66.5,29.5C 69.3656,18.6359 76.3656,12.3026 87.5,10.5C 87.5,6.83333 87.5,3.16667 87.5,-0.5 Z"/></g>
    <g><path style="opacity:1" fill="#d2ebfb" d="M 16.5,19.5 C 18.2646,18.5386 20.2646,18.2053 22.5,18.5C 22.5,56.1667 22.5,93.8333 22.5,131.5C 20.8333,131.5 19.1667,131.5 17.5,131.5C 17.8318,93.9963 17.4985,56.6629 16.5,19.5 Z"/></g>
    <g><path style="opacity:0.998" fill="#b7dbf8" d="M 22.5,18.5 C 24.2161,18.6287 25.8828,18.962 27.5,19.5C 27.8318,57.337 27.4985,95.0037 26.5,132.5C 23.5,132.5 20.5,132.5 17.5,132.5C 17.5,132.167 17.5,131.833 17.5,131.5C 19.1667,131.5 20.8333,131.5 22.5,131.5C 22.5,93.8333 22.5,56.1667 22.5,18.5 Z"/></g>
    <g><path style="opacity:0.971" fill="#f0424e" d="M 82.5,-0.5 C 84.1667,-0.5 85.8333,-0.5 87.5,-0.5C 87.5,3.16667 87.5,6.83333 87.5,10.5C 76.3656,12.3026 69.3656,18.6359 66.5,29.5C 66.2069,40.6496 66.2069,51.9829 66.5,63.5C 51.9261,47.1303 50.7595,29.797 63,11.5C 68.2533,5.29849 74.7533,1.29849 82.5,-0.5 Z"/></g>
    <g><path style="opacity:0.982" fill="#d1393f" d="M 108.5,16.5 C 110.57,18.9639 112.404,21.6305 114,24.5C 115.609,34.3531 114.276,43.6864 110,52.5C 108.961,53.7101 107.794,54.7101 106.5,55.5C 107.666,51.847 108.833,48.1803 110,44.5C 110.884,37.4183 110.551,30.4183 109,23.5C 108.241,25.0629 107.074,26.0629 105.5,26.5C 103.473,23.8061 101.139,21.4728 98.5,19.5C 100.516,17.6519 102.683,15.9852 105,14.5C 106.303,14.9783 107.469,15.645 108.5,16.5 Z"/></g>
    <g><path style="opacity:0.998" fill="#e8f7fa" d="M 16.5,19.5 C 17.4985,56.6629 17.8318,93.9963 17.5,131.5C 17.5,131.833 17.5,132.167 17.5,132.5C 8.60221,134.398 2.93555,139.731 0.5,148.5C 0.166667,148.5 -0.166667,148.5 -0.5,148.5C -0.5,110.167 -0.5,71.8333 -0.5,33.5C 2.75034,25.9177 8.417,21.2511 16.5,19.5 Z"/></g>
    <g><path style="opacity:0.998" fill="#a1cbf3" d="M 27.5,19.5 C 29.8185,19.9925 31.8185,20.9925 33.5,22.5C 32.8333,59.6689 32.1667,97.0022 31.5,134.5C 29.6639,133.972 27.9972,133.306 26.5,132.5C 27.4985,95.0037 27.8318,57.337 27.5,19.5 Z"/></g>
    <g><path style="opacity:1" fill="#652412" d="M 123.5,19.5 C 126.276,24.5224 127.61,30.0224 127.5,36C 127.568,40.003 126.901,43.8364 125.5,47.5C 123.234,51.0337 121.234,54.7004 119.5,58.5C 118.833,58.5 118.5,58.8333 118.5,59.5C 115.453,62.5448 112.787,65.8781 110.5,69.5C 111.394,63.713 113.894,58.713 118,54.5C 121.451,42.9633 123.285,31.2966 123.5,19.5 Z"/></g>
    <g><path style="opacity:0.995" fill="#8fbce9" d="M 33.5,22.5 C 38.3452,25.5251 41.5119,29.8584 43,35.5C 43.1676,46.5151 43.6676,57.5151 44.5,68.5C 47.4212,67.5934 50.4212,67.2601 53.5,67.5C 54.1667,70.1667 54.8333,72.8333 55.5,75.5C 55.5,75.8333 55.5,76.1667 55.5,76.5C 53.5853,76.2155 51.9187,76.5489 50.5,77.5C 49.5,77.5 48.5,77.5 47.5,77.5C 45.8333,77.5 44.1667,77.5 42.5,77.5C 42.5,100.833 42.5,124.167 42.5,147.5C 40.9024,144.505 38.9024,141.671 36.5,139C 29.7362,136.262 22.7362,134.929 15.5,135C 10.7208,139.779 5.88743,144.613 1,149.5C 0.601226,149.272 0.434559,148.938 0.5,148.5C 2.93555,139.731 8.60221,134.398 17.5,132.5C 20.5,132.5 23.5,132.5 26.5,132.5C 27.9972,133.306 29.6639,133.972 31.5,134.5C 32.1667,97.0022 32.8333,59.6689 33.5,22.5 Z"/></g>
    <g><path style="opacity:0.972" fill="#eb414c" d="M 106.5,55.5 C 104.112,57.3605 101.446,58.6939 98.5,59.5C 91.7269,61.4665 85.3936,60.6332 79.5,57C 81.3734,55.2962 83.0401,53.4628 84.5,51.5C 97.7866,54.1855 105.787,48.8522 108.5,35.5C 108.091,32.2727 107.091,29.2727 105.5,26.5C 107.074,26.0629 108.241,25.0629 109,23.5C 110.551,30.4183 110.884,37.4183 110,44.5C 108.833,48.1803 107.666,51.847 106.5,55.5 Z"/></g>
    <g><path style="opacity:0.986" fill="#def1f8" d="M 158.5,47.5 C 158.5,50.5 158.5,53.5 158.5,56.5C 158.167,56.5 157.833,56.5 157.5,56.5C 156.833,56.5 156.167,56.5 155.5,56.5C 154.5,56.5 153.5,56.5 152.5,56.5C 145.599,55.1901 138.599,55.1901 131.5,56.5C 129.435,56.5172 127.435,56.8505 125.5,57.5C 127.758,54.4791 129.425,51.1458 130.5,47.5C 139.705,46.2081 149.038,46.2081 158.5,47.5 Z"/></g>
    <g><path style="opacity:0.988" fill="#d73b42" d="M 66.5,29.5 C 66.3354,32.5184 66.502,35.5184 67,38.5C 68.438,35.1496 70.6047,33.4829 73.5,33.5C 73.6199,41.7516 77.2866,47.7516 84.5,51.5C 83.0401,53.4628 81.3734,55.2962 79.5,57C 85.3936,60.6332 91.7269,61.4665 98.5,59.5C 94.5983,66.9685 90.4316,74.3018 86,81.5C 84.5295,82.2666 83.0295,82.9332 81.5,83.5C 78.8333,79.8333 76.1667,76.1667 73.5,72.5C 71.8309,69.1697 69.4975,66.5031 66.5,64.5C 66.5,64.1667 66.5,63.8333 66.5,63.5C 66.2069,51.9829 66.2069,40.6496 66.5,29.5 Z"/></g>
    <g><path style="opacity:1" fill="#94badf" d="M 125.5,47.5 C 127.167,47.5 128.833,47.5 130.5,47.5C 129.425,51.1458 127.758,54.4791 125.5,57.5C 124.833,57.5 124.167,57.5 123.5,57.5C 122.167,57.8333 120.833,58.1667 119.5,58.5C 121.234,54.7004 123.234,51.0337 125.5,47.5 Z"/></g>
    <g><path style="opacity:1" fill="#8dc333" d="M 152.5,56.5 C 152.922,77.8682 153.922,99.2016 155.5,120.5C 154.167,119.5 152.833,118.5 151.5,117.5C 146.693,111.023 140.693,106.023 133.5,102.5C 133.5,87.1667 133.5,71.8333 133.5,56.5C 139.833,56.5 146.167,56.5 152.5,56.5 Z"/></g>
    <g><path style="opacity:1" fill="#89c453" d="M 131.5,56.5 C 127.046,61.1369 123.546,66.4702 121,72.5C 115.84,78.4261 111.84,85.0928 109,92.5C 107.624,93.7051 106.458,95.0384 105.5,96.5C 104.833,96.5 104.167,96.5 103.5,96.5C 103.389,95.8826 103.056,95.3826 102.5,95C 103.893,93.8289 104.727,92.3289 105,90.5C 106.11,88.9632 107.61,88.2965 109.5,88.5C 111.366,83.4126 113.533,78.4126 116,73.5C 120.181,68.8068 123.348,63.4735 125.5,57.5C 127.435,56.8505 129.435,56.5172 131.5,56.5 Z"/></g>
    <g><path style="opacity:1" fill="#a1d54e" d="M 152.5,56.5 C 146.167,56.5 139.833,56.5 133.5,56.5C 133.5,71.8333 133.5,87.1667 133.5,102.5C 132.609,101.89 131.609,101.557 130.5,101.5C 128.852,100.073 126.852,99.2401 124.5,99C 118.023,98.1379 111.689,97.3046 105.5,96.5C 106.458,95.0384 107.624,93.7051 109,92.5C 111.84,85.0928 115.84,78.4261 121,72.5C 123.546,66.4702 127.046,61.1369 131.5,56.5C 138.599,55.1901 145.599,55.1901 152.5,56.5 Z"/></g>
    <g><path style="opacity:1" fill="#64a155" d="M 123.5,57.5 C 122.622,60.5492 120.788,62.8826 118,64.5C 116.382,68.5302 114.882,72.5302 113.5,76.5C 111.09,76.9209 109.257,78.2542 108,80.5C 105.424,85.501 102.591,90.1677 99.5,94.5C 98.5084,94.6716 97.8417,94.3382 97.5,93.5C 99.8791,89.2483 102.712,85.2483 106,81.5C 107.829,76.084 110.829,71.4173 115,67.5C 116.481,64.89 117.648,62.2234 118.5,59.5C 118.5,58.8333 118.833,58.5 119.5,58.5C 120.833,58.1667 122.167,57.8333 123.5,57.5 Z"/></g>
    <g><path style="opacity:1" fill="#992a25" d="M 110.5,4.5 C 115.909,7.57444 119.909,11.9078 122.5,17.5C 120.933,18.6808 120.099,20.3474 120,22.5C 119.527,45.7719 110.694,65.1052 93.5,80.5C 92.005,84.1601 90.005,87.4935 87.5,90.5C 85.7376,89.7377 84.7376,88.4044 84.5,86.5C 89.5434,80.7921 94.3767,74.7921 99,68.5C 101.971,64.3988 104.471,60.0655 106.5,55.5C 107.794,54.7101 108.961,53.7101 110,52.5C 114.276,43.6864 115.609,34.3531 114,24.5C 112.404,21.6305 110.57,18.9639 108.5,16.5C 107.911,12.0293 108.577,8.0293 110.5,4.5 Z"/></g>
    <g><path style="opacity:1" fill="#c1ddf0" d="M 66.5,64.5 C 69.4975,66.5031 71.8309,69.1697 73.5,72.5C 72.209,72.2627 71.209,72.596 70.5,73.5C 65.6156,74.9024 60.6156,75.569 55.5,75.5C 54.8333,72.8333 54.1667,70.1667 53.5,67.5C 57.6918,66.3915 62.0252,65.3915 66.5,64.5 Z"/></g>
    <g><path style="opacity:1" fill="#569731" d="M 155.5,56.5 C 156.167,56.5 156.833,56.5 157.5,56.5C 158.21,58.7463 158.71,61.0796 159,63.5C 159.461,84.1698 159.961,104.836 160.5,125.5C 159.167,124.833 158.167,123.833 157.5,122.5C 156.911,100.495 156.244,78.4951 155.5,56.5 Z"/></g>
    <g><path style="opacity:1" fill="#b33131" d="M 106.5,55.5 C 104.471,60.0655 101.971,64.3988 99,68.5C 94.3767,74.7921 89.5434,80.7921 84.5,86.5C 83.1667,85.8333 82.1667,84.8333 81.5,83.5C 83.0295,82.9332 84.5295,82.2666 86,81.5C 90.4316,74.3018 94.5983,66.9685 98.5,59.5C 101.446,58.6939 104.112,57.3605 106.5,55.5 Z"/></g>
    <g><path style="opacity:1" fill="#f9ebac" d="M 73.5,72.5 C 76.1667,76.1667 78.8333,79.8333 81.5,83.5C 82.1667,84.8333 83.1667,85.8333 84.5,86.5C 84.7376,88.4044 85.7376,89.7377 87.5,90.5C 87.5,91.1667 87.8333,91.5 88.5,91.5C 92.5,95.8333 96.5,100.167 100.5,104.5C 95.9922,102.886 91.6589,100.886 87.5,98.5C 79.1069,92.0921 73.4402,83.7587 70.5,73.5C 71.209,72.596 72.209,72.2627 73.5,72.5 Z"/></g>
    <g><path style="opacity:1" fill="#772518" d="M 122.5,17.5 C 123.338,17.8417 123.672,18.5084 123.5,19.5C 123.285,31.2966 121.451,42.9633 118,54.5C 113.894,58.713 111.394,63.713 110.5,69.5C 109.325,69.281 108.325,69.6143 107.5,70.5C 101.082,76.9153 95.4153,83.9153 90.5,91.5C 89.8333,91.5 89.1667,91.5 88.5,91.5C 87.8333,91.5 87.5,91.1667 87.5,90.5C 90.005,87.4935 92.005,84.1601 93.5,80.5C 110.694,65.1052 119.527,45.7719 120,22.5C 120.099,20.3474 120.933,18.6808 122.5,17.5 Z"/></g>
    <g><path style="opacity:1" fill="#578954" d="M 118.5,59.5 C 117.648,62.2234 116.481,64.89 115,67.5C 110.829,71.4173 107.829,76.084 106,81.5C 102.712,85.2483 99.8791,89.2483 97.5,93.5C 95.847,93.3404 94.5137,92.6737 93.5,91.5C 99.8699,84.786 105.537,77.4527 110.5,69.5C 112.787,65.8781 115.453,62.5448 118.5,59.5 Z"/></g>
    <g><path style="opacity:1" fill="#77b456" d="M 123.5,57.5 C 124.167,57.5 124.833,57.5 125.5,57.5C 123.348,63.4735 120.181,68.8068 116,73.5C 113.533,78.4126 111.366,83.4126 109.5,88.5C 107.61,88.2965 106.11,88.9632 105,90.5C 104.727,92.3289 103.893,93.8289 102.5,95C 103.056,95.3826 103.389,95.8826 103.5,96.5C 101.847,96.3404 100.514,95.6737 99.5,94.5C 102.591,90.1677 105.424,85.501 108,80.5C 109.257,78.2542 111.09,76.9209 113.5,76.5C 114.882,72.5302 116.382,68.5302 118,64.5C 120.788,62.8826 122.622,60.5492 123.5,57.5 Z"/></g>
    <g><path style="opacity:1" fill="#5ad6fa" d="M 70.5,73.5 C 73.4402,83.7587 79.1069,92.0921 87.5,98.5C 85.6771,116.139 84.8437,134.139 85,152.5C 76.9194,153.873 68.7527,154.873 60.5,155.5C 59.8826,155.389 59.3826,155.056 59,154.5C 58.5,128.502 58.3334,102.502 58.5,76.5C 57.5,76.5 56.5,76.5 55.5,76.5C 55.5,76.1667 55.5,75.8333 55.5,75.5C 60.6156,75.569 65.6156,74.9024 70.5,73.5 Z"/></g>
    <g><path style="opacity:1" fill="#20a3f9" d="M 151.5,129.5 C 153.5,130.833 155.167,132.5 156.5,134.5C 155.673,139.985 155.173,145.652 155,151.5C 153.807,155.36 151.307,157.86 147.5,159C 142.5,160 137.5,161 132.5,162C 133.416,162.278 134.082,162.778 134.5,163.5C 128.158,163.334 121.825,163.5 115.5,164C 97.1905,166.431 78.8572,168.597 60.5,170.5C 56.7925,168.851 52.7925,167.351 48.5,166C 45.6865,164.506 43.6865,162.34 42.5,159.5C 42.5,158.167 42.5,156.833 42.5,155.5C 43.1667,129.997 43.8333,104.33 44.5,78.5C 45.3332,104.494 45.8332,130.494 46,156.5C 50.6715,163.624 57.3382,166.958 66,166.5C 92.2575,164.856 118.091,160.689 143.5,154C 146.267,153.322 148.434,151.822 150,149.5C 150.172,142.654 150.672,135.987 151.5,129.5 Z"/></g>
    <g><path style="opacity:1" fill="#68a62b" d="M 152.5,56.5 C 153.5,56.5 154.5,56.5 155.5,56.5C 156.244,78.4951 156.911,100.495 157.5,122.5C 156.5,122.167 155.833,121.5 155.5,120.5C 153.922,99.2016 152.922,77.8682 152.5,56.5 Z"/></g>
    <g><path style="opacity:1" fill="#447d40" d="M 160.5,58.5 C 161.117,58.6107 161.617,58.944 162,59.5C 162.497,62.146 162.664,64.8127 162.5,67.5C 162.886,88.1894 163.553,108.856 164.5,129.5C 163.5,129.167 162.833,128.5 162.5,127.5C 161.58,104.508 160.913,81.5079 160.5,58.5 Z"/></g>
    <g><path style="opacity:1" fill="#4b8939" d="M 157.5,56.5 C 157.833,56.5 158.167,56.5 158.5,56.5C 159.5,56.8333 160.167,57.5 160.5,58.5C 160.913,81.5079 161.58,104.508 162.5,127.5C 161.5,127.167 160.833,126.5 160.5,125.5C 159.961,104.836 159.461,84.1698 159,63.5C 158.71,61.0796 158.21,58.7463 157.5,56.5 Z"/></g>
    <g><path style="opacity:1" fill="#5b240f" d="M 110.5,69.5 C 105.537,77.4527 99.8699,84.786 93.5,91.5C 92.5,91.5 91.5,91.5 90.5,91.5C 95.4153,83.9153 101.082,76.9153 107.5,70.5C 108.325,69.6143 109.325,69.281 110.5,69.5 Z"/></g>
    <g><path style="opacity:1" fill="#497951" d="M 162.5,67.5 C 164.678,88.9785 166.345,110.645 167.5,132.5C 166.5,131.833 165.5,131.167 164.5,130.5C 164.5,130.167 164.5,129.833 164.5,129.5C 163.553,108.856 162.886,88.1894 162.5,67.5 Z"/></g>
    <g><path style="opacity:1" fill="#f8d98e" d="M 88.5,91.5 C 89.1667,91.5 89.8333,91.5 90.5,91.5C 91.5,91.5 92.5,91.5 93.5,91.5C 94.5137,92.6737 95.847,93.3404 97.5,93.5C 97.8417,94.3382 98.5084,94.6716 99.5,94.5C 100.514,95.6737 101.847,96.3404 103.5,96.5C 104.167,96.5 104.833,96.5 105.5,96.5C 111.689,97.3046 118.023,98.1379 124.5,99C 126.852,99.2401 128.852,100.073 130.5,101.5C 129.225,104.396 129.225,107.396 130.5,110.5C 129.167,110.167 127.833,109.833 126.5,109.5C 124.485,108.076 122.152,107.41 119.5,107.5C 113.66,106.649 107.66,105.982 101.5,105.5C 101.5,104.833 101.167,104.5 100.5,104.5C 96.5,100.167 92.5,95.8333 88.5,91.5 Z"/></g>
    <g><path style="opacity:1" fill="#4acdf8" d="M 87.5,98.5 C 91.6589,100.886 95.9922,102.886 100.5,104.5C 101.167,104.5 101.5,104.833 101.5,105.5C 100.669,120.661 100.169,135.995 100,151.5C 88.0796,153.642 76.0796,155.642 64,157.5C 62.5405,157.192 61.3739,156.525 60.5,155.5C 68.7527,154.873 76.9194,153.873 85,152.5C 84.8437,134.139 85.6771,116.139 87.5,98.5 Z"/></g>
    <g><path style="opacity:1" fill="#a7cbea" d="M 158.5,47.5 C 162.063,47.6832 165.063,49.0165 167.5,51.5C 166.101,57.1721 166.268,62.8387 168,68.5C 168.768,94.496 169.268,120.496 169.5,146.5C 168.508,146.672 167.842,146.338 167.5,145.5C 168.794,141.267 168.794,136.934 167.5,132.5C 166.345,110.645 164.678,88.9785 162.5,67.5C 162.664,64.8127 162.497,62.146 162,59.5C 161.617,58.944 161.117,58.6107 160.5,58.5C 160.167,57.5 159.5,56.8333 158.5,56.5C 158.5,53.5 158.5,50.5 158.5,47.5 Z"/></g>
    <g><path style="opacity:1" fill="#42c7f7" d="M 50.5,77.5 C 51.9187,76.5489 53.5853,76.2155 55.5,76.5C 56.5,76.5 57.5,76.5 58.5,76.5C 58.3334,102.502 58.5,128.502 59,154.5C 59.3826,155.056 59.8826,155.389 60.5,155.5C 61.3739,156.525 62.5405,157.192 64,157.5C 76.0796,155.642 88.0796,153.642 100,151.5C 100.169,135.995 100.669,120.661 101.5,105.5C 107.66,105.982 113.66,106.649 119.5,107.5C 117.5,107.5 115.5,107.5 113.5,107.5C 113.833,122.182 113.499,136.848 112.5,151.5C 106.061,154.449 99.3947,155.449 92.5,154.5C 82.2752,156.855 71.9419,158.022 61.5,158C 59.5318,156.456 57.3651,155.289 55,154.5C 55.1596,128.48 54.3263,102.814 52.5,77.5C 51.8333,77.5 51.1667,77.5 50.5,77.5 Z"/></g>
    <g><path style="opacity:1" fill="#f9cd79" d="M 130.5,101.5 C 131.609,101.557 132.609,101.89 133.5,102.5C 140.693,106.023 146.693,111.023 151.5,117.5C 150.521,120.625 150.187,123.958 150.5,127.5C 149.833,127.167 149.167,126.833 148.5,126.5C 143.418,120.081 137.418,114.748 130.5,110.5C 129.225,107.396 129.225,104.396 130.5,101.5 Z"/></g>
    <g><path style="opacity:1" fill="#37c0f7" d="M 52.5,77.5 C 54.3263,102.814 55.1596,128.48 55,154.5C 57.3651,155.289 59.5318,156.456 61.5,158C 71.9419,158.022 82.2752,156.855 92.5,154.5C 99.3947,155.449 106.061,154.449 112.5,151.5C 113.499,136.848 113.833,122.182 113.5,107.5C 115.5,107.5 117.5,107.5 119.5,107.5C 122.152,107.41 124.485,108.076 126.5,109.5C 126.667,122.837 126.5,136.171 126,149.5C 124.417,150.971 122.583,151.971 120.5,152.5C 101.728,157.018 82.728,160.351 63.5,162.5C 59.1736,161.921 55.6736,159.921 53,156.5C 52.5,130.169 52.3334,103.835 52.5,77.5 Z"/></g>
    <g><path style="opacity:1" fill="#22b4f3" d="M 126.5,109.5 C 127.833,109.833 129.167,110.167 130.5,110.5C 137.418,114.748 143.418,120.081 148.5,126.5C 147.778,126.918 147.278,127.584 147,128.5C 145.982,127.294 145.482,127.627 145.5,129.5C 146.401,135.59 146.568,141.924 146,148.5C 141.04,151.767 135.54,153.767 129.5,154.5C 130.429,153.685 131.429,152.852 132.5,152C 129.046,151.593 125.879,152.427 123,154.5C 121.68,154.201 120.18,154.034 118.5,154C 119.416,153.722 120.082,153.222 120.5,152.5C 122.583,151.971 124.417,150.971 126,149.5C 126.5,136.171 126.667,122.837 126.5,109.5 Z"/></g>
    <g><path style="opacity:1" fill="#f5b864" d="M 151.5,117.5 C 152.833,118.5 154.167,119.5 155.5,120.5C 155.833,121.5 156.5,122.167 157.5,122.5C 158.167,123.833 159.167,124.833 160.5,125.5C 160.833,126.5 161.5,127.167 162.5,127.5C 162.833,128.5 163.5,129.167 164.5,129.5C 164.5,129.833 164.5,130.167 164.5,130.5C 163.521,133.625 163.187,136.958 163.5,140.5C 161.167,138.5 158.833,136.5 156.5,134.5C 155.167,132.5 153.5,130.833 151.5,129.5C 151.167,128.833 150.833,128.167 150.5,127.5C 150.187,123.958 150.521,120.625 151.5,117.5 Z"/></g>
    <g><path style="opacity:1" fill="#f7811f" d="M 164.5,130.5 C 165.5,131.167 166.5,131.833 167.5,132.5C 168.794,136.934 168.794,141.267 167.5,145.5C 166.833,144.167 165.833,143.167 164.5,142.5C 164.167,141.833 163.833,141.167 163.5,140.5C 163.187,136.958 163.521,133.625 164.5,130.5 Z"/></g>
    <g><path style="opacity:1" fill="#1485f9" d="M 164.5,142.5 C 165.833,143.167 166.833,144.167 167.5,145.5C 167.842,146.338 168.508,146.672 169.5,146.5C 169.666,153.175 169.5,159.842 169,166.5C 166.168,167.786 163.335,167.786 160.5,166.5C 161.504,165.317 162.338,163.984 163,162.5C 163.172,155.654 163.672,148.987 164.5,142.5 Z"/></g>
    <g><path style="opacity:1" fill="#25abf6" d="M 47.5,77.5 C 47.3334,103.835 47.5,130.169 48,156.5C 52.0196,161.843 57.3529,164.843 64,165.5C 78.2371,164.027 92.4038,162.194 106.5,160C 114.469,158.923 122.136,157.09 129.5,154.5C 135.54,153.767 141.04,151.767 146,148.5C 146.568,141.924 146.401,135.59 145.5,129.5C 145.482,127.627 145.982,127.294 147,128.5C 147.278,127.584 147.778,126.918 148.5,126.5C 149.167,126.833 149.833,127.167 150.5,127.5C 150.833,128.167 151.167,128.833 151.5,129.5C 150.672,135.987 150.172,142.654 150,149.5C 148.434,151.822 146.267,153.322 143.5,154C 118.091,160.689 92.2575,164.856 66,166.5C 57.3382,166.958 50.6715,163.624 46,156.5C 45.8332,130.494 45.3332,104.494 44.5,78.5C 43.8333,104.33 43.1667,129.997 42.5,155.5C 42.5,154.5 42.5,153.5 42.5,152.5C 42.5,150.833 42.5,149.167 42.5,147.5C 42.5,124.167 42.5,100.833 42.5,77.5C 44.1667,77.5 45.8333,77.5 47.5,77.5 Z"/></g>
    <g><path style="opacity:1" fill="#cbe6f9" d="M 35.5,160.5 C 31.8281,162.753 27.8281,164.086 23.5,164.5C 19.9866,165.124 17.1533,164.124 15,161.5C 14.1697,155.472 14.3364,149.472 15.5,143.5C 22.6417,145.654 29.1417,148.987 35,153.5C 35.4966,155.81 35.6633,158.143 35.5,160.5 Z"/></g>
    <g><path style="opacity:0.996" fill="#abceed" d="M 42.5,147.5 C 42.5,149.167 42.5,150.833 42.5,152.5C 40.9393,155.735 38.6059,158.402 35.5,160.5C 35.6633,158.143 35.4966,155.81 35,153.5C 29.1417,148.987 22.6417,145.654 15.5,143.5C 14.3364,149.472 14.1697,155.472 15,161.5C 17.1533,164.124 19.9866,165.124 23.5,164.5C 23.6567,165.873 23.49,167.207 23,168.5C 20.8431,170.817 19.3431,173.484 18.5,176.5C 9.09834,174.655 2.76501,169.322 -0.5,160.5C -0.5,156.5 -0.5,152.5 -0.5,148.5C -0.166667,148.5 0.166667,148.5 0.5,148.5C 0.434559,148.938 0.601226,149.272 1,149.5C 5.88743,144.613 10.7208,139.779 15.5,135C 22.7362,134.929 29.7362,136.262 36.5,139C 38.9024,141.671 40.9024,144.505 42.5,147.5 Z"/></g>
    <g><path style="opacity:1" fill="#1295f7" d="M 156.5,134.5 C 158.833,136.5 161.167,138.5 163.5,140.5C 163.833,141.167 164.167,141.833 164.5,142.5C 163.672,148.987 163.172,155.654 163,162.5C 162.338,163.984 161.504,165.317 160.5,166.5C 151.96,164.459 143.293,163.459 134.5,163.5C 134.082,162.778 133.416,162.278 132.5,162C 137.5,161 142.5,160 147.5,159C 151.307,157.86 153.807,155.36 155,151.5C 155.173,145.652 155.673,139.985 156.5,134.5 Z"/></g>
    <g><path style="opacity:1" fill="#30b3fa" d="M 47.5,77.5 C 48.5,77.5 49.5,77.5 50.5,77.5C 51.1667,77.5 51.8333,77.5 52.5,77.5C 52.3334,103.835 52.5,130.169 53,156.5C 55.6736,159.921 59.1736,161.921 63.5,162.5C 82.728,160.351 101.728,157.018 120.5,152.5C 120.082,153.222 119.416,153.722 118.5,154C 120.18,154.034 121.68,154.201 123,154.5C 125.879,152.427 129.046,151.593 132.5,152C 131.429,152.852 130.429,153.685 129.5,154.5C 122.136,157.09 114.469,158.923 106.5,160C 92.4038,162.194 78.2371,164.027 64,165.5C 57.3529,164.843 52.0196,161.843 48,156.5C 47.5,130.169 47.3334,103.835 47.5,77.5 Z"/></g>
    <g><path style="opacity:0.96" fill="#8cb9e7" d="M 167.5,51.5 C 169.136,52.7489 170.303,54.4156 171,56.5C 173.971,90.3075 176.805,123.974 179.5,157.5C 179.5,163.5 179.5,169.5 179.5,175.5C 178.016,177.074 176.349,178.407 174.5,179.5C 172.833,179.5 171.167,179.5 169.5,179.5C 157.426,174.656 144.759,172.323 131.5,172.5C 110.604,174.03 89.9369,176.364 69.5,179.5C 57.1667,179.5 44.8333,179.5 32.5,179.5C 28.0057,178.266 23.339,177.266 18.5,176.5C 19.3431,173.484 20.8431,170.817 23,168.5C 23.49,167.207 23.6567,165.873 23.5,164.5C 27.8281,164.086 31.8281,162.753 35.5,160.5C 38.6059,158.402 40.9393,155.735 42.5,152.5C 42.5,153.5 42.5,154.5 42.5,155.5C 42.5,156.833 42.5,158.167 42.5,159.5C 41.0711,163.502 38.7377,167.002 35.5,170C 43.8267,170.5 52.16,170.666 60.5,170.5C 78.8572,168.597 97.1905,166.431 115.5,164C 121.825,163.5 128.158,163.334 134.5,163.5C 143.293,163.459 151.96,164.459 160.5,166.5C 163.335,167.786 166.168,167.786 169,166.5C 169.5,159.842 169.666,153.175 169.5,146.5C 169.268,120.496 168.768,94.496 168,68.5C 166.268,62.8387 166.101,57.1721 167.5,51.5 Z"/></g>
    <g><path style="opacity:1" fill="#1695fb" d="M 42.5,159.5 C 43.6865,162.34 45.6865,164.506 48.5,166C 52.7925,167.351 56.7925,168.851 60.5,170.5C 52.16,170.666 43.8267,170.5 35.5,170C 38.7377,167.002 41.0711,163.502 42.5,159.5 Z"/></g>
</svg>