<?xml version="1.0" encoding="UTF-8"?>
<!DOCTYPE svg PUBLIC "-//W3C//DTD SVG 1.1//EN" "http://www.w3.org/Graphics/SVG/1.1/DTD/svg11.dtd">
<svg xmlns="http://www.w3.org/2000/svg" version="1.1" width="192px" height="186px" style="shape-rendering:geometricPrecision; text-rendering:geometricPrecision; image-rendering:optimizeQuality; fill-rule:evenodd; clip-rule:evenodd" xmlns:xlink="http://www.w3.org/1999/xlink">
    <g><path style="opacity:0.986" fill="#f1ac5f" d="M 142.5,1.5 C 151.929,-0.46824 159.929,2.19843 166.5,9.5C 166.138,14.4208 165.138,19.0874 163.5,23.5C 158.341,17.7304 152.007,16.0637 144.5,18.5C 145.117,12.4018 144.45,6.73512 142.5,1.5 Z"/></g>
    <g><path style="opacity:0.987" fill="#fbd585" d="M 142.5,1.5 C 144.45,6.73512 145.117,12.4018 144.5,18.5C 136.639,24.0411 130.972,31.3744 127.5,40.5C 126.486,42.5739 125.486,44.5739 124.5,46.5C 124.808,36.0846 124.475,25.7513 123.5,15.5C 127.838,8.16063 134.171,3.49397 142.5,1.5 Z"/></g>
    <g><path style="opacity:1" fill="#ea9049" d="M 166.5,9.5 C 170.605,12.2705 173.605,15.9372 175.5,20.5C 174.712,26.0855 174.212,31.7521 174,37.5C 171.695,33.6963 169.195,30.0296 166.5,26.5C 166.167,27.1667 165.833,27.8333 165.5,28.5C 163.498,44.8817 161.498,61.2151 159.5,77.5C 160.791,77.2627 161.791,77.596 162.5,78.5C 157.99,78.1156 153.657,77.4489 149.5,76.5C 149.338,74.4727 149.505,72.4727 150,70.5C 150.333,71.1667 150.667,71.8333 151,72.5C 150.893,68.5114 152.059,65.0114 154.5,62C 153.077,59.38 153.243,56.88 155,54.5C 155.556,56.5951 156.056,56.7618 156.5,55C 156.45,52.721 156.117,50.3876 155.5,48C 156,47.5 156.5,47 157,46.5C 157.333,41.8333 157.667,37.1667 158,32.5C 158.333,33.1667 158.667,33.8333 159,34.5C 159.388,30.7808 160.055,27.1141 161,23.5C 161.333,24.1667 161.667,24.8333 162,25.5C 162.278,24.5842 162.778,23.9175 163.5,23.5C 165.138,19.0874 166.138,14.4208 166.5,9.5 Z"/></g>
    <g><path style="opacity:1" fill="#fcde95" d="M 123.5,15.5 C 124.475,25.7513 124.808,36.0846 124.5,46.5C 122.197,53.9869 120.863,61.6535 120.5,69.5C 118.989,71.4758 118.156,73.8091 118,76.5C 117.175,86.3422 117.342,96.0089 118.5,105.5C 118.464,108.461 119.464,110.794 121.5,112.5C 120.54,115.765 120.54,119.098 121.5,122.5C 123.704,131.444 126.704,140.111 130.5,148.5C 129.911,150.398 129.744,152.398 130,154.5C 128.341,155.817 127.174,157.483 126.5,159.5C 124.929,161.415 122.929,162.415 120.5,162.5C 118.975,160.784 117.975,158.784 117.5,156.5C 115.221,151.608 113.221,146.608 111.5,141.5C 111.5,141.167 111.5,140.833 111.5,140.5C 112.833,107.5 112.833,74.5 111.5,41.5C 112.937,35.9579 114.937,30.6246 117.5,25.5C 119,21.827 121,18.4937 123.5,15.5 Z"/></g>
    <g><path style="opacity:1" fill="#e99049" d="M 163.5,23.5 C 162.778,23.9175 162.278,24.5842 162,25.5C 161.667,24.8333 161.333,24.1667 161,23.5C 160.055,27.1141 159.388,30.7808 159,34.5C 158.667,33.8333 158.333,33.1667 158,32.5C 157.667,37.1667 157.333,41.8333 157,46.5C 156.5,47 156,47.5 155.5,48C 156.117,50.3876 156.45,52.721 156.5,55C 156.056,56.7618 155.556,56.5951 155,54.5C 153.243,56.88 153.077,59.38 154.5,62C 152.059,65.0114 150.893,68.5114 151,72.5C 150.667,71.8333 150.333,71.1667 150,70.5C 149.505,72.4727 149.338,74.4727 149.5,76.5C 144.43,76.315 139.43,75.6483 134.5,74.5C 132.972,73.6908 131.306,73.0241 129.5,72.5C 128.508,72.6716 127.842,72.3382 127.5,71.5C 128.821,68.4018 129.488,64.9018 129.5,61C 129.512,53.9532 128.845,47.1199 127.5,40.5C 130.972,31.3744 136.639,24.0411 144.5,18.5C 152.007,16.0637 158.341,17.7304 163.5,23.5 Z"/></g>
    <g><path style="opacity:1" fill="#ed8838" d="M 175.5,20.5 C 179.233,25.9705 181.899,31.9705 183.5,38.5C 183.565,38.9382 183.399,39.2716 183,39.5C 182.667,38.8333 182.333,38.1667 182,37.5C 181.667,45.1667 181.333,52.8333 181,60.5C 179.624,54.7482 177.958,49.0815 176,43.5C 175.577,42.0439 174.744,41.5439 173.5,42C 173.493,43.5827 173.826,45.2494 174.5,47C 173.585,55.4138 172.251,63.7472 170.5,72C 171.304,75.1174 171.97,78.284 172.5,81.5C 170.703,80.2702 168.703,79.6036 166.5,79.5C 165.432,78.5655 164.099,78.2322 162.5,78.5C 161.791,77.596 160.791,77.2627 159.5,77.5C 161.498,61.2151 163.498,44.8817 165.5,28.5C 165.833,27.8333 166.167,27.1667 166.5,26.5C 169.195,30.0296 171.695,33.6963 174,37.5C 174.212,31.7521 174.712,26.0855 175.5,20.5 Z"/></g>
    <g><path style="opacity:0.981" fill="#fdeeac" d="M 84.5,41.5 C 85.1471,42.2739 85.4805,43.2739 85.5,44.5C 84.6302,51.1611 83.7969,57.8278 83,64.5C 80.8198,68.5128 77.6532,71.5128 73.5,73.5C 56.6167,72.043 39.95,70.043 23.5,67.5C 24.4552,65.2543 25.1218,62.921 25.5,60.5C 29.1474,55.3352 34.1474,52.1685 40.5,51C 55.3082,48.3381 69.9748,45.1714 84.5,41.5 Z"/></g>
    <g><path style="opacity:1" fill="#f2c585" d="M 101.5,34.5 C 100.581,45.5185 99.4145,56.5185 98,67.5C 95.1906,75.7855 91.3573,83.4522 86.5,90.5C 85.391,90.5569 84.391,90.8902 83.5,91.5C 85.2199,87.256 87.2199,83.0893 89.5,79C 89.3333,78.5 89.1667,78 89,77.5C 86.954,79.3761 85.1207,81.3761 83.5,83.5C 82.7025,83.0431 82.3691,82.3764 82.5,81.5C 85.2756,76.6967 87.7756,71.6967 90,66.5C 90.913,57.779 92.0796,49.1123 93.5,40.5C 93.1373,39.8165 92.8039,39.1499 92.5,38.5C 95.2558,36.7962 98.2558,35.4629 101.5,34.5 Z"/></g>
    <g><path style="opacity:0.999" fill="#f38123" d="M 183.5,38.5 C 187.309,48.8802 189.976,59.5468 191.5,70.5C 191.5,84.1667 191.5,97.8333 191.5,111.5C 190.743,115.881 189.743,120.214 188.5,124.5C 187.414,124.38 186.747,123.713 186.5,122.5C 183.622,107.974 181.622,108.308 180.5,123.5C 179.467,127.906 178.134,132.24 176.5,136.5C 174.557,135.922 174.223,134.922 175.5,133.5C 170.13,125.085 170.963,117.419 178,110.5C 180.035,107.338 181.201,104.172 181.5,101C 178.293,100.913 175.293,100.746 172.5,100.5C 174.877,97.274 175.877,93.6073 175.5,89.5C 175.06,86.6202 174.06,83.9535 172.5,81.5C 171.97,78.284 171.304,75.1174 170.5,72C 172.251,63.7472 173.585,55.4138 174.5,47C 173.826,45.2494 173.493,43.5827 173.5,42C 174.744,41.5439 175.577,42.0439 176,43.5C 177.958,49.0815 179.624,54.7482 181,60.5C 181.333,52.8333 181.667,45.1667 182,37.5C 182.333,38.1667 182.667,38.8333 183,39.5C 183.399,39.2716 183.565,38.9382 183.5,38.5 Z"/></g>
    <g><path style="opacity:1" fill="#f3872b" d="M 127.5,40.5 C 128.845,47.1199 129.512,53.9532 129.5,61C 129.488,64.9018 128.821,68.4018 127.5,71.5C 125.167,70.8333 122.833,70.1667 120.5,69.5C 120.863,61.6535 122.197,53.9869 124.5,46.5C 125.486,44.5739 126.486,42.5739 127.5,40.5 Z"/></g>
    <g><path style="opacity:1" fill="#fde69f" d="M 111.5,41.5 C 112.833,74.5 112.833,107.5 111.5,140.5C 110.167,135.833 108.833,131.167 107.5,126.5C 106.033,118.228 105.033,109.895 104.5,101.5C 104.5,100.5 104.5,99.5 104.5,98.5C 102.985,78.9577 105.318,59.9577 111.5,41.5 Z"/></g>
    <g><path style="opacity:1" fill="#efa358" d="M 117.5,25.5 C 114.937,30.6246 112.937,35.9579 111.5,41.5C 105.318,59.9577 102.985,78.9577 104.5,98.5C 103.673,93.3491 103.173,88.0158 103,82.5C 99.0585,94.3678 95.7252,106.368 93,118.5C 92.5,120.333 91.3333,121.5 89.5,122C 84.5,122.667 79.5,122.667 74.5,122C 56.9104,117.395 39.4104,112.562 22,107.5C 21.5357,108.094 21.369,108.761 21.5,109.5C 20.5489,108.081 20.2155,106.415 20.5,104.5C 20.3691,103.624 20.7025,102.957 21.5,102.5C 38.2578,107.564 55.0911,112.23 72,116.5C 78.8663,115.211 84.533,111.877 89,106.5C 93.5931,97.7042 97.5931,88.7042 101,79.5C 103.234,65.2283 105.067,50.8949 106.5,36.5C 106.617,33.9503 107.617,31.9503 109.5,30.5C 111.794,28.347 114.46,26.6803 117.5,25.5 Z"/></g>
    <g><path style="opacity:1" fill="#fade96" d="M 92.5,38.5 C 92.8039,39.1499 93.1373,39.8165 93.5,40.5C 92.0796,49.1123 90.913,57.779 90,66.5C 87.7756,71.6967 85.2756,76.6967 82.5,81.5C 79.8372,82.4414 77.5038,83.9414 75.5,86C 56.8295,84.8332 38.1628,83.3332 19.5,81.5C 20.2136,76.5612 21.5469,71.8945 23.5,67.5C 39.95,70.043 56.6167,72.043 73.5,73.5C 77.6532,71.5128 80.8198,68.5128 83,64.5C 83.7969,57.8278 84.6302,51.1611 85.5,44.5C 85.4805,43.2739 85.1471,42.2739 84.5,41.5C 86.7916,39.7329 89.4582,38.7329 92.5,38.5 Z"/></g>
    <g><path style="opacity:1" fill="#e7f6f7" d="M 134.5,74.5 C 139.43,75.6483 144.43,76.315 149.5,76.5C 153.657,77.4489 157.99,78.1156 162.5,78.5C 164.099,78.2322 165.432,78.5655 166.5,79.5C 162.933,80.0679 160.599,82.0679 159.5,85.5C 152.825,85.6663 146.158,85.4996 139.5,85C 138.421,84.044 137.255,83.2106 136,82.5C 135.728,79.7462 135.228,77.0795 134.5,74.5 Z"/></g>
    <g><path style="opacity:0.991" fill="#525252" d="M 25.5,60.5 C 25.1218,62.921 24.4552,65.2543 23.5,67.5C 21.5469,71.8945 20.2136,76.5612 19.5,81.5C 19.5,81.8333 19.5,82.1667 19.5,82.5C 18.3357,88.3494 18.3357,94.3494 19.5,100.5C 12.8333,99.8333 6.16667,99.1667 -0.5,98.5C -0.5,92.1667 -0.5,85.8333 -0.5,79.5C 1.94089,64.7332 10.6076,58.3999 25.5,60.5 Z"/></g>
    <g><path style="opacity:1" fill="#f0b066" d="M 109.5,30.5 C 107.617,31.9503 106.617,33.9503 106.5,36.5C 105.067,50.8949 103.234,65.2283 101,79.5C 97.5931,88.7042 93.5931,97.7042 89,106.5C 84.533,111.877 78.8663,115.211 72,116.5C 55.0911,112.23 38.2578,107.564 21.5,102.5C 20.7025,102.957 20.3691,103.624 20.5,104.5C 19.5655,103.432 19.2322,102.099 19.5,100.5C 18.3357,94.3494 18.3357,88.3494 19.5,82.5C 19.5,84.8333 19.5,87.1667 19.5,89.5C 19.7723,93.6637 22.1056,95.497 26.5,95C 24.8333,95.3333 23.1667,95.6667 21.5,96C 38.4238,99.5863 55.0905,104.086 71.5,109.5C 80.2507,106.148 86.2507,100.148 89.5,91.5C 89.3333,91.1667 89.1667,90.8333 89,90.5C 86.7001,94.419 85.8668,94.419 86.5,90.5C 91.3573,83.4522 95.1906,75.7855 98,67.5C 99.4145,56.5185 100.581,45.5185 101.5,34.5C 103.849,32.659 106.515,31.3257 109.5,30.5 Z"/></g>
    <g><path style="opacity:1" fill="#d0e9f9" d="M 129.5,72.5 C 131.306,73.0241 132.972,73.6908 134.5,74.5C 135.228,77.0795 135.728,79.7462 136,82.5C 137.255,83.2106 138.421,84.044 139.5,85C 146.158,85.4996 152.825,85.6663 159.5,85.5C 158.631,87.717 158.298,90.0504 158.5,92.5C 154.327,92.6911 150.16,93.0244 146,93.5C 138.626,93.8014 133.626,90.4681 131,83.5C 129.892,79.9137 129.392,76.247 129.5,72.5 Z"/></g>
    <g><path style="opacity:1" fill="#facd7c" d="M 83.5,91.5 C 79.4529,94.2783 75.2862,96.945 71,99.5C 53.8199,96.0783 36.6532,92.745 19.5,89.5C 19.5,87.1667 19.5,84.8333 19.5,82.5C 19.5,82.1667 19.5,81.8333 19.5,81.5C 38.1628,83.3332 56.8295,84.8332 75.5,86C 77.5038,83.9414 79.8372,82.4414 82.5,81.5C 82.3691,82.3764 82.7025,83.0431 83.5,83.5C 85.1207,81.3761 86.954,79.3761 89,77.5C 89.1667,78 89.3333,78.5 89.5,79C 87.2199,83.0893 85.2199,87.256 83.5,91.5 Z"/></g>
    <g><path style="opacity:1" fill="#a4c9ec" d="M 120.5,69.5 C 122.833,70.1667 125.167,70.8333 127.5,71.5C 127.842,72.3382 128.508,72.6716 129.5,72.5C 129.392,76.247 129.892,79.9137 131,83.5C 133.626,90.4681 138.626,93.8014 146,93.5C 150.16,93.0244 154.327,92.6911 158.5,92.5C 158.298,90.0504 158.631,87.717 159.5,85.5C 160.599,82.0679 162.933,80.0679 166.5,79.5C 168.703,79.6036 170.703,80.2702 172.5,81.5C 174.06,83.9535 175.06,86.6202 175.5,89.5C 170.053,89.8897 164.72,90.8897 159.5,92.5C 159.261,94.4672 159.594,96.3005 160.5,98C 152.017,100.698 143.35,101.698 134.5,101C 130.549,100.464 127.049,98.9638 124,96.5C 121.941,92.3234 120.274,87.9901 119,83.5C 118.891,90.7479 118.725,98.0813 118.5,105.5C 117.342,96.0089 117.175,86.3422 118,76.5C 118.156,73.8091 118.989,71.4758 120.5,69.5 Z"/></g>
    <g><path style="opacity:0.995" fill="#444343" d="M -0.5,98.5 C 6.16667,99.1667 12.8333,99.8333 19.5,100.5C 19.2322,102.099 19.5655,103.432 20.5,104.5C 20.2155,106.415 20.5489,108.081 21.5,109.5C 21.5,110.167 21.5,110.833 21.5,111.5C 15.1931,112.671 8.85977,112.671 2.5,111.5C 1.36741,108.443 0.367415,105.443 -0.5,102.5C -0.5,101.167 -0.5,99.8333 -0.5,98.5 Z"/></g>
    <g><path style="opacity:1" fill="#f6bd6c" d="M 19.5,89.5 C 36.6532,92.745 53.8199,96.0783 71,99.5C 75.2862,96.945 79.4529,94.2783 83.5,91.5C 84.391,90.8902 85.391,90.5569 86.5,90.5C 85.8668,94.419 86.7001,94.419 89,90.5C 89.1667,90.8333 89.3333,91.1667 89.5,91.5C 86.2507,100.148 80.2507,106.148 71.5,109.5C 55.0905,104.086 38.4238,99.5863 21.5,96C 23.1667,95.6667 24.8333,95.3333 26.5,95C 22.1056,95.497 19.7723,93.6637 19.5,89.5 Z"/></g>
    <g><path style="opacity:1" fill="#86b3e2" d="M 175.5,89.5 C 175.877,93.6073 174.877,97.274 172.5,100.5C 169.372,102.154 166.039,103.321 162.5,104C 156.294,104.382 150.294,105.215 144.5,106.5C 136.528,107.41 128.861,109.41 121.5,112.5C 119.464,110.794 118.464,108.461 118.5,105.5C 118.725,98.0813 118.891,90.7479 119,83.5C 120.274,87.9901 121.941,92.3234 124,96.5C 127.049,98.9638 130.549,100.464 134.5,101C 143.35,101.698 152.017,100.698 160.5,98C 159.594,96.3005 159.261,94.4672 159.5,92.5C 164.72,90.8897 170.053,89.8897 175.5,89.5 Z"/></g>
    <g><path style="opacity:1" fill="#eb8233" d="M 172.5,100.5 C 175.293,100.746 178.293,100.913 181.5,101C 181.201,104.172 180.035,107.338 178,110.5C 170.963,117.419 170.13,125.085 175.5,133.5C 174.223,134.922 174.557,135.922 176.5,136.5C 173.768,146.063 168.768,154.23 161.5,161C 159.956,162.187 158.289,162.52 156.5,162C 162.555,155.275 165.888,147.942 166.5,140C 165.603,135.666 164.27,131.499 162.5,127.5C 165.235,122.53 167.568,117.363 169.5,112C 169.445,109.11 167.945,107.944 165,108.5C 151.193,111.07 139.193,117.07 129,126.5C 126.563,131.308 127.563,135.308 132,138.5C 133.483,141.702 133.817,145.036 133,148.5C 132.617,149.056 132.117,149.389 131.5,149.5C 131.5,148.833 131.167,148.5 130.5,148.5C 126.704,140.111 123.704,131.444 121.5,122.5C 130.835,117.166 140.501,112.333 150.5,108C 148.564,107.187 146.564,106.687 144.5,106.5C 150.294,105.215 156.294,104.382 162.5,104C 166.039,103.321 169.372,102.154 172.5,100.5 Z"/></g>
    <g><path style="opacity:1" fill="#ea883c" d="M 176.5,136.5 C 178.134,132.24 179.467,127.906 180.5,123.5C 182.596,132.174 181.429,140.507 177,148.5C 172.242,155.262 166.742,161.429 160.5,167C 154.877,170.955 149.543,175.288 144.5,180C 145.416,180.278 146.082,180.778 146.5,181.5C 143.579,181.717 140.913,181.051 138.5,179.5C 138.389,178.883 138.056,178.383 137.5,178C 142.16,174.187 145.827,169.687 148.5,164.5C 154.384,159.247 158.384,152.747 160.5,145C 159.317,139.367 158.484,133.534 158,127.5C 169.13,112.706 165.63,108.873 147.5,116C 141.524,117.984 136.69,121.484 133,126.5C 130.952,129.143 131.119,131.476 133.5,133.5C 135.245,136.185 136.245,139.185 136.5,142.5C 136.246,146.256 135.579,149.923 134.5,153.5C 133.026,152.564 132.026,151.23 131.5,149.5C 132.117,149.389 132.617,149.056 133,148.5C 133.817,145.036 133.483,141.702 132,138.5C 127.563,135.308 126.563,131.308 129,126.5C 139.193,117.07 151.193,111.07 165,108.5C 167.945,107.944 169.445,109.11 169.5,112C 167.568,117.363 165.235,122.53 162.5,127.5C 164.27,131.499 165.603,135.666 166.5,140C 165.888,147.942 162.555,155.275 156.5,162C 158.289,162.52 159.956,162.187 161.5,161C 168.768,154.23 173.768,146.063 176.5,136.5 Z"/></g>
    <g><path style="opacity:1" fill="#f67b17" d="M 144.5,106.5 C 146.564,106.687 148.564,107.187 150.5,108C 140.501,112.333 130.835,117.166 121.5,122.5C 120.54,119.098 120.54,115.765 121.5,112.5C 128.861,109.41 136.528,107.41 144.5,106.5 Z"/></g>
    <g><path style="opacity:1" fill="#ed974c" d="M 104.5,98.5 C 104.5,99.5 104.5,100.5 104.5,101.5C 103.883,101.389 103.383,101.056 103,100.5C 101.894,105.769 101.227,111.103 101,116.5C 100.667,116.167 100.333,115.833 100,115.5C 100.805,121.834 98.3052,126.001 92.5,128C 87.4555,128.551 82.4555,128.218 77.5,127C 61.0583,123.075 44.725,118.742 28.5,114C 26.6131,113.22 24.9464,113.387 23.5,114.5C 22.8333,113.5 22.1667,112.5 21.5,111.5C 21.5,110.833 21.5,110.167 21.5,109.5C 21.369,108.761 21.5357,108.094 22,107.5C 39.4104,112.562 56.9104,117.395 74.5,122C 79.5,122.667 84.5,122.667 89.5,122C 91.3333,121.5 92.5,120.333 93,118.5C 95.7252,106.368 99.0585,94.3678 103,82.5C 103.173,88.0158 103.673,93.3491 104.5,98.5 Z"/></g>
    <g><path style="opacity:1" fill="#e78741" d="M 148.5,164.5 C 144.748,164.06 141.748,162.393 139.5,159.5C 141.328,155.083 143.494,154.749 146,158.5C 147.339,155.497 148.673,152.497 150,149.5C 150.333,149.833 150.667,150.167 151,150.5C 151.449,146.242 151.282,142.242 150.5,138.5C 151.72,131.709 153.72,125.542 156.5,120C 155.228,118.954 153.728,118.454 152,118.5C 146.611,119.028 141.944,121.028 138,124.5C 137.72,128.21 136.22,131.21 133.5,133.5C 131.119,131.476 130.952,129.143 133,126.5C 136.69,121.484 141.524,117.984 147.5,116C 165.63,108.873 169.13,112.706 158,127.5C 158.484,133.534 159.317,139.367 160.5,145C 158.384,152.747 154.384,159.247 148.5,164.5 Z"/></g>
    <g><path style="opacity:0.988" fill="#232222" d="M 2.5,111.5 C 8.85977,112.671 15.1931,112.671 21.5,111.5C 22.1667,112.5 22.8333,113.5 23.5,114.5C 23.2627,115.791 23.596,116.791 24.5,117.5C 24.8333,118.833 25.1667,120.167 25.5,121.5C 14.9477,124.254 7.28105,120.921 2.5,111.5 Z"/></g>
    <g><path style="opacity:1" fill="#ed8d3d" d="M 104.5,101.5 C 105.033,109.895 106.033,118.228 107.5,126.5C 106.104,128.762 104.437,130.929 102.5,133C 99.1667,133.667 95.8333,133.667 92.5,133C 70.2687,128.442 48.2687,122.942 26.5,116.5C 25.5836,116.543 24.9169,116.876 24.5,117.5C 23.596,116.791 23.2627,115.791 23.5,114.5C 24.9464,113.387 26.6131,113.22 28.5,114C 44.725,118.742 61.0583,123.075 77.5,127C 82.4555,128.218 87.4555,128.551 92.5,128C 98.3052,126.001 100.805,121.834 100,115.5C 100.333,115.833 100.667,116.167 101,116.5C 101.227,111.103 101.894,105.769 103,100.5C 103.383,101.056 103.883,101.389 104.5,101.5 Z"/></g>
    <g><path style="opacity:1" fill="#f77d15" d="M 111.5,141.5 C 113.221,146.608 115.221,151.608 117.5,156.5C 100.536,146.174 82.2022,139.174 62.5,135.5C 53.8578,133.901 45.1911,131.901 36.5,129.5C 33.2988,128.621 30.6322,126.955 28.5,124.5C 28.62,123.414 29.2867,122.747 30.5,122.5C 58.5719,131.629 85.5719,137.962 111.5,141.5 Z"/></g>
    <g><path style="opacity:1" fill="#e88a44" d="M 139.5,159.5 C 139.167,159.5 138.833,159.5 138.5,159.5C 136.748,157.754 135.415,155.754 134.5,153.5C 135.579,149.923 136.246,146.256 136.5,142.5C 136.245,139.185 135.245,136.185 133.5,133.5C 136.22,131.21 137.72,128.21 138,124.5C 141.944,121.028 146.611,119.028 152,118.5C 153.728,118.454 155.228,118.954 156.5,120C 153.72,125.542 151.72,131.709 150.5,138.5C 151.282,142.242 151.449,146.242 151,150.5C 150.667,150.167 150.333,149.833 150,149.5C 148.673,152.497 147.339,155.497 146,158.5C 143.494,154.749 141.328,155.083 139.5,159.5 Z"/></g>
    <g><path style="opacity:1" fill="#f1852a" d="M 107.5,126.5 C 108.833,131.167 110.167,135.833 111.5,140.5C 111.5,140.833 111.5,141.167 111.5,141.5C 85.5719,137.962 58.5719,131.629 30.5,122.5C 29.2867,122.747 28.62,123.414 28.5,124.5C 27.1667,123.833 26.1667,122.833 25.5,121.5C 25.1667,120.167 24.8333,118.833 24.5,117.5C 24.9169,116.876 25.5836,116.543 26.5,116.5C 48.2687,122.942 70.2687,128.442 92.5,133C 95.8333,133.667 99.1667,133.667 102.5,133C 104.437,130.929 106.104,128.762 107.5,126.5 Z"/></g>
    <g><path style="opacity:0.931" fill="#585858" d="M 37.5,143.5 C 41.138,143.738 43.9713,145.404 46,148.5C 46.6667,153.833 46.6667,159.167 46,164.5C 41.5986,165.467 37.0986,165.8 32.5,165.5C 34.1861,158.054 35.8528,150.721 37.5,143.5 Z"/></g>
    <g><path style="opacity:1" fill="#f0862e" d="M 188.5,124.5 C 186.275,142.778 179.275,158.945 167.5,173C 161.619,178.608 154.619,181.441 146.5,181.5C 146.082,180.778 145.416,180.278 144.5,180C 149.543,175.288 154.877,170.955 160.5,167C 166.742,161.429 172.242,155.262 177,148.5C 181.429,140.507 182.596,132.174 180.5,123.5C 181.622,108.308 183.622,107.974 186.5,122.5C 186.747,123.713 187.414,124.38 188.5,124.5 Z"/></g>
    <g><path style="opacity:1" fill="#f4bf77" d="M 130.5,148.5 C 131.167,148.5 131.5,148.833 131.5,149.5C 132.026,151.23 133.026,152.564 134.5,153.5C 135.415,155.754 136.748,157.754 138.5,159.5C 138.628,161.655 138.128,163.655 137,165.5C 135,168.666 132.5,171.332 129.5,173.5C 125.793,170.424 122.793,166.758 120.5,162.5C 122.929,162.415 124.929,161.415 126.5,159.5C 127.174,157.483 128.341,155.817 130,154.5C 129.744,152.398 129.911,150.398 130.5,148.5 Z"/></g>
    <g><path style="opacity:0.983" fill="#424142" d="M 37.5,135.5 C 44.8484,138.592 51.6817,142.592 58,147.5C 59.4561,153.097 59.7894,158.763 59,164.5C 55.773,164.953 52.773,165.953 50,167.5C 48.3198,172.706 46.1531,177.706 43.5,182.5C 43.8627,183.183 44.1961,183.85 44.5,184.5C 32.7502,183.368 28.7502,177.035 32.5,165.5C 37.0986,165.8 41.5986,165.467 46,164.5C 46.6667,159.167 46.6667,153.833 46,148.5C 43.9713,145.404 41.138,143.738 37.5,143.5C 37.5,140.833 37.5,138.167 37.5,135.5 Z"/></g>
    <g><path style="opacity:1" fill="#2b2a2b" d="M 36.5,129.5 C 45.1911,131.901 53.8578,133.901 62.5,135.5C 63.7918,146.251 65.6251,156.917 68,167.5C 68.6667,171.167 68.6667,174.833 68,178.5C 66.8333,181 65,182.833 62.5,184C 56.5092,184.499 50.5092,184.666 44.5,184.5C 44.1961,183.85 43.8627,183.183 43.5,182.5C 46.1531,177.706 48.3198,172.706 50,167.5C 52.773,165.953 55.773,164.953 59,164.5C 59.7894,158.763 59.4561,153.097 58,147.5C 51.6817,142.592 44.8484,138.592 37.5,135.5C 36.6586,133.621 36.3253,131.621 36.5,129.5 Z"/></g>
    <g><path style="opacity:0.976" fill="#efa55c" d="M 138.5,159.5 C 138.833,159.5 139.167,159.5 139.5,159.5C 141.748,162.393 144.748,164.06 148.5,164.5C 145.827,169.687 142.16,174.187 137.5,178C 138.056,178.383 138.389,178.883 138.5,179.5C 134.975,178.241 131.975,176.241 129.5,173.5C 132.5,171.332 135,168.666 137,165.5C 138.128,163.655 138.628,161.655 138.5,159.5 Z"/></g>
</svg>
