<?xml version="1.0" encoding="UTF-8"?>
<!DOCTYPE svg PUBLIC "-//W3C//DTD SVG 1.1//EN" "http://www.w3.org/Graphics/SVG/1.1/DTD/svg11.dtd">
<svg xmlns="http://www.w3.org/2000/svg" version="1.1" width="146px" height="136px" style="shape-rendering:geometricPrecision; text-rendering:geometricPrecision; image-rendering:optimizeQuality; fill-rule:evenodd; clip-rule:evenodd" xmlns:xlink="http://www.w3.org/1999/xlink">
    <g><path style="opacity:0.898" fill="#ecdd7f" d="M 81.5,15.5 C 80.5416,15.9528 79.7083,16.6195 79,17.5C 76.6284,20.9099 74.7951,24.5766 73.5,28.5C 72.1667,28.5 70.8333,28.5 69.5,28.5C 71.9301,23.9634 74.5968,19.6301 77.5,15.5C 78.9613,14.3143 80.2946,14.3143 81.5,15.5 Z"/></g>
    <g><path style="opacity:0.937" fill="#f2eab1" d="M 110.5,31.5 C 107.892,31.5997 105.558,30.9331 103.5,29.5C 95.894,25.2205 88.5607,20.5539 81.5,15.5C 80.2946,14.3143 78.9613,14.3143 77.5,15.5C 78.0717,12.7564 79.7383,11.9231 82.5,13C 92.0701,18.9418 101.403,25.1085 110.5,31.5 Z"/></g>
    <g><path style="opacity:0.486" fill="#f7a494" d="M 62.5,29.5 C 64.6074,28.5318 66.9407,28.1984 69.5,28.5C 70.8333,28.5 72.1667,28.5 73.5,28.5C 79.8576,28.9536 85.8576,30.6202 91.5,33.5C 94.8514,36.8482 98.5181,39.8482 102.5,42.5C 102.5,42.8333 102.5,43.1667 102.5,43.5C 101.883,43.6107 101.383,43.944 101,44.5C 96.2228,41.7225 92.0562,38.2225 88.5,34C 84.9675,32.3677 81.3008,31.2011 77.5,30.5C 77.1667,30.5 76.8333,30.5 76.5,30.5C 72.03,29.5139 67.3633,29.1805 62.5,29.5 Z"/></g>
    <g><path style="opacity:0.986" fill="#f96848" d="M 59.5,31.5 C 64.9753,30.5111 70.642,30.1778 76.5,30.5C 76.8333,30.5 77.1667,30.5 77.5,30.5C 79.7005,32.6404 82.3672,34.1404 85.5,35C 83.8333,36 82.1667,37 80.5,38C 83.9457,38.6613 87.2791,39.4946 90.5,40.5C 90.5172,42.5648 90.8505,44.5648 91.5,46.5C 85.2014,42.0202 78.2014,39.1868 70.5,38C 73.3463,37.1207 74.013,35.4541 72.5,33C 68.1679,32.4167 63.8346,31.9167 59.5,31.5 Z"/></g>
    <g><path style="opacity:0.898" fill="#f9826d" d="M 62.5,29.5 C 67.3633,29.1805 72.03,29.5139 76.5,30.5C 70.642,30.1778 64.9753,30.5111 59.5,31.5C 53.3045,33.2801 47.9712,36.4468 43.5,41C 42.552,41.4828 41.552,41.6495 40.5,41.5C 40.5,41.1667 40.5,40.8333 40.5,40.5C 42.0269,40.573 43.0269,39.9063 43.5,38.5C 48.9152,33.6264 55.2485,30.6264 62.5,29.5 Z"/></g>
    <g><path style="opacity:0.412" fill="#e9de86" d="M 103.5,29.5 C 105.558,30.9331 107.892,31.5997 110.5,31.5C 110.5,32.5 110.5,33.5 110.5,34.5C 108.25,37.9988 106.25,41.6654 104.5,45.5C 103.833,44.8333 103.167,44.1667 102.5,43.5C 102.5,43.1667 102.5,42.8333 102.5,42.5C 103.338,42.1583 103.672,41.4916 103.5,40.5C 104.623,38.4194 105.623,36.2527 106.5,34C 105.685,32.3566 104.685,30.8566 103.5,29.5 Z"/></g>
    <g><path style="opacity:0.599" fill="#b1dbee" d="M 91.5,33.5 C 95.974,34.964 99.974,37.2973 103.5,40.5C 103.672,41.4916 103.338,42.1583 102.5,42.5C 98.5181,39.8482 94.8514,36.8482 91.5,33.5 Z"/></g>
    <g><path style="opacity:0.596" fill="#f4e3ba" d="M 29.5,34.5 C 29.5,35.1667 29.8333,35.5 30.5,35.5C 32.2417,38.6434 34.2417,41.6434 36.5,44.5C 37.4168,43.8728 38.4168,43.5394 39.5,43.5C 38.4884,44.8717 37.4884,46.205 36.5,47.5C 33.6576,43.008 30.6576,38.508 27.5,34C 28.4368,33.3083 29.1034,33.475 29.5,34.5 Z"/></g>
    <g><path style="opacity:1" fill="#ed7e68" d="M 77.5,30.5 C 81.3008,31.2011 84.9675,32.3677 88.5,34C 92.0562,38.2225 96.2228,41.7225 101,44.5C 101.383,43.944 101.883,43.6107 102.5,43.5C 103.167,44.1667 103.833,44.8333 104.5,45.5C 106.528,48.9015 108.528,52.2349 110.5,55.5C 110.5,55.8333 110.5,56.1667 110.5,56.5C 106.854,53.8488 103.854,50.5154 101.5,46.5C 99.1956,48.4311 97.3622,50.7644 96,53.5C 94.8111,51.7669 93.6444,50.1002 92.5,48.5C 92.1667,47.8333 91.8333,47.1667 91.5,46.5C 90.8505,44.5648 90.5172,42.5648 90.5,40.5C 87.2791,39.4946 83.9457,38.6613 80.5,38C 82.1667,37 83.8333,36 85.5,35C 82.3672,34.1404 79.7005,32.6404 77.5,30.5 Z"/></g>
    <g><path style="opacity:0.643" fill="#e5d579" d="M 43.5,38.5 C 43.0269,39.9063 42.0269,40.573 40.5,40.5C 37.1499,38.8039 33.8165,37.1373 30.5,35.5C 29.8333,35.5 29.5,35.1667 29.5,34.5C 29.1034,33.475 28.4368,33.3083 27.5,34C 30.6576,38.508 33.6576,43.008 36.5,47.5C 36.1583,48.3382 35.4916,48.6716 34.5,48.5C 30.3235,42.6444 26.9901,36.311 24.5,29.5C 30.9435,32.2213 37.2769,35.2213 43.5,38.5 Z"/></g>
    <g><path style="opacity:0.996" fill="#f05233" d="M 59.5,31.5 C 63.8346,31.9167 68.1679,32.4167 72.5,33C 74.013,35.4541 73.3463,37.1207 70.5,38C 78.2014,39.1868 85.2014,42.0202 91.5,46.5C 91.8333,47.1667 92.1667,47.8333 92.5,48.5C 92.6716,49.4916 92.3382,50.1583 91.5,50.5C 84.4465,43.1101 75.7798,40.2767 65.5,42C 62.5547,42.139 60.2214,43.3057 58.5,45.5C 56.9731,45.427 55.9731,46.0937 55.5,47.5C 54.5084,47.3284 53.8417,47.6618 53.5,48.5C 52.5,48.8333 51.8333,49.5 51.5,50.5C 50.1882,51.1451 49.1882,52.1451 48.5,53.5C 49.9501,54.8498 50.6168,56.5165 50.5,58.5C 50.5,58.8333 50.5,59.1667 50.5,59.5C 49.1667,59.1667 47.8333,58.8333 46.5,58.5C 43.5907,56.7814 40.7573,54.7814 38,52.5C 36.2962,54.3734 34.4628,56.0401 32.5,57.5C 33.038,55.8828 33.3713,54.2161 33.5,52.5C 33.8333,51.1667 34.1667,49.8333 34.5,48.5C 35.4916,48.6716 36.1583,48.3382 36.5,47.5C 37.4884,46.205 38.4884,44.8717 39.5,43.5C 39.8333,42.8333 40.1667,42.1667 40.5,41.5C 41.552,41.6495 42.552,41.4828 43.5,41C 47.9712,36.4468 53.3045,33.2801 59.5,31.5 Z"/></g>
    <g><path style="opacity:1" fill="#93c75a" d="M 110.5,34.5 C 116.846,35.6687 117.846,38.502 113.5,43C 114.423,45.0408 114.756,47.2075 114.5,49.5C 113.094,49.9731 112.427,50.9731 112.5,52.5C 112.068,53.7095 111.401,54.7095 110.5,55.5C 108.528,52.2349 106.528,48.9015 104.5,45.5C 106.25,41.6654 108.25,37.9988 110.5,34.5 Z"/></g>
    <g><path style="opacity:1" fill="#b9cdd5" d="M 58.5,45.5 C 59.1667,45.5 59.8333,45.5 60.5,45.5C 59.2196,46.9313 57.5529,47.5979 55.5,47.5C 55.9731,46.0937 56.9731,45.427 58.5,45.5 Z"/></g>
    <g><path style="opacity:1" fill="#ec816f" d="M 91.5,50.5 C 90.8333,50.8333 90.1667,51.1667 89.5,51.5C 87.7036,49.1 85.3702,47.4333 82.5,46.5C 80.8516,45.0735 78.8516,44.2401 76.5,44C 73.1832,43.5017 69.8499,43.335 66.5,43.5C 64.3024,43.8751 62.3024,44.5418 60.5,45.5C 59.8333,45.5 59.1667,45.5 58.5,45.5C 60.2214,43.3057 62.5547,42.139 65.5,42C 75.7798,40.2767 84.4465,43.1101 91.5,50.5 Z"/></g>
    <g><path style="opacity:1" fill="#e4c979" d="M 66.5,43.5 C 69.8499,43.335 73.1832,43.5017 76.5,44C 78.8516,44.2401 80.8516,45.0735 82.5,46.5C 80.7484,48.2459 79.4151,50.2459 78.5,52.5C 76.0311,55.2358 75.0311,58.2358 75.5,61.5C 74.3065,62.2719 73.3065,63.2719 72.5,64.5C 70.9731,64.427 69.9731,65.0937 69.5,66.5C 69.1667,66.5 68.8333,66.5 68.5,66.5C 67.1876,62.5837 66.1876,58.5837 65.5,54.5C 65.5,53.1667 65.5,51.8333 65.5,50.5C 62.6872,50.5481 60.0205,51.2147 57.5,52.5C 57.1667,52 56.8333,51.5 56.5,51C 58.0671,49.1896 60.0671,48.023 62.5,47.5C 63.086,47.7093 63.586,48.0426 64,48.5C 65.1203,46.9698 65.9536,45.3032 66.5,43.5 Z"/></g>
    <g><path style="opacity:1" fill="#d59b71" d="M 53.5,48.5 C 55.0438,51.248 55.7105,54.248 55.5,57.5C 54.5,57.5 53.5,57.5 52.5,57.5C 52.8016,54.9407 52.4682,52.6074 51.5,50.5C 51.8333,49.5 52.5,48.8333 53.5,48.5 Z"/></g>
    <g><path style="opacity:1" fill="#ecdf86" d="M 82.5,46.5 C 85.3702,47.4333 87.7036,49.1 89.5,51.5C 89.0269,52.9063 88.0269,53.573 86.5,53.5C 84.1727,53.7529 82.1727,53.0863 80.5,51.5C 79.8165,51.8627 79.1499,52.1961 78.5,52.5C 79.4151,50.2459 80.7484,48.2459 82.5,46.5 Z"/></g>
    <g><path style="opacity:1" fill="#e4d5a3" d="M 66.5,43.5 C 65.9536,45.3032 65.1203,46.9698 64,48.5C 63.586,48.0426 63.086,47.7093 62.5,47.5C 60.0671,48.023 58.0671,49.1896 56.5,51C 56.8333,51.5 57.1667,52 57.5,52.5C 60.0205,51.2147 62.6872,50.5481 65.5,50.5C 65.5,51.8333 65.5,53.1667 65.5,54.5C 61.9076,54.698 58.5742,55.698 55.5,57.5C 55.7105,54.248 55.0438,51.248 53.5,48.5C 53.8417,47.6618 54.5084,47.3284 55.5,47.5C 57.5529,47.5979 59.2196,46.9313 60.5,45.5C 62.3024,44.5418 64.3024,43.8751 66.5,43.5 Z"/></g>
    <g><path style="opacity:1" fill="#547eb7" d="M 51.5,50.5 C 52.4682,52.6074 52.8016,54.9407 52.5,57.5C 52.1583,58.3382 51.4916,58.6716 50.5,58.5C 50.6168,56.5165 49.9501,54.8498 48.5,53.5C 49.1882,52.1451 50.1882,51.1451 51.5,50.5 Z"/></g>
    <g><path style="opacity:1" fill="#e64024" d="M 46.5,58.5 C 45.8333,58.5 45.5,58.8333 45.5,59.5C 43.7682,61.3707 41.6016,62.704 39,63.5C 38.3333,66.5 38.3333,69.5 39,72.5C 40.6986,76.117 41.8653,79.9503 42.5,84C 42.472,85.0698 42.1386,85.9032 41.5,86.5C 40.8826,86.3893 40.3826,86.056 40,85.5C 39.6764,80.8425 38.0098,76.8425 35,73.5C 34.7108,68.3859 33.8775,63.3859 32.5,58.5C 32.5,58.1667 32.5,57.8333 32.5,57.5C 34.4628,56.0401 36.2962,54.3734 38,52.5C 40.7573,54.7814 43.5907,56.7814 46.5,58.5 Z"/></g>
    <g><path style="opacity:1" fill="#e3d15f" d="M 86.5,53.5 C 83.0484,56.3993 79.3817,59.0659 75.5,61.5C 75.0311,58.2358 76.0311,55.2358 78.5,52.5C 79.1499,52.1961 79.8165,51.8627 80.5,51.5C 82.1727,53.0863 84.1727,53.7529 86.5,53.5 Z"/></g>
    <g><path style="opacity:1" fill="#1c60a5" d="M 112.5,52.5 C 114.893,53.3527 116.226,55.0194 116.5,57.5C 114.784,57.6287 113.117,57.962 111.5,58.5C 111.5,57.8333 111.167,57.5 110.5,57.5C 110.5,57.1667 110.5,56.8333 110.5,56.5C 110.5,56.1667 110.5,55.8333 110.5,55.5C 111.401,54.7095 112.068,53.7095 112.5,52.5 Z"/></g>
    <g><path style="opacity:1" fill="#f56e46" d="M 110.5,56.5 C 110.5,56.8333 110.5,57.1667 110.5,57.5C 108.284,60.4442 105.284,62.1109 101.5,62.5C 102.085,59.7395 101.085,58.0728 98.5,57.5C 96.1667,58.1667 93.8333,58.8333 91.5,59.5C 85.7372,57.699 81.0705,59.199 77.5,64C 75.8659,64.4935 74.1992,64.6602 72.5,64.5C 73.3065,63.2719 74.3065,62.2719 75.5,61.5C 79.3817,59.0659 83.0484,56.3993 86.5,53.5C 88.0269,53.573 89.0269,52.9063 89.5,51.5C 90.1667,51.1667 90.8333,50.8333 91.5,50.5C 92.3382,50.1583 92.6716,49.4916 92.5,48.5C 93.6444,50.1002 94.8111,51.7669 96,53.5C 97.3622,50.7644 99.1956,48.4311 101.5,46.5C 103.854,50.5154 106.854,53.8488 110.5,56.5 Z"/></g>
    <g><path style="opacity:1" fill="#70c1ea" d="M 114.5,49.5 C 116.595,50.412 118.595,51.5787 120.5,53C 122.037,54.1096 122.703,55.6096 122.5,57.5C 119.167,58.8333 115.833,60.1667 112.5,61.5C 111.89,60.609 111.557,59.609 111.5,58.5C 113.117,57.962 114.784,57.6287 116.5,57.5C 116.226,55.0194 114.893,53.3527 112.5,52.5C 112.427,50.9731 113.094,49.9731 114.5,49.5 Z"/></g>
    <g><path style="opacity:1" fill="#2777d6" d="M 31.5,58.5 C 31.5,59.1667 31.5,59.8333 31.5,60.5C 30.5489,61.9187 30.2155,63.5853 30.5,65.5C 29.71,66.6085 29.21,67.9419 29,69.5C 27.5,66.3333 26,63.1667 24.5,60C 26.0671,58.1896 28.0671,57.023 30.5,56.5C 31.2975,56.9569 31.6309,57.6236 31.5,58.5 Z"/></g>
    <g><path style="opacity:1" fill="#bbd1e3" d="M 65.5,54.5 C 66.1876,58.5837 67.1876,62.5837 68.5,66.5C 67.5,67.1667 66.5,67.8333 65.5,68.5C 60.3343,65.7516 55.3343,62.7516 50.5,59.5C 50.5,59.1667 50.5,58.8333 50.5,58.5C 51.4916,58.6716 52.1583,58.3382 52.5,57.5C 53.5,57.5 54.5,57.5 55.5,57.5C 58.5742,55.698 61.9076,54.698 65.5,54.5 Z"/></g>
    <g><path style="opacity:1" fill="#ddcc63" d="M 46.5,58.5 C 47.8333,58.8333 49.1667,59.1667 50.5,59.5C 55.3343,62.7516 60.3343,65.7516 65.5,68.5C 64.8333,68.8333 64.1667,69.1667 63.5,69.5C 61.9505,68.5592 60.2838,67.8925 58.5,67.5C 57.205,66.5116 55.8717,65.5116 54.5,64.5C 51.6223,62.8946 48.6223,61.5612 45.5,60.5C 45.5,60.1667 45.5,59.8333 45.5,59.5C 45.5,58.8333 45.8333,58.5 46.5,58.5 Z"/></g>
    <g><path style="opacity:1" fill="#3294d9" d="M 122.5,57.5 C 122.657,58.8734 122.49,60.2068 122,61.5C 116.738,63.6757 114.238,67.6757 114.5,73.5C 113.622,69.6643 112.956,65.6643 112.5,61.5C 115.833,60.1667 119.167,58.8333 122.5,57.5 Z"/></g>
    <g><path style="opacity:1" fill="#b4b94e" d="M 95.5,61.5 C 97.1436,61.8102 98.1436,62.8102 98.5,64.5C 95.0534,65.083 92.0534,66.4163 89.5,68.5C 88.0527,69.8852 87.0527,69.5518 86.5,67.5C 89.672,65.7481 92.672,63.7481 95.5,61.5 Z"/></g>
    <g><path style="opacity:1" fill="#aec7e1" d="M 45.5,60.5 C 48.6223,61.5612 51.6223,62.8946 54.5,64.5C 52.8996,66.5713 52.3996,68.9047 53,71.5C 54.6995,72.4061 56.5328,72.7394 58.5,72.5C 58.5,70.8333 58.5,69.1667 58.5,67.5C 60.2838,67.8925 61.9505,68.5592 63.5,69.5C 58.5806,73.6378 53.2473,77.3045 47.5,80.5C 46.0295,79.6195 45.1962,78.2861 45,76.5C 44.2185,71.0833 44.3852,65.7499 45.5,60.5 Z"/></g>
    <g><path style="opacity:1" fill="#f05832" d="M 101.5,62.5 C 101.5,63.1667 101.167,63.5 100.5,63.5C 99.596,62.791 99.2627,61.791 99.5,60.5C 97.901,60.2322 96.5676,60.5655 95.5,61.5C 92.672,63.7481 89.672,65.7481 86.5,67.5C 85.6618,67.8417 85.3284,68.5084 85.5,69.5C 82.1667,71.1667 78.8333,72.8333 75.5,74.5C 72.1485,73.9916 69.1485,72.6582 66.5,70.5C 67.325,69.6143 68.325,69.281 69.5,69.5C 69.5,68.5 69.5,67.5 69.5,66.5C 69.9731,65.0937 70.9731,64.427 72.5,64.5C 74.1992,64.6602 75.8659,64.4935 77.5,64C 81.0705,59.199 85.7372,57.699 91.5,59.5C 93.8333,58.8333 96.1667,58.1667 98.5,57.5C 101.085,58.0728 102.085,59.7395 101.5,62.5 Z"/></g>
    <g><path style="opacity:1" fill="#e3e4e6" d="M 54.5,64.5 C 55.8717,65.5116 57.205,66.5116 58.5,67.5C 58.5,69.1667 58.5,70.8333 58.5,72.5C 56.5328,72.7394 54.6995,72.4061 53,71.5C 52.3996,68.9047 52.8996,66.5713 54.5,64.5 Z"/></g>
    <g><path style="opacity:1" fill="#79c4e5" d="M 98.5,64.5 C 98.5,65.1667 98.5,65.8333 98.5,66.5C 95.8324,68.8373 92.8324,69.5039 89.5,68.5C 92.0534,66.4163 95.0534,65.083 98.5,64.5 Z"/></g>
    <g><path style="opacity:1" fill="#d6726b" d="M 95.5,61.5 C 96.5676,60.5655 97.901,60.2322 99.5,60.5C 99.2627,61.791 99.596,62.791 100.5,63.5C 100.666,68.8437 100.499,74.1771 100,79.5C 99.7996,81.3197 98.9663,82.653 97.5,83.5C 98.7868,80.302 99.4535,76.9686 99.5,73.5C 99.8016,70.9407 99.4682,68.6074 98.5,66.5C 98.5,65.8333 98.5,65.1667 98.5,64.5C 98.1436,62.8102 97.1436,61.8102 95.5,61.5 Z"/></g>
    <g><path style="opacity:1" fill="#e25841" d="M 110.5,57.5 C 111.167,57.5 111.5,57.8333 111.5,58.5C 111.557,59.609 111.89,60.609 112.5,61.5C 112.956,65.6643 113.622,69.6643 114.5,73.5C 114.784,75.4147 114.451,77.0813 113.5,78.5C 113.657,77.1266 113.49,75.7932 113,74.5C 110.099,80.2441 105.599,83.9108 99.5,85.5C 99.6427,87.2624 99.3094,88.9291 98.5,90.5C 94.8346,92.8407 91.5012,95.5074 88.5,98.5C 86.5,98.5 84.5,98.5 82.5,98.5C 83.5,97.8333 84.5,97.1667 85.5,96.5C 88.7642,94.9059 91.4309,92.5725 93.5,89.5C 95.316,87.8816 96.6493,85.8816 97.5,83.5C 98.9663,82.653 99.7996,81.3197 100,79.5C 100.499,74.1771 100.666,68.8437 100.5,63.5C 101.167,63.5 101.5,63.1667 101.5,62.5C 105.284,62.1109 108.284,60.4442 110.5,57.5 Z"/></g>
    <g><path style="opacity:1" fill="#56b3e5" d="M 33.5,52.5 C 33.3713,54.2161 33.038,55.8828 32.5,57.5C 32.5,57.8333 32.5,58.1667 32.5,58.5C 32.1667,58.5 31.8333,58.5 31.5,58.5C 31.6309,57.6236 31.2975,56.9569 30.5,56.5C 28.0671,57.023 26.0671,58.1896 24.5,60C 26,63.1667 27.5,66.3333 29,69.5C 29.21,67.9419 29.71,66.6085 30.5,65.5C 29.7142,74.2132 31.0475,82.5466 34.5,90.5C 30.5187,83.8709 27.0187,76.8709 24,69.5C 22.3262,65.9793 21.1596,62.3127 20.5,58.5C 24.5912,56.1288 28.9245,54.1288 33.5,52.5 Z"/></g>
    <g><path style="opacity:1" fill="#77bde5" d="M 85.5,69.5 C 86.2625,70.2679 87.2625,70.7679 88.5,71C 83.9239,73.1235 79.2573,74.9569 74.5,76.5C 74.8333,75.8333 75.1667,75.1667 75.5,74.5C 78.8333,72.8333 82.1667,71.1667 85.5,69.5 Z"/></g>
    <g><path style="opacity:1" fill="#e6513a" d="M 45.5,59.5 C 45.5,59.8333 45.5,60.1667 45.5,60.5C 44.3852,65.7499 44.2185,71.0833 45,76.5C 45.1962,78.2861 46.0295,79.6195 47.5,80.5C 53.2473,77.3045 58.5806,73.6378 63.5,69.5C 64.1667,69.1667 64.8333,68.8333 65.5,68.5C 66.5,67.8333 67.5,67.1667 68.5,66.5C 68.8333,66.5 69.1667,66.5 69.5,66.5C 69.5,67.5 69.5,68.5 69.5,69.5C 68.325,69.281 67.325,69.6143 66.5,70.5C 69.1485,72.6582 72.1485,73.9916 75.5,74.5C 75.1667,75.1667 74.8333,75.8333 74.5,76.5C 72.1838,77.8056 69.8505,79.1389 67.5,80.5C 59.2077,83.1524 50.8744,85.8191 42.5,88.5C 41.7025,88.0431 41.3691,87.3764 41.5,86.5C 42.1386,85.9032 42.472,85.0698 42.5,84C 41.8653,79.9503 40.6986,76.117 39,72.5C 38.3333,69.5 38.3333,66.5 39,63.5C 41.6016,62.704 43.7682,61.3707 45.5,59.5 Z"/></g>
    <g><path style="opacity:1" fill="#3b90d6" d="M 98.5,66.5 C 99.4682,68.6074 99.8016,70.9407 99.5,73.5C 84.2524,78.6146 69.2524,84.6146 54.5,91.5C 54.5,91.1667 54.5,90.8333 54.5,90.5C 58.8333,87.1667 63.1667,83.8333 67.5,80.5C 69.8505,79.1389 72.1838,77.8056 74.5,76.5C 79.2573,74.9569 83.9239,73.1235 88.5,71C 87.2625,70.7679 86.2625,70.2679 85.5,69.5C 85.3284,68.5084 85.6618,67.8417 86.5,67.5C 87.0527,69.5518 88.0527,69.8852 89.5,68.5C 92.8324,69.5039 95.8324,68.8373 98.5,66.5 Z"/></g>
    <g><path style="opacity:1" fill="#e65138" d="M 113.5,78.5 C 112.757,85.7535 110.09,92.0868 105.5,97.5C 106.038,95.8828 106.371,94.2161 106.5,92.5C 104.801,92.3398 103.134,92.5065 101.5,93C 97.3465,95.3268 93.0132,97.1601 88.5,98.5C 91.5012,95.5074 94.8346,92.8407 98.5,90.5C 99.3094,88.9291 99.6427,87.2624 99.5,85.5C 105.599,83.9108 110.099,80.2441 113,74.5C 113.49,75.7932 113.657,77.1266 113.5,78.5 Z"/></g>
    <g><path style="opacity:1" fill="#3e92d7" d="M 99.5,73.5 C 99.4535,76.9686 98.7868,80.302 97.5,83.5C 95.629,83.1412 94.129,82.1412 93,80.5C 84.6767,81.7207 76.8433,84.8873 69.5,90C 67.2083,92.1157 65.2083,94.2824 63.5,96.5C 63.5,95.5 63.5,94.5 63.5,93.5C 61.5853,93.2155 59.9187,93.5489 58.5,94.5C 56.5956,94.2624 55.2623,93.2624 54.5,91.5C 69.2524,84.6146 84.2524,78.6146 99.5,73.5 Z"/></g>
    <g><path style="opacity:1" fill="#4396d8" d="M 97.5,83.5 C 96.6493,85.8816 95.316,87.8816 93.5,89.5C 89.5078,89.8243 86.5078,91.6576 84.5,95C 84.5699,95.7648 84.9033,96.2648 85.5,96.5C 84.5,97.1667 83.5,97.8333 82.5,98.5C 81.8333,98.5 81.1667,98.5 80.5,98.5C 80.5852,97.0047 79.9185,96.0047 78.5,95.5C 76.4501,96.0766 75.4501,97.4099 75.5,99.5C 70.6882,100.035 66.3548,99.0355 62.5,96.5C 62.8333,96.5 63.1667,96.5 63.5,96.5C 65.2083,94.2824 67.2083,92.1157 69.5,90C 76.8433,84.8873 84.6767,81.7207 93,80.5C 94.129,82.1412 95.629,83.1412 97.5,83.5 Z"/></g>
    <g><path style="opacity:1" fill="#da4430" d="M 31.5,58.5 C 31.8333,58.5 32.1667,58.5 32.5,58.5C 33.8775,63.3859 34.7108,68.3859 35,73.5C 38.0098,76.8425 39.6764,80.8425 40,85.5C 40.3826,86.056 40.8826,86.3893 41.5,86.5C 41.3691,87.3764 41.7025,88.0431 42.5,88.5C 50.8744,85.8191 59.2077,83.1524 67.5,80.5C 63.1667,83.8333 58.8333,87.1667 54.5,90.5C 52.2157,91.6774 51.8823,93.3441 53.5,95.5C 51.8564,96.3164 50.6897,97.6498 50,99.5C 49.6667,98.8333 49.3333,98.1667 49,97.5C 48.3333,98.8333 47.6667,98.8333 47,97.5C 46.1376,95.913 45.4709,94.2464 45,92.5C 43.8525,93.4581 42.8525,93.1247 42,91.5C 41.6258,92.4162 41.1258,93.2496 40.5,94C 45.9024,97.8434 50.569,102.343 54.5,107.5C 53.8333,107.5 53.1667,107.5 52.5,107.5C 36.5477,95.922 29.5477,80.2554 31.5,60.5C 31.5,59.8333 31.5,59.1667 31.5,58.5 Z"/></g>
    <g><path style="opacity:0.239" fill="#4076b9" d="M 20.5,58.5 C 21.1596,62.3127 22.3262,65.9793 24,69.5C 27.0187,76.8709 30.5187,83.8709 34.5,90.5C 35.8897,91.8993 36.8897,93.5659 37.5,95.5C 36.1779,95.67 35.0113,95.3366 34,94.5C 28.9445,83.9989 24.2778,73.3322 20,62.5C 19.235,60.9343 19.4017,59.6009 20.5,58.5 Z"/></g>
    <g><path style="opacity:1" fill="#d67c79" d="M 31.5,60.5 C 29.5477,80.2554 36.5477,95.922 52.5,107.5C 49.8333,106.167 47.1667,104.833 44.5,103.5C 41.4503,101.451 39.117,98.7843 37.5,95.5C 36.8897,93.5659 35.8897,91.8993 34.5,90.5C 31.0475,82.5466 29.7142,74.2132 30.5,65.5C 30.2155,63.5853 30.5489,61.9187 31.5,60.5 Z"/></g>
    <g><path style="opacity:1" fill="#205fb4" d="M 93.5,89.5 C 91.4309,92.5725 88.7642,94.9059 85.5,96.5C 84.9033,96.2648 84.5699,95.7648 84.5,95C 86.5078,91.6576 89.5078,89.8243 93.5,89.5 Z"/></g>
    <g><path style="opacity:1" fill="#3750c2" d="M 63.5,96.5 C 63.1667,96.5 62.8333,96.5 62.5,96.5C 60.847,96.3404 59.5137,95.6737 58.5,94.5C 59.9187,93.5489 61.5853,93.2155 63.5,93.5C 63.5,94.5 63.5,95.5 63.5,96.5 Z"/></g>
    <g><path style="opacity:1" fill="#2652b0" d="M 80.5,98.5 C 78.7839,98.6287 77.1172,98.962 75.5,99.5C 75.4501,97.4099 76.4501,96.0766 78.5,95.5C 79.9185,96.0047 80.5852,97.0047 80.5,98.5 Z"/></g>
    <g><path style="opacity:0.898" fill="#f04628" d="M 105.5,97.5 C 99.6119,105.693 91.6119,110.693 81.5,112.5C 76.1053,112.733 70.772,112.4 65.5,111.5C 64.4019,110.603 64.4019,109.77 65.5,109C 73.4795,105.962 81.1462,102.462 88.5,98.5C 93.0132,97.1601 97.3465,95.3268 101.5,93C 103.134,92.5065 104.801,92.3398 106.5,92.5C 106.371,94.2161 106.038,95.8828 105.5,97.5 Z"/></g>
    <g><path style="opacity:1" fill="#e06455" d="M 54.5,90.5 C 54.5,90.8333 54.5,91.1667 54.5,91.5C 55.2623,93.2624 56.5956,94.2624 58.5,94.5C 59.5137,95.6737 60.847,96.3404 62.5,96.5C 66.3548,99.0355 70.6882,100.035 75.5,99.5C 77.1172,98.962 78.7839,98.6287 80.5,98.5C 81.1667,98.5 81.8333,98.5 82.5,98.5C 79.114,99.9704 75.4473,100.637 71.5,100.5C 67.4838,100.261 63.4838,99.9275 59.5,99.5C 59.5,98.5 59.5,97.5 59.5,96.5C 57.4352,96.4828 55.4352,96.1495 53.5,95.5C 51.8823,93.3441 52.2157,91.6774 54.5,90.5 Z"/></g>
    <g><path style="opacity:1" fill="#de4631" d="M 53.5,95.5 C 55.4352,96.1495 57.4352,96.4828 59.5,96.5C 59.5,97.5 59.5,98.5 59.5,99.5C 63.4838,99.9275 67.4838,100.261 71.5,100.5C 75.4473,100.637 79.114,99.9704 82.5,98.5C 84.5,98.5 86.5,98.5 88.5,98.5C 81.1462,102.462 73.4795,105.962 65.5,109C 64.4019,109.77 64.4019,110.603 65.5,111.5C 61.7809,110.481 58.1143,109.148 54.5,107.5C 50.569,102.343 45.9024,97.8434 40.5,94C 41.1258,93.2496 41.6258,92.4162 42,91.5C 42.8525,93.1247 43.8525,93.4581 45,92.5C 45.4709,94.2464 46.1376,95.913 47,97.5C 47.6667,98.8333 48.3333,98.8333 49,97.5C 49.3333,98.1667 49.6667,98.8333 50,99.5C 50.6897,97.6498 51.8564,96.3164 53.5,95.5 Z"/></g>
    <g><path style="opacity:0.998" fill="#5197d6" d="M 44.5,103.5 C 47.1667,104.833 49.8333,106.167 52.5,107.5C 55.1667,109.167 57.8333,110.833 60.5,112.5C 58.2888,113.037 56.2888,114.037 54.5,115.5C 53.062,115.281 51.7287,114.781 50.5,114C 48.2723,110.612 46.2723,107.112 44.5,103.5 Z"/></g>
    <g><path style="opacity:0.698" fill="#e7857c" d="M 52.5,107.5 C 53.1667,107.5 53.8333,107.5 54.5,107.5C 58.1143,109.148 61.7809,110.481 65.5,111.5C 70.772,112.4 76.1053,112.733 81.5,112.5C 78.5167,113.388 75.3501,114.054 72,114.5C 68.1632,113.777 64.3299,113.111 60.5,112.5C 57.8333,110.833 55.1667,109.167 52.5,107.5 Z"/></g>
</svg>
