<?xml version="1.0" encoding="UTF-8"?>
<!DOCTYPE svg PUBLIC "-//W3C//DTD SVG 1.1//EN" "http://www.w3.org/Graphics/SVG/1.1/DTD/svg11.dtd">
<svg xmlns="http://www.w3.org/2000/svg" version="1.1" width="210px" height="180px" style="shape-rendering:geometricPrecision; text-rendering:geometricPrecision; image-rendering:optimizeQuality; fill-rule:evenodd; clip-rule:evenodd" xmlns:xlink="http://www.w3.org/1999/xlink">
    <g><path style="opacity:0.989" fill="#df325f" d="M 134.5,9.5 C 132.345,9.37201 130.345,9.87201 128.5,11C 96.3301,29.9193 63.9968,48.586 31.5,67C 25.7121,72.0771 21.5455,78.2437 19,85.5C 18.3333,108.167 18.3333,130.833 19,153.5C 19.4652,154.931 20.2986,156.097 21.5,157C 20.9056,157.464 20.2389,157.631 19.5,157.5C 16.0738,155.924 12.7405,154.091 9.5,152C 7.51255,150.681 6.34588,148.848 6,146.5C 5.33333,123.5 5.33333,100.5 6,77.5C 8.1556,69.3485 12.6556,62.8485 19.5,58C 51.2981,39.9329 82.9648,21.5996 114.5,3C 117.077,1.74962 119.743,1.41629 122.5,2C 126.732,4.27465 130.732,6.77465 134.5,9.5 Z"/></g>
    <g><path style="opacity:0.997" fill="#f35170" d="M 134.5,9.5 C 136.411,9.5743 137.578,10.5743 138,12.5C 138.5,29.1633 138.667,45.83 138.5,62.5C 117.931,78.063 103.598,98.063 95.5,122.5C 92.4462,124.871 89.1128,126.871 85.5,128.5C 81.8431,141.483 75.3431,152.816 66,162.5C 60.5615,167.784 54.7282,172.45 48.5,176.5C 48.0618,176.565 47.7284,176.399 47.5,176C 55.5343,166.738 59.5343,155.904 59.5,143.5C 54.2854,145.441 49.2854,147.941 44.5,151C 43.9341,151.995 43.2674,152.828 42.5,153.5C 38.6432,155.839 34.6432,158.006 30.5,160C 26.3036,161.051 22.6369,160.217 19.5,157.5C 20.2389,157.631 20.9056,157.464 21.5,157C 20.2986,156.097 19.4652,154.931 19,153.5C 18.3333,130.833 18.3333,108.167 19,85.5C 21.5455,78.2437 25.7121,72.0771 31.5,67C 63.9968,48.586 96.3301,29.9193 128.5,11C 130.345,9.87201 132.345,9.37201 134.5,9.5 Z"/></g>
    <g><path style="opacity:0.983" fill="#fecf6b" d="M 189.5,59.5 C 179.789,57.4914 170.456,58.6581 161.5,63C 132.911,78.0188 114.745,101.185 107,132.5C 105.733,142.097 107.899,150.764 113.5,158.5C 97.8461,151.632 91.8461,139.632 95.5,122.5C 103.598,98.063 117.931,78.063 138.5,62.5C 147.896,56.2563 158.23,52.5897 169.5,51.5C 177.297,51.6478 183.964,54.3145 189.5,59.5 Z"/></g>
    <g><path style="opacity:1" fill="#fef9fa" d="M 114.5,60.5 C 108.281,62.2166 104.114,66.2166 102,72.5C 101.699,75.4615 101.532,78.1282 101.5,80.5C 96.8913,78.2755 95.3913,74.6088 97,69.5C 99.2981,62.1774 104.131,58.344 111.5,58C 112.942,58.3768 113.942,59.2101 114.5,60.5 Z"/></g>
    <g><path style="opacity:0.997" fill="#fdbc20" d="M 189.5,59.5 C 199.762,63.9984 204.428,71.9984 203.5,83.5C 203.04,97.3813 198.873,110.048 191,121.5C 185.118,130.388 178.118,138.388 170,145.5C 169.26,146.749 169.427,147.749 170.5,148.5C 171.43,152.093 173.763,153.759 177.5,153.5C 169.794,158.538 161.294,160.205 152,158.5C 144.811,161.278 137.311,162.945 129.5,163.5C 123.488,163.67 118.155,162.003 113.5,158.5C 107.899,150.764 105.733,142.097 107,132.5C 114.745,101.185 132.911,78.0188 161.5,63C 170.456,58.6581 179.789,57.4914 189.5,59.5 Z"/></g>
    <g><path style="opacity:1" fill="#d4d8e8" d="M 114.5,60.5 C 117.378,61.2122 119.045,63.0456 119.5,66C 118.94,73.13 115.607,78.4633 109.5,82C 106.462,82.885 103.795,82.385 101.5,80.5C 101.532,78.1282 101.699,75.4615 102,72.5C 104.114,66.2166 108.281,62.2166 114.5,60.5 Z"/></g>
    <g><path style="opacity:1" fill="#fef9fa" d="M 84.5,76.5 C 75.653,80.507 71.653,87.507 72.5,97.5C 68.6766,96.4998 67.01,93.9998 67.5,90C 68.0045,80.1608 73.0045,75.1608 82.5,75C 83.0442,75.7172 83.7109,76.2172 84.5,76.5 Z"/></g>
    <g><path style="opacity:1" fill="#d4d8e8" d="M 84.5,76.5 C 89.2612,78.6162 90.7612,82.2829 89,87.5C 87.495,92.355 84.6617,96.1883 80.5,99C 77.462,99.885 74.7954,99.385 72.5,97.5C 71.653,87.507 75.653,80.507 84.5,76.5 Z"/></g>
    <g><path style="opacity:1" fill="#eae6f3" d="M 163.5,87.5 C 154.445,90.5481 147.445,96.2148 142.5,104.5C 140.623,103.341 140.123,101.674 141,99.5C 145.117,94.0256 150.284,89.8589 156.5,87C 159.039,86.2042 161.372,86.3709 163.5,87.5 Z"/></g>
    <g><path style="opacity:1" fill="#f6f5f8" d="M 163.5,87.5 C 169.268,90.365 171.102,95.0316 169,101.5C 166.401,107.089 163.401,112.423 160,117.5C 159.973,121.386 158.473,124.552 155.5,127C 161.381,129.656 162.047,133.322 157.5,138C 152.638,140.236 149.638,138.736 148.5,133.5C 149.395,130.607 150.729,127.941 152.5,125.5C 153.741,117.349 156.908,110.016 162,103.5C 162.667,101.5 162.667,99.5 162,97.5C 161.023,96.2264 160.189,96.2264 159.5,97.5C 154.595,98.8817 150.595,101.715 147.5,106C 145.465,106.599 143.799,106.099 142.5,104.5C 147.445,96.2148 154.445,90.5481 163.5,87.5 Z"/></g>
    <g><path style="opacity:1" fill="#fdf8f9" d="M 55.5,93.5 C 46.5343,97.5056 42.5343,104.506 43.5,114.5C 38.0134,112.862 36.1801,109.195 38,103.5C 39.717,98.4514 42.8837,94.618 47.5,92C 50.4071,91.2815 53.0738,91.7815 55.5,93.5 Z"/></g>
    <g><path style="opacity:1" fill="#d4d8e8" d="M 55.5,93.5 C 58.7069,94.7104 60.3735,97.0437 60.5,100.5C 59.8011,107.405 56.4677,112.572 50.5,116C 48.5,116.667 46.5,116.667 44.5,116C 43.944,115.617 43.6107,115.117 43.5,114.5C 42.5343,104.506 46.5343,97.5056 55.5,93.5 Z"/></g>
    <g><path style="opacity:1" fill="#eae7f8" d="M 152.5,125.5 C 151.504,125.586 150.671,125.252 150,124.5C 149.333,121.833 149.333,119.167 150,116.5C 153.726,110.381 156.893,104.048 159.5,97.5C 160.189,96.2264 161.023,96.2264 162,97.5C 162.667,99.5 162.667,101.5 162,103.5C 156.908,110.016 153.741,117.349 152.5,125.5 Z"/></g>
    <g><path style="opacity:0.986" fill="#df3260" d="M 48.5,176.5 C 42.9907,175.747 37.9907,173.247 33.5,169C 37.6734,164.483 40.6734,159.316 42.5,153.5C 43.2674,152.828 43.9341,151.995 44.5,151C 49.2854,147.941 54.2854,145.441 59.5,143.5C 59.5343,155.904 55.5343,166.738 47.5,176C 47.7284,176.399 48.0618,176.565 48.5,176.5 Z"/></g>
    <g><path style="opacity:0.518" fill="#fed79d" d="M 170.5,148.5 C 173.047,149.934 175.381,151.6 177.5,153.5C 173.763,153.759 171.43,152.093 170.5,148.5 Z"/></g>
</svg>
