<?xml version="1.0" encoding="UTF-8"?>
<!DOCTYPE svg PUBLIC "-//W3C//DTD SVG 1.1//EN" "http://www.w3.org/Graphics/SVG/1.1/DTD/svg11.dtd">
<svg xmlns="http://www.w3.org/2000/svg" version="1.1" width="162px" height="162px" style="shape-rendering:geometricPrecision; text-rendering:geometricPrecision; image-rendering:optimizeQuality; fill-rule:evenodd; clip-rule:evenodd" xmlns:xlink="http://www.w3.org/1999/xlink">
    <g><path style="opacity:0.93" fill="#fdeea7" d="M 70.5,-0.5 C 77.1667,-0.5 83.8333,-0.5 90.5,-0.5C 93.4487,0.367817 96.4487,1.36782 99.5,2.5C 99.1961,3.14987 98.8627,3.81654 98.5,4.5C 85.1833,5.49917 71.85,5.8325 58.5,5.5C 58.5,5.16667 58.5,4.83333 58.5,4.5C 62.1691,2.05431 66.1691,0.387641 70.5,-0.5 Z"/></g>
    <g><path style="opacity:0.948" fill="#b2d9fd" d="M 58.5,4.5 C 58.5,4.83333 58.5,5.16667 58.5,5.5C 57.8902,6.39105 57.5569,7.39105 57.5,8.5C 56.5489,9.91866 56.2155,11.5853 56.5,13.5C 49.1591,13.3337 41.8258,13.5003 34.5,14C 30.9421,15.8917 28.4421,18.7251 27,22.5C 26.5,43.8307 26.3334,65.1641 26.5,86.5C 25.71,85.3915 25.21,84.0581 25,82.5C 22.5,85.3333 20,88.1667 17.5,91C 16.552,91.4828 15.552,91.6495 14.5,91.5C 14.3334,66.1645 14.5,40.8311 15,15.5C 16.4056,10.4268 19.5723,6.92678 24.5,5C 35.8284,4.50014 47.1618,4.33348 58.5,4.5 Z"/></g>
    <g><path style="opacity:1" fill="#6185d8" d="M 102.5,4.5 C 104.167,4.5 105.833,4.5 107.5,4.5C 107.5,7.16667 107.5,9.83333 107.5,12.5C 106.5,12.5 105.5,12.5 104.5,12.5C 104.768,10.901 104.434,9.56764 103.5,8.5C 103.672,7.50838 103.338,6.84171 102.5,6.5C 102.5,5.83333 102.5,5.16667 102.5,4.5 Z"/></g>
    <g><path style="opacity:0.976" fill="#4d76d2" d="M 131.5,4.5 C 135.044,4.1324 138.044,5.1324 140.5,7.5C 138.6,12.0939 137.267,17.0939 136.5,22.5C 135.571,21.4502 134.905,21.4502 134.5,22.5C 133.5,21.1667 132.5,19.8333 131.5,18.5C 131.5,18.1667 131.5,17.8333 131.5,17.5C 131.5,13.1667 131.5,8.83333 131.5,4.5 Z"/></g>
    <g><path style="opacity:1" fill="#fce071" d="M 99.5,2.5 C 101.027,2.42702 102.027,3.09368 102.5,4.5C 102.5,5.16667 102.5,5.83333 102.5,6.5C 101.833,6.5 101.167,6.5 100.5,6.5C 98.5767,6.79495 96.9101,7.62829 95.5,9C 82.8377,9.49988 70.1711,9.66655 57.5,9.5C 57.5,9.16667 57.5,8.83333 57.5,8.5C 57.5569,7.39105 57.8902,6.39105 58.5,5.5C 71.85,5.8325 85.1833,5.49917 98.5,4.5C 98.8627,3.81654 99.1961,3.14987 99.5,2.5 Z"/></g>
    <g><path style="opacity:1" fill="#89baf5" d="M 107.5,4.5 C 112.833,4.5 118.167,4.5 123.5,4.5C 122.628,7.57852 122.628,10.5785 123.5,13.5C 116.978,13.8235 110.645,13.4902 104.5,12.5C 105.5,12.5 106.5,12.5 107.5,12.5C 107.5,9.83333 107.5,7.16667 107.5,4.5 Z"/></g>
    <g><path style="opacity:1" fill="#6997e6" d="M 123.5,4.5 C 126.167,4.5 128.833,4.5 131.5,4.5C 131.5,8.83333 131.5,13.1667 131.5,17.5C 129.348,15.2218 126.681,13.8884 123.5,13.5C 122.628,10.5785 122.628,7.57852 123.5,4.5 Z"/></g>
    <g><path style="opacity:1" fill="#fbcd43" d="M 100.5,6.5 C 100.275,9.5458 98.942,11.8791 96.5,13.5C 83.5,13.5 70.5,13.5 57.5,13.5C 57.5,12.1667 57.5,10.8333 57.5,9.5C 70.1711,9.66655 82.8377,9.49988 95.5,9C 96.9101,7.62829 98.5767,6.79495 100.5,6.5 Z"/></g>
    <g><path style="opacity:1" fill="#f3f8fd" d="M 57.5,8.5 C 57.5,8.83333 57.5,9.16667 57.5,9.5C 57.5,10.8333 57.5,12.1667 57.5,13.5C 57.2291,15.3797 57.8958,16.713 59.5,17.5C 59.5,18.1667 59.5,18.8333 59.5,19.5C 59.3455,22.716 60.3455,25.3826 62.5,27.5C 63.326,29.2644 64.6593,30.5977 66.5,31.5C 69.1667,34.5 71.8333,37.5 74.5,40.5C 75.6935,41.2719 76.6935,42.2719 77.5,43.5C 79.845,45.5136 81.845,47.847 83.5,50.5C 78.4685,55.5328 73.1352,60.1995 67.5,64.5C 64.9115,62.9202 62.5782,60.9202 60.5,58.5C 57.8971,57.4383 55.2305,57.2716 52.5,58C 49.6286,60.7028 46.9619,63.5361 44.5,66.5C 38.1612,66.1538 36.1612,68.8205 38.5,74.5C 38.5,75.1667 38.8333,75.5 39.5,75.5C 40.1667,75.5 40.5,75.8333 40.5,76.5C 42.8333,79.5 45.5,82.1667 48.5,84.5C 51.2109,88.2119 54.5442,91.2119 58.5,93.5C 58.1667,94.5 57.5,95.1667 56.5,95.5C 50.734,94.196 45.0673,94.196 39.5,95.5C 35.2023,98.4633 31.2023,101.797 27.5,105.5C 27.7373,104.209 27.404,103.209 26.5,102.5C 26.5,97.1667 26.5,91.8333 26.5,86.5C 26.3334,65.1641 26.5,43.8307 27,22.5C 28.4421,18.7251 30.9421,15.8917 34.5,14C 41.8258,13.5003 49.1591,13.3337 56.5,13.5C 56.2155,11.5853 56.5489,9.91866 57.5,8.5 Z"/></g>
    <g><path style="opacity:1" fill="#fcb62a" d="M 57.5,13.5 C 70.5,13.5 83.5,13.5 96.5,13.5C 96.0472,14.4584 95.3805,15.2917 94.5,16C 82.6595,16.1693 70.9928,16.6693 59.5,17.5C 57.8958,16.713 57.2291,15.3797 57.5,13.5 Z"/></g>
    <g><path style="opacity:1" fill="#fba031" d="M 100.5,6.5 C 101.167,6.5 101.833,6.5 102.5,6.5C 103.338,6.84171 103.672,7.50838 103.5,8.5C 103.887,12.4441 103.22,16.1108 101.5,19.5C 99.8333,19.5 98.1667,19.5 96.5,19.5C 85.8333,19.5 75.1667,19.5 64.5,19.5C 62.8333,19.5 61.1667,19.5 59.5,19.5C 59.5,18.8333 59.5,18.1667 59.5,17.5C 70.9928,16.6693 82.6595,16.1693 94.5,16C 95.3805,15.2917 96.0472,14.4584 96.5,13.5C 98.942,11.8791 100.275,9.5458 100.5,6.5 Z"/></g>
    <g><path style="opacity:1" fill="#c89daa" d="M 64.5,20.5 C 64.5,20.1667 64.5,19.8333 64.5,19.5C 75.1667,19.5 85.8333,19.5 96.5,19.5C 96.7678,21.099 96.4345,22.4324 95.5,23.5C 95.5,23.1667 95.5,22.8333 95.5,22.5C 85.5541,20.5247 75.2208,19.8581 64.5,20.5 Z"/></g>
    <g><path style="opacity:1" fill="#dbd4ed" d="M 123.5,49.5 C 123.5,48.1667 123.5,46.8333 123.5,45.5C 123.666,39.4908 123.499,33.4908 123,27.5C 122.135,24.7974 120.301,23.4641 117.5,23.5C 115.423,23.6922 113.423,24.1922 111.5,25C 100.523,31.8071 89.19,37.9738 77.5,43.5C 76.6935,42.2719 75.6935,41.2719 74.5,40.5C 80.7248,40.0646 86.3915,37.8979 91.5,34C 92.2524,33.3292 92.5858,32.4959 92.5,31.5C 96.0204,30.6472 98.6871,28.6472 100.5,25.5C 106.545,22.1467 112.878,19.3134 119.5,17C 122.025,16.1041 124.192,16.6041 126,18.5C 127.566,28.7733 127.899,39.1066 127,49.5C 125.607,46.8749 124.441,46.8749 123.5,49.5 Z"/></g>
    <g><path style="opacity:1" fill="#d2c6e5" d="M 64.5,20.5 C 75.2208,19.8581 85.5541,20.5247 95.5,22.5C 87.16,22.3336 78.8267,22.5003 70.5,23C 69.1772,23.8159 68.5106,24.9826 68.5,26.5C 65.2244,25.8784 63.8911,23.8784 64.5,20.5 Z"/></g>
    <g><path style="opacity:1" fill="#696969" d="M 59.5,19.5 C 61.1667,19.5 62.8333,19.5 64.5,19.5C 64.5,19.8333 64.5,20.1667 64.5,20.5C 63.8911,23.8784 65.2244,25.8784 68.5,26.5C 76.5,26.5 84.5,26.5 92.5,26.5C 82.6806,27.494 72.6806,27.8274 62.5,27.5C 60.3455,25.3826 59.3455,22.716 59.5,19.5 Z"/></g>
    <g><path style="opacity:1" fill="#e9e9f6" d="M 95.5,22.5 C 95.5,22.8333 95.5,23.1667 95.5,23.5C 95.5,25.5 94.5,26.5 92.5,26.5C 84.5,26.5 76.5,26.5 68.5,26.5C 68.5106,24.9826 69.1772,23.8159 70.5,23C 78.8267,22.5003 87.16,22.3336 95.5,22.5 Z"/></g>
    <g><path style="opacity:1" fill="#e6e3f4" d="M 123.5,45.5 C 122.833,45.1667 122.167,44.8333 121.5,44.5C 116.441,42.8608 113.774,44.8608 113.5,50.5C 103.78,61.2209 93.4471,71.2209 82.5,80.5C 81.1667,79.8333 80.1667,78.8333 79.5,77.5C 80.5832,77.5394 81.5832,77.8728 82.5,78.5C 92.5,69.1667 102.167,59.5 111.5,49.5C 110.685,47.932 110.352,46.5986 110.5,45.5C 105.266,47.0327 100.266,49.6994 95.5,53.5C 93.2448,51.3122 91.0781,51.6455 89,54.5C 87.2258,53.035 85.3925,51.7017 83.5,50.5C 81.845,47.847 79.845,45.5136 77.5,43.5C 89.19,37.9738 100.523,31.8071 111.5,25C 113.423,24.1922 115.423,23.6922 117.5,23.5C 120.301,23.4641 122.135,24.7974 123,27.5C 123.499,33.4908 123.666,39.4908 123.5,45.5 Z"/></g>
    <g><path style="opacity:1" fill="#393839" d="M 96.5,19.5 C 98.1667,19.5 99.8333,19.5 101.5,19.5C 101.483,21.5648 101.15,23.5648 100.5,25.5C 98.6871,28.6472 96.0204,30.6472 92.5,31.5C 83.8333,31.5 75.1667,31.5 66.5,31.5C 64.6593,30.5977 63.326,29.2644 62.5,27.5C 72.6806,27.8274 82.6806,27.494 92.5,26.5C 94.5,26.5 95.5,25.5 95.5,23.5C 96.4345,22.4324 96.7678,21.099 96.5,19.5 Z"/></g>
    <g><path style="opacity:1" fill="#d0c1e3" d="M 66.5,31.5 C 75.1667,31.5 83.8333,31.5 92.5,31.5C 92.5858,32.4959 92.2524,33.3292 91.5,34C 86.3915,37.8979 80.7248,40.0646 74.5,40.5C 71.8333,37.5 69.1667,34.5 66.5,31.5 Z"/></g>
    <g><path style="opacity:1" fill="#fce793" d="M 121.5,44.5 C 118.527,45.8103 116.193,47.8103 114.5,50.5C 114.167,50.5 113.833,50.5 113.5,50.5C 113.774,44.8608 116.441,42.8608 121.5,44.5 Z"/></g>
    <g><path style="opacity:1" fill="#fcb539" d="M 121.5,44.5 C 122.167,44.8333 122.833,45.1667 123.5,45.5C 123.5,46.8333 123.5,48.1667 123.5,49.5C 122.555,52.9868 120.222,54.3201 116.5,53.5C 116.5,52.8333 116.167,52.5 115.5,52.5C 114.662,52.1583 114.328,51.4916 114.5,50.5C 116.193,47.8103 118.527,45.8103 121.5,44.5 Z"/></g>
    <g><path style="opacity:1" fill="#eef0fa" d="M 79.5,77.5 C 77.5,75.5 75.5,73.5 73.5,71.5C 71.448,69.122 69.448,66.7887 67.5,64.5C 73.1352,60.1995 78.4685,55.5328 83.5,50.5C 85.3925,51.7017 87.2258,53.035 89,54.5C 91.0781,51.6455 93.2448,51.3122 95.5,53.5C 100.266,49.6994 105.266,47.0327 110.5,45.5C 110.352,46.5986 110.685,47.932 111.5,49.5C 102.167,59.5 92.5,69.1667 82.5,78.5C 81.5832,77.8728 80.5832,77.5394 79.5,77.5 Z"/></g>
    <g><path style="opacity:1" fill="#d8ceeb" d="M 28.5,145.5 C 27.6618,145.158 27.3284,144.492 27.5,143.5C 27.5,142.833 27.5,142.167 27.5,141.5C 40.5383,141.265 53.5383,140.598 66.5,139.5C 84.7598,140.652 103.093,140.819 121.5,140C 122.337,138.989 122.67,137.822 122.5,136.5C 104.167,136.5 85.8333,136.5 67.5,136.5C 84.9921,135.503 102.659,135.17 120.5,135.5C 120.852,132.572 121.518,129.738 122.5,127C 122.272,126.601 121.938,126.435 121.5,126.5C 122.234,125.292 122.567,123.959 122.5,122.5C 104.167,122.5 85.8333,122.5 67.5,122.5C 85.6591,121.503 103.992,121.17 122.5,121.5C 122.81,118.287 122.477,115.287 121.5,112.5C 122.833,111.167 122.833,109.833 121.5,108.5C 123.197,106.695 124.03,104.361 124,101.5C 124.667,89.8333 124.667,78.1667 124,66.5C 122.164,64.2916 119.831,62.9583 117,62.5C 115.333,63.8333 113.667,63.8333 112,62.5C 109.966,63.8621 107.799,64.8621 105.5,65.5C 107.5,62.8333 109.833,60.5 112.5,58.5C 117.127,56.4035 121.794,56.2368 126.5,58C 127.191,59.0674 127.691,60.2341 128,61.5C 128.194,88.1897 127.527,114.856 126,141.5C 124.352,142.717 122.519,143.55 120.5,144C 89.8279,144.329 59.1612,144.829 28.5,145.5 Z"/></g>
    <g><path style="opacity:1" fill="#fd899b" d="M 67.5,64.5 C 69.448,66.7887 71.448,69.122 73.5,71.5C 71.7085,71.366 70.0418,71.6993 68.5,72.5C 66.8333,71.1667 65.1667,69.8333 63.5,68.5C 61.5211,65.8544 59.1878,63.5211 56.5,61.5C 53.4802,64.189 50.4802,66.8556 47.5,69.5C 47.5,68.8333 47.1667,68.5 46.5,68.5C 46.5,67.8333 46.1667,67.5 45.5,67.5C 45.5,66.8333 45.1667,66.5 44.5,66.5C 46.9619,63.5361 49.6286,60.7028 52.5,58C 55.2305,57.2716 57.8971,57.4383 60.5,58.5C 62.5782,60.9202 64.9115,62.9202 67.5,64.5 Z"/></g>
    <g><path style="opacity:1" fill="#c3a9d8" d="M 63.5,68.5 C 58.1368,69.6192 52.8035,70.9525 47.5,72.5C 47.5,71.5 47.5,70.5 47.5,69.5C 50.4802,66.8556 53.4802,64.189 56.5,61.5C 59.1878,63.5211 61.5211,65.8544 63.5,68.5 Z"/></g>
    <g><path style="opacity:1" fill="#fde38c" d="M 44.5,66.5 C 45.1667,66.5 45.5,66.8333 45.5,67.5C 42.2112,68.7886 39.8779,71.1219 38.5,74.5C 36.1612,68.8205 38.1612,66.1538 44.5,66.5 Z"/></g>
    <g><path style="opacity:1" fill="#fcc23b" d="M 45.5,67.5 C 46.1667,67.5 46.5,67.8333 46.5,68.5C 46.631,69.2389 46.4643,69.9056 46,70.5C 43.648,72.0303 41.4813,73.6969 39.5,75.5C 38.8333,75.5 38.5,75.1667 38.5,74.5C 39.8779,71.1219 42.2112,68.7886 45.5,67.5 Z"/></g>
    <g><path style="opacity:1" fill="#cd0e52" d="M 115.5,52.5 C 116.167,52.5 116.5,52.8333 116.5,53.5C 115.167,55.1667 113.833,56.8333 112.5,58.5C 109.833,60.5 107.5,62.8333 105.5,65.5C 98.8333,71.8333 92.1667,78.1667 85.5,84.5C 85.7086,83.0783 86.2086,81.745 87,80.5C 97.0052,71.6613 106.505,62.328 115.5,52.5 Z"/></g>
    <g><path style="opacity:1" fill="#faa239" d="M 46.5,68.5 C 47.1667,68.5 47.5,68.8333 47.5,69.5C 47.5,70.5 47.5,71.5 47.5,72.5C 46.145,75.5177 43.8116,76.851 40.5,76.5C 40.5,75.8333 40.1667,75.5 39.5,75.5C 41.4813,73.6969 43.648,72.0303 46,70.5C 46.4643,69.9056 46.631,69.2389 46.5,68.5 Z"/></g>
    <g><path style="opacity:1" fill="#dacfeb" d="M 63.5,68.5 C 65.1667,69.8333 66.8333,71.1667 68.5,72.5C 70.1667,74.5 71.8333,76.5 73.5,78.5C 64.9907,79.7355 56.6574,81.7355 48.5,84.5C 45.5,82.1667 42.8333,79.5 40.5,76.5C 43.8116,76.851 46.145,75.5177 47.5,72.5C 52.8035,70.9525 58.1368,69.6192 63.5,68.5 Z"/></g>
    <g><path style="opacity:0.997" fill="#2343ac" d="M 146.5,118.5 C 146.667,129.172 146.5,139.839 146,150.5C 144.373,155.618 141.207,159.285 136.5,161.5C 100.5,161.5 64.5,161.5 28.5,161.5C 28.3893,160.883 28.056,160.383 27.5,160C 31.8333,159.667 36.1667,159.333 40.5,159C 70.5157,158.856 100.516,158.189 130.5,157C 133.548,156.394 136.048,154.894 138,152.5C 139.15,148.712 140.483,145.046 142,141.5C 143.537,104.139 143.87,66.8052 143,29.5C 143.667,30.1667 144.333,30.8333 145,31.5C 145.168,60.6696 145.668,89.6696 146.5,118.5 Z"/></g>
    <g><path style="opacity:1" fill="#fe607a" d="M 73.5,71.5 C 75.5,73.5 77.5,75.5 79.5,77.5C 80.1667,78.8333 81.1667,79.8333 82.5,80.5C 82.2671,82.0618 81.6005,83.3951 80.5,84.5C 78.1667,82.5 75.8333,80.5 73.5,78.5C 71.8333,76.5 70.1667,74.5 68.5,72.5C 70.0418,71.6993 71.7085,71.366 73.5,71.5 Z"/></g>
    <g><path style="opacity:1" fill="#f4366b" d="M 113.5,50.5 C 113.833,50.5 114.167,50.5 114.5,50.5C 114.328,51.4916 114.662,52.1583 115.5,52.5C 106.505,62.328 97.0052,71.6613 87,80.5C 86.2086,81.745 85.7086,83.0783 85.5,84.5C 83.8333,84.5 82.1667,84.5 80.5,84.5C 81.6005,83.3951 82.2671,82.0618 82.5,80.5C 93.4471,71.2209 103.78,61.2209 113.5,50.5 Z"/></g>
    <g><path style="opacity:1" fill="#b79ed5" d="M 131.5,18.5 C 132.5,19.8333 133.5,21.1667 134.5,22.5C 134.5,23.1667 134.5,23.8333 134.5,24.5C 134.667,64.1681 134.5,103.835 134,143.5C 133.148,144.571 132.315,145.571 131.5,146.5C 130.991,118.461 131.657,90.4609 133.5,62.5C 131.651,48.0058 130.984,33.3391 131.5,18.5 Z"/></g>
    <g><path style="opacity:1" fill="#c6b1db" d="M 67.5,90.5 C 68.9616,91.4577 70.2949,92.6244 71.5,94C 88.1667,94.3333 104.833,94.6667 121.5,95C 122.833,96 122.833,97 121.5,98C 106.17,98.4999 90.837,98.6666 75.5,98.5C 72.4816,98.3354 69.4816,98.502 66.5,99C 62.4907,103.375 58.4907,107.708 54.5,112C 53.2068,112.49 51.8734,112.657 50.5,112.5C 40.6993,115.023 37.0326,111.69 39.5,102.5C 41.8333,104.5 44.1667,106.5 46.5,108.5C 49.994,109.423 52.6607,108.089 54.5,104.5C 59.562,100.441 63.8953,95.774 67.5,90.5 Z"/></g>
    <g><path style="opacity:1" fill="#cdbde2" d="M 103.5,8.5 C 104.434,9.56764 104.768,10.901 104.5,12.5C 110.645,13.4902 116.978,13.8235 123.5,13.5C 126.681,13.8884 129.348,15.2218 131.5,17.5C 131.5,17.8333 131.5,18.1667 131.5,18.5C 130.984,33.3391 131.651,48.0058 133.5,62.5C 131.657,90.4609 130.991,118.461 131.5,146.5C 130.415,148.587 128.749,149.92 126.5,150.5C 122.395,150.766 118.395,150.266 114.5,149C 86.8353,148.5 59.1687,148.333 31.5,148.5C 30.8333,148.167 30.1667,147.833 29.5,147.5C 29.1667,146.833 28.8333,146.167 28.5,145.5C 59.1612,144.829 89.8279,144.329 120.5,144C 122.519,143.55 124.352,142.717 126,141.5C 127.527,114.856 128.194,88.1897 128,61.5C 127.691,60.2341 127.191,59.0674 126.5,58C 121.794,56.2368 117.127,56.4035 112.5,58.5C 113.833,56.8333 115.167,55.1667 116.5,53.5C 120.222,54.3201 122.555,52.9868 123.5,49.5C 124.441,46.8749 125.607,46.8749 127,49.5C 127.899,39.1066 127.566,28.7733 126,18.5C 124.192,16.6041 122.025,16.1041 119.5,17C 112.878,19.3134 106.545,22.1467 100.5,25.5C 101.15,23.5648 101.483,21.5648 101.5,19.5C 103.22,16.1108 103.887,12.4441 103.5,8.5 Z"/></g>
    <g><path style="opacity:1" fill="#cdbddf" d="M 56.5,95.5 C 54.1542,98.679 51.3209,101.346 48,103.5C 46.2856,102.924 45.1189,101.757 44.5,100C 42.6547,98.872 40.6547,98.372 38.5,98.5C 38.5569,97.391 38.8902,96.391 39.5,95.5C 45.0673,94.196 50.734,94.196 56.5,95.5 Z"/></g>
    <g><path style="opacity:1" fill="#67803f" d="M 66.5,89.5 C 67.1667,89.5 67.5,89.8333 67.5,90.5C 63.8953,95.774 59.562,100.441 54.5,104.5C 56.9584,98.3636 60.9584,93.3636 66.5,89.5 Z"/></g>
    <g><path style="opacity:1" fill="#92bf45" d="M 66.5,89.5 C 60.9584,93.3636 56.9584,98.3636 54.5,104.5C 51.5923,105.287 48.9256,106.62 46.5,108.5C 44.1667,106.5 41.8333,104.5 39.5,102.5C 38.7659,101.292 38.4326,99.9587 38.5,98.5C 40.6547,98.372 42.6547,98.872 44.5,100C 45.1189,101.757 46.2856,102.924 48,103.5C 51.3209,101.346 54.1542,98.679 56.5,95.5C 57.5,95.1667 58.1667,94.5 58.5,93.5C 60.2959,92.2073 61.9625,90.7073 63.5,89C 64.7494,88.2599 65.7494,88.4265 66.5,89.5 Z"/></g>
    <g><path style="opacity:0.914" fill="#8fc8fd" d="M 26.5,86.5 C 26.5,91.8333 26.5,97.1667 26.5,102.5C 26.5,112.5 26.5,122.5 26.5,132.5C 25.6909,130.708 25.1909,128.708 25,126.5C 22.3416,130.157 19.3416,133.491 16,136.5C 15.6174,135.944 15.1174,135.611 14.5,135.5C 14.5,120.833 14.5,106.167 14.5,91.5C 15.552,91.6495 16.552,91.4828 17.5,91C 20,88.1667 22.5,85.3333 25,82.5C 25.21,84.0581 25.71,85.3915 26.5,86.5 Z"/></g>
    <g><path style="opacity:1" fill="#c7b2dd" d="M 121.5,108.5 C 122.833,109.833 122.833,111.167 121.5,112.5C 103.497,112.667 85.4969,112.5 67.5,112C 66.6634,110.989 66.33,109.822 66.5,108.5C 84.8333,108.5 103.167,108.5 121.5,108.5 Z"/></g>
    <g><path style="opacity:1" fill="#d9d1ec" d="M 75.5,98.5 C 69.2954,104.442 63.2954,110.609 57.5,117C 56.9056,117.464 56.2389,117.631 55.5,117.5C 53.5,116.167 51.8333,114.5 50.5,112.5C 51.8734,112.657 53.2068,112.49 54.5,112C 58.4907,107.708 62.4907,103.375 66.5,99C 69.4816,98.502 72.4816,98.3354 75.5,98.5 Z"/></g>
    <g><path style="opacity:1" fill="#eaecf8" d="M 39.5,95.5 C 38.8902,96.391 38.5569,97.391 38.5,98.5C 38.4326,99.9587 38.7659,101.292 39.5,102.5C 37.0326,111.69 40.6993,115.023 50.5,112.5C 51.8333,114.5 53.5,116.167 55.5,117.5C 57.285,121.12 59.9517,123.953 63.5,126C 62.1667,127.333 60.8333,128.667 59.5,130C 49.0528,133.019 38.3862,134.852 27.5,135.5C 27.5,125.5 27.5,115.5 27.5,105.5C 31.2023,101.797 35.2023,98.4633 39.5,95.5 Z"/></g>
    <g><path style="opacity:1" fill="#e3e0f3" d="M 121.5,108.5 C 103.167,108.5 84.8333,108.5 66.5,108.5C 66.33,109.822 66.6634,110.989 67.5,112C 85.4969,112.5 103.497,112.667 121.5,112.5C 122.477,115.287 122.81,118.287 122.5,121.5C 103.992,121.17 85.6591,121.503 67.5,122.5C 66.2089,123.542 66.2089,124.708 67.5,126C 85.4969,126.5 103.497,126.667 121.5,126.5C 121.938,126.435 122.272,126.601 122.5,127C 121.518,129.738 120.852,132.572 120.5,135.5C 102.659,135.17 84.9921,135.503 67.5,136.5C 66.596,137.209 66.2627,138.209 66.5,139.5C 53.5383,140.598 40.5383,141.265 27.5,141.5C 26.5233,138.713 26.19,135.713 26.5,132.5C 26.5,122.5 26.5,112.5 26.5,102.5C 27.404,103.209 27.7373,104.209 27.5,105.5C 27.5,115.5 27.5,125.5 27.5,135.5C 38.3862,134.852 49.0528,133.019 59.5,130C 60.8333,128.667 62.1667,127.333 63.5,126C 59.9517,123.953 57.285,121.12 55.5,117.5C 56.2389,117.631 56.9056,117.464 57.5,117C 63.2954,110.609 69.2954,104.442 75.5,98.5C 90.837,98.6666 106.17,98.4999 121.5,98C 122.833,97 122.833,96 121.5,95C 104.833,94.6667 88.1667,94.3333 71.5,94C 70.2949,92.6244 68.9616,91.4577 67.5,90.5C 67.5,89.8333 67.1667,89.5 66.5,89.5C 65.7494,88.4265 64.7494,88.2599 63.5,89C 61.9625,90.7073 60.2959,92.2073 58.5,93.5C 54.5442,91.2119 51.2109,88.2119 48.5,84.5C 56.6574,81.7355 64.9907,79.7355 73.5,78.5C 75.8333,80.5 78.1667,82.5 80.5,84.5C 82.1667,84.5 83.8333,84.5 85.5,84.5C 92.1667,78.1667 98.8333,71.8333 105.5,65.5C 107.799,64.8621 109.966,63.8621 112,62.5C 113.667,63.8333 115.333,63.8333 117,62.5C 119.831,62.9583 122.164,64.2916 124,66.5C 124.667,78.1667 124.667,89.8333 124,101.5C 124.03,104.361 123.197,106.695 121.5,108.5 Z"/></g>
    <g><path style="opacity:1" fill="#58732a" d="M 54.5,104.5 C 52.6607,108.089 49.994,109.423 46.5,108.5C 48.9256,106.62 51.5923,105.287 54.5,104.5 Z"/></g>
    <g><path style="opacity:1" fill="#c6b1dd" d="M 67.5,122.5 C 85.8333,122.5 104.167,122.5 122.5,122.5C 122.567,123.959 122.234,125.292 121.5,126.5C 103.497,126.667 85.4969,126.5 67.5,126C 66.2089,124.708 66.2089,123.542 67.5,122.5 Z"/></g>
    <g><path style="opacity:0.976" fill="#75b7fa" d="M 26.5,132.5 C 26.19,135.713 26.5233,138.713 27.5,141.5C 27.5,142.167 27.5,142.833 27.5,143.5C 23.1499,142.892 18.8165,142.558 14.5,142.5C 14.5,140.167 14.5,137.833 14.5,135.5C 15.1174,135.611 15.6174,135.944 16,136.5C 19.3416,133.491 22.3416,130.157 25,126.5C 25.1909,128.708 25.6909,130.708 26.5,132.5 Z"/></g>
    <g><path style="opacity:1" fill="#c5afdc" d="M 67.5,136.5 C 85.8333,136.5 104.167,136.5 122.5,136.5C 122.67,137.822 122.337,138.989 121.5,140C 103.093,140.819 84.7598,140.652 66.5,139.5C 66.2627,138.209 66.596,137.209 67.5,136.5 Z"/></g>
    <g><path style="opacity:1" fill="#5b95ea" d="M 14.5,142.5 C 18.8165,142.558 23.1499,142.892 27.5,143.5C 27.3284,144.492 27.6618,145.158 28.5,145.5C 28.8333,146.167 29.1667,146.833 29.5,147.5C 24.8333,147.5 20.1667,147.5 15.5,147.5C 15.5,148.5 15.5,149.5 15.5,150.5C 14.5269,148.052 14.1936,145.385 14.5,142.5 Z"/></g>
    <g><path style="opacity:1" fill="#b99cd2" d="M 31.5,148.5 C 59.1687,148.333 86.8353,148.5 114.5,149C 118.395,150.266 122.395,150.766 126.5,150.5C 96.6713,151.498 66.6713,151.831 36.5,151.5C 35.8333,151.5 35.1667,151.5 34.5,151.5C 33.3065,150.728 32.3065,149.728 31.5,148.5 Z"/></g>
    <g><path style="opacity:1" fill="#4878d7" d="M 29.5,147.5 C 30.1667,147.833 30.8333,148.167 31.5,148.5C 32.3065,149.728 33.3065,150.728 34.5,151.5C 28.6045,152.677 22.9378,154.01 17.5,155.5C 16.0687,154.22 15.4021,152.553 15.5,150.5C 15.5,149.5 15.5,148.5 15.5,147.5C 20.1667,147.5 24.8333,147.5 29.5,147.5 Z"/></g>
    <g><path style="opacity:1" fill="#2b50ba" d="M 140.5,7.5 C 143.556,9.26303 145.389,11.9297 146,15.5C 146.5,49.8317 146.667,84.165 146.5,118.5C 145.668,89.6696 145.168,60.6696 145,31.5C 144.333,30.8333 143.667,30.1667 143,29.5C 143.87,66.8052 143.537,104.139 142,141.5C 140.483,145.046 139.15,148.712 138,152.5C 136.048,154.894 133.548,156.394 130.5,157C 100.516,158.189 70.5157,158.856 40.5,159C 36.1667,159.333 31.8333,159.667 27.5,160C 28.056,160.383 28.3893,160.883 28.5,161.5C 27.1667,161.5 25.8333,161.5 24.5,161.5C 21.5761,160.247 19.2427,158.247 17.5,155.5C 22.9378,154.01 28.6045,152.677 34.5,151.5C 35.1667,151.5 35.8333,151.5 36.5,151.5C 47.5787,153.648 58.912,154.815 70.5,155C 90.537,155.857 110.537,155.357 130.5,153.5C 132.524,151.642 134.691,149.975 137,148.5C 137.862,146.913 138.529,145.246 139,143.5C 140.409,103.818 138.909,64.1518 134.5,24.5C 134.5,23.8333 134.5,23.1667 134.5,22.5C 134.905,21.4502 135.571,21.4502 136.5,22.5C 137.267,17.0939 138.6,12.0939 140.5,7.5 Z"/></g>
    <g><path style="opacity:1" fill="#355dc8" d="M 134.5,24.5 C 138.909,64.1518 140.409,103.818 139,143.5C 138.529,145.246 137.862,146.913 137,148.5C 134.691,149.975 132.524,151.642 130.5,153.5C 110.537,155.357 90.537,155.857 70.5,155C 58.912,154.815 47.5787,153.648 36.5,151.5C 66.6713,151.831 96.6713,151.498 126.5,150.5C 128.749,149.92 130.415,148.587 131.5,146.5C 132.315,145.571 133.148,144.571 134,143.5C 134.5,103.835 134.667,64.1681 134.5,24.5 Z"/></g>
</svg>
