<?xml version="1.0" encoding="UTF-8"?>
<!DOCTYPE svg PUBLIC "-//W3C//DTD SVG 1.1//EN" "http://www.w3.org/Graphics/SVG/1.1/DTD/svg11.dtd">
<svg xmlns="http://www.w3.org/2000/svg" version="1.1" width="92px" height="90px" style="shape-rendering:geometricPrecision; text-rendering:geometricPrecision; image-rendering:optimizeQuality; fill-rule:evenodd; clip-rule:evenodd" xmlns:xlink="http://www.w3.org/1999/xlink">
    <g><path style="opacity:0.98" fill="#cbcbf3" d="M 32.5,-0.5 C 34.1667,-0.5 35.8333,-0.5 37.5,-0.5C 39.3092,0.481236 40.6426,1.98124 41.5,4C 43.7078,4.19088 45.7078,4.69088 47.5,5.5C 46.6314,7.71702 46.298,10.0504 46.5,12.5C 38.5985,13.8129 30.5985,13.8129 22.5,12.5C 22.5,10.1667 22.5,7.83333 22.5,5.5C 24.3691,4.83538 26.3691,4.16871 28.5,3.5C 29.5487,1.78445 30.882,0.451114 32.5,-0.5 Z"/></g>
    <g><path style="opacity:0.91" fill="#af7146" d="M 22.5,5.5 C 22.5,7.83333 22.5,10.1667 22.5,12.5C 17.5,12.5 12.5,12.5 7.5,12.5C 7.5,34.8333 7.5,57.1667 7.5,79.5C 17.5,79.5 27.5,79.5 37.5,79.5C 37.5,81.8333 37.5,84.1667 37.5,86.5C 26.495,86.6665 15.495,86.4998 4.5,86C 2.66667,85.5 1.5,84.3333 1,82.5C 0.333333,58.1667 0.333333,33.8333 1,9.5C 1.5,7.66667 2.66667,6.5 4.5,6C 10.4908,5.50051 16.4908,5.33385 22.5,5.5 Z"/></g>
    <g><path style="opacity:0.954" fill="#ad6e43" d="M 47.5,5.5 C 53.1764,5.33391 58.8431,5.50058 64.5,6C 65.9308,6.46524 67.0975,7.29857 68,8.5C 68.4997,16.8267 68.6664,25.16 68.5,33.5C 67.8333,33.5 67.5,33.8333 67.5,34.5C 65.9582,33.6993 64.2915,33.366 62.5,33.5C 62.5,26.5 62.5,19.5 62.5,12.5C 57.1667,12.5 51.8333,12.5 46.5,12.5C 46.298,10.0504 46.6314,7.71702 47.5,5.5 Z"/></g>
    <g><path style="opacity:1" fill="#f6f7fd" d="M 22.5,12.5 C 30.5985,13.8129 38.5985,13.8129 46.5,12.5C 51.8333,12.5 57.1667,12.5 62.5,12.5C 62.5,19.5 62.5,26.5 62.5,33.5C 61.8333,33.5 61.1667,33.5 60.5,33.5C 56.1539,33.3343 51.8206,33.501 47.5,34C 44.3333,37.1667 41.1667,40.3333 38,43.5C 37.5001,55.4954 37.3335,67.4954 37.5,79.5C 27.5,79.5 17.5,79.5 7.5,79.5C 7.5,57.1667 7.5,34.8333 7.5,12.5C 12.5,12.5 17.5,12.5 22.5,12.5 Z"/></g>
    <g><path style="opacity:1" fill="#54af74" d="M 25.5,21.5 C 26.5,21.5 27.5,21.5 28.5,21.5C 27.2796,26.2688 24.7796,30.2688 21,33.5C 18.1415,32.4799 16.6415,30.4799 16.5,27.5C 18.143,27.4802 19.4763,28.1468 20.5,29.5C 22.6893,27.1133 24.3559,24.4466 25.5,21.5 Z"/></g>
    <g><path style="opacity:0.993" fill="#fbb16b" d="M 68.5,33.5 C 72.8461,33.3343 77.1794,33.501 81.5,34C 85.5409,37.1854 88.5409,41.0188 90.5,45.5C 84.2564,46.4578 77.923,46.7912 71.5,46.5C 71.5,46.1667 71.5,45.8333 71.5,45.5C 69.8911,41.9459 68.5578,38.2793 67.5,34.5C 67.5,33.8333 67.8333,33.5 68.5,33.5 Z"/></g>
    <g><path style="opacity:1" fill="#f9b472" d="M 60.5,33.5 C 59.3643,37.5738 58.031,41.5738 56.5,45.5C 50.5,45.5 44.5,45.5 38.5,45.5C 38.8281,57.0123 38.4948,68.3456 37.5,79.5C 37.3335,67.4954 37.5001,55.4954 38,43.5C 41.1667,40.3333 44.3333,37.1667 47.5,34C 51.8206,33.501 56.1539,33.3343 60.5,33.5 Z"/></g>
    <g><path style="opacity:1" fill="#944a48" d="M 60.5,33.5 C 61.1667,33.5 61.8333,33.5 62.5,33.5C 64.2915,33.366 65.9582,33.6993 67.5,34.5C 68.5578,38.2793 69.8911,41.9459 71.5,45.5C 66.5,45.5 61.5,45.5 56.5,45.5C 58.031,41.5738 59.3643,37.5738 60.5,33.5 Z"/></g>
    <g><path style="opacity:1" fill="#50ad71" d="M 25.5,40.5 C 26.675,40.281 27.675,40.6143 28.5,41.5C 26.4945,45.5134 23.9945,49.1801 21,52.5C 19.3149,50.9825 17.8149,49.3159 16.5,47.5C 18.1082,46.7579 19.7749,46.5913 21.5,47C 23.0585,44.9481 24.3918,42.7815 25.5,40.5 Z"/></g>
    <g><path style="opacity:0.971" fill="#e99353" d="M 56.5,45.5 C 56.5,49.8333 56.5,54.1667 56.5,58.5C 61.1785,58.6658 65.8452,58.4992 70.5,58C 71.4601,54.27 71.7935,50.4367 71.5,46.5C 77.923,46.7912 84.2564,46.4578 90.5,45.5C 90.6666,59.504 90.4999,73.504 90,87.5C 89.2828,88.0442 88.7828,88.7109 88.5,89.5C 71.8333,89.5 55.1667,89.5 38.5,89.5C 37.8902,88.609 37.5569,87.609 37.5,86.5C 37.5,84.1667 37.5,81.8333 37.5,79.5C 38.4948,68.3456 38.8281,57.0123 38.5,45.5C 44.5,45.5 50.5,45.5 56.5,45.5 Z"/></g>
    <g><path style="opacity:1" fill="#743636" d="M 56.5,45.5 C 61.5,45.5 66.5,45.5 71.5,45.5C 71.5,45.8333 71.5,46.1667 71.5,46.5C 71.7935,50.4367 71.4601,54.27 70.5,58C 65.8452,58.4992 61.1785,58.6658 56.5,58.5C 56.5,54.1667 56.5,49.8333 56.5,45.5 Z"/></g>
    <g><path style="opacity:1" fill="#54af74" d="M 25.5,58.5 C 26.5,58.5 27.5,58.5 28.5,58.5C 27.0577,63.1198 24.5577,67.1198 21,70.5C 18.1415,69.4799 16.6415,67.4799 16.5,64.5C 18.143,64.4802 19.4763,65.1468 20.5,66.5C 22.6893,64.1133 24.3559,61.4466 25.5,58.5 Z"/></g>
    <g><path style="opacity:1" fill="#33305d" d="M 72.5,73.5 C 74.3841,73.7118 75.7174,74.7118 76.5,76.5C 75.1494,79.095 73.9827,81.7617 73,84.5C 70.6007,80.7768 70.434,77.1101 72.5,73.5 Z"/></g>
    <g><path style="opacity:1" fill="#36325d" d="M 81.5,73.5 C 83.3841,73.7118 84.7174,74.7118 85.5,76.5C 84.081,78.9585 83.081,81.6251 82.5,84.5C 81.914,84.2907 81.414,83.9574 81,83.5C 80.7132,81.1093 80.2132,78.7759 79.5,76.5C 80.1925,75.4822 80.8592,74.4822 81.5,73.5 Z"/></g>
    <g><path style="opacity:1" fill="#fefaf7" d="M 43.5,75.5 C 47.1667,75.5 50.8333,75.5 54.5,75.5C 54.5,77.8333 54.5,80.1667 54.5,82.5C 50.8333,82.5 47.1667,82.5 43.5,82.5C 43.5,80.1667 43.5,77.8333 43.5,75.5 Z"/></g>
</svg>
