<?xml version="1.0" encoding="UTF-8"?>
<!DOCTYPE svg PUBLIC "-//W3C//DTD SVG 1.1//EN" "http://www.w3.org/Graphics/SVG/1.1/DTD/svg11.dtd">
<svg xmlns="http://www.w3.org/2000/svg" version="1.1" width="176px" height="190px" style="shape-rendering:geometricPrecision; text-rendering:geometricPrecision; image-rendering:optimizeQuality; fill-rule:evenodd; clip-rule:evenodd" xmlns:xlink="http://www.w3.org/1999/xlink">
    <g><path style="opacity:0.967" fill="#b8eb6b" d="M 60.5,-0.5 C 70.1667,-0.5 79.8333,-0.5 89.5,-0.5C 85.0244,3.57458 80.0244,6.90791 74.5,9.5C 74.0436,6.71437 72.3769,5.38104 69.5,5.5C 63.771,6.39396 62.271,9.39396 65,14.5C 66.897,16.0163 69.0637,16.683 71.5,16.5C 64.9575,20.2159 58.2908,24.8826 51.5,30.5C 50.8182,29.7573 50.1515,29.0906 49.5,28.5C 47.9598,24.9468 45.2931,23.7801 41.5,25C 37.5,28.3333 37.5,31.6667 41.5,35C 43.1341,35.4935 44.8008,35.6602 46.5,35.5C 42.5146,38.6368 38.3479,41.6368 34,44.5C 33.7679,43.2625 33.2679,42.2625 32.5,41.5C 32.3337,34.825 32.5004,28.1583 33,21.5C 33.8333,20.6667 34.6667,19.8333 35.5,19C 42.7458,17.6095 50.0791,17.1095 57.5,17.5C 57.3341,12.4889 57.5007,7.48892 58,2.5C 58.6979,1.30943 59.5313,0.309426 60.5,-0.5 Z"/></g>
    <g><path style="opacity:1" fill="#aedf5e" d="M 89.5,-0.5 C 98.8333,-0.5 108.167,-0.5 117.5,-0.5C 117.785,1.28801 117.452,2.95467 116.5,4.5C 111.923,5.92064 110.423,8.92064 112,13.5C 113.264,15.607 115.097,16.607 117.5,16.5C 117.768,18.099 117.434,19.4324 116.5,20.5C 112.435,20.1027 109.435,18.1027 107.5,14.5C 107.249,12.8297 106.582,11.3297 105.5,10C 97.1667,9.33333 88.8333,9.33333 80.5,10C 79.0194,12.7623 77.3527,15.429 75.5,18C 81.1667,18.3333 86.8333,18.6667 92.5,19C 93.4061,20.6995 93.7394,22.5328 93.5,24.5C 87.8427,24.3244 85.676,26.991 87,32.5C 87.4169,33.756 88.2502,34.4226 89.5,34.5C 90.209,35.404 91.209,35.7373 92.5,35.5C 92.7709,37.3797 92.1042,38.713 90.5,39.5C 87.9785,38.9885 85.6451,37.9885 83.5,36.5C 83.0652,33.8427 82.0652,31.5093 80.5,29.5C 72.3437,28.3434 64.0104,28.1768 55.5,29C 53.9617,30.9321 52.795,33.0988 52,35.5C 49.3104,38.0082 46.3104,40.0082 43,41.5C 42.5017,44.8168 42.335,48.1501 42.5,51.5C 42.5,55.5 42.5,59.5 42.5,63.5C 39.5764,65.8429 36.243,66.1763 32.5,64.5C 32.5,63.5 32.5,62.5 32.5,61.5C 32.5,54.8333 32.5,48.1667 32.5,41.5C 33.2679,42.2625 33.7679,43.2625 34,44.5C 38.3479,41.6368 42.5146,38.6368 46.5,35.5C 48.8337,33.8243 49.8337,31.491 49.5,28.5C 50.1515,29.0906 50.8182,29.7573 51.5,30.5C 58.2908,24.8826 64.9575,20.2159 71.5,16.5C 73.8504,14.7867 74.8504,12.4534 74.5,9.5C 80.0244,6.90791 85.0244,3.57458 89.5,-0.5 Z"/></g>
    <g><path style="opacity:1" fill="#709434" d="M 117.5,-0.5 C 120.167,-0.5 122.833,-0.5 125.5,-0.5C 125.833,0.166667 126.167,0.833333 126.5,1.5C 124.955,2.22967 124.122,3.563 124,5.5C 123.257,17.5074 122.424,29.5074 121.5,41.5C 120.148,40.4756 118.815,39.4756 117.5,38.5C 117.5,38.1667 117.5,37.8333 117.5,37.5C 117.786,31.7414 117.452,26.0748 116.5,20.5C 117.434,19.4324 117.768,18.099 117.5,16.5C 115.097,16.607 113.264,15.607 112,13.5C 110.423,8.92064 111.923,5.92064 116.5,4.5C 117.452,2.95467 117.785,1.28801 117.5,-0.5 Z"/></g>
    <g><path style="opacity:1" fill="#769b3c" d="M 107.5,14.5 C 106.883,14.3893 106.383,14.056 106,13.5C 103.933,16.07 101.433,18.07 98.5,19.5C 97.52,22.0865 97.1866,24.7531 97.5,27.5C 96.1266,27.3433 94.7932,27.51 93.5,28C 92.7659,30.5607 91.4325,32.7274 89.5,34.5C 88.2502,34.4226 87.4169,33.756 87,32.5C 85.676,26.991 87.8427,24.3244 93.5,24.5C 93.7394,22.5328 93.4061,20.6995 92.5,19C 86.8333,18.6667 81.1667,18.3333 75.5,18C 77.3527,15.429 79.0194,12.7623 80.5,10C 88.8333,9.33333 97.1667,9.33333 105.5,10C 106.582,11.3297 107.249,12.8297 107.5,14.5 Z"/></g>
    <g><path style="opacity:1" fill="#7ca044" d="M 74.5,9.5 C 74.8504,12.4534 73.8504,14.7867 71.5,16.5C 69.0637,16.683 66.897,16.0163 65,14.5C 62.271,9.39396 63.771,6.39396 69.5,5.5C 72.3769,5.38104 74.0436,6.71437 74.5,9.5 Z"/></g>
    <g><path style="opacity:1" fill="#5d7b2d" d="M 107.5,14.5 C 109.435,18.1027 112.435,20.1027 116.5,20.5C 117.452,26.0748 117.786,31.7414 117.5,37.5C 113.5,33.8333 109.5,30.1667 105.5,26.5C 104.833,25.5 104.167,24.5 103.5,23.5C 103.189,22.5222 102.522,21.8555 101.5,21.5C 100.667,36.1553 100.167,50.822 100,65.5C 98.1516,68.0414 95.6516,69.0414 92.5,68.5C 92.5,62.5 92.5,56.5 92.5,50.5C 92.5,47.8333 92.5,45.1667 92.5,42.5C 93.3285,49.3213 93.8285,56.3213 94,63.5C 94.6667,62.8333 95.3333,62.1667 96,61.5C 96.832,52.4815 96.6653,43.4815 95.5,34.5C 94.5832,35.1272 93.5832,35.4606 92.5,35.5C 91.209,35.7373 90.209,35.404 89.5,34.5C 91.4325,32.7274 92.7659,30.5607 93.5,28C 94.7932,27.51 96.1266,27.3433 97.5,27.5C 97.1866,24.7531 97.52,22.0865 98.5,19.5C 101.433,18.07 103.933,16.07 106,13.5C 106.383,14.056 106.883,14.3893 107.5,14.5 Z"/></g>
    <g><path style="opacity:1" fill="#7b9f43" d="M 49.5,28.5 C 49.8337,31.491 48.8337,33.8243 46.5,35.5C 44.8008,35.6602 43.1341,35.4935 41.5,35C 37.5,31.6667 37.5,28.3333 41.5,25C 45.2931,23.7801 47.9598,24.9468 49.5,28.5 Z"/></g>
    <g><path style="opacity:1" fill="#6a8c35" d="M 80.5,29.5 C 82.0652,31.5093 83.0652,33.8427 83.5,36.5C 82.1779,36.67 81.0113,36.3366 80,35.5C 69.5921,44.286 59.0921,52.9527 48.5,61.5C 46.5049,62.2945 44.5049,62.9612 42.5,63.5C 42.5,59.5 42.5,55.5 42.5,51.5C 51.0968,44.5191 59.7634,37.5191 68.5,30.5C 72.4454,29.5091 76.4454,29.1758 80.5,29.5 Z"/></g>
    <g><path style="opacity:1" fill="#5a7827" d="M 126.5,1.5 C 126.5,1.83333 126.5,2.16667 126.5,2.5C 125.669,16.6608 125.169,30.9941 125,45.5C 124.667,45.1667 124.333,44.8333 124,44.5C 123.042,49.1232 122.375,53.7899 122,58.5C 119.907,61.1378 118.407,60.8045 117.5,57.5C 117.5,51.1667 117.5,44.8333 117.5,38.5C 118.815,39.4756 120.148,40.4756 121.5,41.5C 122.424,29.5074 123.257,17.5074 124,5.5C 124.122,3.563 124.955,2.22967 126.5,1.5 Z"/></g>
    <g><path style="opacity:1" fill="#59752d" d="M 83.5,36.5 C 85.6451,37.9885 87.9785,38.9885 90.5,39.5C 91.5511,40.2223 92.2178,41.2223 92.5,42.5C 84.8706,48.1285 77.5373,54.1285 70.5,60.5C 71.0253,61.1924 71.6919,61.6924 72.5,62C 63.6391,64.4088 54.6391,66.0754 45.5,67C 43.8807,67.2355 42.8807,68.0689 42.5,69.5C 39.0613,69.7471 35.728,69.4137 32.5,68.5C 32.5,67.1667 32.5,65.8333 32.5,64.5C 36.243,66.1763 39.5764,65.8429 42.5,63.5C 44.5049,62.9612 46.5049,62.2945 48.5,61.5C 59.0921,52.9527 69.5921,44.286 80,35.5C 81.0113,36.3366 82.1779,36.67 83.5,36.5 Z"/></g>
    <g><path style="opacity:1" fill="#7ca23f" d="M 80.5,29.5 C 76.4454,29.1758 72.4454,29.5091 68.5,30.5C 59.7634,37.5191 51.0968,44.5191 42.5,51.5C 42.335,48.1501 42.5017,44.8168 43,41.5C 46.3104,40.0082 49.3104,38.0082 52,35.5C 52.795,33.0988 53.9617,30.9321 55.5,29C 64.0104,28.1768 72.3437,28.3434 80.5,29.5 Z"/></g>
    <g><path style="opacity:1" fill="#4b602b" d="M 92.5,42.5 C 92.5,45.1667 92.5,47.8333 92.5,50.5C 88.9482,55.5391 84.2816,59.3724 78.5,62C 79.8333,62.3333 81.1667,62.6667 82.5,63C 69.4681,67.0053 56.1348,69.172 42.5,69.5C 42.8807,68.0689 43.8807,67.2355 45.5,67C 54.6391,66.0754 63.6391,64.4088 72.5,62C 71.6919,61.6924 71.0253,61.1924 70.5,60.5C 77.5373,54.1285 84.8706,48.1285 92.5,42.5 Z"/></g>
    <g><path style="opacity:1" fill="#6f972a" d="M 92.5,42.5 C 92.2178,41.2223 91.5511,40.2223 90.5,39.5C 92.1042,38.713 92.7709,37.3797 92.5,35.5C 93.5832,35.4606 94.5832,35.1272 95.5,34.5C 96.6653,43.4815 96.832,52.4815 96,61.5C 95.3333,62.1667 94.6667,62.8333 94,63.5C 93.8285,56.3213 93.3285,49.3213 92.5,42.5 Z"/></g>
    <g><path style="opacity:1" fill="#f7947e" d="M 11.5,57.5 C 12.7587,63.0106 15.7587,67.3439 20.5,70.5C 20.4667,74.256 19.4667,77.5893 17.5,80.5C 18.8734,80.3433 20.2068,80.51 21.5,81C 20.8376,107.101 20.171,133.268 19.5,159.5C 16.9159,160.393 14.2492,160.726 11.5,160.5C 11.5,126.167 11.5,91.8333 11.5,57.5 Z"/></g>
    <g><path style="opacity:1" fill="#4b6523" d="M 126.5,2.5 C 127.117,2.61071 127.617,2.94404 128,3.5C 128.5,16.1623 128.667,28.8289 128.5,41.5C 128.167,41.5 127.833,41.5 127.5,41.5C 127.667,29.1622 127.5,16.8288 127,4.5C 126.826,22.4069 126.326,40.2403 125.5,58C 126.492,62.8217 124.492,65.9883 119.5,67.5C 118.808,66.9747 118.308,66.3081 118,65.5C 117.503,62.854 117.336,60.1873 117.5,57.5C 118.407,60.8045 119.907,61.1378 122,58.5C 122.375,53.7899 123.042,49.1232 124,44.5C 124.333,44.8333 124.667,45.1667 125,45.5C 125.169,30.9941 125.669,16.6608 126.5,2.5 Z"/></g>
    <g><path style="opacity:1" fill="#3e5025" d="M 127.5,41.5 C 127.5,51.5 127.5,61.5 127.5,71.5C 121.167,71.5 114.833,71.5 108.5,71.5C 105.534,66.0449 105.2,60.2115 107.5,54C 106.66,44.897 105.994,35.7303 105.5,26.5C 109.5,30.1667 113.5,33.8333 117.5,37.5C 117.5,37.8333 117.5,38.1667 117.5,38.5C 117.5,44.8333 117.5,51.1667 117.5,57.5C 117.336,60.1873 117.503,62.854 118,65.5C 118.308,66.3081 118.808,66.9747 119.5,67.5C 124.492,65.9883 126.492,62.8217 125.5,58C 126.326,40.2403 126.826,22.4069 127,4.5C 127.5,16.8288 127.667,29.1622 127.5,41.5 Z"/></g>
    <g><path style="opacity:1" fill="#af543e" d="M 32.5,61.5 C 32.5,62.5 32.5,63.5 32.5,64.5C 32.5,65.8333 32.5,67.1667 32.5,68.5C 32.5,69.5 32.5,70.5 32.5,71.5C 27.1243,70.7911 24.1243,67.7911 23.5,62.5C 26.5176,62.2962 29.5176,61.9629 32.5,61.5 Z"/></g>
    <g><path style="opacity:1" fill="#445529" d="M 103.5,23.5 C 102.504,38.9911 102.17,54.6578 102.5,70.5C 97.604,70.8804 92.9373,70.2137 88.5,68.5C 73.0515,69.9792 57.7182,70.9792 42.5,71.5C 39.1667,71.5 35.8333,71.5 32.5,71.5C 32.5,70.5 32.5,69.5 32.5,68.5C 35.728,69.4137 39.0613,69.7471 42.5,69.5C 56.1348,69.172 69.4681,67.0053 82.5,63C 81.1667,62.6667 79.8333,62.3333 78.5,62C 84.2816,59.3724 88.9482,55.5391 92.5,50.5C 92.5,56.5 92.5,62.5 92.5,68.5C 95.6516,69.0414 98.1516,68.0414 100,65.5C 100.167,50.822 100.667,36.1553 101.5,21.5C 102.522,21.8555 103.189,22.5222 103.5,23.5 Z"/></g>
    <g><path style="opacity:1" fill="#964630" d="M 127.5,41.5 C 127.833,41.5 128.167,41.5 128.5,41.5C 134.486,40.6643 138.653,42.9976 141,48.5C 141.5,56.1594 141.666,63.8261 141.5,71.5C 136.833,71.5 132.167,71.5 127.5,71.5C 127.5,61.5 127.5,51.5 127.5,41.5 Z"/></g>
    <g><path style="opacity:1" fill="#414b31" d="M 103.5,23.5 C 104.167,24.5 104.833,25.5 105.5,26.5C 105.994,35.7303 106.66,44.897 107.5,54C 105.2,60.2115 105.534,66.0449 108.5,71.5C 86.5,71.5 64.5,71.5 42.5,71.5C 57.7182,70.9792 73.0515,69.9792 88.5,68.5C 92.9373,70.2137 97.604,70.8804 102.5,70.5C 102.17,54.6578 102.504,38.9911 103.5,23.5 Z"/></g>
    <g><path style="opacity:1" fill="#f28e78" d="M 20.5,70.5 C 24.0148,71.9193 27.6814,72.586 31.5,72.5C 31.5,74.8333 31.5,77.1667 31.5,79.5C 34.9725,79.1596 37.6391,79.493 39.5,80.5C 36.8333,80.5 34.1667,80.5 31.5,80.5C 31.5,106.833 31.5,133.167 31.5,159.5C 24.9038,160.595 18.5705,162.262 12.5,164.5C 12.5,165.167 12.5,165.833 12.5,166.5C 12.5,167.167 12.5,167.833 12.5,168.5C 12.1667,168.5 11.8333,168.5 11.5,168.5C 11.5,165.833 11.5,163.167 11.5,160.5C 14.2492,160.726 16.9159,160.393 19.5,159.5C 20.171,133.268 20.8376,107.101 21.5,81C 20.2068,80.51 18.8734,80.3433 17.5,80.5C 19.4667,77.5893 20.4667,74.256 20.5,70.5 Z"/></g>
    <g><path style="opacity:1" fill="#e9846d" d="M 32.5,41.5 C 32.5,48.1667 32.5,54.8333 32.5,61.5C 29.5176,61.9629 26.5176,62.2962 23.5,62.5C 24.1243,67.7911 27.1243,70.7911 32.5,71.5C 35.6248,72.4794 38.9581,72.8128 42.5,72.5C 42.8332,101.508 42.4998,130.508 41.5,159.5C 31.9037,162.154 22.2371,164.488 12.5,166.5C 12.5,165.833 12.5,165.167 12.5,164.5C 21.4662,162.675 30.4662,161.009 39.5,159.5C 39.5,133.167 39.5,106.833 39.5,80.5C 37.6391,79.493 34.9725,79.1596 31.5,79.5C 31.5,77.1667 31.5,74.8333 31.5,72.5C 27.6814,72.586 24.0148,71.9193 20.5,70.5C 15.7587,67.3439 12.7587,63.0106 11.5,57.5C 13.2263,45.4566 20.2263,40.1233 32.5,41.5 Z"/></g>
    <g><path style="opacity:1" fill="#ea846d" d="M 42.5,72.5 C 46.5,72.5 50.5,72.5 54.5,72.5C 54.5,73.8333 54.5,75.1667 54.5,76.5C 51.8127,76.3359 49.146,76.5026 46.5,77C 46.0426,77.414 45.7093,77.914 45.5,78.5C 48.4281,79.4841 51.4281,79.8174 54.5,79.5C 54.8331,106.175 54.4998,132.842 53.5,159.5C 39.9937,163.294 26.327,166.294 12.5,168.5C 12.5,167.833 12.5,167.167 12.5,166.5C 22.2371,164.488 31.9037,162.154 41.5,159.5C 42.4998,130.508 42.8332,101.508 42.5,72.5 Z"/></g>
    <g><path style="opacity:1" fill="#e57e67" d="M 54.5,72.5 C 57.8333,72.5 61.1667,72.5 64.5,72.5C 64.5,73.8333 64.5,75.1667 64.5,76.5C 63.0222,76.238 61.6888,76.5713 60.5,77.5C 63.5,78.1667 66.5,78.8333 69.5,79.5C 68.3315,81.2174 66.6648,81.8841 64.5,81.5C 64.6666,107.502 64.5,133.502 64,159.5C 56.66,161.62 49.4934,163.953 42.5,166.5C 32.6263,168.478 22.6263,169.811 12.5,170.5C 12.5,169.833 12.5,169.167 12.5,168.5C 26.327,166.294 39.9937,163.294 53.5,159.5C 54.4998,132.842 54.8331,106.175 54.5,79.5C 51.4281,79.8174 48.4281,79.4841 45.5,78.5C 45.7093,77.914 46.0426,77.414 46.5,77C 49.146,76.5026 51.8127,76.3359 54.5,76.5C 54.5,75.1667 54.5,73.8333 54.5,72.5 Z"/></g>
    <g><path style="opacity:1" fill="#e17a62" d="M 64.5,72.5 C 67.1667,72.5 69.8333,72.5 72.5,72.5C 72.8332,101.508 72.4998,130.508 71.5,159.5C 62.1763,163.275 52.5097,165.608 42.5,166.5C 49.4934,163.953 56.66,161.62 64,159.5C 64.5,133.502 64.6666,107.502 64.5,81.5C 66.6648,81.8841 68.3315,81.2174 69.5,79.5C 66.5,78.8333 63.5,78.1667 60.5,77.5C 61.6888,76.5713 63.0222,76.238 64.5,76.5C 64.5,75.1667 64.5,73.8333 64.5,72.5 Z"/></g>
    <g><path style="opacity:1" fill="#df785f" d="M 72.5,72.5 C 74.1667,72.5 75.8333,72.5 77.5,72.5C 77.6766,74.9806 76.6766,76.8139 74.5,78C 77.5535,78.1786 80.5535,78.6786 83.5,79.5C 81.9775,81.2825 79.9775,81.9492 77.5,81.5C 77.6666,107.502 77.5,133.502 77,159.5C 71.3343,162.044 65.501,164.211 59.5,166C 53.0388,166.827 46.7054,168.16 40.5,170C 31.6086,170.348 22.7753,171.181 14,172.5C 12.9701,172.164 12.4701,171.497 12.5,170.5C 22.6263,169.811 32.6263,168.478 42.5,166.5C 52.5097,165.608 62.1763,163.275 71.5,159.5C 72.4998,130.508 72.8332,101.508 72.5,72.5 Z"/></g>
    <g><path style="opacity:1" fill="#db735b" d="M 77.5,72.5 C 80.8333,72.5 84.1667,72.5 87.5,72.5C 87.5,74.5 87.5,76.5 87.5,78.5C 90.8984,78.1796 94.2317,78.513 97.5,79.5C 94.2913,80.7874 91.1247,80.7874 88,79.5C 87.8332,106.173 87.3332,132.84 86.5,159.5C 83.4968,162.673 79.8302,164.839 75.5,166C 68.3449,167.376 61.3449,168.876 54.5,170.5C 40.5525,172.54 26.5525,174.207 12.5,175.5C 11.5318,173.393 11.1984,171.059 11.5,168.5C 11.8333,168.5 12.1667,168.5 12.5,168.5C 12.5,169.167 12.5,169.833 12.5,170.5C 12.4701,171.497 12.9701,172.164 14,172.5C 22.7753,171.181 31.6086,170.348 40.5,170C 46.7054,168.16 53.0388,166.827 59.5,166C 65.501,164.211 71.3343,162.044 77,159.5C 77.5,133.502 77.6666,107.502 77.5,81.5C 79.9775,81.9492 81.9775,81.2825 83.5,79.5C 80.5535,78.6786 77.5535,78.1786 74.5,78C 76.6766,76.8139 77.6766,74.9806 77.5,72.5 Z"/></g>
    <g><path style="opacity:1" fill="#d76e54" d="M 87.5,72.5 C 92.5,72.5 97.5,72.5 102.5,72.5C 102.5,74.1667 102.5,75.8333 102.5,77.5C 105.833,77.5 109.167,77.5 112.5,77.5C 112.5,78.5 112.5,79.5 112.5,80.5C 109.167,80.5 105.833,80.5 102.5,80.5C 102.833,106.842 102.5,133.175 101.5,159.5C 93.8271,162.882 86.1605,166.215 78.5,169.5C 77.0615,168.937 75.5615,168.603 74,168.5C 67.5673,169.86 61.0673,170.527 54.5,170.5C 61.3449,168.876 68.3449,167.376 75.5,166C 79.8302,164.839 83.4968,162.673 86.5,159.5C 87.3332,132.84 87.8332,106.173 88,79.5C 91.1247,80.7874 94.2913,80.7874 97.5,79.5C 94.2317,78.513 90.8984,78.1796 87.5,78.5C 87.5,76.5 87.5,74.5 87.5,72.5 Z"/></g>
    <g><path style="opacity:0.993" fill="#8d402e" d="M 158.5,75.5 C 158.987,76.4734 159.487,77.4734 160,78.5C 160.5,88.828 160.666,99.1613 160.5,109.5C 159.417,109.461 158.417,109.127 157.5,108.5C 157.167,103 156.833,97.5 156.5,92C 156.505,86.1238 157.171,80.6238 158.5,75.5 Z"/></g>
    <g><path style="opacity:1" fill="#ef8a74" d="M 39.5,80.5 C 39.5,106.833 39.5,133.167 39.5,159.5C 30.4662,161.009 21.4662,162.675 12.5,164.5C 18.5705,162.262 24.9038,160.595 31.5,159.5C 31.5,133.167 31.5,106.833 31.5,80.5C 34.1667,80.5 36.8333,80.5 39.5,80.5 Z"/></g>
    <g><path style="opacity:1" fill="#d1684e" d="M 102.5,72.5 C 107.167,72.5 111.833,72.5 116.5,72.5C 116.5,74.1667 116.5,75.8333 116.5,77.5C 119.833,77.5 123.167,77.5 126.5,77.5C 126.5,78.5 126.5,79.5 126.5,80.5C 123.167,80.5 119.833,80.5 116.5,80.5C 116.173,90.6806 116.506,100.681 117.5,110.5C 111.068,114.364 108.068,120.03 108.5,127.5C 110.621,127.675 112.621,127.341 114.5,126.5C 114.232,128.099 114.566,129.432 115.5,130.5C 115.733,132.062 116.4,133.395 117.5,134.5C 115.695,136.197 113.361,137.03 110.5,137C 111.126,137.75 111.626,138.584 112,139.5C 112.667,146.167 112.667,152.833 112,159.5C 108.792,162.861 104.959,165.361 100.5,167C 87.5104,171.399 74.1771,174.399 60.5,176C 67.346,176.172 74.0126,176.672 80.5,177.5C 59.4278,178.839 38.4278,179.339 17.5,179C 15.9371,179.759 14.9371,180.926 14.5,182.5C 12.8372,180.562 12.1706,178.228 12.5,175.5C 26.5525,174.207 40.5525,172.54 54.5,170.5C 61.0673,170.527 67.5673,169.86 74,168.5C 75.5615,168.603 77.0615,168.937 78.5,169.5C 86.1605,166.215 93.8271,162.882 101.5,159.5C 102.5,133.175 102.833,106.842 102.5,80.5C 105.833,80.5 109.167,80.5 112.5,80.5C 112.5,79.5 112.5,78.5 112.5,77.5C 109.167,77.5 105.833,77.5 102.5,77.5C 102.5,75.8333 102.5,74.1667 102.5,72.5 Z"/></g>
    <g><path style="opacity:1" fill="#cb5f44" d="M 116.5,72.5 C 124.833,72.5 133.167,72.5 141.5,72.5C 141.5,84.5 141.5,96.5 141.5,108.5C 145.371,108.185 149.038,108.518 152.5,109.5C 140.783,109.209 129.116,109.542 117.5,110.5C 116.506,100.681 116.173,90.6806 116.5,80.5C 119.833,80.5 123.167,80.5 126.5,80.5C 126.5,79.5 126.5,78.5 126.5,77.5C 123.167,77.5 119.833,77.5 116.5,77.5C 116.5,75.8333 116.5,74.1667 116.5,72.5 Z"/></g>
    <g><path style="opacity:1" fill="#ea856e" d="M 152.5,109.5 C 153.833,109.5 155.167,109.5 156.5,109.5C 155.504,114.82 154.504,120.154 153.5,125.5C 151.742,129.592 148.742,132.259 144.5,133.5C 140.865,130.201 137.198,126.868 133.5,123.5C 132.833,122.833 132.167,122.167 131.5,121.5C 126.99,116.722 122.156,116.388 117,120.5C 115.441,122.217 114.608,124.217 114.5,126.5C 112.621,127.341 110.621,127.675 108.5,127.5C 108.068,120.03 111.068,114.364 117.5,110.5C 129.116,109.542 140.783,109.209 152.5,109.5 Z"/></g>
    <g><path style="opacity:1" fill="#585454" d="M 131.5,121.5 C 129.037,123.461 126.703,125.628 124.5,128C 121.526,128.993 118.526,129.826 115.5,130.5C 114.566,129.432 114.232,128.099 114.5,126.5C 114.608,124.217 115.441,122.217 117,120.5C 122.156,116.388 126.99,116.722 131.5,121.5 Z"/></g>
    <g><path style="opacity:1" fill="#3e3b3c" d="M 131.5,121.5 C 132.167,122.167 132.833,122.833 133.5,123.5C 134.145,128.588 132.479,132.588 128.5,135.5C 125.904,136.265 123.237,136.599 120.5,136.5C 119.5,135.833 118.5,135.167 117.5,134.5C 116.4,133.395 115.733,132.062 115.5,130.5C 118.526,129.826 121.526,128.993 124.5,128C 126.703,125.628 129.037,123.461 131.5,121.5 Z"/></g>
    <g><path style="opacity:1" fill="#b5563d" d="M 32.5,71.5 C 35.8333,71.5 39.1667,71.5 42.5,71.5C 64.5,71.5 86.5,71.5 108.5,71.5C 114.833,71.5 121.167,71.5 127.5,71.5C 132.167,71.5 136.833,71.5 141.5,71.5C 145.846,71.3343 150.179,71.501 154.5,72C 156.324,72.66 157.657,73.8267 158.5,75.5C 157.171,80.6238 156.505,86.1238 156.5,92C 156.833,97.5 157.167,103 157.5,108.5C 158.417,109.127 159.417,109.461 160.5,109.5C 161.833,109.5 162.5,110.167 162.5,111.5C 161.883,111.389 161.383,111.056 161,110.5C 160.132,119.194 159.132,127.861 158,136.5C 157.167,137.333 156.333,138.167 155.5,139C 145.88,140.395 136.214,141.061 126.5,141C 125.978,140.439 125.645,139.772 125.5,139C 126.544,137.826 127.544,136.659 128.5,135.5C 132.479,132.588 134.145,128.588 133.5,123.5C 137.198,126.868 140.865,130.201 144.5,133.5C 148.742,132.259 151.742,129.592 153.5,125.5C 154.504,120.154 155.504,114.82 156.5,109.5C 155.167,109.5 153.833,109.5 152.5,109.5C 149.038,108.518 145.371,108.185 141.5,108.5C 141.5,96.5 141.5,84.5 141.5,72.5C 133.167,72.5 124.833,72.5 116.5,72.5C 111.833,72.5 107.167,72.5 102.5,72.5C 97.5,72.5 92.5,72.5 87.5,72.5C 84.1667,72.5 80.8333,72.5 77.5,72.5C 75.8333,72.5 74.1667,72.5 72.5,72.5C 69.8333,72.5 67.1667,72.5 64.5,72.5C 61.1667,72.5 57.8333,72.5 54.5,72.5C 50.5,72.5 46.5,72.5 42.5,72.5C 38.9581,72.8128 35.6248,72.4794 32.5,71.5 Z"/></g>
    <g><path style="opacity:0.957" fill="#9c4732" d="M 162.5,111.5 C 163.641,121.757 163.808,132.09 163,142.5C 162.581,143.672 161.915,144.672 161,145.5C 160.5,153.159 160.334,160.826 160.5,168.5C 158.547,165.859 157.047,162.859 156,159.5C 152.229,154.573 147.229,152.573 141,153.5C 136.816,153.723 132.649,154.057 128.5,154.5C 123.494,149.827 118.494,145.16 113.5,140.5C 116.167,139.833 118.833,139.167 121.5,138.5C 121.137,137.817 120.804,137.15 120.5,136.5C 123.237,136.599 125.904,136.265 128.5,135.5C 127.544,136.659 126.544,137.826 125.5,139C 125.645,139.772 125.978,140.439 126.5,141C 136.214,141.061 145.88,140.395 155.5,139C 156.333,138.167 157.167,137.333 158,136.5C 159.132,127.861 160.132,119.194 161,110.5C 161.383,111.056 161.883,111.389 162.5,111.5 Z"/></g>
    <g><path style="opacity:1" fill="#c65e43" d="M 117.5,134.5 C 118.5,135.167 119.5,135.833 120.5,136.5C 120.804,137.15 121.137,137.817 121.5,138.5C 118.833,139.167 116.167,139.833 113.5,140.5C 118.494,145.16 123.494,149.827 128.5,154.5C 128.833,155.167 129.167,155.833 129.5,156.5C 132.771,159.268 135.938,162.268 139,165.5C 139.507,166.996 139.007,168.163 137.5,169C 127.25,170.633 117.25,173.133 107.5,176.5C 98.5061,176.966 89.5061,177.3 80.5,177.5C 74.0126,176.672 67.346,176.172 60.5,176C 74.1771,174.399 87.5104,171.399 100.5,167C 104.959,165.361 108.792,162.861 112,159.5C 112.667,152.833 112.667,146.167 112,139.5C 111.626,138.584 111.126,137.75 110.5,137C 113.361,137.03 115.695,136.197 117.5,134.5 Z"/></g>
    <g><path style="opacity:1" fill="#b65238" d="M 129.5,156.5 C 135.509,156.334 141.509,156.501 147.5,157C 155.196,161.189 158.029,167.689 156,176.5C 154.745,178.853 153.078,179.52 151,178.5C 147.633,180.049 144.133,181.049 140.5,181.5C 136.614,179.725 132.28,178.892 127.5,179C 128.5,178.667 129.5,178.333 130.5,178C 120.832,177.956 111.165,177.956 101.5,178C 103.708,177.809 105.708,177.309 107.5,176.5C 117.25,173.133 127.25,170.633 137.5,169C 139.007,168.163 139.507,166.996 139,165.5C 135.938,162.268 132.771,159.268 129.5,156.5 Z"/></g>
    <g><path style="opacity:1" fill="#b3563f" d="M 107.5,176.5 C 105.708,177.309 103.708,177.809 101.5,178C 111.165,177.956 120.832,177.956 130.5,178C 129.5,178.333 128.5,178.667 127.5,179C 132.28,178.892 136.614,179.725 140.5,181.5C 134.477,181.832 128.31,182.165 122,182.5C 119.245,182.59 116.745,181.924 114.5,180.5C 109.833,183.167 105.167,183.167 100.5,180.5C 99.263,180.556 98.263,181.056 97.5,182C 69.9969,182.168 42.6636,182.668 15.5,183.5C 14.8333,183.5 14.5,183.167 14.5,182.5C 14.9371,180.926 15.9371,179.759 17.5,179C 38.4278,179.339 59.4278,178.839 80.5,177.5C 89.5061,177.3 98.5061,176.966 107.5,176.5 Z"/></g>
    <g><path style="opacity:1" fill="#a14a35" d="M 160.5,168.5 C 160.666,173.179 160.499,177.845 160,182.5C 159.768,183.737 159.268,184.737 158.5,185.5C 158.083,184.876 157.416,184.543 156.5,184.5C 153.194,185.163 149.861,185.663 146.5,186C 104.5,186.333 62.5,186.667 20.5,187C 21.056,187.383 21.3893,187.883 21.5,188.5C 18.6385,187.753 16.6385,186.086 15.5,183.5C 42.6636,182.668 69.9969,182.168 97.5,182C 98.263,181.056 99.263,180.556 100.5,180.5C 105.167,183.167 109.833,183.167 114.5,180.5C 116.745,181.924 119.245,182.59 122,182.5C 128.31,182.165 134.477,181.832 140.5,181.5C 144.133,181.049 147.633,180.049 151,178.5C 153.078,179.52 154.745,178.853 156,176.5C 158.029,167.689 155.196,161.189 147.5,157C 141.509,156.501 135.509,156.334 129.5,156.5C 129.167,155.833 128.833,155.167 128.5,154.5C 132.649,154.057 136.816,153.723 141,153.5C 147.229,152.573 152.229,154.573 156,159.5C 157.047,162.859 158.547,165.859 160.5,168.5 Z"/></g>
    <g><path style="opacity:0.996" fill="#8e4130" d="M 158.5,185.5 C 157.473,187.194 156.139,188.527 154.5,189.5C 110.167,189.5 65.8333,189.5 21.5,189.5C 21.5,189.167 21.5,188.833 21.5,188.5C 21.3893,187.883 21.056,187.383 20.5,187C 62.5,186.667 104.5,186.333 146.5,186C 149.861,185.663 153.194,185.163 156.5,184.5C 157.416,184.543 158.083,184.876 158.5,185.5 Z"/></g>
</svg>
