<?xml version="1.0" encoding="UTF-8"?>
<!DOCTYPE svg PUBLIC "-//W3C//DTD SVG 1.1//EN" "http://www.w3.org/Graphics/SVG/1.1/DTD/svg11.dtd">
<svg xmlns="http://www.w3.org/2000/svg" version="1.1" width="182px" height="218px" style="shape-rendering:geometricPrecision; text-rendering:geometricPrecision; image-rendering:optimizeQuality; fill-rule:evenodd; clip-rule:evenodd" xmlns:xlink="http://www.w3.org/1999/xlink">
    <g><path style="opacity:0.981" fill="#c2a601" d="M 86.5,-0.5 C 90.1667,-0.5 93.8333,-0.5 97.5,-0.5C 118.298,12.8444 126.298,31.8444 121.5,56.5C 118.09,60.2379 114.09,63.2379 109.5,65.5C 116.508,43.3382 111.175,24.5048 93.5,9C 88.9007,6.13304 83.9007,4.96637 78.5,5.5C 81.1667,3.5 83.8333,1.5 86.5,-0.5 Z"/></g>
    <g><path style="opacity:1" fill="#fcd401" d="M 78.5,5.5 C 83.9007,4.96637 88.9007,6.13304 93.5,9C 111.175,24.5048 116.508,43.3382 109.5,65.5C 107.999,66.7515 106.332,67.7515 104.5,68.5C 99.1075,70.229 94.1075,69.3956 89.5,66C 84.9553,62.9565 81.2887,59.1231 78.5,54.5C 77.0664,51.9528 75.3998,49.6195 73.5,47.5C 69.1151,37.9528 67.6151,27.9528 69,17.5C 69.5881,11.2662 72.7548,7.26624 78.5,5.5 Z"/></g>
    <g><path style="opacity:1" fill="#c5a800" d="M 81.5,15.5 C 86.8138,14.9904 91.4805,16.4904 95.5,20C 103.378,28.3007 106.878,38.134 106,49.5C 103.28,59.9411 97.4466,62.1078 88.5,56C 78.4371,46.1455 74.6038,34.3122 77,20.5C 78.7073,18.9625 80.2073,17.2959 81.5,15.5 Z"/></g>
    <g><path style="opacity:1" fill="#fdd500" d="M 83.5,22.5 C 91.8691,22.3476 97.3691,26.3476 100,34.5C 101.363,38.7612 101.696,43.0946 101,47.5C 98.8041,52.5402 95.3041,53.7068 90.5,51C 81.0303,42.9932 78.697,33.4932 83.5,22.5 Z"/></g>
    <g><path style="opacity:0.994" fill="#f7a0a0" d="M 73.5,47.5 C 75.3998,49.6195 77.0664,51.9528 78.5,54.5C 71.4507,54.6915 68.9507,58.0248 71,64.5C 82.1615,69.1636 92.6615,74.9969 102.5,82C 105.152,85.4957 108.486,87.9957 112.5,89.5C 117.378,88.4169 119.211,85.4169 118,80.5C 113.952,75.9495 109.452,71.9495 104.5,68.5C 106.332,67.7515 107.999,66.7515 109.5,65.5C 114.09,63.2379 118.09,60.2379 121.5,56.5C 128.508,60.3354 135.174,64.6687 141.5,69.5C 138.887,72.2905 136.387,75.2905 134,78.5C 133.505,80.4727 133.338,82.4727 133.5,84.5C 140.462,84.3156 147.295,84.9823 154,86.5C 154.671,85.7476 155.504,85.4142 156.5,85.5C 167.375,100.303 173.041,116.97 173.5,135.5C 166.807,129.338 159.474,128.838 151.5,134C 138.804,142.567 132.304,154.4 132,169.5C 132.971,175.139 136.304,177.805 142,177.5C 146.136,177.344 149.969,176.177 153.5,174C 158.002,170.33 162.335,166.497 166.5,162.5C 164.957,167.024 162.623,171.024 159.5,174.5C 152.189,181.808 144.189,188.141 135.5,193.5C 122.961,199.626 109.628,201.959 95.5,200.5C 84.8705,199.593 74.5372,197.26 64.5,193.5C 57.4278,190.586 50.7612,186.919 44.5,182.5C 38.8953,177.397 33.3953,172.064 28,166.5C 23.8122,160.766 19.6456,155.099 15.5,149.5C 6.29412,129.64 5.12745,109.307 12,88.5C 14.9323,82.4186 18.4323,76.752 22.5,71.5C 27.1384,67.7068 31.4717,63.7068 35.5,59.5C 47.0457,52.0966 59.7123,48.0966 73.5,47.5 Z"/></g>
    <g><path style="opacity:0.938" fill="#f87474" d="M 35.5,59.5 C 31.4717,63.7068 27.1384,67.7068 22.5,71.5C 20.1673,68.9974 18.0007,66.3307 16,63.5C 14.6608,56.8696 17.3274,52.8696 24,51.5C 29.0861,52.4274 32.9194,55.094 35.5,59.5 Z"/></g>
    <g><path style="opacity:1" fill="#9a483c" d="M 78.5,54.5 C 81.2887,59.1231 84.9553,62.9565 89.5,66C 94.1075,69.3956 99.1075,70.229 104.5,68.5C 109.452,71.9495 113.952,75.9495 118,80.5C 119.211,85.4169 117.378,88.4169 112.5,89.5C 108.486,87.9957 105.152,85.4957 102.5,82C 92.6615,74.9969 82.1615,69.1636 71,64.5C 68.9507,58.0248 71.4507,54.6915 78.5,54.5 Z"/></g>
    <g><path style="opacity:0.978" fill="#fab8b8" d="M 156.5,85.5 C 155.504,85.4142 154.671,85.7476 154,86.5C 147.295,84.9823 140.462,84.3156 133.5,84.5C 133.338,82.4727 133.505,80.4727 134,78.5C 136.387,75.2905 138.887,72.2905 141.5,69.5C 153.826,67.4989 158.826,72.8323 156.5,85.5 Z"/></g>
    <g><path style="opacity:1" fill="#f9b2b2" d="M 95.5,99.5 C 92.2958,92.9633 87.6291,91.7966 81.5,96C 80.0297,97.7927 79.0297,99.7927 78.5,102C 79.0208,105.066 80.0208,107.899 81.5,110.5C 81.2882,112.384 80.2882,113.717 78.5,114.5C 70.8487,107.066 70.5154,99.2324 77.5,91C 86.9925,83.9728 94.6592,85.6395 100.5,96C 98.8043,97.1764 97.1376,98.343 95.5,99.5 Z"/></g>
    <g><path style="opacity:1" fill="#f9c5c3" d="M 95.5,99.5 C 90.8145,103.19 86.1479,106.857 81.5,110.5C 80.0208,107.899 79.0208,105.066 78.5,102C 79.0297,99.7927 80.0297,97.7927 81.5,96C 87.6291,91.7966 92.2958,92.9633 95.5,99.5 Z"/></g>
    <g><path style="opacity:1" fill="#9a483d" d="M 158.5,109.5 C 166.52,109.392 168.854,112.892 165.5,120C 157.923,123.09 154.756,120.59 156,112.5C 157.045,111.627 157.878,110.627 158.5,109.5 Z"/></g>
    <g><path style="opacity:1" fill="#9a483d" d="M 117.5,126.5 C 125.804,126.278 128.137,129.778 124.5,137C 118.787,140.059 115.453,138.393 114.5,132C 114.863,129.808 115.863,127.974 117.5,126.5 Z"/></g>
    <g><path style="opacity:0.993" fill="#f67372" d="M 173.5,135.5 C 175.002,145.634 172.669,154.634 166.5,162.5C 162.335,166.497 158.002,170.33 153.5,174C 149.969,176.177 146.136,177.344 142,177.5C 136.304,177.805 132.971,175.139 132,169.5C 132.304,154.4 138.804,142.567 151.5,134C 159.474,128.838 166.807,129.338 173.5,135.5 Z"/></g>
    <g><path style="opacity:1" fill="#99463b" d="M 160.5,136.5 C 161.833,136.5 163.167,136.5 164.5,136.5C 164.666,143.508 164.5,150.508 164,157.5C 162.994,160.89 160.994,161.89 158,160.5C 157.333,153.833 157.333,147.167 158,140.5C 158.662,139.016 159.496,137.683 160.5,136.5 Z"/></g>
    <g><path style="opacity:1" fill="#99453b" d="M 143.5,146.5 C 144.822,146.33 145.989,146.663 147,147.5C 147.667,154.167 147.667,160.833 147,167.5C 145.974,170.693 143.808,172.026 140.5,171.5C 140.334,164.159 140.5,156.826 141,149.5C 142.045,148.627 142.878,147.627 143.5,146.5 Z"/></g>
    <g><path style="opacity:0.967" fill="#f77373" d="M 15.5,149.5 C 19.6456,155.099 23.8122,160.766 28,166.5C 33.3953,172.064 38.8953,177.397 44.5,182.5C 35.7862,191.816 26.9529,191.816 18,182.5C 17.1376,180.913 16.4709,179.246 16,177.5C 15.5002,168.173 15.3335,158.839 15.5,149.5 Z"/></g>
    <g><path style="opacity:0.922" fill="#f87474" d="M 159.5,174.5 C 160.956,184.781 156.956,191.614 147.5,195C 143.305,195.809 139.305,195.309 135.5,193.5C 144.189,188.141 152.189,181.808 159.5,174.5 Z"/></g>
    <g><path style="opacity:0.964" fill="#f87373" d="M 64.5,193.5 C 74.5372,197.26 84.8705,199.593 95.5,200.5C 95.3608,207.783 92.3608,213.45 86.5,217.5C 82.1667,217.5 77.8333,217.5 73.5,217.5C 64.9923,211.861 61.9923,203.861 64.5,193.5 Z"/></g>
</svg>
