<?xml version="1.0" encoding="UTF-8"?>
<!DOCTYPE svg PUBLIC "-//W3C//DTD SVG 1.1//EN" "http://www.w3.org/Graphics/SVG/1.1/DTD/svg11.dtd">
<svg xmlns="http://www.w3.org/2000/svg" version="1.1" width="188px" height="188px" style="shape-rendering:geometricPrecision; text-rendering:geometricPrecision; image-rendering:optimizeQuality; fill-rule:evenodd; clip-rule:evenodd" xmlns:xlink="http://www.w3.org/1999/xlink">
    <g><path style="opacity:0.947" fill="#f85d7c" d="M 186.5,20.5 C 174.632,27.263 162.965,34.263 151.5,41.5C 141.625,46.6887 131.792,52.022 122,57.5C 110.538,51.1915 99.3714,44.5248 88.5,37.5C 109.406,24.7943 130.573,12.4609 152,0.5C 163.784,6.90372 175.284,13.5704 186.5,20.5 Z"/></g>
    <g><path style="opacity:1" fill="#f95168" d="M 150.5,4.5 C 160.055,8.94607 169.388,13.9461 178.5,19.5C 179.521,20.0016 179.688,20.6683 179,21.5C 159.984,32.5069 140.984,43.5069 122,54.5C 112.581,49.4137 103.415,43.9137 94.5,38C 113.396,27.059 132.062,15.8923 150.5,4.5 Z"/></g>
    <g><path style="opacity:0.963" fill="#f04555" d="M 186.5,20.5 C 186.5,33.5 186.5,46.5 186.5,59.5C 183.865,60.8109 181.531,62.4776 179.5,64.5C 172.663,68.7529 165.663,72.7529 158.5,76.5C 157.687,75.3473 156.687,75.3473 155.5,76.5C 154.501,64.8523 154.168,53.1857 154.5,41.5C 153.5,41.5 152.5,41.5 151.5,41.5C 162.965,34.263 174.632,27.263 186.5,20.5 Z"/></g>
    <g><path style="opacity:0.992" fill="#f04556" d="M 88.5,37.5 C 99.3714,44.5248 110.538,51.1915 122,57.5C 131.792,52.022 141.625,46.6887 151.5,41.5C 152.5,41.5 153.5,41.5 154.5,41.5C 154.168,53.1857 154.501,64.8523 155.5,76.5C 156.687,75.3473 157.687,75.3473 158.5,76.5C 148.833,82.6695 138.833,88.3361 128.5,93.5C 126.446,94.6086 124.279,95.6086 122,96.5C 121.228,96.3552 120.561,96.0219 120,95.5C 119.831,82.9932 119.331,70.6599 118.5,58.5C 109.634,53.2342 100.634,48.2342 91.5,43.5C 90.3684,42.6457 89.035,42.6457 87.5,43.5C 87.2053,41.2646 87.5386,39.2646 88.5,37.5 Z"/></g>
    <g><path style="opacity:1" fill="#767073" d="M 52.5,40.5 C 55.3488,42.8502 58.5155,44.8502 62,46.5C 62.224,51.5444 61.3906,51.711 59.5,47C 56.3283,45.3034 53.3283,43.4701 50.5,41.5C 50.8417,40.6618 51.5084,40.3284 52.5,40.5 Z"/></g>
    <g><path style="opacity:1" fill="#3c3c45" d="M 91.5,43.5 C 100.634,48.2342 109.634,53.2342 118.5,58.5C 117.205,59.4884 115.872,60.4884 114.5,61.5C 114.573,59.9731 113.906,58.9731 112.5,58.5C 111.71,57.5987 110.71,56.9321 109.5,56.5C 107.456,55.2216 105.456,55.3883 103.5,57C 100.84,60.4835 97.8403,63.6501 94.5,66.5C 93.8343,69.0277 93.1676,71.6944 92.5,74.5C 91.5014,64.1881 91.1681,53.8548 91.5,43.5 Z"/></g>
    <g><path style="opacity:1" fill="#e4dbcb" d="M 109.5,56.5 C 110.71,56.9321 111.71,57.5987 112.5,58.5C 108.797,58.8624 105.797,60.529 103.5,63.5C 102.479,62.9984 102.312,62.3317 103,61.5C 105.352,59.9697 107.519,58.3031 109.5,56.5 Z"/></g>
    <g><path style="opacity:1" fill="#f0bd5d" d="M 109.5,56.5 C 107.519,58.3031 105.352,59.9697 103,61.5C 102.312,62.3317 102.479,62.9984 103.5,63.5C 105.797,60.529 108.797,58.8624 112.5,58.5C 113.906,58.9731 114.573,59.9731 114.5,61.5C 111.393,62.8887 108.393,64.5554 105.5,66.5C 104.833,70.8333 104.167,75.1667 103.5,79.5C 100.42,78.2115 97.5864,76.5448 95,74.5C 94.5026,71.854 94.3359,69.1873 94.5,66.5C 97.8403,63.6501 100.84,60.4835 103.5,57C 105.456,55.3883 107.456,55.2216 109.5,56.5 Z"/></g>
    <g><path style="opacity:0.993" fill="#4a4e5b" d="M 91.5,43.5 C 91.1681,53.8548 91.5014,64.1881 92.5,74.5C 93.1676,71.6944 93.8343,69.0277 94.5,66.5C 94.3359,69.1873 94.5026,71.854 95,74.5C 97.5864,76.5448 100.42,78.2115 103.5,79.5C 104.167,75.1667 104.833,70.8333 105.5,66.5C 108.393,64.5554 111.393,62.8887 114.5,61.5C 115.872,60.4884 117.205,59.4884 118.5,58.5C 119.331,70.6599 119.831,82.9932 120,95.5C 120.561,96.0219 121.228,96.3552 122,96.5C 124.279,95.6086 126.446,94.6086 128.5,93.5C 126.701,99.4867 123.201,100.82 118,97.5C 113.797,100.518 109.297,102.851 104.5,104.5C 104.5,98.8333 104.5,93.1667 104.5,87.5C 104.66,85.8008 104.494,84.1341 104,82.5C 100.584,80.208 97.0838,78.0414 93.5,76C 92.3999,75.5683 91.7332,76.0683 91.5,77.5C 91.7517,79.0729 92.4183,80.4062 93.5,81.5C 88.0482,82.2635 82.8815,84.5969 78,88.5C 77.6667,88.1667 77.3333,87.8333 77,87.5C 76.3333,74.8333 76.3333,62.1667 77,49.5C 80.6088,47.6146 84.1088,45.6146 87.5,43.5C 89.035,42.6457 90.3684,42.6457 91.5,43.5 Z"/></g>
    <g><path style="opacity:1" fill="#706b6f" d="M 45.5,57.5 C 45.5,56.8333 45.8333,56.5 46.5,56.5C 50.0901,57.6284 53.4234,59.295 56.5,61.5C 57.6139,62.723 57.7805,64.0563 57,65.5C 56.5348,64.0692 55.7014,62.9025 54.5,62C 51.4469,60.4734 48.4469,58.9734 45.5,57.5 Z"/></g>
    <g><path style="opacity:0.965" fill="#ecb04c" d="M 51.5,77.5 C 51.1667,77.5 50.8333,77.5 50.5,77.5C 50.5,76.8333 50.1667,76.5 49.5,76.5C 49.5,75.8333 49.1667,75.5 48.5,75.5C 46.1105,74.554 43.9438,73.2206 42,71.5C 41.1725,67.1287 41.3391,62.7953 42.5,58.5C 43.4168,57.8728 44.4168,57.5394 45.5,57.5C 48.4469,58.9734 51.4469,60.4734 54.5,62C 55.7014,62.9025 56.5348,64.0692 57,65.5C 57.7805,64.0563 57.6139,62.723 56.5,61.5C 53.4234,59.295 50.0901,57.6284 46.5,56.5C 46.1744,52.1161 46.5078,47.7828 47.5,43.5C 48.5178,42.8075 49.5178,42.1408 50.5,41.5C 53.3283,43.4701 56.3283,45.3034 59.5,47C 61.3906,51.711 62.224,51.5444 62,46.5C 58.5155,44.8502 55.3488,42.8502 52.5,40.5C 53.8853,39.3862 55.3853,38.3862 57,37.5C 60.0823,39.625 63.2489,41.625 66.5,43.5C 67.1335,47.6509 69.4668,50.3176 73.5,51.5C 74.8333,56.1667 74.8333,60.8333 73.5,65.5C 65.8995,69.1218 58.5662,73.1218 51.5,77.5 Z"/></g>
    <g><path style="opacity:1" fill="#786e6b" d="M 67.5,54.5 C 70.2748,54.8338 70.9415,56.1671 69.5,58.5C 68.2949,57.4231 67.6282,56.0898 67.5,54.5 Z"/></g>
    <g><path style="opacity:1" fill="#978f6d" d="M 62.5,51.5 C 63.2389,51.369 63.9056,51.5357 64.5,52C 63.2713,53.5292 61.7713,54.6959 60,55.5C 60.1929,53.9176 61.0262,52.5843 62.5,51.5 Z"/></g>
    <g><path style="opacity:0.782" fill="#5a7992" d="M 186.5,59.5 C 186.015,63.9007 183.681,65.5673 179.5,64.5C 181.531,62.4776 183.865,60.8109 186.5,59.5 Z"/></g>
    <g><path style="opacity:0.925" fill="#f2546c" d="M 104.5,87.5 C 100.833,85.5 97.1667,83.5 93.5,81.5C 92.4183,80.4062 91.7517,79.0729 91.5,77.5C 91.7332,76.0683 92.3999,75.5683 93.5,76C 97.0838,78.0414 100.584,80.208 104,82.5C 104.494,84.1341 104.66,85.8008 104.5,87.5 Z"/></g>
    <g><path style="opacity:0.937" fill="#fbd279" d="M 173.5,86.5 C 172.016,88.0737 170.349,89.407 168.5,90.5C 163.833,87.8333 159.167,85.1667 154.5,82.5C 156.089,80.6944 158.089,79.3611 160.5,78.5C 165.065,80.9412 169.398,83.6079 173.5,86.5 Z"/></g>
    <g><path style="opacity:0.996" fill="#fad277" d="M 152.5,83.5 C 157.008,86.2533 161.341,89.2533 165.5,92.5C 163.634,93.0138 161.8,93.6805 160,94.5C 155.541,92.0209 151.041,89.6875 146.5,87.5C 147.802,85.1782 149.802,83.8449 152.5,83.5 Z"/></g>
    <g><path style="opacity:0.989" fill="#fcd377" d="M 48.5,75.5 C 49.1667,75.5 49.5,75.8333 49.5,76.5C 50.1667,76.5 50.5,76.8333 50.5,77.5C 50.8333,77.5 51.1667,77.5 51.5,77.5C 67.8323,86.664 83.8323,96.3306 99.5,106.5C 91.4613,111.273 83.2947,115.94 75,120.5C 57.8757,110.69 40.7091,101.023 23.5,91.5C 23.9528,90.5416 24.6195,89.7083 25.5,89C 33.336,84.6366 41.0027,80.1366 48.5,75.5 Z"/></g>
    <g><path style="opacity:1" fill="#f8ba4a" d="M 46.5,79.5 C 53.5438,82.1895 60.2104,85.6895 66.5,90C 60.7638,94.0635 54.7638,97.7302 48.5,101C 41.4219,98.7944 34.7552,95.4611 28.5,91C 34.7341,87.3918 40.7341,83.5585 46.5,79.5 Z"/></g>
    <g><path style="opacity:0.992" fill="#ecac43" d="M 173.5,86.5 C 174.468,88.6074 174.802,90.9407 174.5,93.5C 173.834,96.3583 173.167,99.3583 172.5,102.5C 168.51,104.832 164.51,107.165 160.5,109.5C 157.671,108.253 155.005,106.753 152.5,105C 147.495,105.848 143.162,104.348 139.5,100.5C 142.123,98.711 144.456,96.711 146.5,94.5C 146.5,92.1667 146.5,89.8333 146.5,87.5C 151.041,89.6875 155.541,92.0209 160,94.5C 161.8,93.6805 163.634,93.0138 165.5,92.5C 165.351,93.552 165.517,94.552 166,95.5C 167.892,94.3826 168.725,92.7159 168.5,90.5C 170.349,89.407 172.016,88.0737 173.5,86.5 Z"/></g>
    <g><path style="opacity:1" fill="#746d6e" d="M 154.5,82.5 C 159.167,85.1667 163.833,87.8333 168.5,90.5C 168.725,92.7159 167.892,94.3826 166,95.5C 165.517,94.552 165.351,93.552 165.5,92.5C 161.341,89.2533 157.008,86.2533 152.5,83.5C 152.842,82.6618 153.508,82.3284 154.5,82.5 Z"/></g>
    <g><path style="opacity:0.997" fill="#f3b74c" d="M 23.5,91.5 C 40.7091,101.023 57.8757,110.69 75,120.5C 83.2947,115.94 91.4613,111.273 99.5,106.5C 100.485,110.634 100.818,114.968 100.5,119.5C 99.7377,121.262 98.4044,122.262 96.5,122.5C 96.8174,119.428 96.4841,116.428 95.5,113.5C 89.5853,116.707 83.7519,120.04 78,123.5C 77.1701,129.196 77.3368,134.863 78.5,140.5C 79.4168,139.873 80.4168,139.539 81.5,139.5C 81.5,141.167 81.5,142.833 81.5,144.5C 79.0535,146.233 76.3869,147.067 73.5,147C 63.6063,141.222 53.6063,135.722 43.5,130.5C 40.0242,127.377 36.0242,125.043 31.5,123.5C 29.6644,121.412 27.3311,120.079 24.5,119.5C 23.5863,116.272 23.2529,112.939 23.5,109.5C 23.5,106.5 23.5,103.5 23.5,100.5C 23.7373,99.209 23.404,98.209 22.5,97.5C 22.2053,95.2646 22.5386,93.2646 23.5,91.5 Z"/></g>
    <g><path style="opacity:1" fill="#f8ba4a" d="M 67.5,92.5 C 76.8086,95.6551 85.4753,100.155 93.5,106C 86.4793,110.007 79.4793,113.673 72.5,117C 65.2988,112.302 57.9654,107.802 50.5,103.5C 56.4018,100.058 62.0685,96.3917 67.5,92.5 Z"/></g>
    <g><path style="opacity:1" fill="#dd9f45" d="M 26.5,97.5 C 41.77,105.47 56.77,113.97 71.5,123C 72.6406,128.75 72.8072,134.584 72,140.5C 57.2482,131.874 42.4148,123.374 27.5,115C 26.5251,109.259 26.1918,103.425 26.5,97.5 Z"/></g>
    <g><path style="opacity:1" fill="#76ca76" d="M 23.5,100.5 C 23.5,103.5 23.5,106.5 23.5,109.5C 20.3777,110.561 17.3777,111.895 14.5,113.5C 11.2432,112.538 8.24325,111.038 5.5,109C 11.4008,105.882 17.4008,103.049 23.5,100.5 Z"/></g>
    <g><path style="opacity:1" fill="#f8c058" d="M 174.5,93.5 C 178.273,95.2212 181.939,97.2212 185.5,99.5C 186.662,104.131 186.828,108.798 186,113.5C 182.062,117.051 177.562,119.385 172.5,120.5C 173.162,116.534 173.495,112.534 173.5,108.5C 169.184,110.074 165.017,112.074 161,114.5C 152.741,109.955 144.574,105.288 136.5,100.5C 139.494,98.0002 142.827,96.0002 146.5,94.5C 144.456,96.711 142.123,98.711 139.5,100.5C 143.162,104.348 147.495,105.848 152.5,105C 155.005,106.753 157.671,108.253 160.5,109.5C 164.51,107.165 168.51,104.832 172.5,102.5C 173.167,99.3583 173.834,96.3583 174.5,93.5 Z"/></g>
    <g><path style="opacity:1" fill="#d29844" d="M 182.5,103.5 C 184.388,105.988 185.055,108.988 184.5,112.5C 181.646,112.924 178.979,113.924 176.5,115.5C 175.353,113.235 175.186,110.902 176,108.5C 178.352,106.97 180.519,105.303 182.5,103.5 Z"/></g>
    <g><path style="opacity:1" fill="#72837f" d="M 168.5,96.5 C 169.043,96.56 169.376,96.8933 169.5,97.5C 168.04,99.4224 166.373,100.089 164.5,99.5C 165.901,98.4793 167.235,97.4793 168.5,96.5 Z"/></g>
    <g><path style="opacity:1" fill="#5e6471" d="M 23.5,109.5 C 23.2529,112.939 23.5863,116.272 24.5,119.5C 20.827,118 17.4937,116 14.5,113.5C 17.3777,111.895 20.3777,110.561 23.5,109.5 Z"/></g>
    <g><path style="opacity:0.995" fill="#e2e6f2" d="M 144.5,125.5 C 142.973,125.427 141.973,126.094 141.5,127.5C 140.5,127.833 139.833,128.5 139.5,129.5C 137.847,129.66 136.514,130.326 135.5,131.5C 133.938,131.733 132.605,132.4 131.5,133.5C 127.882,135.137 124.549,137.137 121.5,139.5C 116.632,142.434 111.632,145.1 106.5,147.5C 104.967,145.645 103.3,143.812 101.5,142C 94.9266,138.891 88.9266,135.058 83.5,130.5C 86.465,129.098 88.965,127.098 91,124.5C 93.1803,125.225 95.0136,124.559 96.5,122.5C 98.4044,122.262 99.7377,121.262 100.5,119.5C 107.465,115.434 114.632,111.767 122,108.5C 128.682,111.76 135.182,115.427 141.5,119.5C 143.415,121.071 144.415,123.071 144.5,125.5 Z"/></g>
    <g><path style="opacity:1" fill="#d79b45" d="M 96.5,122.5 C 95.0136,124.559 93.1803,125.225 91,124.5C 88.965,127.098 86.465,129.098 83.5,130.5C 82.8826,130.611 82.3826,130.944 82,131.5C 81.5026,134.146 81.3359,136.813 81.5,139.5C 80.4168,139.539 79.4168,139.873 78.5,140.5C 77.3368,134.863 77.1701,129.196 78,123.5C 83.7519,120.04 89.5853,116.707 95.5,113.5C 96.4841,116.428 96.8174,119.428 96.5,122.5 Z"/></g>
    <g><path style="opacity:1" fill="#e4e5ed" d="M 55.5,116.5 C 60.8416,118.254 65.675,120.921 70,124.5C 70.8214,127.554 70.6548,130.554 69.5,133.5C 64.6086,131.431 60.1086,128.764 56,125.5C 55.502,122.518 55.3354,119.518 55.5,116.5 Z"/></g>
    <g><path style="opacity:1" fill="#737571" d="M 24.5,119.5 C 27.3311,120.079 29.6644,121.412 31.5,123.5C 28.6689,122.921 26.3356,121.588 24.5,119.5 Z"/></g>
    <g><path style="opacity:0.85" fill="#eaac48" d="M 136.5,100.5 C 144.574,105.288 152.741,109.955 161,114.5C 165.017,112.074 169.184,110.074 173.5,108.5C 173.495,112.534 173.162,116.534 172.5,120.5C 169.071,123.488 165.238,126.155 161,128.5C 152.942,123.601 144.775,118.934 136.5,114.5C 135.188,109.682 135.188,105.015 136.5,100.5 Z"/></g>
    <g><path style="opacity:1" fill="#d7d5da" d="M 151.5,112.5 C 153.473,113.487 155.473,114.487 157.5,115.5C 158.833,117.167 158.833,118.833 157.5,120.5C 153.278,119.415 151.278,116.748 151.5,112.5 Z"/></g>
    <g><path style="opacity:1" fill="#dacdc1" d="M 138.5,109.5 C 141.564,109.603 142.564,110.936 141.5,113.5C 139.712,112.717 138.712,111.384 138.5,109.5 Z"/></g>
    <g><path style="opacity:1" fill="#93d093" d="M 22.5,97.5 C 23.404,98.209 23.7373,99.209 23.5,100.5C 17.4008,103.049 11.4008,105.882 5.5,109C 8.24325,111.038 11.2432,112.538 14.5,113.5C 17.4937,116 20.827,118 24.5,119.5C 26.3356,121.588 28.6689,122.921 31.5,123.5C 34.9758,126.623 38.9758,128.957 43.5,130.5C 55.8315,138.335 68.4982,145.668 81.5,152.5C 81.5,154.167 81.5,155.833 81.5,157.5C 81.815,161.371 81.4816,165.038 80.5,168.5C 80.8025,163.57 80.4692,158.737 79.5,154C 52.9449,139.564 26.9449,124.397 1.5,108.5C 8.33919,104.58 15.3392,100.913 22.5,97.5 Z"/></g>
    <g><path style="opacity:1" fill="#747671" d="M 31.5,123.5 C 36.0242,125.043 40.0242,127.377 43.5,130.5C 38.9758,128.957 34.9758,126.623 31.5,123.5 Z"/></g>
    <g><path style="opacity:1" fill="#4d535e" d="M 43.5,147.5 C 34.1928,152.853 27.8594,150.353 24.5,140C 17.5736,142.122 12.407,139.955 9,133.5C 8.45771,130.708 7.62438,128.042 6.5,125.5C 7.2564,120.326 10.2564,118.492 15.5,120C 19.6899,122.526 22.8565,126.026 25,130.5C 27.7065,128.114 30.5398,127.948 33.5,130C 39.145,134.486 42.4783,140.319 43.5,147.5 Z"/></g>
    <g><path style="opacity:1" fill="#9599a8" d="M 10.5,123.5 C 17.4925,123.322 21.1592,126.822 21.5,134C 21.5495,138.151 19.5495,139.484 15.5,138C 10.5142,134.217 8.8475,129.383 10.5,123.5 Z"/></g>
    <g><path style="opacity:1" fill="#5d70f9" d="M 141.5,127.5 C 142.777,128.694 143.444,130.36 143.5,132.5C 144.333,137.489 144.5,142.489 144,147.5C 142.22,148.639 140.386,149.639 138.5,150.5C 137.861,149.903 137.528,149.07 137.5,148C 138.777,141.895 139.444,135.729 139.5,129.5C 139.833,128.5 140.5,127.833 141.5,127.5 Z"/></g>
    <g><path style="opacity:1" fill="#7288fc" d="M 139.5,129.5 C 139.444,135.729 138.777,141.895 137.5,148C 137.528,149.07 137.861,149.903 138.5,150.5C 137.486,151.674 136.153,152.34 134.5,152.5C 134.675,146.617 135.341,140.783 136.5,135C 136.486,133.615 136.152,132.449 135.5,131.5C 136.514,130.326 137.847,129.66 139.5,129.5 Z"/></g>
    <g><path style="opacity:1" fill="#555869" d="M 144.5,125.5 C 149.348,127.184 150.681,130.517 148.5,135.5C 147.817,135.863 147.15,136.196 146.5,136.5C 145.598,133.003 144.931,129.337 144.5,125.5 Z"/></g>
    <g><path style="opacity:0.969" fill="#75c975" d="M 1.5,108.5 C 26.9449,124.397 52.9449,139.564 79.5,154C 80.4692,158.737 80.8025,163.57 80.5,168.5C 68.0316,161.765 55.6982,154.765 43.5,147.5C 42.4783,140.319 39.145,134.486 33.5,130C 30.5398,127.948 27.7065,128.114 25,130.5C 22.8565,126.026 19.6899,122.526 15.5,120C 10.2564,118.492 7.2564,120.326 6.5,125.5C 4.32099,125.16 2.48765,124.16 1,122.5C 0.184922,117.648 0.351588,112.981 1.5,108.5 Z"/></g>
    <g><path style="opacity:1" fill="#bac0d0" d="M 144.5,125.5 C 144.931,129.337 145.598,133.003 146.5,136.5C 146.803,142.558 147.469,148.558 148.5,154.5C 142.5,157.5 136.5,160.5 130.5,163.5C 132,161.821 133.833,160.488 136,159.5C 138.132,153.663 136.632,152.83 131.5,157C 128,159.167 124.5,161.333 121,163.5C 120.486,167.332 121.986,168.332 125.5,166.5C 120.424,170.383 114.924,173.716 109,176.5C 105.595,174.547 102.095,172.713 98.5,171C 94.4269,164.42 88.7602,159.92 81.5,157.5C 81.5,155.833 81.5,154.167 81.5,152.5C 81.5,149.833 81.5,147.167 81.5,144.5C 81.5,142.833 81.5,141.167 81.5,139.5C 81.3359,136.813 81.5026,134.146 82,131.5C 82.3826,130.944 82.8826,130.611 83.5,130.5C 88.9266,135.058 94.9266,138.891 101.5,142C 103.3,143.812 104.967,145.645 106.5,147.5C 106.969,153.162 107.469,158.829 108,164.5C 108.249,165.624 108.749,166.624 109.5,167.5C 113.401,165.392 117.067,163.059 120.5,160.5C 123.76,159.226 126.76,157.56 129.5,155.5C 131.434,154.89 133.101,153.89 134.5,152.5C 136.153,152.34 137.486,151.674 138.5,150.5C 140.386,149.639 142.22,148.639 144,147.5C 144.5,142.489 144.333,137.489 143.5,132.5C 143.444,130.36 142.777,128.694 141.5,127.5C 141.973,126.094 142.973,125.427 144.5,125.5 Z"/></g>
    <g><path style="opacity:1" fill="#5a6ffa" d="M 135.5,131.5 C 136.152,132.449 136.486,133.615 136.5,135C 135.341,140.783 134.675,146.617 134.5,152.5C 133.101,153.89 131.434,154.89 129.5,155.5C 130.331,148.183 130.998,140.849 131.5,133.5C 132.605,132.4 133.938,131.733 135.5,131.5 Z"/></g>
    <g><path style="opacity:1" fill="#748bfc" d="M 131.5,133.5 C 130.998,140.849 130.331,148.183 129.5,155.5C 126.76,157.56 123.76,159.226 120.5,160.5C 120.591,154.107 121.257,147.774 122.5,141.5C 122.457,140.584 122.124,139.917 121.5,139.5C 124.549,137.137 127.882,135.137 131.5,133.5 Z"/></g>
    <g><path style="opacity:1" fill="#9398a7" d="M 28.5,132.5 C 34.3271,133.776 37.6604,137.442 38.5,143.5C 38.3371,147.5 36.3371,149 32.5,148C 26.704,143.808 25.3707,138.641 28.5,132.5 Z"/></g>
    <g><path style="opacity:1" fill="#6a7af5" d="M 84.5,136.5 C 86.1703,136.751 87.6703,137.418 89,138.5C 89.8236,141.882 89.657,145.216 88.5,148.5C 87.2519,147.96 86.0852,147.293 85,146.5C 84.5017,143.183 84.335,139.85 84.5,136.5 Z"/></g>
    <g><path style="opacity:1" fill="#5a6efa" d="M 121.5,139.5 C 122.124,139.917 122.457,140.584 122.5,141.5C 121.257,147.774 120.591,154.107 120.5,160.5C 117.067,163.059 113.401,165.392 109.5,167.5C 108.749,166.624 108.249,165.624 108,164.5C 107.469,158.829 106.969,153.162 106.5,147.5C 111.632,145.1 116.632,142.434 121.5,139.5 Z"/></g>
    <g><path style="opacity:1" fill="#686a72" d="M 43.5,130.5 C 53.6063,135.722 63.6063,141.222 73.5,147C 76.3869,147.067 79.0535,146.233 81.5,144.5C 81.5,147.167 81.5,149.833 81.5,152.5C 68.4982,145.668 55.8315,138.335 43.5,130.5 Z"/></g>
    <g><path style="opacity:1" fill="#6376f7" d="M 102.5,154.5 C 102.158,155.338 101.492,155.672 100.5,155.5C 97.9745,154.319 95.4745,152.986 93,151.5C 92.3333,147.833 92.3333,144.167 93,140.5C 96.3441,142.004 99.3441,144.004 102,146.5C 102.497,149.146 102.664,151.813 102.5,154.5 Z"/></g>
    <g><path style="opacity:1" fill="#6979f7" d="M 84.5,149.5 C 88.1702,150.193 89.1702,152.193 87.5,155.5C 85.0769,154.288 84.0769,152.288 84.5,149.5 Z"/></g>
    <g><path style="opacity:1" fill="#f38581" d="M 144.5,148.5 C 145.586,148.62 146.253,149.287 146.5,150.5C 145.03,153.491 142.696,154.991 139.5,155C 140.269,152.074 141.935,149.907 144.5,148.5 Z"/></g>
    <g><path style="opacity:1" fill="#64687d" d="M 102.5,154.5 C 103.693,154.97 104.36,155.97 104.5,157.5C 104.384,159.552 103.384,160.885 101.5,161.5C 100.534,159.604 100.201,157.604 100.5,155.5C 101.492,155.672 102.158,155.338 102.5,154.5 Z"/></g>
    <g><path style="opacity:1" fill="#5a8198" d="M 130.5,163.5 C 129.341,165.25 127.674,166.25 125.5,166.5C 121.986,168.332 120.486,167.332 121,163.5C 124.5,161.333 128,159.167 131.5,157C 136.632,152.83 138.132,153.663 136,159.5C 133.833,160.488 132,161.821 130.5,163.5 Z"/></g>
    <g><path style="opacity:0.989" fill="#595c6d" d="M 148.5,154.5 C 148.82,157.898 148.487,161.232 147.5,164.5C 134.732,171.967 121.899,179.3 109,186.5C 105.612,185.223 102.445,183.556 99.5,181.5C 93.0743,185.081 87.9076,183.748 84,177.5C 83.1114,174.324 81.9447,171.324 80.5,168.5C 81.4816,165.038 81.815,161.371 81.5,157.5C 88.7602,159.92 94.4269,164.42 98.5,171C 102.095,172.713 105.595,174.547 109,176.5C 114.924,173.716 120.424,170.383 125.5,166.5C 127.674,166.25 129.341,165.25 130.5,163.5C 136.5,160.5 142.5,157.5 148.5,154.5 Z"/></g>
    <g><path style="opacity:1" fill="#c9cfdd" d="M 132.5,164.5 C 133.649,164.791 134.316,165.624 134.5,167C 132.834,170.811 129.834,172.977 125.5,173.5C 125.215,171.712 125.548,170.045 126.5,168.5C 128.565,167.143 130.565,165.81 132.5,164.5 Z"/></g>
    <g><path style="opacity:1" fill="#d9ba78" d="M 143.5,159.5 C 144.376,159.369 145.043,159.702 145.5,160.5C 144.135,161.941 142.635,163.274 141,164.5C 140.294,162.045 141.127,160.378 143.5,159.5 Z"/></g>
    <g><path style="opacity:1" fill="#f8957b" d="M 115.5,165.5 C 116.695,165.866 117.361,166.699 117.5,168C 116.214,169.649 114.547,170.815 112.5,171.5C 112.167,170.833 111.833,170.167 111.5,169.5C 112.437,167.712 113.77,166.379 115.5,165.5 Z"/></g>
    <g><path style="opacity:1" fill="#a3a8b6" d="M 84.5,166.5 C 91.3569,166.513 95.3569,170.013 96.5,177C 94.9305,182.059 92.2639,182.726 88.5,179C 89.9455,176.507 89.2789,174.673 86.5,173.5C 84.634,174.563 84.134,173.896 85,171.5C 86.1562,172.993 86.9896,172.826 87.5,171C 86.4451,169.493 85.4451,167.993 84.5,166.5 Z"/></g>
    <g><path style="opacity:1" fill="#d7b878" d="M 117.5,174.5 C 118.887,177.185 117.887,178.852 114.5,179.5C 114.167,179 113.833,178.5 113.5,178C 114.686,176.588 116.019,175.421 117.5,174.5 Z"/></g>
</svg>