<?xml version="1.0" standalone="no"?>
<!DOCTYPE svg PUBLIC "-//W3C//DTD SVG 20010904//EN"
 "http://www.w3.org/TR/2001/REC-SVG-20010904/DTD/svg10.dtd">
<svg version="1.0" xmlns="http://www.w3.org/2000/svg"
 width="512.000000pt" height="512.000000pt" viewBox="0 0 512.000000 512.000000"
 preserveAspectRatio="xMidYMid meet">

<g transform="translate(0.000000,512.000000) scale(0.100000,-0.100000)"
fill="#000000" stroke="none">
<path d="M105 4055 l-25 -24 0 -1471 0 -1471 25 -24 24 -25 2431 0 2431 0 24
25 25 24 0 1471 0 1471 -25 24 -24 25 -2431 0 -2431 0 -24 -25z m4775 -1495
l0 -1360 -2320 0 -2320 0 0 1360 0 1360 2320 0 2320 0 0 -1360z"/>
<path d="M425 3735 l-25 -24 0 -271 0 -271 25 -24 c15 -16 36 -25 55 -25 19 0
40 9 55 25 25 24 25 24 25 240 l0 215 215 0 c216 0 216 0 240 25 33 32 33 78
0 110 l-24 25 -271 0 -271 0 -24 -25z"/>
<path d="M4105 3735 c-16 -15 -25 -36 -25 -55 0 -19 9 -40 25 -55 24 -25 24
-25 240 -25 l215 0 0 -215 c0 -216 0 -216 25 -240 32 -33 78 -33 110 0 l25 24
0 271 0 271 -25 24 -24 25 -271 0 -271 0 -24 -25z"/>
<path d="M905 3415 l-25 -24 0 -831 0 -831 25 -24 c32 -33 78 -33 110 0 l25
24 0 831 0 831 -25 24 c-15 16 -36 25 -55 25 -19 0 -40 -9 -55 -25z"/>
<path d="M1225 3415 l-25 -24 0 -671 0 -671 25 -24 c32 -33 78 -33 110 0 l25
24 0 671 0 671 -25 24 c-15 16 -36 25 -55 25 -19 0 -40 -9 -55 -25z"/>
<path d="M1545 3415 l-25 -24 0 -671 0 -671 25 -24 c32 -33 78 -33 110 0 l25
24 0 671 0 671 -25 24 c-15 16 -36 25 -55 25 -19 0 -40 -9 -55 -25z"/>
<path d="M1865 3415 l-25 -24 0 -831 0 -831 25 -24 c32 -33 78 -33 110 0 l25
24 0 831 0 831 -25 24 c-15 16 -36 25 -55 25 -19 0 -40 -9 -55 -25z"/>
<path d="M2185 3415 l-25 -24 0 -831 0 -831 25 -24 c32 -33 78 -33 110 0 l25
24 0 831 0 831 -25 24 c-15 16 -36 25 -55 25 -19 0 -40 -9 -55 -25z"/>
<path d="M2505 3415 l-25 -24 0 -831 0 -831 25 -24 c32 -33 78 -33 110 0 l25
24 0 831 0 831 -25 24 c-15 16 -36 25 -55 25 -19 0 -40 -9 -55 -25z"/>
<path d="M2825 3415 l-25 -24 0 -831 0 -831 25 -24 c32 -33 78 -33 110 0 l25
24 0 831 0 831 -25 24 c-15 16 -36 25 -55 25 -19 0 -40 -9 -55 -25z"/>
<path d="M3145 3415 l-25 -24 0 -671 0 -671 25 -24 c32 -33 78 -33 110 0 l25
24 0 671 0 671 -25 24 c-15 16 -36 25 -55 25 -19 0 -40 -9 -55 -25z"/>
<path d="M3465 3415 l-25 -24 0 -671 0 -671 25 -24 c32 -33 78 -33 110 0 l25
24 0 671 0 671 -25 24 c-15 16 -36 25 -55 25 -19 0 -40 -9 -55 -25z"/>
<path d="M3785 3415 l-25 -24 0 -831 0 -831 25 -24 c32 -33 78 -33 110 0 l25
24 0 831 0 831 -25 24 c-15 16 -36 25 -55 25 -19 0 -40 -9 -55 -25z"/>
<path d="M4105 3415 l-25 -24 0 -831 0 -831 25 -24 c32 -33 78 -33 110 0 l25
24 0 831 0 831 -25 24 c-15 16 -36 25 -55 25 -19 0 -40 -9 -55 -25z"/>
<path d="M425 1975 l-25 -24 0 -271 0 -271 25 -24 24 -25 271 0 271 0 24 25
c33 32 33 78 0 110 -24 25 -24 25 -240 25 l-215 0 0 215 c0 216 0 216 -25 240
-15 16 -36 25 -55 25 -19 0 -40 -9 -55 -25z"/>
<path d="M4585 1975 c-25 -24 -25 -24 -25 -240 l0 -215 -215 0 c-216 0 -216 0
-240 -25 -16 -15 -25 -36 -25 -55 0 -19 9 -40 25 -55 l24 -25 271 0 271 0 24
25 25 24 0 271 0 271 -25 24 c-15 16 -36 25 -55 25 -19 0 -40 -9 -55 -25z"/>
<path d="M1225 1895 c-22 -21 -25 -33 -25 -95 0 -62 3 -74 25 -95 15 -16 36
-25 55 -25 19 0 40 9 55 25 22 21 25 33 25 95 0 62 -3 74 -25 95 -15 16 -36
25 -55 25 -19 0 -40 -9 -55 -25z"/>
<path d="M1545 1895 c-22 -21 -25 -33 -25 -95 0 -62 3 -74 25 -95 15 -16 36
-25 55 -25 19 0 40 9 55 25 22 21 25 33 25 95 0 62 -3 74 -25 95 -15 16 -36
25 -55 25 -19 0 -40 -9 -55 -25z"/>
<path d="M3145 1895 c-22 -21 -25 -33 -25 -95 0 -62 3 -74 25 -95 15 -16 36
-25 55 -25 19 0 40 9 55 25 22 21 25 33 25 95 0 62 -3 74 -25 95 -15 16 -36
25 -55 25 -19 0 -40 -9 -55 -25z"/>
<path d="M3465 1895 c-22 -21 -25 -33 -25 -95 0 -62 3 -74 25 -95 15 -16 36
-25 55 -25 19 0 40 9 55 25 22 21 25 33 25 95 0 62 -3 74 -25 95 -15 16 -36
25 -55 25 -19 0 -40 -9 -55 -25z"/>
</g>
</svg>
