<?xml version="1.0" encoding="UTF-8"?>
<svg version="1.1" xmlns="http://www.w3.org/2000/svg" width="512" height="512">
<path d="M0 0 C5.42487531 2.08135596 10.35053004 4.86165048 15.3671875 7.77734375 C16.48488525 8.41551025 17.60258301 9.05367676 18.75415039 9.71118164 C22.00802406 11.57418658 25.252145 13.45290645 28.4921875 15.33984375 C29.68158936 16.03207031 29.68158936 16.03207031 30.89501953 16.73828125 C34.25321753 18.69872591 37.60134413 20.6755603 40.9453125 22.66015625 C46.66008689 26.04274109 52.42337623 29.34114682 58.1796875 32.65234375 C66.81700967 37.6311783 75.45058839 42.61626655 84.0546875 47.65234375 C84.99465576 48.19737549 85.93462402 48.74240723 86.90307617 49.30395508 C87.75877197 49.80693115 88.61446777 50.30990723 89.49609375 50.828125 C90.24705322 51.26680908 90.9980127 51.70549316 91.77172852 52.1574707 C93.4921875 53.33984375 93.4921875 53.33984375 94.4921875 55.33984375 C94.59250672 56.78775323 94.63157409 58.24013802 94.63935852 59.6914978 C94.65009148 61.06266502 94.65009148 61.06266502 94.66104126 62.46153259 C94.66373016 63.46728836 94.66641907 64.47304413 94.66918945 65.50927734 C94.67576065 66.56628342 94.68233185 67.62328949 94.68910217 68.71232605 C94.70886341 72.22097844 94.72050294 75.72958801 94.73046875 79.23828125 C94.73454428 80.43400379 94.7386198 81.62972633 94.74281883 82.86168289 C94.76368977 89.18806029 94.77798813 95.51441591 94.78735352 101.84082031 C94.7984313 108.3871787 94.83284442 114.93319842 94.87252522 121.47943687 C94.89862061 126.50308888 94.90703897 131.52665925 94.91063499 136.55037308 C94.91551781 138.96417152 94.92717958 141.37796592 94.94567299 143.79169846 C94.96991754 147.16528236 94.96912619 150.53797747 94.9621582 153.91162109 C94.98137329 155.41418205 94.98137329 155.41418205 95.00097656 156.94709778 C94.94987892 163.71529382 94.94987892 163.71529382 92.62605286 166.88630676 C90.0952445 168.61023163 87.56238716 170.20317687 84.890625 171.703125 C83.77413574 172.33484619 82.65764648 172.96656738 81.50732422 173.61743164 C80.29394984 174.29574377 79.08057081 174.97404759 77.8671875 175.65234375 C76.60519977 176.36438834 75.34365017 177.07720996 74.08251953 177.79077148 C72.13815085 178.89077638 70.19352091 179.99028803 68.24752808 181.0874176 C61.92939631 184.649758 55.64562834 188.27055019 49.3671875 191.90234375 C47.24090531 193.13024278 45.11460315 194.35810724 42.98828125 195.5859375 C40.2428333 197.17228 37.49748013 198.75878623 34.7522583 200.34552002 C31.79032114 202.05750646 28.82823225 203.76922889 25.86572266 205.48022461 C23.64495592 206.76291701 21.42455279 208.04623923 19.20458984 209.33032227 C17.21526717 210.47925372 15.22259229 211.62240719 13.22607422 212.75878906 C11.4638329 213.77792416 9.71866761 214.82747456 7.99658203 215.91308594 C4.51333561 218.04994769 2.23295704 219.29712348 -1.89453125 219.53515625 C-7.15019362 217.79652632 -11.60877163 215.08975405 -16.3203125 212.21484375 C-18.47475457 210.92883968 -20.62972044 209.64371281 -22.78515625 208.359375 C-23.89487793 207.69373535 -25.00459961 207.0280957 -26.14794922 206.34228516 C-31.52589994 203.13708592 -36.95440006 200.02104735 -42.3828125 196.90234375 C-44.55087486 195.65250611 -46.71884294 194.40250493 -48.88671875 193.15234375 C-52.83126139 190.87987401 -56.77736166 188.61014937 -60.72515869 186.34333801 C-82.01822959 174.11586772 -82.01822959 174.11586772 -89.5078125 169.58984375 C-90.4565625 169.0175 -91.4053125 168.44515625 -92.3828125 167.85546875 C-94.5078125 166.33984375 -94.5078125 166.33984375 -96.5078125 163.33984375 C-96.76787472 161.31360817 -96.76787472 161.31360817 -96.78196716 158.95059204 C-96.79194229 158.05337936 -96.80191742 157.15616669 -96.81219482 156.23176575 C-96.8128595 155.24987778 -96.81352417 154.26798981 -96.81420898 153.25634766 C-96.8225325 152.22030899 -96.83085602 151.18427032 -96.83943176 150.11683655 C-96.86357715 146.68332184 -96.87230934 143.24999692 -96.87890625 139.81640625 C-96.88786886 137.43370505 -96.89699063 135.05100445 -96.90626526 132.66830444 C-96.92276998 127.66980622 -96.93045813 122.6713751 -96.93334961 117.67285156 C-96.93873598 111.26438755 -96.97642109 104.8565531 -97.02209377 98.44826698 C-97.05181919 93.5257842 -97.05907219 88.60345387 -97.06007576 83.68088913 C-97.06428673 81.31815074 -97.07675589 78.95541225 -97.09759331 76.59276199 C-97.12441378 73.28874511 -97.11970922 69.98619863 -97.10717773 66.68212891 C-97.12201202 65.7042894 -97.13684631 64.72644989 -97.15213013 63.71897888 C-97.10205909 59.08886656 -97.05243033 57.03345451 -94.11575317 53.29338074 C-91.70913979 51.49065251 -89.36289341 49.84484883 -86.75390625 48.3515625 C-85.83158203 47.81853516 -84.90925781 47.28550781 -83.95898438 46.73632812 C-82.96447266 46.17236328 -81.96996094 45.60839844 -80.9453125 45.02734375 C-79.37040039 44.12145508 -79.37040039 44.12145508 -77.76367188 43.19726562 C-74.9319156 41.57079539 -72.09625005 39.95146124 -69.25799561 38.33636475 C-66.35085701 36.68109528 -63.44713663 35.01984913 -60.54296875 33.359375 C-57.01977952 31.34560722 -53.4960551 29.33279365 -49.97045898 27.32324219 C-40.25899466 21.78546552 -30.59381268 16.17016003 -20.9453125 10.5234375 C-20.06230469 10.01280762 -19.17929687 9.50217773 -18.26953125 8.97607422 C-16.29125649 7.80400938 -14.33788562 6.58950857 -12.40234375 5.34814453 C-4.58748976 0.444445 -4.58748976 0.444445 0 0 Z M-6.046875 18.23828125 C-6.70945312 18.6353125 -7.37203125 19.03234375 -8.0546875 19.44140625 C-8.74046875 19.86164063 -9.42625 20.281875 -10.1328125 20.71484375 C-11.17308594 21.33359375 -11.17308594 21.33359375 -12.234375 21.96484375 C-15.97630037 24.04249336 -15.97630037 24.04249336 -18.5078125 27.33984375 C-17.87617188 27.69062988 -17.24453125 28.04141602 -16.59375 28.40283203 C-5.81097519 34.39822574 4.96274232 40.40523735 15.61767578 46.62573242 C17.57953895 47.77072339 19.54539831 48.90889379 21.51513672 50.0402832 C26.74504573 53.06150261 31.83008966 56.20276964 36.83984375 59.578125 C46.09958761 66.38958499 46.09958761 66.38958499 56.81689453 69.31884766 C61.53515582 68.1553364 64.88373567 65.55777049 68.4921875 62.33984375 C70.15412768 61.00062368 71.82010098 59.6663739 73.4921875 58.33984375 C72.83025391 57.95876465 72.16832031 57.57768555 71.48632812 57.18505859 C68.32121736 55.36234253 65.15656637 53.53883003 61.9921875 51.71484375 C61.40762787 51.37793518 60.82306824 51.04102661 60.22079468 50.69390869 C52.88172908 46.46299005 45.55355985 42.21449386 38.24291992 37.93457031 C29.07861443 32.57076742 19.89772884 27.23581946 10.6796875 21.96484375 C9.70040283 21.39878418 8.72111816 20.83272461 7.7121582 20.24951172 C6.80812256 19.73533691 5.90408691 19.22116211 4.97265625 18.69140625 C4.17754639 18.23588379 3.38243652 17.78036133 2.56323242 17.31103516 C-0.94026274 15.66811358 -2.91588326 16.35702366 -6.046875 18.23828125 Z M-38.6328125 36.83984375 C-39.35726562 37.30390625 -40.08171875 37.76796875 -40.828125 38.24609375 C-41.38242188 38.60703125 -41.93671875 38.96796875 -42.5078125 39.33984375 C-40.10811568 41.99550162 -37.54337061 43.61982928 -34.44140625 45.38671875 C-32.89718994 46.27145874 -32.89718994 46.27145874 -31.32177734 47.17407227 C-29.65042725 48.12237915 -29.65042725 48.12237915 -27.9453125 49.08984375 C-26.7752593 49.75851887 -25.605505 50.42771726 -24.43603516 51.09741211 C-22.00426883 52.48937629 -19.57123006 53.87907577 -17.13720703 55.26708984 C-8.32837686 60.29354445 0.44650921 65.37943468 9.22705078 70.45507812 C12.04686305 72.08278492 14.86912865 73.7061377 17.69250488 75.32765198 C20.48232019 76.93168771 23.26814383 78.54263323 26.0546875 80.15234375 C27.09061035 80.74539307 28.1265332 81.33844238 29.19384766 81.94946289 C30.13921387 82.49723389 31.08458008 83.04500488 32.05859375 83.609375 C32.89334229 84.08995361 33.72809082 84.57053223 34.58813477 85.06567383 C36.4921875 86.33984375 36.4921875 86.33984375 37.4921875 88.33984375 C37.61091323 89.97319567 37.66927842 91.61111729 37.69750977 93.24853516 C37.7274276 94.77989609 37.7274276 94.77989609 37.75794983 96.3421936 C37.77466232 97.44743378 37.79137482 98.55267395 37.80859375 99.69140625 C37.82937485 100.82057465 37.85015594 101.94974304 37.87156677 103.11312866 C37.93710085 106.73030347 37.99596524 110.34755256 38.0546875 113.96484375 C38.09786904 116.41276819 38.14148321 118.86068503 38.18554688 121.30859375 C38.29278621 127.31893374 38.3940428 133.32934865 38.4921875 139.33984375 C41.7921875 137.68984375 45.0921875 136.03984375 48.4921875 134.33984375 C48.91429701 126.97565637 49.22163484 119.61856628 49.42602539 112.24511719 C49.51123324 109.74159107 49.62705198 107.23890433 49.7746582 104.73828125 C51.11313808 91.43488708 51.11313808 91.43488708 46.96914673 79.30319214 C43.02410168 75.90257535 38.51710118 73.98984149 33.67300415 72.19030762 C30.59489227 70.98992109 27.87134654 69.3314035 25.05859375 67.609375 C23.05771647 66.4562938 21.05640976 65.30395746 19.0546875 64.15234375 C16.82421248 62.86719838 14.59374393 61.58204178 12.36328125 60.296875 C11.23647949 59.64799316 10.10967773 58.99911133 8.94873047 58.33056641 C4.29426163 55.64992374 -0.35912906 52.96741494 -5.01196289 50.28393555 C-7.18413592 49.03116421 -9.35648564 47.77869915 -11.52905273 46.52661133 C-12.53009033 45.94935303 -13.53112793 45.37209473 -14.5625 44.77734375 C-15.53413086 44.21789062 -16.50576172 43.6584375 -17.50683594 43.08203125 C-19.63134915 41.84866595 -21.74850381 40.60258471 -23.86035156 39.34765625 C-24.9428418 38.70570312 -26.02533203 38.06375 -27.140625 37.40234375 C-28.61233154 36.52255859 -28.61233154 36.52255859 -30.11376953 35.625 C-33.9472946 33.56710932 -35.16366359 34.60168316 -38.6328125 36.83984375 Z M-61.421875 50.52734375 C-62.18242187 50.97851562 -62.94296875 51.4296875 -63.7265625 51.89453125 C-64.520625 52.37148437 -65.3146875 52.8484375 -66.1328125 53.33984375 C-66.93460938 53.81679687 -67.73640625 54.29375 -68.5625 54.78515625 C-70.54662326 55.966182 -72.52823833 57.1512141 -74.5078125 58.33984375 C-71.09947604 61.18536415 -67.67314266 63.52195977 -63.80859375 65.703125 C-62.69436035 66.33541016 -61.58012695 66.96769531 -60.43212891 67.61914062 C-59.22819407 68.29688204 -58.02425517 68.97461624 -56.8203125 69.65234375 C-54.93501011 70.72017605 -53.05062394 71.78961344 -51.16625977 72.85910034 C-49.87503961 73.5917987 -48.58353293 74.32399233 -47.29174805 75.05569458 C-41.83106425 78.14997363 -36.39053452 81.27806245 -30.95654297 84.41894531 C-28.76059092 85.68806172 -26.56302593 86.9543918 -24.36376953 88.21777344 C-19.86140436 90.80595102 -15.37191413 93.40249406 -10.94921875 96.125 C-10.29872559 96.51880859 -9.64823242 96.91261719 -8.97802734 97.31835938 C-7.35864997 98.30302598 -5.75088593 99.30672863 -4.14453125 100.3125 C-1.5847171 101.59583096 -1.5847171 101.59583096 0.890625 100.78125 C1.74914062 100.30558594 2.60765625 99.82992187 3.4921875 99.33984375 C4.05413818 99.03409424 4.61608887 98.72834473 5.19506836 98.41333008 C7.08123001 97.37343676 8.94393668 96.29948326 10.8046875 95.21484375 C11.44986328 94.84230469 12.09503906 94.46976563 12.75976562 94.0859375 C14.33894695 93.17352162 15.91580614 92.25708866 17.4921875 91.33984375 C14.56243528 89.05233415 11.55218385 87.14005583 8.328125 85.29296875 C7.30130615 84.70281982 6.2744873 84.1126709 5.21655273 83.50463867 C4.11126221 82.87275635 3.00597168 82.24087402 1.8671875 81.58984375 C0.70694912 80.92386877 -0.45312302 80.25760408 -1.61303711 79.59106445 C-4.02927873 78.2029315 -6.44623388 76.81605381 -8.86376953 75.43017578 C-14.60453639 72.13834906 -20.33748875 68.83298099 -26.0703125 65.52734375 C-27.14684082 64.90754639 -28.22336914 64.28774902 -29.33251953 63.64916992 C-34.18673698 60.85078178 -39.03175201 58.03968503 -43.84765625 55.17578125 C-44.64421631 54.70245361 -45.44077637 54.22912598 -46.26147461 53.74145508 C-47.7139519 52.87558855 -49.16415368 52.00588839 -50.61157227 51.1315918 C-55.36365647 48.29575939 -56.70986802 47.71420525 -61.421875 50.52734375 Z M-82.5078125 70.33984375 C-82.80948829 81.54431325 -83.04023347 92.74781215 -83.18137074 103.95552063 C-83.24912578 109.16044881 -83.34094597 114.36259267 -83.48852539 119.56591797 C-83.63015774 124.59121844 -83.70757706 129.61384861 -83.74121666 134.64099121 C-83.76517432 136.55507467 -83.81196754 138.46901725 -83.88230324 140.38195801 C-84.30202233 148.99736436 -84.30202233 148.99736436 -82.5078125 157.33984375 C-78.60260755 161.41198757 -74.72684563 163.18034865 -69.5078125 165.33984375 C-67.33207925 166.56386039 -65.16951416 167.8119006 -63.02734375 169.09375 C-60.79286928 170.36539676 -58.55715361 171.63486457 -56.3203125 172.90234375 C-53.87305006 174.29313315 -51.42670333 175.68552868 -48.98046875 177.078125 C-48.36408539 177.42878021 -47.74770203 177.77943542 -47.11264038 178.14071655 C-42.79510198 180.59933536 -38.48983442 183.07845057 -34.19140625 185.5703125 C-33.31020866 186.0807888 -33.31020866 186.0807888 -32.41120911 186.60157776 C-29.617273 188.22054108 -26.82482958 189.84199899 -24.03442383 191.46704102 C-23.03048584 192.04897217 -22.02654785 192.63090332 -20.9921875 193.23046875 C-20.12303711 193.73610352 -19.25388672 194.24173828 -18.35839844 194.76269531 C-16.0359628 196.04763315 -13.70489709 197.25669099 -11.32965088 198.43841553 C-10.61287296 198.79543423 -9.89609505 199.15245293 -9.15759659 199.52029037 C-8.34095346 199.9259693 -8.34095346 199.9259693 -7.5078125 200.33984375 C-7.20613671 189.13537425 -6.97539153 177.93187535 -6.83425426 166.72416687 C-6.76649922 161.51923869 -6.67467903 156.31709483 -6.52709961 151.11376953 C-6.38546726 146.08846906 -6.30804794 141.06583889 -6.27440834 136.03869629 C-6.25045068 134.12461283 -6.20365746 132.21067025 -6.13332176 130.29772949 C-5.71360267 121.68232314 -5.71360267 121.68232314 -7.5078125 113.33984375 C-11.41301745 109.26769993 -15.28877937 107.49933885 -20.5078125 105.33984375 C-22.68354575 104.11582711 -24.84611084 102.8677869 -26.98828125 101.5859375 C-29.22275572 100.31429074 -31.45847139 99.04482293 -33.6953125 97.77734375 C-36.14257494 96.38655435 -38.58892167 94.99415882 -41.03515625 93.6015625 C-41.65153961 93.25090729 -42.26792297 92.90025208 -42.90298462 92.53897095 C-47.22052302 90.08035214 -51.52579058 87.60123693 -55.82421875 85.109375 C-56.41168381 84.76905746 -56.99914886 84.42873993 -57.60441589 84.07810974 C-60.398352 82.45914642 -63.19079542 80.83768851 -65.98120117 79.21264648 C-66.98513916 78.63071533 -67.98907715 78.04878418 -69.0234375 77.44921875 C-70.32716309 76.6907666 -70.32716309 76.6907666 -71.65722656 75.91699219 C-73.9796622 74.63205435 -76.31072791 73.42299651 -78.68597412 72.24127197 C-79.40275204 71.88425327 -80.11952995 71.52723457 -80.85802841 71.15939713 C-81.40245716 70.88894451 -81.94688591 70.6184919 -82.5078125 70.33984375 Z M64.20483398 79.074646 C58.34499858 86.82504056 60.72446075 99.8684715 61.152771 109.08520508 C61.35938461 113.8617169 61.44593593 118.64173713 61.52520752 123.42179871 C61.57522447 125.96019908 61.65733781 128.49821685 61.77508545 131.03437805 C62.03684616 139.5688773 62.03684616 139.5688773 59.28759766 143.46044922 C58.3651123 144.08064941 57.44262695 144.70084961 56.4921875 145.33984375 C55.70537598 145.89067627 54.91856445 146.44150879 54.10791016 147.0090332 C51.45306058 148.57280887 48.79230224 150.12344137 46.1171875 151.65234375 C45.19679688 152.20212891 44.27640625 152.75191406 43.328125 153.31835938 C34.3085446 158.5046181 34.3085446 158.5046181 28.4921875 157.33984375 C25.70201095 154.43820564 25.11097782 152.35797267 25.05981445 148.38769531 C25.03012321 146.91662323 25.03012321 146.91662323 24.99983215 145.41583252 C24.99344223 144.36466248 24.98705231 143.31349243 24.98046875 142.23046875 C24.96251755 141.14852234 24.94456635 140.06657593 24.92607117 138.95184326 C24.87191114 135.49788301 24.83805347 132.0440614 24.8046875 128.58984375 C24.77151954 126.24737652 24.73703037 123.90492759 24.70117188 121.5625 C24.61618139 115.82173891 24.54785551 110.08096 24.4921875 104.33984375 C22.48781993 104.99326176 20.48878754 105.66306259 18.4921875 106.33984375 C17.44617371 106.68342422 16.40015991 107.0270047 15.32244873 107.3809967 C11.64239483 108.98524275 9.26145284 110.4081364 6.4921875 113.33984375 C4.29404331 119.46737974 5.10143147 126.44444854 5.3203125 132.8359375 C5.34271135 134.75401999 5.35978473 136.67217143 5.37176514 138.59034729 C5.41745392 143.62445682 5.53519374 148.65437046 5.66821289 153.68682861 C5.79126607 158.82775094 5.84583747 163.9693557 5.90625 169.11132812 C6.03471377 179.18933763 6.23934305 189.26424103 6.4921875 199.33984375 C8.37838018 198.40676184 10.26340384 197.47131661 12.14794922 196.53491211 C13.19779999 196.01424667 14.24765076 195.49358124 15.32931519 194.95713806 C20.20627647 192.46336628 24.90702423 189.69502774 29.6171875 186.90234375 C31.70796164 185.67254496 33.79912183 184.44340229 35.890625 183.21484375 C36.96666992 182.58191406 38.04271484 181.94898438 39.15136719 181.296875 C44.83148242 177.96949969 50.53703357 174.68654165 56.2421875 171.40234375 C60.7798082 168.79221229 60.7798082 168.79221229 65.28207397 166.1219635 C68.4921875 164.33984375 68.4921875 164.33984375 71.66345215 163.15487671 C75.34144069 161.61205851 77.71352805 160.22549157 80.4921875 157.33984375 C82.69596645 151.21745239 81.88281664 144.23153381 81.6640625 137.84375 C81.64166365 135.92566751 81.62459027 134.00751607 81.61260986 132.08934021 C81.56692108 127.05523068 81.44918126 122.02531704 81.31616211 116.99285889 C81.19310893 111.85193656 81.13853753 106.7103318 81.078125 101.56835938 C80.94966123 91.49034987 80.74503195 81.41544647 80.4921875 71.33984375 C74.8653514 71.33984375 68.3081713 75.54048204 64.20483398 79.074646 Z " fill="#1F81CE" transform="translate(278.5078125,87.66015625)"/>
<path d="M0 0 C4.54656808 3.32675713 8.14962533 7.35194448 9.5625 12.875 C10.46164654 19.81917792 9.11897706 25.84610573 5.5625 31.875 C3.52111502 34.24742038 1.38997422 36.37284209 -0.92578125 38.4765625 C-2.97309186 40.43153717 -4.7687874 42.38310494 -6.60229492 44.52880859 C-10.32956943 48.81182264 -14.27482895 52.82369853 -18.3125 56.8125 C-19.40473877 57.89905884 -19.40473877 57.89905884 -20.51904297 59.00756836 C-23.59806951 62.07042424 -26.68308323 65.12722311 -29.76757812 68.18457031 C-32.03465458 70.43344117 -34.29862966 72.68540238 -36.5625 74.9375 C-37.59093018 75.95348267 -37.59093018 75.95348267 -38.64013672 76.98999023 C-42.53333218 80.86362909 -46.22202421 84.84850565 -49.80941772 89.00646973 C-53.58589683 93.34068898 -57.63759741 97.41822187 -61.67016602 101.51269531 C-62.72435593 102.58855225 -63.77223172 103.67063226 -64.8137207 104.75878906 C-76.3795674 116.83476021 -86.31782562 119.71539172 -102.75585938 120.32397461 C-103.65125931 120.35992233 -104.54665924 120.39587006 -105.4691925 120.4329071 C-107.40008548 120.51014324 -109.33103716 120.58592309 -111.26203918 120.66038322 C-114.32309458 120.77896476 -117.38390733 120.90260741 -120.44470215 121.02772522 C-129.14269001 121.38271604 -137.84091355 121.73134867 -146.53955078 122.07006836 C-151.87235935 122.27808227 -157.20478748 122.49423156 -162.5370636 122.71545601 C-164.56223799 122.79786776 -166.5875404 122.87719558 -168.61296082 122.95332146 C-171.44872118 123.06011571 -174.28388588 123.1772549 -177.11914062 123.29663086 C-177.94742874 123.32527222 -178.77571686 123.35391357 -179.62910461 123.38342285 C-186.35239203 123.68401841 -192.88660533 124.55503136 -198.7265625 128.15234375 C-199.44070312 128.58353516 -200.15484375 129.01472656 -200.890625 129.45898438 C-201.60734375 129.90564453 -202.3240625 130.35230469 -203.0625 130.8125 C-204.51192809 131.69840489 -205.96242972 132.58255607 -207.4140625 133.46484375 C-208.09621826 133.88709229 -208.77837402 134.30934082 -209.48120117 134.74438477 C-211.4375 135.875 -211.4375 135.875 -214.90234375 137.3359375 C-217.68935588 138.63863728 -217.68935588 138.63863728 -218.21484375 141.51171875 C-218.26769531 142.51847656 -218.32054687 143.52523437 -218.375 144.5625 C-219.24357394 151.32438868 -221.25636573 154.52284721 -226.4375 158.875 C-229.67876897 161.34951717 -232.97575829 163.70654281 -236.3359375 166.015625 C-239.37148796 168.10734885 -242.33920193 170.27342957 -245.2890625 172.484375 C-246.53768066 173.41902588 -246.53768066 173.41902588 -247.81152344 174.37255859 C-249.44031931 175.5952685 -251.0661342 176.82196282 -252.68847656 178.05322266 C-259.44949648 183.10177568 -265.63599346 187.68600636 -274.34765625 187.1796875 C-282.58892747 185.97815637 -287.13955243 179.27953353 -291.84033203 173.00146484 C-294.57661414 169.27597287 -297.26645527 165.51804628 -299.94921875 161.75390625 C-303.37623615 156.94569407 -306.86610082 152.18616434 -310.375 147.4375 C-310.95008301 146.65793945 -311.52516602 145.87837891 -312.11767578 145.07519531 C-315.14757375 140.96951904 -318.18347032 136.86833579 -321.22265625 132.76953125 C-321.84470947 131.92898193 -322.4667627 131.08843262 -323.10766602 130.22241211 C-324.28471107 128.63202715 -325.46344836 127.04289249 -326.64428711 125.45532227 C-339.52546461 108.04027766 -339.52546461 108.04027766 -338.4375 98.875 C-335.50960653 87.43369322 -322.24376489 80.90537329 -313.1484375 74.5078125 C-308.51012997 71.23737046 -303.95655745 67.85159251 -299.41113281 64.45361328 C-292.48143674 59.32141323 -288.08085755 57.98432019 -279.4375 58.875 C-277.41593296 59.83064988 -275.40783426 60.81774747 -273.4375 61.875 C-269.64208878 60.54660607 -266.7236904 57.80314549 -263.625 55.3125 C-244.11076604 40.02667525 -222.61244363 30.77414199 -197.56835938 30.69799805 C-196.61443802 30.69142685 -195.66051666 30.68485565 -194.6776886 30.67808533 C-191.54554142 30.65849888 -188.4134417 30.64672662 -185.28125 30.63671875 C-184.20634811 30.63264322 -183.13144623 30.6285677 -182.02397156 30.62436867 C-176.34134111 30.60357691 -170.65873437 30.5892419 -164.97607422 30.57983398 C-159.11856086 30.56874503 -153.26142477 30.5342965 -147.4040451 30.49466228 C-142.88636579 30.4684994 -138.36877685 30.46014274 -133.85102844 30.45655251 C-131.69173109 30.45169085 -129.53243766 30.44008895 -127.37321472 30.42151451 C-124.3507183 30.39711591 -121.32920577 30.39808887 -118.30664062 30.4050293 C-117.42224808 30.39221924 -116.53785553 30.37940918 -115.62666321 30.36621094 C-108.69792481 30.42400735 -103.6993234 32.34636522 -98.23046875 36.5859375 C-94.83322715 40.10716602 -92.34164517 43.28264989 -90.4375 47.875 C-86.6535048 46.50413491 -83.56581843 44.766981 -80.25390625 42.48828125 C-79.25504395 41.80475586 -78.25618164 41.12123047 -77.22705078 40.41699219 C-76.16212402 39.68125977 -75.09719727 38.94552734 -74 38.1875 C-72.88037419 37.4191173 -71.76041494 36.65122025 -70.64013672 35.88378906 C-68.34822201 34.31295241 -66.05798111 32.73972134 -63.76904297 31.16455078 C-58.87858235 27.80084918 -53.96952205 24.46447053 -49.0625 21.125 C-43.69494857 17.46882063 -38.33240549 13.8057831 -32.984375 10.12109375 C-32.11345215 9.52200195 -31.2425293 8.92291016 -30.34521484 8.30566406 C-28.70341457 7.17568007 -27.06302412 6.04364387 -25.42431641 4.90917969 C-24.32869385 4.15556152 -24.32869385 4.15556152 -23.2109375 3.38671875 C-22.57591309 2.94803467 -21.94088867 2.50935059 -21.28662109 2.05737305 C-14.67196205 -2.17220099 -7.46103549 -2.44179343 0 0 Z M-15.30859375 15.19140625 C-16.03626953 15.70058594 -16.76394531 16.20976562 -17.51367188 16.734375 C-18.6825293 17.57742188 -18.6825293 17.57742188 -19.875 18.4375 C-21.58161164 19.63731582 -23.28866044 20.83651001 -24.99609375 22.03515625 C-25.8866748 22.66566895 -26.77725586 23.29618164 -27.69482422 23.94580078 C-32.23925967 27.14235846 -36.84047811 30.25478153 -41.4375 33.375 C-46.8545383 37.06294327 -52.26830763 40.75539907 -57.66796875 44.46875 C-62.24824471 47.61832902 -66.83574105 50.75688055 -71.4375 53.875 C-72.01628906 54.26719727 -72.59507812 54.65939453 -73.19140625 55.06347656 C-77.61855315 58.04119515 -81.68191899 60.76668724 -86.8125 62.3125 C-91.17149219 64.19137594 -91.90659453 65.81532051 -94.10546875 69.80859375 C-97.65946574 75.3219791 -102.80893816 77.95002359 -109.04823303 79.45065308 C-113.54594638 80.24947165 -118.05645677 80.2007879 -122.61328125 80.2109375 C-124.18374458 80.2209227 -124.18374458 80.2209227 -125.78593445 80.23110962 C-127.98528293 80.24118552 -130.18466167 80.24592822 -132.3840332 80.24560547 C-135.7571752 80.25000937 -139.12903951 80.28646683 -142.50195312 80.32421875 C-144.6432247 80.33008171 -146.78450247 80.33405458 -148.92578125 80.3359375 C-150.43982292 80.35749405 -150.43982292 80.35749405 -151.98445129 80.37948608 C-152.91939926 80.37333282 -153.85434723 80.36717957 -154.81762695 80.36083984 C-155.63955032 80.36368988 -156.46147369 80.36653992 -157.30830383 80.36947632 C-159.4375 79.875 -159.4375 79.875 -161.23796082 78.07510376 C-163.03262909 74.78345938 -162.30689243 72.41944606 -161.4375 68.875 C-159.15403579 67.7332679 -157.83706803 67.73348155 -155.29833984 67.70141602 C-154.01592911 67.68118126 -154.01592911 67.68118126 -152.70761108 67.66053772 C-151.31707016 67.64488014 -151.31707016 67.64488014 -149.8984375 67.62890625 C-147.9361938 67.59594728 -145.97395433 67.562736 -144.01171875 67.52929688 C-140.91783774 67.48203401 -137.82397127 67.43764628 -134.72998047 67.39819336 C-131.74427728 67.35823404 -128.75893712 67.30672631 -125.7734375 67.25390625 C-124.8585556 67.2454921 -123.94367371 67.23707794 -123.00106812 67.22840881 C-113.24847183 67.10308904 -113.24847183 67.10308904 -104.9375 62.625 C-103.1150286 59.28380244 -102.82436807 57.63043306 -103.4375 53.875 C-105.7758566 49.45810421 -107.9145244 46.97118664 -112.4375 44.875 C-115.39560255 44.44683548 -118.31935776 44.4649271 -121.30419922 44.48681641 C-122.18791702 44.48155945 -123.07163483 44.47630249 -123.98213196 44.47088623 C-126.90233081 44.45769149 -129.8219831 44.46643011 -132.7421875 44.4765625 C-134.78419092 44.47453982 -136.82619363 44.47162676 -138.86819458 44.46786499 C-143.15373595 44.46344083 -147.43908981 44.46986906 -151.72460938 44.48388672 C-157.1790631 44.50087028 -162.63307037 44.49120711 -168.08750725 44.47316933 C-172.31040706 44.4622411 -176.53320413 44.46582076 -180.75610733 44.4735527 C-182.76445698 44.4755355 -184.77281638 44.47316402 -186.78115463 44.46611404 C-214.68991886 44.38972395 -237.00319722 51.67532837 -258.4375 69.875 C-260.10073299 71.21261414 -261.76655198 72.54703605 -263.4375 73.875 C-261.87736072 78.66490129 -259.16932183 82.13692712 -256.125 86.0625 C-255.03625118 87.48843224 -253.94906854 88.91556139 -252.86328125 90.34375 C-252.29947754 91.08496094 -251.73567383 91.82617188 -251.15478516 92.58984375 C-248.3135742 96.37058509 -245.56569425 100.21745119 -242.8125 104.0625 C-237.50675478 111.45571243 -232.0460011 118.70928527 -226.4375 125.875 C-222.81481276 125.3050051 -220.17533065 124.36417645 -217.0390625 122.4765625 C-216.22953125 121.99703125 -215.42 121.5175 -214.5859375 121.0234375 C-213.75320312 120.52070313 -212.92046875 120.01796875 -212.0625 119.5 C-200.99559611 112.85985767 -192.25035334 109.90653935 -179.2644043 109.42602539 C-178.37236298 109.39007767 -177.48032166 109.35412994 -176.56124878 109.3170929 C-174.6341662 109.23976065 -172.70702054 109.16398747 -170.7798214 109.08961678 C-167.72249247 108.97113611 -164.66541426 108.84745356 -161.60835266 108.72227478 C-152.91962244 108.36716816 -144.23061752 108.0193395 -135.54125977 107.67993164 C-130.2160944 107.47156346 -124.89128974 107.25542494 -119.56662941 107.03454399 C-117.54589401 106.95226508 -115.52503642 106.87292908 -113.50406456 106.79667854 C-110.668623 106.68952441 -107.83374034 106.5724802 -104.9987793 106.45336914 C-103.76477638 106.4104071 -103.76477638 106.4104071 -102.50584412 106.36657715 C-90.96387692 106.02473166 -90.96387692 106.02473166 -81.25 100.6875 C-80.60804688 100.06359375 -79.96609375 99.4396875 -79.3046875 98.796875 C-78.68851563 98.16265625 -78.07234375 97.5284375 -77.4375 96.875 C-76.84195313 96.30265625 -76.24640625 95.7303125 -75.6328125 95.140625 C-72.66036916 92.26065767 -69.87965835 89.26367705 -67.1875 86.12109375 C-63.62213774 82.02927062 -59.86116001 78.18624166 -56 74.375 C-55.31623291 73.69501953 -54.63246582 73.01503906 -53.92797852 72.31445312 C-51.04012227 69.44274857 -48.14626925 66.57711562 -45.25292969 63.7109375 C-43.12484275 61.60107213 -40.99987083 59.48810355 -38.875 57.375 C-38.23312744 56.74142578 -37.59125488 56.10785156 -36.92993164 55.45507812 C-33.11870432 51.66423702 -29.53078156 47.7446087 -26.01821899 43.67611694 C-24.0699542 41.45620768 -22.01117793 39.38314109 -19.88671875 37.33203125 C-19.10619141 36.56826172 -18.32566406 35.80449219 -17.52148438 35.01757812 C-15.90792676 33.44873196 -14.29065997 31.8836927 -12.66992188 30.32226562 C-11.89583984 29.56236328 -11.12175781 28.80246094 -10.32421875 28.01953125 C-9.62514404 27.34253174 -8.92606934 26.66553223 -8.20581055 25.96801758 C-6.26622259 23.67227168 -5.31351386 21.74082091 -4.4375 18.875 C-4.70542471 15.55416228 -4.70542471 15.55416228 -6.4375 12.875 C-10.22310476 12.53686445 -12.23170372 12.9970015 -15.30859375 15.19140625 Z M-295.125 78.5625 C-296.62834831 79.75235387 -298.13362487 80.93977471 -299.640625 82.125 C-300.42115234 82.74117187 -301.20167969 83.35734375 -302.00585938 83.9921875 C-306.80994645 87.71197862 -311.77520081 91.21082891 -316.72338867 94.73510742 C-317.44244385 95.24920166 -318.16149902 95.7632959 -318.90234375 96.29296875 C-319.537771 96.74438232 -320.17319824 97.1957959 -320.82788086 97.66088867 C-322.57624029 98.92126584 -322.57624029 98.92126584 -324.4375 100.875 C-324.11213876 104.58785613 -322.99746038 106.91429924 -320.76953125 109.8515625 C-320.21330078 110.59470703 -319.65707031 111.33785156 -319.08398438 112.10351562 C-318.17616211 113.28977539 -318.17616211 113.28977539 -317.25 114.5 C-315.96461431 116.21076513 -314.67946453 117.92170754 -313.39453125 119.6328125 C-312.73533691 120.50454102 -312.07614258 121.37626953 -311.39697266 122.27441406 C-308.37656442 126.28305953 -305.40832145 130.32955432 -302.4375 134.375 C-301.28019201 135.9454924 -300.12263863 137.51580401 -298.96484375 139.0859375 C-296.53708526 142.38041324 -294.11315164 145.67766432 -291.69140625 148.9765625 C-291.07330078 149.81767578 -290.45519531 150.65878906 -289.81835938 151.52539062 C-288.65067876 153.11448981 -287.4839311 154.70427521 -286.31835938 156.29492188 C-285.24530573 157.75442941 -284.16679747 159.20994443 -283.08251953 160.66113281 C-281.92000755 162.22564137 -280.77692275 163.80467462 -279.64794922 165.39355469 C-279.05127441 166.20985352 -278.45459961 167.02615234 -277.83984375 167.8671875 C-277.30738037 168.61081543 -276.77491699 169.35444336 -276.22631836 170.12060547 C-273.96586414 172.33755975 -272.58441183 172.75028227 -269.4375 172.875 C-267.45495984 172.00748873 -267.45495984 172.00748873 -265.72265625 170.48046875 C-265.04307861 169.94164062 -264.36350098 169.4028125 -263.66333008 168.84765625 C-262.94943115 168.25855469 -262.23553223 167.66945313 -261.5 167.0625 C-259.98594115 165.85610473 -258.47029179 164.65170313 -256.953125 163.44921875 C-256.19708984 162.84513184 -255.44105469 162.24104492 -254.66210938 161.61865234 C-250.3929208 158.27245559 -245.93196502 155.20166775 -241.48828125 152.09375 C-240.48152344 151.3615625 -239.47476563 150.629375 -238.4375 149.875 C-237.85661621 149.48570312 -237.27573242 149.09640625 -236.67724609 148.6953125 C-234.73412981 147.36325408 -234.73412981 147.36325408 -232.4375 144.875 C-231.96283397 139.14736323 -235.7709353 135.33011588 -239.1875 131.125 C-240.38111912 129.6124207 -241.57245736 128.0980392 -242.76171875 126.58203125 C-243.67896729 125.41728271 -243.67896729 125.41728271 -244.61474609 124.22900391 C-247.5074343 120.49322843 -250.25436733 116.65696868 -253 112.8125 C-257.60154253 106.39259484 -262.26527332 100.02781571 -267.04345703 93.73803711 C-269.58517207 90.38444402 -272.06243485 87.00355177 -274.45703125 83.54296875 C-275.19252197 82.49435669 -275.19252197 82.49435669 -275.94287109 81.42456055 C-276.8750142 80.09054395 -277.794101 78.74727674 -278.69775391 77.39379883 C-280.49188938 74.84502024 -281.75400937 73.09787738 -284.7734375 72.11328125 C-288.9324895 73.30245301 -291.80530298 75.85732047 -295.125 78.5625 Z " fill="#1E81CE" transform="translate(415.4375,286.125)"/>
<path d="M0 0 C0.87269531 0.77214844 1.74539063 1.54429688 2.64453125 2.33984375 C3.63066406 3.20480469 4.61679687 4.06976563 5.6328125 4.9609375 C21.92224043 19.44647651 34.63094331 36.03156834 44.64453125 55.33984375 C44.99112793 55.99645996 45.33772461 56.65307617 45.69482422 57.32958984 C61.8964083 88.35535701 67.11011923 124.67096974 62.33203125 159.21484375 C62.15559082 160.53319214 62.15559082 160.53319214 61.97558594 161.87817383 C60.89078196 168.84963465 60.89078196 168.84963465 57.64453125 171.33984375 C51.75760545 171.9705858 51.75760545 171.9705858 48.76953125 170.27734375 C45.78041125 165.12941486 46.72571721 159.21562009 47.58203125 153.58984375 C52.88552718 113.16344672 41.10779131 71.07557463 16.36328125 38.76953125 C12.68041136 34.07309842 8.77793031 29.64461093 4.64453125 25.33984375 C3.75378906 24.3859375 2.86304688 23.43203125 1.9453125 22.44921875 C-9.16936665 10.75759443 -22.0588623 1.76366236 -36.35546875 -5.66015625 C-36.99677734 -5.99644043 -37.63808594 -6.33272461 -38.29882812 -6.67919922 C-75.58038386 -25.96307486 -119.3764757 -28.82029699 -159.28515625 -16.38671875 C-176.80458529 -10.60470696 -196.15882207 -1.85680293 -209.35546875 11.33984375 C-208.11410156 11.51 -206.87273437 11.68015625 -205.59375 11.85546875 C-203.95169941 12.09943055 -202.30977881 12.34426846 -200.66796875 12.58984375 C-199.85134766 12.69941406 -199.03472656 12.80898437 -198.19335938 12.921875 C-193.25368475 13.68182494 -189.88188247 14.51661766 -186.35546875 18.33984375 C-185.53031044 24.21909669 -185.53031044 24.21909669 -187.60131836 27.03198242 C-192.07088776 30.36440877 -199.25378929 28.5225925 -204.46826172 27.81396484 C-208.29609095 27.25064551 -212.10843999 26.60959661 -215.91918945 25.94116211 C-218.31034018 25.52431541 -220.70448392 25.12961598 -223.09960938 24.73632812 C-224.63173627 24.47397181 -226.16364642 24.21034585 -227.6953125 23.9453125 C-228.7609568 23.77167427 -228.7609568 23.77167427 -229.84812927 23.5945282 C-237.06589977 22.29302396 -237.06589977 22.29302396 -239.35546875 19.33984375 C-240.43863693 13.11350772 -238.82662285 7.52637294 -236.6875 1.7265625 C-236.27246468 0.56130791 -236.27246468 0.56130791 -235.8490448 -0.62748718 C-235.26510711 -2.25430601 -234.67397022 -3.87855739 -234.07592773 -5.50024414 C-233.1666128 -7.97634857 -232.2901848 -10.46247325 -231.41601562 -12.95117188 C-230.84177877 -14.53846179 -230.2656709 -16.12507633 -229.6875 -17.7109375 C-229.4289473 -18.44951492 -229.17039459 -19.18809235 -228.90400696 -19.9490509 C-227.22262257 -24.42206829 -225.61911967 -27.12573748 -221.35546875 -29.66015625 C-217.66796875 -29.59765625 -217.66796875 -29.59765625 -214.35546875 -28.66015625 C-211.82793048 -24.86884884 -211.99079892 -23.17750377 -212.35546875 -18.66015625 C-213.16268796 -15.60336638 -214.23190191 -12.67581504 -215.35546875 -9.72265625 C-215.64164063 -8.94341797 -215.9278125 -8.16417969 -216.22265625 -7.36132812 C-216.92355749 -5.45721308 -217.63812179 -3.55813675 -218.35546875 -1.66015625 C-217.11796875 -2.58634766 -217.11796875 -2.58634766 -215.85546875 -3.53125 C-152.76120287 -50.08318487 -61.01907239 -52.05375141 0 0 Z " fill="#1D81CE" transform="translate(371.35546875,77.66015625)"/>
</svg>
