<?xml version="1.0" encoding="UTF-8"?>
<svg version="1.1" xmlns="http://www.w3.org/2000/svg" width="512" height="512">
<path d="M0 0 C1.00401855 -0.04616455 1.00401855 -0.04616455 2.02832031 -0.09326172 C15.90114269 -0.09647451 30.38318127 6.8351745 43.26290894 11.46148682 C62.23527486 18.25924613 81.19732987 24.25639306 100.875 28.6875 C111.96161503 31.19532581 120.3843448 35.56619829 126.625 45.3125 C131.59262174 54.13499621 132.44440266 62.67077117 129.8125 72.4375 C129.31542373 74.12586354 128.81589575 75.81350987 128.3125 77.5 C135.80378825 74.78318925 142.48977874 71.2812472 149.3125 67.1875 C151.44095802 65.92762786 153.5698803 64.66853979 155.69921875 63.41015625 C156.79024902 62.76320801 157.8812793 62.11625977 159.00537109 61.44970703 C164.35302907 58.29701276 169.74061833 55.21439932 175.125 52.125 C183.65020554 47.22339176 192.12977531 42.25175781 200.57836914 37.21984863 C233.08377408 17.86899621 233.08377408 17.86899621 247.3125 12.5 C248.60220703 11.99146484 248.60220703 11.99146484 249.91796875 11.47265625 C261.80427453 7.47369756 276.58378525 7.61472227 287.90234375 13.015625 C296.22502801 18.1414273 301.39202914 25.30464564 303.83984375 34.7734375 C305.70435669 45.5290576 304.50089886 55.61905901 298.78125 65.015625 C292.14524984 73.4466088 282.43890544 78.33420886 273.34570312 83.69775391 C268.06443409 86.83573909 262.85013736 90.0822439 257.625 93.3125 C255.41312942 94.67377683 253.20088671 96.03444921 250.98828125 97.39453125 C244.42880749 101.42825814 237.8705392 105.46394135 231.3125 109.5 C229.14583892 110.83334242 226.97917225 112.16667574 224.8125 113.5 C223.74 114.16 222.6675 114.82 221.5625 115.5 C209.64583333 122.83333333 197.72916667 130.16666667 185.8125 137.5 C184.73911377 138.16056396 183.66572754 138.82112793 182.55981445 139.50170898 C180.40216672 140.82945477 178.24445232 142.15709222 176.08666992 143.48461914 C169.95851962 147.25504059 163.83214557 151.02831513 157.7081604 154.80549622 C153.85187689 157.18329989 149.9911157 159.55371209 146.12890625 161.921875 C142.68426495 164.03466223 139.25205347 166.1633983 135.83984375 168.328125 C119.2068342 178.78321893 101.04077807 183.75819662 81.42382812 179.59960938 C79.6439292 179.17332794 77.8674106 178.73278527 76.09375 178.28125 C75.06054626 178.02601059 74.02734253 177.77077118 72.96282959 177.50779724 C50.90012764 171.96739428 28.98576565 165.79590186 7.05029297 159.77612305 C1.79149435 158.33340742 -3.47009493 156.9013006 -8.73365021 155.47604179 C-10.72346357 154.93501919 -12.71218738 154.38997224 -14.69976044 153.84077644 C-17.45705489 153.07921982 -20.21768969 152.33119562 -22.97949219 151.58618164 C-23.79185837 151.35824417 -24.60422455 151.1303067 -25.44120789 150.89546204 C-30.84262186 149.45910975 -34.27648716 149.22937863 -39.36328125 151.91015625 C-40.23339844 152.45542969 -41.10351562 153.00070312 -42 153.5625 C-42.88300781 154.11035156 -43.76601562 154.65820312 -44.67578125 155.22265625 C-45.33964844 155.64417969 -46.00351563 156.06570313 -46.6875 156.5 C-46.13320312 157.52480469 -45.57890625 158.54960937 -45.0078125 159.60546875 C-44.27590237 160.96607091 -43.54413929 162.32675218 -42.8125 163.6875 C-42.44769531 164.36103516 -42.08289063 165.03457031 -41.70703125 165.72851562 C-37.87255055 172.8745933 -35.86233483 178.27413471 -36.6875 186.5 C-40.18023153 197.52967852 -47.41708386 201.46872925 -57.125 206.6875 C-58.24455078 207.30302734 -59.36410156 207.91855469 -60.51757812 208.55273438 C-79.39668765 218.89422879 -79.39668765 218.89422879 -91.09765625 215.87890625 C-100.65655015 211.7348771 -105.13539139 200.42607859 -109.8125 191.8125 C-111.14447141 189.3826485 -112.4807088 186.9551485 -113.81640625 184.52734375 C-114.1472673 183.92452576 -114.47812836 183.32170776 -114.8190155 182.70062256 C-117.73647478 177.39070132 -120.72862946 172.12628339 -123.75 166.875 C-128.1139031 159.27827627 -132.41582173 151.64895935 -136.6875 144 C-141.00527475 136.27047536 -145.34905283 128.55748966 -149.75 120.875 C-150.72397836 119.17318854 -151.6979366 117.47136558 -152.671875 115.76953125 C-153.15978516 114.91697754 -153.64769531 114.06442383 -154.15039062 113.18603516 C-154.65763672 112.29964355 -155.16488281 111.41325195 -155.6875 110.5 C-156.23857422 109.53755371 -156.78964844 108.57510742 -157.35742188 107.58349609 C-160.69226341 101.75130869 -164.0045026 95.90750046 -167.2734375 90.03808594 C-168.15669326 88.45273945 -169.04403624 86.86965507 -169.9375 85.29003906 C-177.56679495 71.72022539 -177.56679495 71.72022539 -175.6875 63.5 C-171.77514133 51.0397866 -160.56261717 46.71553885 -149.8125 40.6875 C-148.78125 40.10291016 -147.75 39.51832031 -146.6875 38.91601562 C-138.35676032 34.22317728 -131.62190955 31.62339423 -121.98828125 34.23046875 C-114.72077557 37.31331572 -111.08501638 42.51371632 -107.6875 49.5 C-107.6875 50.16 -107.6875 50.82 -107.6875 51.5 C-107.03604004 51.12415771 -106.38458008 50.74831543 -105.71337891 50.36108398 C-104.78960449 49.82813721 -103.86583008 49.29519043 -102.9140625 48.74609375 C-101.87467529 48.14643799 -100.83528809 47.54678223 -99.7644043 46.92895508 C-97.43256819 45.58368405 -95.10070438 44.23846118 -92.76879883 42.89331055 C-85.71923363 38.82668537 -78.67076892 34.75816481 -71.62353516 30.6875 C-68.38448099 28.81797227 -65.14350592 26.95180769 -61.90234375 25.0859375 C-57.88564275 22.77270638 -53.87847617 20.44427519 -49.87890625 18.1015625 C-34.07496274 8.88213024 -18.70262168 0.47945109 0 0 Z M-57.31884766 42.08837891 C-62.12632937 44.95344376 -66.97397684 47.75030282 -71.8125 50.5625 C-80.81431301 55.80404406 -89.77808585 61.10295105 -98.6875 66.5 C-94.0357193 75.51463093 -89.08227109 84.31976093 -83.9375 93.0625 C-78.73375686 101.90998063 -73.71254951 110.83457199 -68.83203125 119.86401367 C-64.89651701 127.14324054 -60.84030508 134.34251831 -56.6875 141.5 C-55.2069548 140.77363649 -53.7281599 140.04370543 -52.25 139.3125 C-51.33476562 138.86261719 -50.41953125 138.41273438 -49.4765625 137.94921875 C-46.24404556 136.26957759 -43.20614413 134.35156366 -40.18359375 132.3203125 C-33.94194748 130.26906725 -26.41538917 132.90561973 -20.26318359 134.59790039 C-19.07769424 134.9153421 -19.07769424 134.9153421 -17.86825562 135.23919678 C-15.27245085 135.93587052 -12.67925049 136.64176923 -10.0859375 137.34765625 C-8.24509135 137.84334991 -6.40407415 138.33840872 -4.56289673 138.83287048 C0.28958002 140.13762853 5.13996691 141.44998761 9.98986816 142.76428223 C14.81124552 144.0699097 19.63411214 145.37000318 24.45703125 146.66992188 C25.39807583 146.9236727 26.33912041 147.17742352 27.30868149 147.43886375 C32.00477527 148.70469931 36.70152543 149.96802798 41.3994751 151.22695923 C42.31209988 151.47153555 43.22472466 151.71611187 44.16500473 151.96809959 C45.97201199 152.45226676 47.77907146 152.93623908 49.58618546 153.42000771 C54.49083806 154.73509907 59.38960797 156.06911042 64.28282356 157.42612171 C67.08979539 158.20150729 69.90062988 158.96210762 72.71256638 159.71926689 C74.55553318 160.22081082 76.39325603 160.7415077 78.23062134 161.26319885 C95.80853579 165.95540808 110.47732856 163.2667888 125.97094727 154.32666016 C132.74482422 150.31634655 139.3840118 146.08925513 146.01953125 141.85546875 C151.93298911 138.091133 157.90157612 134.41819582 163.875 130.75 C164.97376465 130.07509521 166.0725293 129.40019043 167.20458984 128.70483398 C169.45277961 127.32440955 171.70115317 125.94428441 173.94970703 124.56445312 C179.40682519 121.21427227 184.85947946 117.85684471 190.3125 114.5 C192.4791443 113.16663032 194.64581099 111.83329703 196.8125 110.5 C197.885 109.84 198.9575 109.18 200.0625 108.5 C235.8125 86.5 235.8125 86.5 239.06787109 84.49731445 C241.21737344 83.17413321 243.36614654 81.84976655 245.51416016 80.52416992 C250.58007032 77.39984548 255.65247327 74.28799234 260.75164795 71.21829224 C263.15501464 69.77045833 265.55421433 68.31579774 267.953125 66.8605957 C269.64441848 65.83853448 271.34167314 64.82635832 273.0390625 63.81445312 C274.06515625 63.19119141 275.09125 62.56792969 276.1484375 61.92578125 C277.05126465 61.38348877 277.9540918 60.84119629 278.88427734 60.2824707 C283.05029499 57.22434736 285.9498028 53.49655641 287.3125 48.5 C288.14354485 41.93978236 287.066605 36.9638954 283.3125 31.5 C279.22209083 26.92836622 274.2391115 25.92451852 268.3125 25.5 C250.10621161 26.04932767 233.47668803 37.59042026 218.42529297 46.63720703 C213.41377118 49.6362589 208.36193724 52.56540435 203.3125 55.5 C201.30967732 56.667594 199.30707331 57.83556318 197.3046875 59.00390625 C196.31436523 59.58156738 195.32404297 60.15922852 194.30371094 60.75439453 C190.33849874 63.0684059 186.37482918 65.38505352 182.41113281 67.70166016 C179.44009832 69.43598325 176.46625299 71.1654121 173.4921875 72.89453125 C169.71443643 75.09244021 165.94694966 77.30632742 162.18978882 79.53926086 C160.4502981 80.57126091 158.7078852 81.59813158 156.96435547 82.62329102 C154.76801131 83.91565687 152.57653633 85.2163505 150.39111328 86.52709961 C123.41171981 102.32206574 96.4224148 95.98530411 67.8125 88.56640625 C59.77510683 86.46353255 51.7479205 84.3221794 43.73046875 82.14453125 C42.85442993 81.90819473 41.97839111 81.67185822 41.07580566 81.42835999 C30.05097442 78.40630951 30.05097442 78.40630951 27.9375 75.8125 C27.01411457 72.39597391 27.44546519 69.90620817 28.3125 66.5 C29.8125 64.5 29.8125 64.5 32.3125 63.5 C38.88803452 63.59866032 45.18373634 65.36981079 51.46484375 67.15234375 C52.87510582 67.54263512 52.87510582 67.54263512 54.31385803 67.94081116 C57.29442481 68.76654349 60.27234331 69.60134018 63.25 70.4375 C66.2243886 71.26891692 69.19932011 72.09824322 72.1754303 72.92347717 C74.01865856 73.43494755 75.86089029 73.95002905 77.70188904 74.46946716 C92.81411361 79.04274009 92.81411361 79.04274009 107.6875 75.75 C112.13783279 71.93542904 113.85524348 68.46761894 114.3671875 62.546875 C114.23507824 57.60221412 111.95655777 53.8014542 108.625 50.3125 C103.4802421 46.28155567 97.06755672 45.47193945 90.83544922 44.08789062 C66.42890767 38.40074605 42.68037551 29.93144473 19.1796875 21.33056641 C18.20386719 20.97397949 17.22804688 20.61739258 16.22265625 20.25 C15.36808838 19.93546875 14.51352051 19.6209375 13.63305664 19.296875 C-11.45731755 10.68088538 -36.80047147 29.76052336 -57.31884766 42.08837891 Z M-137.4765625 53.4921875 C-138.58257812 54.11480469 -139.68859375 54.73742187 -140.828125 55.37890625 C-141.39982422 55.70648926 -141.97152344 56.03407227 -142.56054688 56.37158203 C-144.30873709 57.37284482 -146.06371622 58.36122963 -147.8203125 59.34765625 C-153.60708037 62.44428532 -153.60708037 62.44428532 -158.6875 66.5 C-158.57759369 72.44409982 -155.38817129 76.98377774 -152.4375 81.9375 C-151.33652257 83.82380043 -150.2362877 85.71053443 -149.13671875 87.59765625 C-148.28086182 89.05776123 -148.28086182 89.05776123 -147.40771484 90.54736328 C-144.64089944 95.29642168 -141.94649686 100.08577909 -139.25 104.875 C-138.15379277 106.81648922 -137.05743789 108.75789508 -135.9609375 110.69921875 C-134.34237867 113.56699761 -132.72417455 116.43497573 -131.10644531 119.30322266 C-124.35516574 131.27254728 -117.56989655 143.22162243 -110.73602295 155.14398193 C-107.03263305 161.60609463 -103.35130997 168.07887351 -99.734375 174.58984375 C-99.10523193 175.72115723 -98.47608887 176.8524707 -97.82788086 178.01806641 C-96.64515456 180.14972244 -95.46603573 182.28338575 -94.29125977 184.41943359 C-91.36229654 189.70015467 -88.31717577 194.6716558 -84.6875 199.5 C-77.49045786 199.24835517 -72.39614484 195.75900061 -66.375 192.0625 C-65.37404297 191.46373047 -64.37308594 190.86496094 -63.34179688 190.24804688 C-58.21846141 187.26203216 -58.21846141 187.26203216 -53.6875 183.5 C-54.02066422 179.26425237 -55.81748861 176.07283005 -57.86328125 172.40625 C-58.18428299 171.82687683 -58.50528473 171.24750366 -58.83601379 170.65057373 C-59.88405202 168.76327233 -60.94180346 166.88162151 -62 165 C-62.73402985 163.68352943 -63.46758677 162.36679506 -64.20068359 161.04980469 C-68.82727526 152.7529773 -73.51312193 144.48980625 -78.24731445 136.25390625 C-82.11128367 129.53056073 -85.90684555 122.77049971 -89.6875 116 C-94.89288278 106.68372496 -100.14683003 97.39751392 -105.45703125 88.140625 C-107.57704645 84.44460359 -109.68760635 80.7433742 -111.79144287 77.03813171 C-113.24930062 74.47087632 -114.70923012 71.9048016 -116.16925049 69.33877563 C-116.88385052 68.08163731 -117.59753025 66.82397536 -118.3102417 65.56576538 C-119.30979157 63.80153658 -120.31303194 62.03940027 -121.31640625 60.27734375 C-121.89463135 59.25890381 -122.47285645 58.24046387 -123.06860352 57.19116211 C-125.14073603 53.66647431 -125.14073603 53.66647431 -127.6875 50.5 C-132.14441053 50.5 -133.66342724 51.33377474 -137.4765625 53.4921875 Z " fill="#000000" transform="translate(191.6875,280.5)"/>
<path d="M0 0 C3.87442436 1.67541665 7.36968062 3.81696326 10.9375 6.0625 C13.07354556 7.35788155 15.21028843 8.65211382 17.34765625 9.9453125 C18.44480957 10.61723633 19.54196289 11.28916016 20.67236328 11.98144531 C26.02034685 15.22554863 31.44816199 18.32777117 36.875 21.4375 C39.05756184 22.69484363 41.23985213 23.95265875 43.421875 25.2109375 C45.6145405 26.47403269 47.80724889 27.73705344 50 29 C56.51838878 32.75435983 63.03573441 36.51042474 69.546875 40.27734375 C73.9629592 42.83093972 78.39158868 45.3610262 82.828125 47.87890625 C85.01049819 49.12746169 87.1927928 50.37615447 89.375 51.625 C90.38578613 52.1929126 91.39657227 52.7608252 92.43798828 53.34594727 C93.84153564 54.15310181 93.84153564 54.15310181 95.2734375 54.9765625 C96.09247559 55.44143066 96.91151367 55.90629883 97.75537109 56.38525391 C100.65020108 58.46774309 102.12430954 59.90321536 104 63 C104.60452759 66.86142137 104.54615261 70.69395367 104.51757812 74.59570312 C104.5245874 75.76858383 104.53159668 76.94146454 104.53881836 78.14988708 C104.55642481 82.02724882 104.54476526 85.90388083 104.53125 89.78125 C104.53214065 92.47498159 104.53781974 95.16870017 104.54284668 97.86242676 C104.55011843 103.50813708 104.54054801 109.15363791 104.52148438 114.79931641 C104.49971626 121.32112749 104.50676799 127.84243835 104.52879 134.36423731 C104.54695768 139.96950889 104.54949572 145.57463011 104.53903532 151.17992163 C104.5328077 154.52523995 104.53352052 157.87013467 104.54518127 161.21546936 C104.55532912 164.94542354 104.53986835 168.67441451 104.51757812 172.40429688 C104.52567505 173.50990463 104.53377197 174.61551239 104.54211426 175.75462341 C104.45921573 183.23477179 104.45921573 183.23477179 102.13287354 187.11134338 C99.66358835 189.29789206 97.21358717 190.89355031 94.328125 192.49609375 C93.20132324 193.12974854 92.07452148 193.76340332 90.91357422 194.41625977 C89.69239025 195.09001999 88.47119865 195.76376639 87.25 196.4375 C85.98254608 197.14712584 84.71579035 197.85800003 83.44970703 198.57006836 C81.51277415 199.65936878 79.57551579 200.74801771 77.63613892 201.83296204 C71.67292378 205.1701279 65.76844259 208.60370436 59.875 212.0625 C49.4204295 218.17863714 38.94868772 224.26385269 28.44140625 230.2890625 C24.11584219 232.77073935 19.81516684 235.28965627 15.52734375 237.8359375 C13.4766824 239.03666313 11.4259061 240.23719246 9.375 241.4375 C8.44550537 241.99961182 7.51601074 242.56172363 6.55834961 243.14086914 C-1.83615538 248.00960499 -1.83615538 248.00960499 -6.85009766 247.59838867 C-11.9645358 246.17487199 -16.38532646 243.18958354 -20.875 240.4375 C-22.02233513 239.75205766 -23.17079697 239.06849815 -24.3203125 238.38671875 C-26.70461527 236.97061365 -29.08389494 235.54657819 -31.45996094 234.11669922 C-36.92896019 230.83473913 -42.46799295 227.67412999 -48 224.5 C-50.16437717 223.25184758 -52.32843877 222.00314778 -54.4921875 220.75390625 C-58.85065388 218.23930564 -63.21012191 215.72645339 -67.5703125 213.21484375 C-72.96289747 210.10842003 -78.35149375 206.99514651 -83.73925781 203.88037109 C-87.12153026 201.92991719 -90.50977095 199.99010143 -93.8984375 198.05078125 C-96.09909845 196.78409757 -98.29962432 195.51717916 -100.5 194.25 C-101.52754395 193.66532959 -102.55508789 193.08065918 -103.61376953 192.47827148 C-105.02698486 191.66144897 -105.02698486 191.66144897 -106.46875 190.828125 C-107.29826172 190.3527832 -108.12777344 189.87744141 -108.98242188 189.38769531 C-111 188 -111 188 -113 185 C-113.26006222 182.72388649 -113.26006222 182.72388649 -113.27415466 180.00332642 C-113.28412979 178.97148727 -113.29410492 177.93964813 -113.30438232 176.87654114 C-113.305047 175.74504135 -113.30571167 174.61354156 -113.30639648 173.44775391 C-113.31472 172.25565811 -113.32304352 171.06356232 -113.33161926 169.83534241 C-113.35160712 166.56459592 -113.36236373 163.29399707 -113.36744571 160.02319765 C-113.37108879 157.97934517 -113.37732859 155.93551719 -113.3844471 153.89167404 C-113.40894337 146.76012852 -113.42199383 139.62865575 -113.42553711 132.49707031 C-113.42917241 125.85143863 -113.4590663 119.20626878 -113.50094169 112.56077826 C-113.53564217 106.8536644 -113.5510855 101.1467036 -113.55178314 95.43948495 C-113.55257608 92.03148115 -113.5613207 88.62394774 -113.58978081 85.21605301 C-113.61657646 81.41396907 -113.61190348 77.61316467 -113.59936523 73.81103516 C-113.61419952 72.68358383 -113.62903381 71.55613251 -113.64431763 70.39451599 C-113.57240906 62.753554 -113.57240906 62.753554 -110.61764526 58.86372375 C-108.0879581 57.06262483 -105.61643125 55.42262792 -102.88671875 53.94140625 C-101.89873291 53.39814697 -100.91074707 52.8548877 -99.89282227 52.29516602 C-98.83506592 51.72338623 -97.77730957 51.15160645 -96.6875 50.5625 C-94.41825671 49.31434198 -92.15005213 48.06429392 -89.8828125 46.8125 C-88.73200195 46.17828125 -87.58119141 45.5440625 -86.39550781 44.890625 C-81.2414761 42.02085065 -76.14944076 39.04915243 -71.0625 36.0625 C-61.64946055 30.54413756 -52.21810915 25.05960836 -42.74853516 19.63867188 C-37.23415318 16.4752672 -31.76134769 13.26184843 -26.33984375 9.94140625 C-25.26412109 9.29042969 -24.18839844 8.63945312 -23.08007812 7.96875 C-21.04406942 6.73373167 -19.01729103 5.48331325 -17.00195312 4.21484375 C-11.34581503 0.806099 -6.64649966 -1.69362344 0 0 Z M-13 22.0625 C-14.5527077 22.98811697 -16.10614036 23.91251853 -17.66015625 24.8359375 C-18.51367676 25.34350586 -19.36719727 25.85107422 -20.24658203 26.37402344 C-25.28760293 29.3508987 -30.36387705 32.26665663 -35.4375 35.1875 C-36.53271973 35.81857666 -37.62793945 36.44965332 -38.75634766 37.09985352 C-41.01857318 38.40324522 -43.28094476 39.70638346 -45.54345703 41.00927734 C-50.19792587 43.68992001 -54.85131656 46.37242881 -59.50415039 49.0559082 C-61.67632342 50.30867954 -63.84867314 51.5611446 -66.02124023 52.81323242 C-73.02718781 56.85328187 -80.01786181 60.91894565 -87 65 C-83.78591644 68.32846993 -80.67485346 70.5999075 -76.625 72.875 C-74.97371094 73.83019531 -74.97371094 73.83019531 -73.2890625 74.8046875 C-70.14208971 76.24579391 -70.14208971 76.24579391 -67.2578125 75.58203125 C-62.43537009 73.24019771 -57.85217139 70.5582111 -53.25 67.8125 C-51.08632451 66.53580222 -48.92224834 65.25978329 -46.7578125 63.984375 C-45.64180664 63.32501953 -44.52580078 62.66566406 -43.37597656 61.98632812 C-37.97873378 58.81074473 -32.55221712 55.68648726 -27.125 52.5625 C-26.0637793 51.95035645 -25.00255859 51.33821289 -23.90917969 50.70751953 C-18.77700386 47.74759929 -13.64179738 44.7931057 -8.50021362 41.8495636 C-6.08169732 40.46449379 -3.66452868 39.07708214 -1.24749756 37.68942261 C0.46762 36.70606498 2.18471991 35.72616743 3.90185547 34.74633789 C4.93455566 34.15328857 5.96725586 33.56023926 7.03125 32.94921875 C7.94455078 32.42674561 8.85785156 31.90427246 9.79882812 31.3659668 C12.09524595 30.05673618 12.09524595 30.05673618 14 28 C11.04550087 26.3264663 8.0857982 24.66236015 5.125 23 C4.28324219 22.52304687 3.44148438 22.04609375 2.57421875 21.5546875 C1.76855469 21.10351562 0.96289062 20.65234375 0.1328125 20.1875 C-0.61081543 19.76855469 -1.35444336 19.34960938 -2.12060547 18.91796875 C-6.37555301 16.83968832 -9.35572703 19.86121872 -13 22.0625 Z M23.8359375 41.75390625 C22.29679687 42.65302734 22.29679687 42.65302734 20.7265625 43.5703125 C19.62054688 44.22773437 18.51453125 44.88515625 17.375 45.5625 C16.2088707 46.24701002 15.0421943 46.93058879 13.875 47.61328125 C11.44935746 49.03301526 9.02612439 50.45673795 6.60449219 51.88330078 C1.09145284 55.12653664 -4.45586621 58.31032303 -10 61.5 C-12.13559098 62.73146859 -14.27100644 63.96324161 -16.40625 65.1953125 C-17.47488281 65.81180664 -18.54351562 66.42830078 -19.64453125 67.06347656 C-22.59367557 68.76550019 -25.54234625 70.46833867 -28.49072266 72.17169189 C-30.91047665 73.56958601 -33.33047263 74.96706089 -35.75048828 76.36450195 C-37.46801052 77.35652324 -39.18518052 78.34915429 -40.90234375 79.34179688 C-41.93488281 79.93798828 -42.96742188 80.53417969 -44.03125 81.1484375 C-44.94455078 81.67614746 -45.85785156 82.20385742 -46.79882812 82.74755859 C-48.17988691 83.53336511 -49.57878495 84.28939248 -51 85 C-49.80358196 88.58925413 -48.94560487 88.97661442 -45.75 90.8125 C-44.98171875 91.27269531 -44.2134375 91.73289063 -43.421875 92.20703125 C-40.17339138 93.27064766 -39.07218866 92.41699468 -36 91 C-34.08344321 89.974849 -32.1849447 88.91556831 -30.30078125 87.83203125 C-29.18735352 87.19378418 -28.07392578 86.55553711 -26.92675781 85.89794922 C-25.72195086 85.20289367 -24.51719971 84.5077414 -23.3125 83.8125 C-22.05711328 83.09105251 -20.80157708 82.36986506 -19.54589844 81.64892578 C-16.31879708 79.7949706 -13.09403586 77.93698535 -9.86993408 76.07781982 C-8.09079075 75.05233129 -6.31095951 74.02805128 -4.53076172 73.00439453 C11.01572568 64.06476365 26.51942281 55.05320365 42 46 C39.17280887 43.10093113 36.64775118 40.82387559 33 39 C28.66783217 39 27.463352 39.61261168 23.8359375 41.75390625 Z M54.56640625 57.53515625 C53.62104004 58.08937256 52.67567383 58.64358887 51.70166016 59.21459961 C50.14777588 60.1293103 50.14777588 60.1293103 48.5625 61.0625 C46.35318293 62.35731418 44.14353651 63.65156651 41.93359375 64.9453125 C41.36161255 65.28036301 40.78963135 65.61541351 40.20031738 65.96061707 C34.19025347 69.47898674 28.15925009 72.96079765 22.125 76.4375 C21.06200684 77.05020752 19.99901367 77.66291504 18.90380859 78.29418945 C15.60277436 80.19653498 12.30139056 82.09827292 9 84 C4.8036869 86.41783662 0.60779716 88.83640662 -3.58770752 91.25564575 C-5.27098222 92.22606473 -6.95457887 93.19592519 -8.63818359 94.16577148 C-10.17273193 95.05051147 -10.17273193 95.05051147 -11.73828125 95.953125 C-12.63587158 96.47036133 -13.53346191 96.98759766 -14.45825195 97.52050781 C-15.29702881 98.00874023 -16.13580566 98.49697266 -17 99 C-17.93352295 99.5165918 -18.8670459 100.03318359 -19.82885742 100.56542969 C-20.54533447 101.03883789 -21.26181152 101.51224609 -22 102 C-22 102.66 -22 103.32 -22 104 C-19.44696285 105.5390224 -16.88460065 107.05595193 -14.3125 108.5625 C-13.59126953 109.00013672 -12.87003906 109.43777344 -12.12695312 109.88867188 C-11.42119141 110.29794922 -10.71542969 110.70722656 -9.98828125 111.12890625 C-9.02208862 111.70233765 -9.02208862 111.70233765 -8.03637695 112.28735352 C-5.2792815 113.25222123 -3.77820567 112.85638992 -1 112 C1.60634704 110.7544728 1.60634704 110.7544728 4.26171875 109.1484375 C5.28475098 108.55216553 6.3077832 107.95589355 7.36181641 107.34155273 C9.00802979 106.36810913 9.00802979 106.36810913 10.6875 105.375 C11.8477084 104.69595025 13.00836111 104.01765913 14.16943359 103.34008789 C16.58227311 101.93127575 18.99316635 100.5192137 21.40283203 99.10498047 C25.88883662 96.47556563 30.39577756 93.88280448 34.90332031 91.29052734 C39.18700986 88.82665923 43.46525839 86.35341986 47.74365234 83.88037109 C49.96950906 82.59505482 52.19644812 81.31161156 54.42431641 80.02978516 C57.76459484 78.10757182 61.10136305 76.17938995 64.4375 74.25 C65.45666504 73.66532959 66.47583008 73.08065918 67.52587891 72.47827148 C68.4647998 71.93372314 69.4037207 71.3891748 70.37109375 70.828125 C71.19536865 70.3527832 72.01964355 69.87744141 72.86889648 69.38769531 C74.86680513 68.08673155 76.39593283 66.75318493 78 65 C75.02273264 63.32992313 72.0428803 61.66451428 69.0625 60 C68.21236328 59.52304688 67.36222656 59.04609375 66.48632812 58.5546875 C65.67744141 58.10351562 64.86855469 57.65234375 64.03515625 57.1875 C63.2862915 56.76855469 62.53742676 56.34960938 61.76586914 55.91796875 C58.64831774 54.297342 57.51655869 55.79968872 54.56640625 57.53515625 Z M-96 81 C-96 112.68 -96 144.36 -96 177 C-87.75 181.62 -79.5 186.24 -71 191 C-64.04329358 195.04290269 -57.09123606 199.09146795 -50.14892578 203.15869141 C-44.44144238 206.49609564 -38.72237934 209.81323405 -33 213.125 C-31.37976929 214.06653931 -31.37976929 214.06653931 -29.72680664 215.02709961 C-28.70321045 215.61885986 -27.67961426 216.21062012 -26.625 216.8203125 C-25.73039062 217.33867676 -24.83578125 217.85704102 -23.9140625 218.39111328 C-20.33325713 220.36811625 -16.65849235 222.17075383 -13 224 C-13 192.32 -13 160.64 -13 128 C-22.04967369 121.26213401 -22.04967369 121.26213401 -32 118 C-32.0093457 119.00901367 -32.01869141 120.01802734 -32.02832031 121.05761719 C-32.0682477 124.80773776 -32.13401281 128.55704029 -32.20751953 132.30664062 C-32.23571347 133.92827837 -32.25693594 135.55005313 -32.27099609 137.171875 C-32.29244872 139.50592105 -32.33910575 141.83832261 -32.390625 144.171875 C-32.39246796 145.25647003 -32.39246796 145.25647003 -32.39434814 146.36297607 C-32.49010418 149.66709733 -32.81156872 151.71796164 -34.66308594 154.48925781 C-37.74404474 156.48100176 -39.38109619 156.5025625 -43 156 C-45.88085938 154.77832031 -45.88085938 154.77832031 -48.84375 153.078125 C-49.92527344 152.46453125 -51.00679687 151.8509375 -52.12109375 151.21875 C-53.23613281 150.5690625 -54.35117188 149.919375 -55.5 149.25 C-57.17255859 148.29867187 -57.17255859 148.29867187 -58.87890625 147.328125 C-63.08725535 144.92048785 -67.23642294 142.52216888 -71.24023438 139.78417969 C-73.73221595 137.81902715 -73.73221595 137.81902715 -76 138 C-77.28214137 133.17966524 -76.99624346 128.5401493 -76.859375 123.60546875 C-76.82799625 120.77630385 -76.8080815 117.94718951 -76.78857422 115.11791992 C-76.76292347 113.16927487 -76.71582463 111.22079058 -76.64697266 109.27319336 C-75.84873814 98.81567492 -75.84873814 98.81567492 -79.25561523 89.33502197 C-82.72484849 86.25927324 -86.65867486 84.58496404 -91 83 C-93.475 82.01 -93.475 82.01 -96 81 Z M80.46875 83.53515625 C79.52660645 84.08937256 78.58446289 84.64358887 77.61376953 85.21459961 C76.07245361 86.1293103 76.07245361 86.1293103 74.5 87.0625 C72.29983999 88.35738411 70.09930662 89.65163401 67.8984375 90.9453125 C67.32954803 91.28036301 66.76065857 91.61541351 66.17453003 91.96061707 C60.17928299 95.48989238 54.15395318 98.96622891 48.125 102.4375 C47.06192627 103.05020752 45.99885254 103.66291504 44.90356445 104.29418945 C41.60265306 106.19660704 38.30132951 108.09830809 35 110 C30.8036869 112.41783662 26.60779716 114.83640662 22.41229248 117.25564575 C20.72901778 118.22606473 19.04542113 119.19592519 17.36181641 120.16577148 C15.82726807 121.05051147 15.82726807 121.05051147 14.26171875 121.953125 C13.36412842 122.47036133 12.46653809 122.98759766 11.54174805 123.52050781 C10.70297119 124.00874023 9.86419434 124.49697266 9 125 C8.13428375 125.33673233 7.2685675 125.67346466 6.37661743 126.020401 C3.88684121 127.69831178 3.88684121 127.69831178 3.54872227 129.804636 C3.38086323 132.26739035 3.38234617 134.68494332 3.43237305 137.15307617 C3.43164291 138.08985703 3.43091278 139.02663788 3.43016052 139.99180603 C3.43364811 143.09277963 3.4725652 146.1922571 3.51171875 149.29296875 C3.52104269 151.44101643 3.52816078 153.58907473 3.53315735 155.73713684 C3.55225997 161.39437144 3.60138951 167.05096549 3.65667725 172.70794678 C3.70779902 178.47903782 3.7306563 184.25023224 3.75585938 190.02148438 C3.80950458 201.34793789 3.89485732 212.67391571 4 224 C5.72389692 223.0615335 7.447566 222.12264846 9.17114258 221.18359375 C10.61098259 220.39940063 10.61098259 220.39940063 12.07991028 219.59936523 C16.63686437 217.10347139 21.16473862 214.55721187 25.6875 212 C26.67371338 211.4423999 27.65992676 210.8847998 28.67602539 210.31030273 C38.79787038 204.57152456 48.84430866 198.70619655 58.8828125 192.82324219 C62.18930066 190.88927809 65.5003483 188.96330972 68.8125 187.0390625 C69.92117432 186.39445068 71.02984863 185.74983887 72.17211914 185.08569336 C74.3139151 183.84064935 76.45631037 182.59663561 78.59936523 181.35375977 C79.55528564 180.79744873 80.51120605 180.2411377 81.49609375 179.66796875 C82.34357178 179.17578857 83.1910498 178.6836084 84.06420898 178.17651367 C85.93445415 177.14454878 85.93445415 177.14454878 87 176 C87.09526806 173.04753646 87.12552452 170.11851579 87.11352539 167.16577148 C87.11367142 166.23903625 87.11381744 165.31230103 87.1139679 164.35748291 C87.11326838 161.27866313 87.10547421 158.19990303 87.09765625 155.12109375 C87.09579221 152.99259982 87.09436824 150.86410547 87.09336853 148.73561096 C87.08954228 143.1213768 87.07971108 137.50716832 87.06866455 131.89294434 C87.05845273 126.16886747 87.0538714 120.44478647 87.04882812 114.72070312 C87.03808891 103.48045744 87.0210112 92.24023085 87 81 C84.24259245 81 82.84195193 82.13027418 80.46875 83.53515625 Z M-61 101 C-61 109.58 -61 118.16 -61 127 C-57.04 128.98 -53.08 130.96 -49 133 C-48.75656157 128.9547145 -48.57858999 124.92405865 -48.4375 120.875 C-48.36208984 119.73289062 -48.28667969 118.59078125 -48.20898438 117.4140625 C-47.9068114 111.11342068 -47.9068114 111.11342068 -50.93798828 105.89160156 C-54.18628635 103.6892094 -57.28229919 102.2392336 -61 101 Z " fill="#000000" transform="translate(255,15)"/>
<path d="M0 0 C2.9838283 1.98921886 4.60276841 3.38502568 5.4765625 6.9375 C5.76173735 10.89992945 5.23047397 12.66476514 2.9375 16 C-0.76272533 18.51930235 -2.6031656 18.7066341 -7 18 C-9.75329021 16.20437595 -11.52627461 14.94745078 -13 12 C-13.25491388 8.0913205 -13.23289019 5.29057502 -11 2 C-7.30670342 -0.46219772 -4.2850656 -0.79198683 0 0 Z " fill="#000000" transform="translate(60,345)"/>
</svg>
