<?xml version="1.0" encoding="UTF-8"?>
<svg version="1.1" xmlns="http://www.w3.org/2000/svg" width="512" height="512">
<path d="M0 0 C16.87517313 11.76786644 35.8619254 10.75908063 55.70556641 10.74829102 C73.1065934 10.76867329 86.50448784 11.68915264 99.8125 24.19140625 C105.98758169 30.77904728 110.98006816 39.19350225 110.91015625 48.421875 C110.90693359 49.17597656 110.90371094 49.93007813 110.90039062 50.70703125 C110.89201172 51.48433594 110.88363281 52.26164062 110.875 53.0625 C110.87048828 53.85527344 110.86597656 54.64804687 110.86132812 55.46484375 C110.84958565 57.41409508 110.83165146 59.36330738 110.8125 61.3125 C118.59333852 60.02324222 125.80863272 57.76493651 133.2265625 55.12109375 C134.41470047 54.70365402 135.60283844 54.28621429 136.82698059 53.85612488 C140.03483718 52.72759231 143.24048409 51.59315996 146.44526291 50.45594025 C149.79906399 49.26753593 153.15567897 48.0871315 156.51196289 46.90576172 C164.61571193 44.05140488 172.71459896 41.18339841 180.8125 38.3125 C182.62382416 37.67051666 182.62382416 37.67051666 184.47174072 37.01556396 C187.88359329 35.80619992 191.29532814 34.59650436 194.70703125 33.38671875 C195.78333801 33.00517136 196.85964478 32.62362396 197.96856689 32.23051453 C202.96110067 30.46029731 207.9526992 28.68756498 212.94189453 26.90795898 C222.01420678 23.67631208 231.10199563 20.49124975 240.22265625 17.3984375 C241.08265732 17.10224518 241.94265839 16.80605286 242.82872009 16.50088501 C252.60969863 13.2165575 260.40364911 12.72431022 270.0625 16.625 C277.84572069 21.40106724 281.90195524 26.50112477 284.8125 35.3125 C286.16405605 45.18295481 285.20874757 54.04815856 279.43359375 62.27734375 C273.26535088 69.27565178 264.52599632 73.73638995 256.65771484 78.55419922 C251.46136524 81.76546658 246.32796666 85.07530257 241.1875 88.375 C240.1159668 89.06126465 239.04443359 89.7475293 237.94042969 90.45458984 C231.99134532 94.2659784 226.05215718 98.09211821 220.125 101.9375 C212.95601137 106.58854897 205.74997717 111.18001957 198.53759766 115.76342773 C191.35117699 120.33102596 184.17272962 124.91093129 177 129.5 C175.94441895 130.17514648 174.88883789 130.85029297 173.80126953 131.54589844 C168.44888088 134.97256438 163.10704211 138.41414606 157.78369141 141.88574219 C155.10523158 143.62895597 152.41805901 145.35826341 149.72705078 147.08203125 C148.43830115 147.91030186 147.1528623 148.74374416 145.87060547 149.58203125 C143.96618465 150.82252114 142.04791363 152.03842854 140.125 153.25 C139.04863281 153.93964844 137.97226562 154.62929688 136.86328125 155.33984375 C124.45739729 161.92808422 111.65668501 161.8907652 98.01611328 161.83007812 C95.95136016 161.83550883 93.88661091 161.84263677 91.8218689 161.85131836 C86.25145539 161.8694441 80.68134059 161.86252816 75.11092234 161.84980202 C69.2567917 161.83961565 63.4026852 161.84908351 57.54855347 161.85534668 C47.71868337 161.86260789 37.88893379 161.8530767 28.05908203 161.83398438 C16.72893926 161.81223081 5.39908463 161.81926231 -5.93105114 161.84129 C-15.69288642 161.85950206 -25.45463548 161.86197366 -35.21648228 161.85153532 C-41.03176852 161.84533067 -46.84691979 161.84438053 -52.66219711 161.85768127 C-58.13385984 161.86932352 -63.60515497 161.86106243 -69.07677841 161.83810425 C-71.07285963 161.83286106 -73.06897233 161.83425458 -75.06504059 161.84315491 C-89.86697075 161.90301834 -103.25651192 160.38680685 -116.9375 154.25 C-118.04609375 153.76402344 -119.1546875 153.27804687 -120.296875 152.77734375 C-122.853033 151.48199341 -124.97611 150.12133114 -127.1875 148.3125 C-127.9609375 148.7146875 -127.9609375 148.7146875 -128.75 149.125 C-129.554375 149.516875 -130.35875 149.90875 -131.1875 150.3125 C-132.23511002 150.8236586 -133.28272003 151.3348172 -134.36207581 151.86146545 C-138.22095805 153.49829046 -141.6246522 153.69920682 -145.83178711 153.71655273 C-146.92595192 153.72684761 -146.92595192 153.72684761 -148.04222107 153.73735046 C-150.43329806 153.75552567 -152.82371307 153.7517945 -155.21484375 153.74609375 C-156.88961498 153.75066003 -158.56438434 153.75596693 -160.239151 153.76197815 C-163.74178704 153.77089103 -167.24419485 153.76850703 -170.74682617 153.75854492 C-175.22005711 153.74705763 -179.69249832 153.76727192 -184.16562557 153.79646206 C-187.62220709 153.81486915 -191.07860093 153.81452266 -194.53521919 153.80882454 C-196.18373281 153.80867187 -197.8322596 153.81467061 -199.48072624 153.82711601 C-216.67223562 153.93863465 -216.67223562 153.93863465 -222.1875 149.3125 C-227.85717711 143.02047864 -227.89890075 136.62937058 -227.81860352 128.48999023 C-227.82933647 126.58852737 -227.82933647 126.58852737 -227.84028625 124.64865112 C-227.85871116 121.19188359 -227.84592011 117.73589298 -227.82619596 114.27915835 C-227.80973717 110.65094617 -227.81863219 107.0227804 -227.82371521 103.39454651 C-227.82822758 97.30432816 -227.8124185 91.2144178 -227.78442383 85.12426758 C-227.75236113 78.09517543 -227.75239587 71.06663813 -227.7696386 64.03750652 C-227.78553112 57.25859244 -227.77875364 50.47988071 -227.76170158 43.70097542 C-227.75485052 40.82351316 -227.75584333 37.94621405 -227.76324654 35.0687542 C-227.77236746 31.04739713 -227.74831582 27.02688944 -227.72094727 23.00561523 C-227.72747314 21.81840378 -227.73399902 20.63119232 -227.74072266 19.40800476 C-227.66461606 12.82687771 -227.14713352 8.65154897 -223.1875 3.3125 C-217.84879431 -1.25349828 -211.98258437 -1.81217244 -205.23510742 -1.83276367 C-204.19771172 -1.83780159 -204.19771172 -1.83780159 -203.13935852 -1.84294128 C-200.85721022 -1.85242534 -198.57513552 -1.85439324 -196.29296875 -1.85546875 C-194.701197 -1.85868354 -193.10942555 -1.86204778 -191.51765442 -1.86555481 C-188.18127762 -1.87154002 -184.84492671 -1.87339538 -181.50854492 -1.87280273 C-177.24498571 -1.87270125 -172.98159353 -1.8863422 -168.71807384 -1.90357494 C-165.42970527 -1.9147253 -162.14137665 -1.916721 -158.8529911 -1.91619301 C-157.28180682 -1.91736898 -155.71062137 -1.92176917 -154.1394558 -1.92952538 C-151.93554569 -1.93938501 -149.73199273 -1.93642376 -147.52807617 -1.93041992 C-145.65088142 -1.93255745 -145.65088142 -1.93255745 -143.73576355 -1.93473816 C-137.35740595 -1.49030291 -132.92946319 0.00162437 -128.1875 4.3125 C-124.60369849 2.59926806 -121.23169587 0.58115569 -117.8125 -1.4375 C-80.09861254 -23.0971707 -36.06357802 -25.71250524 0 0 Z M-123.1875 26.3125 C-123.5175 26.6425 -123.8475 26.9725 -124.1875 27.3125 C-124.32550088 30.37992014 -124.39805929 33.42544069 -124.42797852 36.49462891 C-124.44097488 37.45888794 -124.45397125 38.42314697 -124.46736145 39.41662598 C-124.59425297 49.51993765 -124.65085963 59.62409761 -124.70239258 69.72802734 C-124.72913479 74.52406902 -124.77785632 79.31911653 -124.84594727 84.11474609 C-124.9278835 89.89966245 -124.97057581 95.683632 -124.98545647 101.46909714 C-124.99770945 103.67397331 -125.02375409 105.87881797 -125.06390572 108.08336258 C-125.11738067 111.17469889 -125.1203722 114.2623029 -125.11157227 117.35400391 C-125.13876343 118.26233978 -125.16595459 119.17067566 -125.19396973 120.10653687 C-125.13784324 123.93894716 -124.96587255 126.3545064 -122.50047112 129.38883591 C-107.42483966 142.91411002 -87.76171691 143.91842676 -68.52197266 143.83007812 C-66.50777687 143.83551255 -64.49358507 143.84264254 -62.47940063 143.85131836 C-57.06238497 143.86939065 -51.64567757 143.86255326 -46.22865725 143.84980202 C-40.53502926 143.83959859 -34.84142577 143.84908714 -29.14779663 143.85534668 C-19.59734404 143.8625983 -10.04701571 143.85309718 -0.49658203 143.83398438 C10.52414507 143.81218303 21.54457648 143.81930079 32.56529653 143.84129 C42.05960116 143.85947034 51.55381707 143.86199055 61.04813349 143.85153532 C66.70504454 143.8453197 72.36181675 143.84441222 78.01871872 143.85768127 C83.33282131 143.86927889 88.64654387 143.86114267 93.96060562 143.83810425 C95.90396241 143.83283964 97.84735148 143.83429215 99.79069519 143.84315491 C112.37650118 143.89524061 122.64008965 143.12740792 133.4765625 135.984375 C134.44013672 135.35789062 135.40371094 134.73140625 136.39648438 134.0859375 C137.40001953 133.41820312 138.40355469 132.75046875 139.4375 132.0625 C141.08474591 130.9873102 142.73200339 129.91213765 144.37994385 128.8380127 C146.07611512 127.73058648 147.76920311 126.61856584 149.46191406 125.50585938 C154.71422384 122.05951771 160.01621907 118.69068645 165.3125 115.3125 C167.39605822 113.97951812 169.47939108 112.64618391 171.5625 111.3125 C184.0625 103.3125 184.0625 103.3125 187.18945312 101.3112793 C189.26631154 99.98207043 191.34313463 98.65280638 193.41992188 97.32348633 C198.72702872 93.92658814 204.03480424 90.53074233 209.34375 87.13671875 C219.84422161 80.42256585 230.34151524 73.7043433 240.79296875 66.9140625 C243.68159676 65.03900076 246.58198892 63.18349626 249.48828125 61.3359375 C250.26365234 60.8406958 251.03902344 60.3454541 251.83789062 59.83520508 C253.31705018 58.8908356 254.79866747 57.95029991 256.28320312 57.0144043 C262.9367552 52.87609277 262.9367552 52.87609277 266.8125 46.3125 C267.35006448 40.61431648 266.41379241 37.76115533 262.8125 33.3125 C258.06921141 30.94085571 252.72461433 32.16971882 247.89257812 33.69506836 C246.03851843 34.33473705 244.18911512 34.98800876 242.34375 35.65234375 C241.33103027 36.00575333 240.31831055 36.3591629 239.27490234 36.72328186 C235.94980246 37.88700061 232.63125027 39.06830759 229.3125 40.25 C226.98669626 41.06810462 224.66051877 41.88514741 222.33398438 42.70117188 C216.3318469 44.80989317 210.33512982 46.93359562 204.33984375 49.06170654 C199.85518409 50.65196351 195.367767 52.23433434 190.88009644 53.81607056 C167.38517794 62.09463254 167.38517794 62.09463254 143.9453125 70.52734375 C142.63870175 71.00073351 141.33206238 71.47404428 140.02539062 71.94726562 C137.74826981 72.77406997 135.47325559 73.60671806 133.20117188 74.44726562 C132.21955078 74.80369141 131.23792969 75.16011719 130.2265625 75.52734375 C129.4113916 75.82761475 128.5962207 76.12788574 127.75634766 76.43725586 C118.64234918 79.14696597 109.89377155 79.59543559 100.44804955 79.58689499 C98.05336154 79.5859162 95.6591061 79.5990296 93.26448059 79.61587524 C86.46305635 79.66173886 79.6616814 79.68672559 72.86010742 79.69335938 C68.67919619 79.69841679 64.49874269 79.72287235 60.31798744 79.75868607 C58.74063192 79.7683811 57.16321263 79.77087331 55.58583641 79.76551437 C43.32443746 79.72580489 31.94931582 81.1704338 21.375 87.875 C10.80224509 94.47745752 10.80224509 94.47745752 6.0625 93.6875 C2.8125 92.3125 2.8125 92.3125 0.8125 89.3125 C0.375 85.9375 0.375 85.9375 0.8125 82.3125 C10.57303823 71.05854608 26.90143536 64.22111892 41.6244812 63.09799194 C44.77251187 62.98788671 47.91663022 62.93178692 51.06640625 62.8984375 C52.20786606 62.87907135 53.34932587 62.8597052 54.52537537 62.8397522 C58.14184285 62.78036402 61.75834286 62.73373465 65.375 62.6875 C67.83920596 62.6492827 70.3033991 62.61022883 72.76757812 62.5703125 C78.78243756 62.47469628 84.79737536 62.38953151 90.8125 62.3125 C93.40125538 56.12306222 93.96164795 50.4575365 91.625 44.0625 C86.71829249 36.61784033 81.5694602 31.60976126 72.8125 29.3125 C69.29307009 29.01957068 65.78408826 29.01167928 62.25390625 29.00390625 C60.1542944 28.97872122 58.05468509 28.95332361 55.95507812 28.92773438 C52.67749857 28.89918275 49.39996369 28.87514428 46.12231445 28.85620117 C20.73660394 28.68115384 2.63000431 24.60108704 -18.375 9.625 C-49.02253233 -11.74699213 -98.49285477 0.90336232 -123.1875 26.3125 Z M-209.1875 16.3125 C-209.1875 55.5825 -209.1875 94.8525 -209.1875 135.3125 C-187.0775 135.3125 -164.9675 135.3125 -142.1875 135.3125 C-142.1875 96.0425 -142.1875 56.7725 -142.1875 16.3125 C-164.2975 16.3125 -186.4075 16.3125 -209.1875 16.3125 Z " fill="#000000" transform="translate(227.1875,350.6875)"/>
<path d="M0 0 C0.78407227 0.19867676 1.56814453 0.39735352 2.37597656 0.60205078 C21.10597547 5.47243421 38.05771929 13.03355283 54 24 C54.83990479 24.57524414 54.83990479 24.57524414 55.69677734 25.16210938 C89.03385964 48.40704765 109.85549302 84.42420508 117.56420898 123.88842773 C119.0865456 132.6670776 119.3600195 141.30935828 119.3125 150.1875 C119.31034485 150.9139975 119.3081897 151.640495 119.30596924 152.38900757 C119.25318607 163.49193249 118.7989838 174.21069079 116 185 C115.69400879 186.19423584 115.69400879 186.19423584 115.38183594 187.41259766 C107.72651141 216.44600094 93.61876111 240.95015365 72 262 C71.56171875 262.48339844 71.1234375 262.96679688 70.671875 263.46484375 C45.53061319 290.44725858 5.74697646 303.49711517 -30.18969727 304.9296875 C-44.05522453 305.27888146 -57.75029581 303.96285243 -71.1875 300.48828125 C-75.02537903 299.82198281 -77.39159155 299.90333662 -80.6796875 302.14526367 C-82.66506925 303.69424888 -84.58509186 305.3022329 -86.5 306.9375 C-87.92593441 308.12637937 -89.35303389 309.31386264 -90.78125 310.5 C-91.49023438 311.09167969 -92.19921875 311.68335938 -92.9296875 312.29296875 C-96.92312536 315.58567128 -101.03948013 318.71148436 -105.16796875 321.83203125 C-106.90959019 323.16527249 -108.62727161 324.53142365 -110.30078125 325.94921875 C-113.56625214 328.66938771 -115.92456534 330.37102952 -120.25 330.625 C-124.34558359 329.94240274 -125.58005259 329.29112848 -128 326 C-129.24411594 323.51176813 -129.06712341 321.96914627 -128.9831543 319.18994141 C-128.84126567 313.55656936 -128.77414677 307.92650703 -128.73364258 302.29150391 C-128.70310102 299.86466217 -128.6493983 297.43799157 -128.5715332 295.01220703 C-127.52062676 280.55391969 -127.52062676 280.55391969 -133.02099609 267.84814453 C-135.87065899 265.20006113 -138.95395655 263.12130758 -142.284729 261.12889099 C-165.80673381 245.64808395 -180.53842149 207.53154337 -186.00390625 181.40234375 C-187.63187983 172.99628397 -188.63684749 164.55678109 -189 156 C-189.061875 154.75863281 -189.061875 154.75863281 -189.125 153.4921875 C-190.10712123 114.33010349 -175.47070888 75.85364329 -148.98828125 47.17578125 C-147.39293179 45.42998626 -145.90064268 43.66711898 -144.4375 41.8125 C-111.16236404 3.41811235 -48.36823066 -12.59565763 0 0 Z M-111 38 C-111.99902344 38.70382813 -112.99804688 39.40765625 -114.02734375 40.1328125 C-144.22577137 62.31493024 -163.60387539 94.39663554 -169.53271484 131.31738281 C-171.81175935 149.27825393 -170.91806272 168.59762421 -166 186 C-165.70246826 187.10843262 -165.70246826 187.10843262 -165.39892578 188.23925781 C-160.38025376 206.53325557 -151.38889428 223.64461457 -139 238 C-137.78183594 239.44246094 -137.78183594 239.44246094 -136.5390625 240.9140625 C-127.39179807 251.4668882 -127.39179807 251.4668882 -115.8046875 258.93359375 C-113.13797731 260.50937704 -112.90850805 262.04516258 -112 265 C-111.76765431 267.8886654 -111.62855287 270.69141227 -111.5859375 273.58203125 C-111.56657135 274.39621017 -111.5472052 275.2103891 -111.5272522 276.04924011 C-111.46771248 278.63688852 -111.42117417 281.22458203 -111.375 283.8125 C-111.3367966 285.57228449 -111.2977435 287.33205074 -111.2578125 289.09179688 C-111.16203218 293.39438234 -111.07790715 297.6970553 -111 302 C-107.80162861 299.89219879 -104.62966771 297.80177744 -101.6328125 295.4140625 C-101.06135498 294.96071533 -100.48989746 294.50736816 -99.90112305 294.0402832 C-99.31500244 293.57323975 -98.72888184 293.10619629 -98.125 292.625 C-97.50858643 292.14184326 -96.89217285 291.65868652 -96.25708008 291.16088867 C-93.67043887 289.13331879 -91.11524359 287.09967526 -88.62890625 284.94921875 C-84.70266007 281.63916413 -81.89196197 280.1786019 -76.69921875 280.53125 C-73.34021522 281.11457912 -70.10478183 281.98900367 -66.8125 282.875 C-32.63473956 291.97931483 3.60942606 285.47230132 34.16015625 268.3359375 C66.63134548 249.2036747 88.27264923 218.6282465 97.78393555 182.51000977 C106.71916664 147.47482418 99.96523318 110.9411191 81.859375 80.05419922 C75.96224656 70.32639443 68.93193728 62.1137582 61 54 C60.11441406 53.02160156 60.11441406 53.02160156 59.2109375 52.0234375 C38.97269003 30.12461588 5.59989236 16.13678632 -23.86206055 14.87768555 C-54.99173112 14.08974328 -85.16278461 19.44033112 -111 38 Z " fill="#000000" transform="translate(393,3)"/>
<path d="M0 0 C1.14483856 -0.0159874 2.28967712 -0.03197479 3.46920776 -0.04844666 C4.70671783 -0.05380936 5.94422791 -0.05917206 7.21923828 -0.06469727 C8.49050568 -0.07372574 9.76177307 -0.08275421 11.07156372 -0.09205627 C13.76334799 -0.10657751 16.4547073 -0.11624523 19.14648438 -0.11914062 C22.58900748 -0.12452242 26.03035596 -0.16219297 29.47254753 -0.20788479 C32.76304124 -0.24485397 36.05356479 -0.24617154 39.34423828 -0.25219727 C41.19443069 -0.28149574 41.19443069 -0.28149574 43.08200073 -0.31138611 C44.80871506 -0.30226952 44.80871506 -0.30226952 46.5703125 -0.29296875 C47.5805246 -0.2980394 48.59073669 -0.30311005 49.63156128 -0.30833435 C53.59573603 0.56730692 55.02728895 2.05365636 57.41455078 5.30639648 C57.88469642 8.15131154 58.05193149 10.38483324 57.98217773 13.21777344 C57.98290787 13.99878922 57.983638 14.77980499 57.98439026 15.58448792 C57.98091836 18.15526805 57.94207891 20.72421583 57.90283203 23.29467773 C57.89350242 25.08114126 57.88638701 26.8676176 57.88139343 28.65409851 C57.86233516 33.34798726 57.81324473 38.04109805 57.75787354 42.73468018 C57.70665562 47.52735877 57.68387398 52.32016351 57.65869141 57.11303711 C57.60512464 66.51116471 57.51982619 75.90871582 57.41455078 85.30639648 C58.10234619 85.29987061 58.7901416 85.29334473 59.4987793 85.28662109 C60.40039795 85.28154541 61.3020166 85.27646973 62.23095703 85.27124023 C63.57202515 85.26145142 63.57202515 85.26145142 64.94018555 85.25146484 C67.99999384 85.31939349 69.87791365 85.53843727 72.41455078 87.30639648 C75.08712246 92.43055201 75.85252679 96.68151302 75.77783203 102.47045898 C75.77857979 103.60310684 75.77857979 103.60310684 75.77934265 104.75863647 C75.77701668 106.34359388 75.76737616 107.92855601 75.75073242 109.51342773 C75.72704748 111.93173354 75.73019403 114.34894081 75.73681641 116.76733398 C75.73124143 118.31421552 75.72413268 119.86109244 75.71533203 121.40795898 C75.71624344 122.12577545 75.71715485 122.84359192 75.71809387 123.5831604 C75.65054621 128.3860027 75.04502464 131.94714074 72.30059814 135.91825867 C69.43492791 138.02740253 66.49261353 137.73237365 63.0690918 137.71044922 C62.32405396 137.71731247 61.57901611 137.72417572 60.81140137 137.73124695 C58.34689309 137.74955853 55.88301879 137.74567132 53.41845703 137.73999023 C51.70596611 137.74455012 49.99347702 137.74985512 48.2809906 137.75587463 C44.69058807 137.7648144 41.10040787 137.76237304 37.51000977 137.75244141 C32.90848363 137.74095335 28.30772506 137.76115587 23.70629978 137.79035854 C20.16923648 137.80870414 16.63235765 137.80843135 13.09525871 137.80272102 C11.39878195 137.80256759 9.70229286 137.80863001 8.00586128 137.8210125 C5.63321925 137.83588949 3.26200172 137.82527108 0.8894043 137.80810547 C-0.16196465 137.82260742 -0.16196465 137.82260742 -1.23457336 137.83740234 C-4.57235134 137.78682995 -6.30911432 137.51828428 -8.99012756 135.46253967 C-12.07176014 131.29758582 -11.7613619 127.09315481 -11.78857422 122.13061523 C-11.79427429 121.32783646 -11.79997437 120.52505768 -11.80584717 119.69795227 C-11.81528961 117.99916905 -11.82182815 116.30036758 -11.82568359 114.6015625 C-11.83537426 112.01391273 -11.8663978 109.42706252 -11.89794922 106.83959961 C-11.90448123 105.18660952 -11.90973093 103.53361376 -11.91357422 101.88061523 C-11.92592102 101.11166428 -11.93826782 100.34271332 -11.95098877 99.55046082 C-11.93124822 94.74453134 -11.2239366 91.47947351 -8.58544922 87.30639648 C-3.97881463 84.32563293 -0.47871315 85.30639648 5.41455078 85.30639648 C5.41455078 74.41639648 5.41455078 63.52639648 5.41455078 52.30639648 C1.78455078 52.30639648 -1.84544922 52.30639648 -5.58544922 52.30639648 C-9.20236196 50.20858709 -10.2683633 49.25765423 -11.58544922 45.30639648 C-11.70655649 42.48826692 -11.77359967 39.69564952 -11.78857422 36.87670898 C-11.79427429 36.04936249 -11.79997437 35.22201599 -11.80584717 34.36959839 C-11.81528945 32.61954016 -11.82182809 30.86946422 -11.82568359 29.11938477 C-11.83538769 26.44833217 -11.86641706 23.77804973 -11.89794922 21.10717773 C-11.9044798 19.40535938 -11.90973006 17.70353553 -11.91357422 16.00170898 C-11.92592102 15.20572296 -11.93826782 14.40973694 -11.95098877 13.58963013 C-11.93265446 9.00328296 -11.56303355 6.02445214 -8.58544922 2.30639648 C-5.19743881 0.04772288 -3.97668857 0.04194953 0 0 Z M6.41455078 18.30639648 C6.41455078 23.58639648 6.41455078 28.86639648 6.41455078 34.30639648 C9.01330078 34.52295898 9.01330078 34.52295898 11.66455078 34.74389648 C18.91199976 35.34785057 18.91199976 35.34785057 21.41455078 36.30639648 C22.4615776 39.44747695 22.56001121 41.70123598 22.59155273 44.99951172 C22.60438797 46.16759872 22.61722321 47.33568573 22.63044739 48.53916931 C22.63783432 49.80169022 22.64522125 51.06421112 22.65283203 52.36499023 C22.66090378 53.66082535 22.66897552 54.95666046 22.67729187 56.29176331 C22.69230118 59.0346768 22.70214871 61.77756455 22.7097168 64.52050781 C22.72079569 68.03241446 22.7552196 71.54369 22.7948885 75.05537319 C22.82732056 78.40855393 22.83182941 81.76166474 22.84033203 85.11499023 C22.85784012 86.37548691 22.87534821 87.63598358 22.89338684 88.93467712 C22.89046127 90.10591629 22.88753571 91.27715546 22.88452148 92.48388672 C22.89332085 94.02918312 22.89332085 94.02918312 22.90229797 95.60569763 C22.28404484 99.02901931 21.13258318 100.19882119 18.41455078 102.30639648 C14.39580313 103.11847502 10.53014641 103.12745754 6.41455078 103.30639648 C6.41455078 108.58639648 6.41455078 113.86639648 6.41455078 119.30639648 C22.91455078 119.30639648 39.41455078 119.30639648 56.41455078 119.30639648 C56.41455078 114.02639648 56.41455078 108.74639648 56.41455078 103.30639648 C54.68205078 103.20327148 52.94955078 103.10014648 51.16455078 102.99389648 C46.98083528 102.7448658 44.43280717 102.33157548 41.41455078 99.30639648 C40.06524523 95.58648495 40.24109683 91.6910245 40.20922852 87.78393555 C40.19932892 87.03232651 40.18942932 86.28071747 40.17922974 85.5063324 C40.14770613 83.02826053 40.12289355 80.5501695 40.09814453 78.07202148 C40.07756711 76.3513744 40.05657043 74.63073228 40.03517151 72.91009521 C39.98003227 68.38592557 39.93058711 63.86171091 39.88232422 59.33746338 C39.83204965 54.71899419 39.77639469 50.10059018 39.72119141 45.48217773 C39.61370949 36.42363766 39.51273978 27.36504206 39.41455078 18.30639648 C28.52455078 18.30639648 17.63455078 18.30639648 6.41455078 18.30639648 Z " fill="#000000" transform="translate(326.58544921875,118.693603515625)"/>
<path d="M0 0 C5.87728823 3.38707357 10.65339294 8.27799209 13.08984375 14.7265625 C14.71401836 22.32394123 14.8341899 30.58583303 10.68359375 37.3359375 C10.31363281 37.86445312 9.94367188 38.39296875 9.5625 38.9375 C9.005625 39.824375 8.44875 40.71125 7.875 41.625 C2.36796083 47.13203917 -4.02026837 49.59771295 -11.6875 50.1875 C-19.85674435 49.64288371 -26.94454255 46.63005502 -32.625 40.625 C-37.26165607 33.74995824 -39.24865985 26.64150704 -38.0703125 18.35546875 C-36.21193374 10.8875393 -32.42111305 5.81494282 -26.21484375 1.33203125 C-17.96157442 -3.45889094 -8.71841372 -3.94622937 0 0 Z M-19.4375 19.9375 C-20.52318503 21.78017868 -20.52318503 21.78017868 -20.4375 23.9375 C-19.23301104 27.10720778 -18.27952174 29.29195 -15.5625 31.375 C-12.748509 32.11987997 -11.18675269 31.89973844 -8.4375 30.9375 C-6.00054526 29.41731752 -6.00054526 29.41731752 -4.4375 26.9375 C-3.6875 23.4375 -3.6875 23.4375 -4.4375 19.9375 C-7.01919451 16.97614454 -8.62631135 16.06993896 -12.5 15.4375 C-16.12594384 16.05468193 -17.25079336 17.02189114 -19.4375 19.9375 Z " fill="#000000" transform="translate(370.4375,53.0625)"/>
<path d="M0 0 C2.90398503 2.11912421 3.84245093 3.50634623 4.9375 6.9375 C5.0128328 10.62880732 4.24574926 12.1126081 2 15 C-1.75047482 17.50031654 -3.55856266 17.53603554 -8 17 C-10.93052231 15.00475077 -12.64521503 13.57163515 -13.4453125 10.02734375 C-13.64297244 6.50240818 -13.298885 4.40194879 -11.1875 1.5625 C-7.23814633 -1.25846691 -4.58583056 -1.21664892 0 0 Z " fill="#000000" transform="translate(47,444)"/>
</svg>
