<?xml version="1.0" encoding="UTF-8"?>
<svg version="1.1" xmlns="http://www.w3.org/2000/svg" width="512" height="512">
<path d="M0 0 C1.27866943 -0.0112793 2.55733887 -0.02255859 3.87475586 -0.03417969 C5.28955305 -0.02640266 6.704348 -0.01821 8.11914062 -0.00964355 C9.61076542 -0.01506435 11.10238485 -0.02218677 12.59399414 -0.03088379 C16.6436169 -0.04912547 20.69283223 -0.04204633 24.74246216 -0.02936745 C28.97936099 -0.01924407 33.21622481 -0.02863128 37.453125 -0.03491211 C44.56842312 -0.04219046 51.68355521 -0.03259594 58.79882812 -0.0135498 C67.02641862 0.00821938 75.25361265 0.00116814 83.48119354 -0.02085543 C90.54373317 -0.03900413 97.6061534 -0.04157037 104.6687088 -0.03110075 C108.88752237 -0.02486287 113.10614956 -0.02403817 117.32495117 -0.0372467 C121.29119435 -0.04879699 125.25692611 -0.04079505 129.22311401 -0.01766968 C130.6791804 -0.01237811 132.1352898 -0.01390409 133.59133911 -0.02272034 C135.57780425 -0.03363977 137.56436338 -0.01752243 139.55078125 0 C141.21880798 0.00226215 141.21880798 0.00226215 142.92053223 0.00457001 C146.49764511 0.63528145 147.67356255 1.57164873 149.77539062 4.50793457 C150.26758194 6.93667984 150.26758194 6.93667984 150.25640869 9.69647217 C150.26190735 10.74532593 150.26740601 11.79417969 150.27307129 12.87481689 C150.25149963 14.5924826 150.25149963 14.5924826 150.22949219 16.34484863 C150.23007629 17.55487549 150.2306604 18.76490234 150.23126221 20.01159668 C150.22895364 23.32569524 150.20890141 26.63879586 150.18096638 29.95271778 C150.15595286 33.41736216 150.15361078 36.88201998 150.14886475 40.34674072 C150.13643475 46.90577276 150.10361308 53.46453796 150.06346679 60.02345252 C150.01874962 67.49132193 149.99676222 74.95920412 149.97668505 82.42717409 C149.93488025 97.7875821 149.86452803 113.14772392 149.77539062 128.50793457 C150.49322598 128.5042474 151.21106133 128.50056023 151.95064926 128.49676132 C169.41017438 128.4084573 186.86964284 128.34224793 204.32934189 128.30068588 C212.77270269 128.28005299 221.21591451 128.25191862 229.65917969 128.20617676 C237.0175951 128.1663311 244.37590263 128.14050705 251.73442292 128.13158059 C255.63143151 128.12636194 259.52813145 128.11408151 263.4250412 128.08501434 C267.09239513 128.05788086 270.75931303 128.04948521 274.42675781 128.05550385 C276.41560422 128.05387727 278.40440305 128.03234363 280.39312744 128.01025391 C281.57660767 128.01575256 282.76008789 128.02125122 283.97943115 128.0269165 C285.00815212 128.02322933 286.03687309 128.01954216 287.09676743 128.01574326 C290.56880949 128.6537236 291.72528327 129.65778463 293.77539062 132.50793457 C294.27875519 135.11291504 294.27875519 135.11291504 294.2833252 138.12512207 C294.30024414 139.84118652 294.30024414 139.84118652 294.31750488 141.59191895 C294.3053595 143.46847168 294.3053595 143.46847168 294.29296875 145.38293457 C294.29839031 146.71692672 294.30551317 148.05091287 294.31420898 149.3848877 C294.33244176 153.00478805 294.32537536 156.62423231 294.31269264 160.24414062 C294.30256458 164.03260527 294.31195777 167.82103089 294.3182373 171.60949707 C294.32551431 177.97154755 294.31592475 184.33341229 294.296875 190.69543457 C294.27510599 198.05053594 294.28215734 205.4051938 294.30418062 212.76028442 C294.32233324 219.07548824 294.32489367 225.39055855 294.31442595 231.70578003 C294.30819019 235.4774706 294.30735744 239.24895271 294.3205719 243.02062988 C294.33212797 246.5666581 294.32411006 250.1121146 294.30099487 253.65808105 C294.29318376 255.58002944 294.30506585 257.50202619 294.31750488 259.4239502 C294.30622559 260.56799316 294.29494629 261.71203613 294.2833252 262.89074707 C294.28106304 264.38178955 294.28106304 264.38178955 294.27875519 265.9029541 C293.62262954 269.29849408 292.43085458 270.3387208 289.77539062 272.50793457 C287.38523865 273.00933123 287.38523865 273.00933123 284.67163086 273.01129913 C283.11675713 273.02694562 283.11675713 273.02694562 281.5304718 273.04290819 C280.39313095 273.0339853 279.2557901 273.02506242 278.08398438 273.01586914 C276.26999397 273.02522908 276.26999397 273.02522908 274.4193573 273.03477812 C271.06093589 273.04799003 267.7034069 273.04321219 264.34503937 273.03083324 C260.72397258 273.02179726 257.10298478 273.03574522 253.48193359 273.04675293 C246.38770984 273.06455836 239.29365518 273.06068922 232.19942474 273.04910237 C226.43485626 273.04007624 220.67033524 273.03884047 214.90576172 273.04319763 C213.67604661 273.04411703 213.67604661 273.04411703 212.42148876 273.045055 C210.75616581 273.04633388 209.09084287 273.04763073 207.42551994 273.04894537 C191.80232986 273.06035709 176.17923359 273.0472282 160.55605888 273.0257439 C147.14474747 273.00787237 133.73357454 273.01097631 120.32226562 273.02941895 C104.75575988 273.05081523 89.18933639 273.0592584 73.62281799 273.04696989 C71.96355185 273.04569567 70.3042857 273.04443818 68.64501953 273.04319763 C67.82858569 273.04258053 67.01215185 273.04196343 66.17097759 273.04132763 C60.41197933 273.03787099 54.65303316 273.04370981 48.89404297 273.05311584 C41.87765716 273.06432343 34.86145039 273.06132206 27.84508514 273.03999287 C24.26379032 273.02946556 20.68279422 273.02538883 17.10150146 273.03858948 C13.22309691 273.05266929 9.34518371 273.03588109 5.46679688 273.01586914 C3.7607856 273.02925347 3.7607856 273.02925347 2.02030945 273.04290819 C0.98372696 273.0324772 -0.05285553 273.02204621 -1.12084961 273.01129913 C-2.01634018 273.01064972 -2.91183075 273.01000031 -3.8344574 273.00933123 C-7.06369534 272.33191442 -8.24765761 271.1126883 -10.22460938 268.50793457 C-10.72600603 266.32296753 -10.72600603 266.32296753 -10.72797394 263.90393066 C-10.74362042 262.51625992 -10.74362042 262.51625992 -10.759583 261.10055542 C-10.75066011 260.08772491 -10.74173722 259.07489441 -10.73254395 258.03137207 C-10.74190389 256.41339218 -10.74190389 256.41339218 -10.75145292 254.76272583 C-10.76745145 251.13590865 -10.75475131 247.50975715 -10.7421875 243.88293457 C-10.74760554 241.28787848 -10.7547264 238.69282547 -10.76342773 236.09777832 C-10.78122847 229.77357893 -10.77736615 223.44956927 -10.76577717 217.1253624 C-10.75674919 211.98626903 -10.75551608 206.8472289 -10.75987244 201.70812988 C-10.76048537 200.97713137 -10.7610983 200.24613285 -10.76172981 199.49298286 C-10.76300869 198.00804391 -10.76430554 196.52310497 -10.76562017 195.03816605 C-10.77703051 181.10889548 -10.76390518 167.17973015 -10.74241871 153.25047684 C-10.72454728 141.2945767 -10.72765126 129.3388319 -10.74609375 117.38293457 C-10.76749248 103.50403281 -10.77593184 89.62522333 -10.7636447 75.74630737 C-10.76237048 74.26678468 -10.761113 72.78726198 -10.75987244 71.30773926 C-10.75925533 70.57975695 -10.75863823 69.85177464 -10.75800243 69.10173225 C-10.75454653 63.96790479 -10.76038303 58.83413579 -10.76979065 53.70031738 C-10.78217066 46.79249324 -10.77337583 39.88496793 -10.75021362 32.97717285 C-10.74491114 30.43746429 -10.74646642 27.89773109 -10.75526428 25.35803223 C-10.76614208 21.89984953 -10.75254903 18.44261858 -10.73254395 14.98449707 C-10.74146683 13.97166656 -10.75038972 12.95883606 -10.759583 11.91531372 C-10.68433923 5.24202096 -10.68433923 5.24202096 -8.58190155 1.88489532 C-5.53999287 0.10803078 -3.52179441 0.00477621 0 0 Z M5.77539062 16.50793457 C5.77539062 53.46793457 5.77539062 90.42793457 5.77539062 128.50793457 C48.01539063 128.50793457 90.25539063 128.50793457 133.77539062 128.50793457 C133.77539062 91.54793457 133.77539062 54.58793457 133.77539062 16.50793457 C123.21539062 16.50793457 112.65539062 16.50793457 101.77539062 16.50793457 C101.73800781 19.64937988 101.700625 22.7908252 101.66210938 26.02746582 C101.61591502 29.06570451 101.56467373 32.10381897 101.51293945 35.14196777 C101.47965935 37.25549793 101.4516371 39.36911763 101.42895508 41.48278809 C101.3954659 44.51890263 101.34315298 47.55419432 101.28710938 50.58996582 C101.28071945 51.53692825 101.27432953 52.48389069 101.26774597 53.45954895 C101.24795181 54.34023544 101.22815765 55.22092194 101.20776367 56.1282959 C101.19666061 56.90328934 101.18555756 57.67828278 101.17411804 58.47676086 C100.65536089 61.11938297 99.98969088 61.9802428 97.77539062 63.50793457 C95.30883789 63.8888855 95.30883789 63.8888855 92.34179688 63.89611816 C91.23054443 63.90557465 90.11929199 63.91503113 88.97436523 63.92477417 C87.77432861 63.91870148 86.57429199 63.91262878 85.33789062 63.90637207 C84.10627197 63.90924225 82.87465332 63.91211243 81.60571289 63.91506958 C78.33191105 63.91763615 75.05853526 63.90555067 71.78479004 63.88879395 C69.77728678 63.8829401 67.77017693 63.88877252 65.76269531 63.89904785 C61.91257367 63.91754437 58.06303629 63.91534449 54.21289062 63.90637207 C52.41283569 63.91548111 52.41283569 63.91548111 50.57641602 63.92477417 C48.90953735 63.91058945 48.90953735 63.91058945 47.20898438 63.89611816 C46.22986084 63.89373138 45.2507373 63.8913446 44.24194336 63.8888855 C41.77539062 63.50793457 41.77539062 63.50793457 39.96281433 62.25740051 C38.47787788 60.06960037 38.38076057 58.76275667 38.34301758 56.1282959 C38.32322342 55.24760941 38.30342926 54.36692291 38.28303528 53.45954895 C38.27664536 52.51258652 38.27025543 51.56562408 38.26367188 50.58996582 C38.24572067 49.61758469 38.22776947 48.64520355 38.20927429 47.64335632 C38.15506595 44.53575993 38.12124165 41.42831805 38.08789062 38.32043457 C38.05472687 36.21429323 38.0202381 34.1081723 37.984375 32.0020752 C37.89683708 26.83733811 37.83685797 21.6733114 37.77539062 16.50793457 C27.21539062 16.50793457 16.65539062 16.50793457 5.77539062 16.50793457 Z M53.77539062 16.50793457 C53.77539062 27.06793457 53.77539062 37.62793457 53.77539062 48.50793457 C64.33539063 48.50793457 74.89539063 48.50793457 85.77539062 48.50793457 C85.77539062 37.94793457 85.77539062 27.38793457 85.77539062 16.50793457 C75.21539062 16.50793457 64.65539062 16.50793457 53.77539062 16.50793457 Z M5.77539062 144.50793457 C5.77539062 181.46793457 5.77539062 218.42793457 5.77539062 256.50793457 C48.01539063 256.50793457 90.25539063 256.50793457 133.77539062 256.50793457 C133.77539062 219.54793457 133.77539062 182.58793457 133.77539062 144.50793457 C123.21539062 144.50793457 112.65539062 144.50793457 101.77539062 144.50793457 C101.73800781 147.64937988 101.700625 150.7908252 101.66210938 154.02746582 C101.61591502 157.06570451 101.56467373 160.10381897 101.51293945 163.14196777 C101.47965935 165.25549793 101.4516371 167.36911763 101.42895508 169.48278809 C101.3954659 172.51890263 101.34315298 175.55419432 101.28710938 178.58996582 C101.28071945 179.53692825 101.27432953 180.48389069 101.26774597 181.45954895 C101.24795181 182.34023544 101.22815765 183.22092194 101.20776367 184.1282959 C101.19666061 184.90328934 101.18555756 185.67828278 101.17411804 186.47676086 C100.65536089 189.11938297 99.98969088 189.9802428 97.77539062 191.50793457 C95.30883789 191.8888855 95.30883789 191.8888855 92.34179688 191.89611816 C91.23054443 191.90557465 90.11929199 191.91503113 88.97436523 191.92477417 C87.77432861 191.91870148 86.57429199 191.91262878 85.33789062 191.90637207 C84.10627197 191.90924225 82.87465332 191.91211243 81.60571289 191.91506958 C78.33191105 191.91763615 75.05853526 191.90555067 71.78479004 191.88879395 C69.77728678 191.8829401 67.77017693 191.88877252 65.76269531 191.89904785 C61.91257367 191.91754437 58.06303629 191.91534449 54.21289062 191.90637207 C52.41283569 191.91548111 52.41283569 191.91548111 50.57641602 191.92477417 C48.90953735 191.91058945 48.90953735 191.91058945 47.20898438 191.89611816 C46.22986084 191.89373138 45.2507373 191.8913446 44.24194336 191.8888855 C41.77539062 191.50793457 41.77539062 191.50793457 39.96281433 190.25740051 C38.47787788 188.06960037 38.38076057 186.76275667 38.34301758 184.1282959 C38.32322342 183.24760941 38.30342926 182.36692291 38.28303528 181.45954895 C38.27664536 180.51258652 38.27025543 179.56562408 38.26367188 178.58996582 C38.24572067 177.61758469 38.22776947 176.64520355 38.20927429 175.64335632 C38.15506595 172.53575993 38.12124165 169.42831805 38.08789062 166.32043457 C38.05472687 164.21429323 38.0202381 162.1081723 37.984375 160.0020752 C37.89683708 154.83733811 37.83685797 149.6733114 37.77539062 144.50793457 C27.21539062 144.50793457 16.65539062 144.50793457 5.77539062 144.50793457 Z M53.77539062 144.50793457 C53.77539062 155.06793457 53.77539062 165.62793457 53.77539062 176.50793457 C64.33539063 176.50793457 74.89539063 176.50793457 85.77539062 176.50793457 C85.77539062 165.94793457 85.77539062 155.38793457 85.77539062 144.50793457 C75.21539062 144.50793457 64.65539062 144.50793457 53.77539062 144.50793457 Z M149.77539062 144.50793457 C149.77539062 181.46793457 149.77539062 218.42793457 149.77539062 256.50793457 C192.01539063 256.50793457 234.25539063 256.50793457 277.77539062 256.50793457 C277.77539062 219.54793457 277.77539062 182.58793457 277.77539062 144.50793457 C267.21539062 144.50793457 256.65539062 144.50793457 245.77539062 144.50793457 C245.73800781 147.64937988 245.700625 150.7908252 245.66210938 154.02746582 C245.61591502 157.06570451 245.56467373 160.10381897 245.51293945 163.14196777 C245.47965935 165.25549793 245.4516371 167.36911763 245.42895508 169.48278809 C245.3954659 172.51890263 245.34315298 175.55419432 245.28710938 178.58996582 C245.28071945 179.53692825 245.27432953 180.48389069 245.26774597 181.45954895 C245.24795181 182.34023544 245.22815765 183.22092194 245.20776367 184.1282959 C245.19666061 184.90328934 245.18555756 185.67828278 245.17411804 186.47676086 C244.65536089 189.11938297 243.98969088 189.9802428 241.77539062 191.50793457 C239.30883789 191.8888855 239.30883789 191.8888855 236.34179688 191.89611816 C235.23054443 191.90557465 234.11929199 191.91503113 232.97436523 191.92477417 C231.77432861 191.91870148 230.57429199 191.91262878 229.33789062 191.90637207 C228.10627197 191.90924225 226.87465332 191.91211243 225.60571289 191.91506958 C222.33191105 191.91763615 219.05853526 191.90555067 215.78479004 191.88879395 C213.77728678 191.8829401 211.77017693 191.88877252 209.76269531 191.89904785 C205.91257367 191.91754437 202.06303629 191.91534449 198.21289062 191.90637207 C196.41283569 191.91548111 196.41283569 191.91548111 194.57641602 191.92477417 C192.90953735 191.91058945 192.90953735 191.91058945 191.20898438 191.89611816 C190.22986084 191.89373138 189.2507373 191.8913446 188.24194336 191.8888855 C185.77539062 191.50793457 185.77539062 191.50793457 183.96281433 190.25740051 C182.47787788 188.06960037 182.38076057 186.76275667 182.34301758 184.1282959 C182.32322342 183.24760941 182.30342926 182.36692291 182.28303528 181.45954895 C182.27664536 180.51258652 182.27025543 179.56562408 182.26367188 178.58996582 C182.24572067 177.61758469 182.22776947 176.64520355 182.20927429 175.64335632 C182.15506595 172.53575993 182.12124165 169.42831805 182.08789062 166.32043457 C182.05472687 164.21429323 182.0202381 162.1081723 181.984375 160.0020752 C181.89683708 154.83733811 181.83685797 149.6733114 181.77539062 144.50793457 C171.21539062 144.50793457 160.65539062 144.50793457 149.77539062 144.50793457 Z M197.77539062 144.50793457 C197.77539062 155.06793457 197.77539062 165.62793457 197.77539062 176.50793457 C208.33539063 176.50793457 218.89539063 176.50793457 229.77539062 176.50793457 C229.77539062 165.94793457 229.77539062 155.38793457 229.77539062 144.50793457 C219.21539062 144.50793457 208.65539062 144.50793457 197.77539062 144.50793457 Z " fill="#000000" transform="translate(34.224609375,223.4920654296875)"/>
<path d="M0 0 C0.69641602 -0.00700928 1.39283203 -0.01401855 2.11035156 -0.02124023 C4.40730932 -0.03881383 6.70303021 -0.02720107 9 -0.01367188 C10.59896073 -0.01636701 12.19791987 -0.0202496 13.796875 -0.02526855 C17.14599226 -0.03116269 20.49468243 -0.0226038 23.84375 -0.00390625 C28.13478591 0.01888377 32.42482111 0.00576017 36.71582031 -0.01819611 C40.01700366 -0.03265667 43.31795011 -0.02804703 46.61914062 -0.01768494 C48.20117308 -0.01501834 49.78322711 -0.0182851 51.36523438 -0.02760315 C53.57740163 -0.03777366 55.787953 -0.02226378 58 0 C59.8871875 0.00477356 59.8871875 0.00477356 61.8125 0.00964355 C65 0.51757812 65 0.51757812 67.4375 1.98742676 C70.20306649 6.46569993 69.48595486 11.00109613 68.515625 16.02587891 C67.9034082 18.5645183 67.22046792 21.07012365 66.5 23.58007812 C66.26152344 24.44568359 66.02304687 25.31128906 65.77734375 26.203125 C65.19511518 28.31079243 64.59901175 30.41461901 64 32.51757812 C65.04268036 32.50869568 66.08536072 32.49981323 67.15963745 32.49066162 C77.01627771 32.40935222 86.87284935 32.34950575 96.72974968 32.31032944 C101.79653852 32.28951092 106.86305523 32.26129862 111.9296875 32.21582031 C116.82507097 32.17215728 121.72019372 32.14839794 126.61575699 32.13806915 C128.4775617 32.13071436 130.33935316 32.1163526 132.20104599 32.0946579 C144.3990084 31.95824717 155.0326457 32.00148779 164.46875 40.81445312 C170.17066455 47.1563785 173.25549376 54.11965262 173.24050903 62.7059021 C173.24463303 64.53573135 173.24463303 64.53573135 173.24884033 66.40252686 C173.24176355 67.74084573 173.23449396 69.07916359 173.22705078 70.41748047 C173.22648619 71.83706657 173.22680416 73.25665325 173.22793579 74.67623901 C173.22850844 78.51878788 173.21676833 82.36121129 173.20278788 86.20373106 C173.19026593 90.22359292 173.18910886 94.24345782 173.18673706 98.26333618 C173.18052659 105.87051381 173.16412164 113.47763379 173.14403808 121.08478606 C173.12166559 129.7473883 173.11068226 138.40999334 173.10064721 147.07261729 C173.07975503 164.88763779 173.04418352 182.70260121 173 200.51757812 C167.72 200.51757812 162.44 200.51757812 157 200.51757812 C156.99120064 197.99182884 156.99120064 197.99182884 156.98222351 195.41505432 C156.92498667 179.53903747 156.85239589 163.66316821 156.76428509 147.78729343 C156.71937964 139.62554277 156.67995295 131.46383523 156.65356445 123.30200195 C156.63054175 116.18553817 156.59709623 109.06921146 156.55129844 101.95285648 C156.52742361 98.18714857 156.50865735 94.42157593 156.50238609 90.65579414 C156.49630908 87.10575254 156.47621592 83.55605678 156.44572449 80.00614357 C156.43284327 78.09350238 156.43450702 76.18078021 156.4367218 74.26809692 C156.353563 66.59634715 156.18134032 58.96403014 150.75 53.08007812 C144.00839353 49.2496199 137.3961772 49.18987826 129.81640625 49.10351562 C128.76090073 49.08414948 127.7053952 49.06478333 126.61790466 49.04483032 C123.2661838 48.98533259 119.91442803 48.93876848 116.5625 48.89257812 C114.28188655 48.85437093 112.00128711 48.81531762 109.72070312 48.77539062 C104.14724997 48.67965553 98.5737293 48.59551466 93 48.51757812 C93 53.79757813 93 59.07757813 93 64.51757812 C94.96791504 64.48615723 94.96791504 64.48615723 96.97558594 64.45410156 C101.84331344 64.38169842 106.71099335 64.33577699 111.57910156 64.29785156 C113.68595382 64.27773687 115.79275025 64.25044145 117.89941406 64.21582031 C120.92787447 64.16729644 123.95559678 64.14460796 126.984375 64.12695312 C127.92617615 64.10630798 128.86797729 64.08566284 129.83831787 64.06439209 C130.71892883 64.06408997 131.59953979 64.06378784 132.50683594 64.06347656 C133.66599518 64.05015289 133.66599518 64.05015289 134.84857178 64.03656006 C137.92252081 64.72383608 139.02912458 66.09278104 141 68.51757812 C141.49219131 71.19620132 141.49219131 71.19620132 141.48101807 74.3135376 C141.48926605 76.08875793 141.48926605 76.08875793 141.49768066 77.89984131 C141.47610901 79.84192474 141.47610901 79.84192474 141.45410156 81.82324219 C141.45297303 83.20312466 141.45360706 84.58300954 141.45587158 85.96289062 C141.45701945 89.70654654 141.4334989 93.44969001 141.40557575 97.19322681 C141.38057399 101.10631018 141.37822108 105.01940524 141.37347412 108.93255615 C141.3610407 116.34155663 141.32821427 123.75032107 141.28807616 131.1592176 C141.24336974 139.59442485 141.22137428 148.02964336 141.20129442 156.46493959 C141.15948184 173.81595949 141.08831729 191.16673484 141 208.51757812 C135.72 208.51757812 130.44 208.51757812 125 208.51757812 C125 166.27757812 125 124.03757812 125 80.51757812 C61.64 80.51757812 -1.72 80.51757812 -67 80.51757812 C-67 117.47757813 -67 154.43757813 -67 192.51757812 C-72.28 192.51757812 -77.56 192.51757812 -83 192.51757812 C-83.0925767 176.41909919 -83.16396839 160.32072992 -83.20724869 144.22204971 C-83.22787821 136.74722485 -83.25600601 129.27256836 -83.30175781 121.79785156 C-83.34161394 115.28323942 -83.36742999 108.76874922 -83.37635398 102.25401855 C-83.3815709 98.80412309 -83.39383994 95.35457648 -83.42292023 91.90479279 C-83.45511264 88.05462583 -83.45596019 84.20480086 -83.45410156 80.35449219 C-83.47567322 78.63682648 -83.47567322 78.63682648 -83.49768066 76.88446045 C-83.49218201 75.83560669 -83.48668335 74.78675293 -83.48101807 73.70611572 C-83.48470524 72.79538425 -83.48839241 71.88465279 -83.49219131 70.94632339 C-82.84375825 67.74659458 -81.5009775 66.54481448 -79 64.51757812 C-76.84857178 64.03656006 -76.84857178 64.03656006 -74.50683594 64.06347656 C-73.62622498 64.06377869 -72.74561401 64.06408081 -71.83831787 64.06439209 C-70.89651672 64.08503723 -69.95471558 64.10568237 -68.984375 64.12695312 C-68.01340881 64.13261292 -67.04244263 64.13827271 -66.04205322 64.144104 C-62.94419831 64.16647501 -59.84750467 64.2166734 -56.75 64.26757812 C-54.64845422 64.28764216 -52.54689028 64.3058931 -50.4453125 64.32226562 C-45.2964283 64.36634232 -40.14841097 64.43537554 -35 64.51757812 C-35 59.23757812 -35 53.95757812 -35 48.51757812 C-41.67150306 48.58672673 -48.34239561 48.67482615 -55.01342773 48.7800293 C-57.27996006 48.81315865 -59.54657251 48.8412274 -61.81323242 48.86401367 C-65.08286488 48.89778048 -68.35177098 48.95010785 -71.62109375 49.00585938 C-72.62458359 49.0122493 -73.62807343 49.01863922 -74.66197205 49.02522278 C-81.82372161 49.17284165 -88.98116234 49.73095875 -94.4375 54.76757812 C-98.51024588 61.93561087 -98.30399665 69.0067793 -98.31884766 77.06225586 C-98.32889328 78.31173508 -98.3389389 79.56121429 -98.34928894 80.84855652 C-98.37479947 84.25716028 -98.39170391 87.66559917 -98.40471697 91.07425952 C-98.4203981 94.64306492 -98.44717231 98.2117871 -98.4727478 101.78053284 C-98.5194477 108.53055165 -98.55623419 115.28058627 -98.58942068 122.03068358 C-98.62770435 129.71878021 -98.67709806 137.40679306 -98.72740483 145.09481895 C-98.83059389 160.90234567 -98.91950237 176.70991866 -99 192.51757812 C-104.28 192.51757812 -109.56 192.51757812 -115 192.51757812 C-115.09275085 174.95811748 -115.16405752 157.39875527 -115.20724869 139.83910561 C-115.22783964 131.6851325 -115.25589353 123.53131476 -115.30175781 115.37744141 C-115.3417322 108.26727482 -115.367458 101.15722082 -115.37635398 94.04694498 C-115.38155089 90.28499621 -115.39369218 86.52336939 -115.42292023 82.7615242 C-115.45025751 79.21398109 -115.45840855 75.6668897 -115.45243073 72.11925125 C-115.45403996 70.21028095 -115.47546638 68.30135881 -115.49768066 66.39251709 C-115.45120898 56.60512096 -113.52623711 48.3543825 -106.703125 41.04882812 C-99.53030398 34.59986977 -92.11217735 32.20129128 -82.51611328 32.29052734 C-81.68618362 32.29023529 -80.85625397 32.28994324 -80.00117493 32.28964233 C-77.27411224 32.2910291 -74.54732711 32.30655941 -71.8203125 32.32226562 C-69.92316843 32.32599808 -68.02602242 32.32884395 -66.12887573 32.33084106 C-61.14760978 32.33845922 -56.16646137 32.35809208 -51.1852417 32.38024902 C-46.09746897 32.40074664 -41.00967716 32.40985115 -35.921875 32.41992188 C-25.94786516 32.4413397 -15.97394238 32.47545368 -6 32.51757812 C-6.3609375 31.25042969 -6.721875 29.98328125 -7.09375 28.67773438 C-7.56310157 26.97868169 -8.03181769 25.27945338 -8.5 23.58007812 C-8.73847656 22.74927734 -8.97695312 21.91847656 -9.22265625 21.0625 C-10.7120268 15.5943824 -11.96653502 10.18853335 -11 4.51757812 C-8.1829618 -0.04404302 -5.10660851 0.01291695 0 0 Z M8 16.51757812 C9.3456805 24.12925865 9.3456805 24.12925865 11.125 31.64257812 C12.08803296 35.90743836 12.79713462 40.17190877 12 44.51757812 C10.87841797 46.109375 10.87841797 46.109375 9 47.51757812 C6.08911133 47.94995117 6.08911133 47.94995117 2.58203125 48.02929688 C1.32841797 48.06474609 0.07480469 48.10019531 -1.21679688 48.13671875 C-2.52712891 48.15927734 -3.83746094 48.18183594 -5.1875 48.20507812 C-6.52282013 48.23825479 -7.85810832 48.27274479 -9.19335938 48.30859375 C-12.46193825 48.39119322 -15.73095644 48.45605816 -19 48.51757812 C-19 53.79757813 -19 59.07757813 -19 64.51757812 C12.68 64.51757812 44.36 64.51757812 77 64.51757812 C77 59.23757812 77 53.95757812 77 48.51757812 C75.01355469 48.48019531 73.02710938 48.4428125 70.98046875 48.40429688 C69.05425387 48.35561996 67.12804005 48.30684005 65.2019043 48.25512695 C63.2070937 48.20556494 61.21192743 48.17106679 59.21679688 48.13671875 C57.96318359 48.10126953 56.70957031 48.06582031 55.41796875 48.02929688 C54.26063232 48.00311279 53.1032959 47.97692871 51.91088867 47.94995117 C49 47.51757812 49 47.51757812 47.1262207 46.21606445 C44.94949871 42.93328645 45.53061206 39.247977 46 35.51757812 C46.88394073 31.30210629 47.99690739 27.14955785 49.125 22.99414062 C50.1220368 19.63019714 50.1220368 19.63019714 50 16.51757812 C36.14 16.51757812 22.28 16.51757812 8 16.51757812 Z " fill="#000000" transform="translate(251,15.482421875)"/>
<path d="M0 0 C6.67860816 4.37516984 10.35387337 10.21972224 12 18 C12.70228845 26.9541778 9.99062193 33.42903816 4.3046875 40.17578125 C-1.87475347 45.06696589 -9.92062372 47.07256669 -17.375 49.25 C-18.26316406 49.518125 -19.15132812 49.78625 -20.06640625 50.0625 C-26.60052615 52 -26.60052615 52 -30 52 C-29.9278125 52.56203125 -29.855625 53.1240625 -29.78125 53.703125 C-29.05930193 60.24076586 -28.74366996 66.80282137 -28.5625 73.375 C-28.51609375 74.24286133 -28.4696875 75.11072266 -28.421875 76.00488281 C-28.40769531 76.83600586 -28.39351562 77.66712891 -28.37890625 78.5234375 C-28.3538501 79.26513184 -28.32879395 80.00682617 -28.30297852 80.77099609 C-29.4388639 84.40344216 -31.83122672 86.15602764 -35 88 C-38.95972088 89.59425897 -43.01211758 90.75809111 -47.1171875 91.91796875 C-48.28831085 92.26128738 -49.4594342 92.60460602 -50.66604614 92.95832825 C-54.39846099 94.04870344 -58.13651187 95.11815659 -61.875 96.1875 C-64.38189826 96.91728882 -66.88841343 97.64839499 -69.39453125 98.38085938 C-88.52689905 103.9512973 -88.52689905 103.9512973 -97 106 C-97.67364661 103.91891315 -98.33866798 101.8350329 -99 99.75 C-99.37125 98.58984375 -99.7425 97.4296875 -100.125 96.234375 C-101 93 -101 93 -101 89 C-92.64280207 86.39842356 -84.28364363 83.80326519 -75.92236328 81.21484375 C-73.42028672 80.4402289 -70.91873431 79.66399267 -68.41748047 78.88671875 C-65.23793542 77.89943743 -62.05675423 76.91763431 -58.875 75.9375 C-57.917146 75.63900146 -56.95929199 75.34050293 -55.97241211 75.03295898 C-55.09206299 74.76298096 -54.21171387 74.49300293 -53.3046875 74.21484375 C-52.54140137 73.97886475 -51.77811523 73.74288574 -50.99169922 73.49975586 C-49 73 -49 73 -46 73 C-46.33 68.05 -46.66 63.1 -47 58 C-48.85395386 58.55685234 -48.85395386 58.55685234 -50.74536133 59.12495422 C-55.6376766 60.59435625 -60.53004338 62.06358675 -65.42243004 63.53275108 C-67.6889889 64.21339347 -69.95554083 64.89405893 -72.22208595 65.57474709 C-85.87220132 69.67400788 -99.52329133 73.76998513 -113.17651367 77.85888672 C-116.95897253 78.99180182 -120.74142102 80.1247515 -124.52385902 81.25773621 C-127.0407888 82.01164628 -129.55773501 82.76550148 -132.07469749 83.51930237 C-146.68315016 87.89507649 -161.28483178 92.29153179 -175.87222672 96.7369976 C-180.33938979 98.09643699 -184.80914923 99.44730737 -189.27928352 100.7969408 C-192.6036861 101.80147467 -195.925944 102.81214349 -199.24389648 103.83779907 C-202.82096281 104.94088166 -206.40357742 106.02360954 -209.98828125 107.1015625 C-210.99256668 107.41756912 -211.99685211 107.73357574 -213.03157043 108.05915833 C-219.10624697 109.85723099 -223.78992743 110.18497716 -230 109 C-231.18424561 108.82678223 -232.36849121 108.65356445 -233.58862305 108.47509766 C-237.29000503 107.86845221 -240.98923523 107.25037341 -244.6875 106.625 C-245.97978516 106.41617188 -247.27207031 106.20734375 -248.60351562 105.9921875 C-249.85197266 105.78078125 -251.10042969 105.569375 -252.38671875 105.3515625 C-253.51295654 105.16416504 -254.63919434 104.97676758 -255.79956055 104.78369141 C-259.21992552 103.94614685 -261.95962822 102.7680164 -265 101 C-266.6193148 97.76137041 -266.56493796 94.50130153 -266 91 C-263.07352976 86.51884244 -259.22651224 83.36734999 -255.16796875 79.91796875 C-252.13735671 77.23683269 -249.35739075 74.33377973 -246.56640625 71.40625 C-238.44830015 63.79475326 -231.09902229 60.23209225 -220.3828125 57.19140625 C-218.89480198 56.75280396 -217.40733489 56.31235459 -215.92036438 55.87023926 C-212.69706567 54.91594175 -209.47046341 53.97417702 -206.24069214 53.04202271 C-201.03106293 51.53827609 -195.82961887 50.00749545 -190.62915039 48.47241211 C-184.97155945 46.80382869 -179.31334621 45.13747776 -173.65242004 43.48023987 C-158.08000495 38.92049098 -142.53058498 34.28627544 -126.98828125 29.625 C-125.21165226 29.09233174 -125.21165226 29.09233174 -123.39913177 28.54890251 C-117.43201726 26.75980749 -111.46507794 24.97012906 -105.49822998 23.18014526 C-89.11319443 18.26536129 -72.72594998 13.35812212 -56.32906342 8.48300457 C-51.07589102 6.92013589 -45.82645569 5.34577193 -40.58131695 3.75615406 C-37.68198048 2.87948185 -34.77986882 2.01231275 -31.87687874 1.14782524 C-29.99638626 0.58442832 -28.11960157 0.00869977 -26.24302673 -0.56761169 C-17.11123929 -3.2700342 -8.7274071 -4.71992425 0 0 Z M-23.875 16.4375 C-24.65875 16.68048828 -25.4425 16.92347656 -26.25 17.17382812 C-28.17029907 17.7709943 -30.08568421 18.38392287 -32 19 C-31.67 24.28 -31.34 29.56 -31 35 C-27.57829705 34.09955185 -24.16351861 33.18055291 -20.75 32.25 C-19.78191406 31.99734375 -18.81382812 31.7446875 -17.81640625 31.484375 C-11.01295736 29.71615451 -11.01295736 29.71615451 -6 25 C-4.83789781 22.60648505 -4.83789781 22.60648505 -5 20 C-6.82736698 16.78383412 -8.02488569 15.29766647 -11.59765625 14.20703125 C-16.09434566 13.93340951 -19.62947479 15.05950326 -23.875 16.4375 Z M-56.39079285 26.18119812 C-57.70003975 26.57423882 -57.70003975 26.57423882 -59.03573608 26.97521973 C-59.9858255 27.26658813 -60.93591492 27.55795654 -61.91479492 27.8581543 C-63.42552834 28.31427849 -63.42552834 28.31427849 -64.96678162 28.77961731 C-68.30627671 29.7892845 -71.64334118 30.80675647 -74.98046875 31.82421875 C-77.31042034 32.53019025 -79.64052629 33.23565249 -81.97077942 33.94062805 C-88.12243589 35.80309848 -94.2720935 37.67208484 -100.42132568 39.5425415 C-107.83439891 41.79619746 -115.24970746 44.04248404 -122.66474628 46.28966236 C-128.44882043 48.04269277 -134.23254841 49.79683574 -140.0151825 51.55461121 C-151.66063151 55.09281745 -163.31482496 58.59511089 -175 62 C-174.86577637 62.71905518 -174.73155273 63.43811035 -174.59326172 64.17895508 C-174.27311198 65.89404297 -173.95296224 67.60913086 -173.6328125 69.32421875 C-172.9936906 72.02667865 -172.05547631 74.43643208 -171 77 C-144.05898489 69.21516478 -117.1890918 61.19318499 -90.32705688 53.14096069 C-87.55494872 52.31023709 -84.78262813 51.48022585 -82.01025391 50.65039062 C-77.59035694 49.32725436 -73.1710588 48.00213662 -68.75222588 46.67545128 C-67.09440429 46.17798925 -65.43640228 45.68112808 -63.77821541 45.18488503 C-61.49167224 44.5004037 -59.20583189 43.81362492 -56.92016602 43.1262207 C-56.24363228 42.92422813 -55.56709854 42.72223557 -54.87006378 42.51412201 C-52.49278174 41.79714267 -50.22557905 41.11278953 -48 40 C-48 35.05 -48 30.1 -48 25 C-51.37642365 25 -53.27079335 25.23400914 -56.39079285 26.18119812 Z M-208.8515625 71.72314453 C-210.35258038 72.15352659 -211.85751659 72.57049735 -213.36621094 72.97314453 C-224.23068158 75.87686909 -230.71675164 79.10708421 -238 88 C-238.66 88.66 -239.32 89.32 -240 90 C-238.16824992 90.34192668 -236.33448463 90.67306214 -234.5 91 C-233.4790625 91.185625 -232.458125 91.37125 -231.40625 91.5625 C-224.31970174 92.47269886 -218.72684152 91.97461374 -212 89.8125 C-211.2788501 89.59053955 -210.5577002 89.3685791 -209.81469727 89.13989258 C-207.53971917 88.43706788 -205.26995585 87.71885956 -203 87 C-201.4469346 86.51719853 -199.89355145 86.03541794 -198.33984375 85.5546875 C-194.55539218 84.3834058 -190.77840162 83.1913879 -187 82 C-188.32 77.38 -189.64 72.76 -191 68 C-197.20016635 68 -202.93529352 70.00225747 -208.8515625 71.72314453 Z " fill="#000000" transform="translate(474,225)"/>
<path d="M0 0 C5.28 0 10.56 0 16 0 C16.09057691 10.27525419 16.16387473 20.5502407 16.20724869 30.82580471 C16.22807208 35.59780721 16.25629322 40.36952103 16.30175781 45.14135742 C16.34540358 49.75144834 16.36917654 54.36126259 16.37950897 58.97154427 C16.38686686 60.72532566 16.40123483 62.4790929 16.42292023 64.23275566 C16.6310011 81.76642772 16.6310011 81.76642772 12 89 C11.53078125 89.80953125 11.0615625 90.6190625 10.578125 91.453125 C5.61794777 98.16395302 -0.02222428 101.65138804 -8 104 C-10.84750366 104.24050903 -10.84750366 104.24050903 -13.82177734 104.22705078 C-15.50284073 104.22682419 -15.50284073 104.22682419 -17.21786499 104.22659302 C-19.00881088 104.21110916 -19.00881088 104.21110916 -20.8359375 104.1953125 C-22.07042633 104.1924826 -23.30491516 104.18965271 -24.57681274 104.18673706 C-28.50964149 104.17556522 -32.44224037 104.15046564 -36.375 104.125 C-39.04556959 104.11383825 -41.71613701 104.10584119 -44.38671875 104.09765625 C-50.92456739 104.07563562 -57.46224475 104.04112592 -64 104 C-64 98.72 -64 93.44 -64 88 C-62.59306885 87.98541748 -61.1861377 87.97083496 -59.73657227 87.95581055 C-54.48632161 87.89757182 -49.23648839 87.82034077 -43.98657227 87.73754883 C-41.72003994 87.70441948 -39.45342749 87.67635072 -37.18676758 87.65356445 C-33.91713512 87.61979765 -30.64822902 87.56747028 -27.37890625 87.51171875 C-26.37541641 87.50532883 -25.37192657 87.4989389 -24.33802795 87.49235535 C-17.17627839 87.34473648 -10.01883766 86.78661938 -4.5625 81.75 C-1.4363179 76.2479195 -0.74705766 70.84596768 -0.68115234 64.59594727 C-0.66608391 63.54102837 -0.66608391 63.54102837 -0.65071106 62.46479797 C-0.62008826 60.16534157 -0.60290291 57.86600042 -0.5859375 55.56640625 C-0.56720896 53.96214317 -0.54763431 52.35788977 -0.5272522 50.75364685 C-0.47610289 46.55011724 -0.43638559 42.34655576 -0.39910889 38.1428833 C-0.35896089 33.84582749 -0.307918 29.54890232 -0.2578125 25.25195312 C-0.16125703 16.83471843 -0.07779568 8.41742901 0 0 Z " fill="#000000" transform="translate(408,336)"/>
<path d="M0 0 C0.87269531 -0.0038269 1.74539062 -0.00765381 2.64453125 -0.01159668 C4.48699092 -0.0143149 6.32948924 -0.00695994 8.171875 0.00976562 C10.99045934 0.03117752 13.80649485 0.00996199 16.625 -0.015625 C18.41667229 -0.01298171 20.20834299 -0.00785669 22 0 C22.84175781 -0.00809692 23.68351562 -0.01619385 24.55078125 -0.02453613 C28.13136419 0.03278396 30.39761762 0.18098442 33.52929688 2.00195312 C35.73374916 5.79314264 35.57275697 9.21617695 35.53125 13.53125 C35.5350769 14.40394531 35.53890381 15.27664062 35.54284668 16.17578125 C35.5455649 18.01824092 35.53820994 19.86073924 35.52148438 21.703125 C35.50007248 24.52170934 35.52128801 27.33774485 35.546875 30.15625 C35.54423171 31.94792229 35.53910669 33.73959299 35.53125 35.53125 C35.53934692 36.37300781 35.54744385 37.21476562 35.55578613 38.08203125 C35.49846604 41.66261419 35.35026558 43.92886762 33.52929688 47.06054688 C29.73810736 49.26499916 26.31507305 49.10400697 22 49.0625 C21.12730469 49.0663269 20.25460938 49.07015381 19.35546875 49.07409668 C17.51300908 49.0768149 15.67051076 49.06945994 13.828125 49.05273438 C11.00954066 49.03132248 8.19350515 49.05253801 5.375 49.078125 C3.58332771 49.07548171 1.79165701 49.07035669 0 49.0625 C-0.84175781 49.07059692 -1.68351563 49.07869385 -2.55078125 49.08703613 C-6.13136419 49.02971604 -8.39761762 48.88151558 -11.52929688 47.06054688 C-13.73374916 43.26935736 -13.57275697 39.84632305 -13.53125 35.53125 C-13.5350769 34.65855469 -13.53890381 33.78585938 -13.54284668 32.88671875 C-13.5455649 31.04425908 -13.53820994 29.20176076 -13.52148438 27.359375 C-13.50007248 24.54079066 -13.52128801 21.72475515 -13.546875 18.90625 C-13.54423171 17.11457771 -13.53910669 15.32290701 -13.53125 13.53125 C-13.53934692 12.68949219 -13.54744385 11.84773437 -13.55578613 10.98046875 C-13.49846604 7.39988581 -13.35026558 5.13363238 -11.52929688 2.00195312 C-7.73810736 -0.20249916 -4.31507305 -0.04150697 0 0 Z M3 16.53125 C3 21.81125 3 27.09125 3 32.53125 C8.28 32.53125 13.56 32.53125 19 32.53125 C19 27.25125 19 21.97125 19 16.53125 C13.72 16.53125 8.44 16.53125 3 16.53125 Z " fill="#000000" transform="translate(213,183.46875)"/>
<path d="M0 0 C0.87269531 -0.0038269 1.74539062 -0.00765381 2.64453125 -0.01159668 C4.48699092 -0.0143149 6.32948924 -0.00695994 8.171875 0.00976562 C10.99045934 0.03117752 13.80649485 0.00996199 16.625 -0.015625 C18.41667229 -0.01298171 20.20834299 -0.00785669 22 0 C22.84175781 -0.00809692 23.68351562 -0.01619385 24.55078125 -0.02453613 C28.13136419 0.03278396 30.39761762 0.18098442 33.52929688 2.00195312 C35.73374916 5.79314264 35.57275697 9.21617695 35.53125 13.53125 C35.5350769 14.40394531 35.53890381 15.27664062 35.54284668 16.17578125 C35.5455649 18.01824092 35.53820994 19.86073924 35.52148438 21.703125 C35.50007248 24.52170934 35.52128801 27.33774485 35.546875 30.15625 C35.54423171 31.94792229 35.53910669 33.73959299 35.53125 35.53125 C35.53934692 36.37300781 35.54744385 37.21476562 35.55578613 38.08203125 C35.49846604 41.66261419 35.35026558 43.92886762 33.52929688 47.06054688 C29.73810736 49.26499916 26.31507305 49.10400697 22 49.0625 C21.12730469 49.0663269 20.25460938 49.07015381 19.35546875 49.07409668 C17.51300908 49.0768149 15.67051076 49.06945994 13.828125 49.05273438 C11.00954066 49.03132248 8.19350515 49.05253801 5.375 49.078125 C3.58332771 49.07548171 1.79165701 49.07035669 0 49.0625 C-0.84175781 49.07059692 -1.68351563 49.07869385 -2.55078125 49.08703613 C-6.13136419 49.02971604 -8.39761762 48.88151558 -11.52929688 47.06054688 C-13.73374916 43.26935736 -13.57275697 39.84632305 -13.53125 35.53125 C-13.5350769 34.65855469 -13.53890381 33.78585938 -13.54284668 32.88671875 C-13.5455649 31.04425908 -13.53820994 29.20176076 -13.52148438 27.359375 C-13.50007248 24.54079066 -13.52128801 21.72475515 -13.546875 18.90625 C-13.54423171 17.11457771 -13.53910669 15.32290701 -13.53125 13.53125 C-13.53934692 12.68949219 -13.54744385 11.84773438 -13.55578613 10.98046875 C-13.49846604 7.39988581 -13.35026558 5.13363238 -11.52929688 2.00195312 C-7.73810736 -0.20249916 -4.31507305 -0.04150697 0 0 Z M3 16.53125 C3 21.81125 3 27.09125 3 32.53125 C8.28 32.53125 13.56 32.53125 19 32.53125 C19 27.25125 19 21.97125 19 16.53125 C13.72 16.53125 8.44 16.53125 3 16.53125 Z " fill="#000000" transform="translate(213,111.46875)"/>
<path d="M0 0 C31.68 0 63.36 0 96 0 C96 5.28 96 10.56 96 16 C64.32 16 32.64 16 0 16 C0 10.72 0 5.44 0 0 Z " fill="#000000" transform="translate(264,216)"/>
<path d="M0 0 C31.68 0 63.36 0 96 0 C96 5.28 96 10.56 96 16 C64.32 16 32.64 16 0 16 C0 10.72 0 5.44 0 0 Z " fill="#000000" transform="translate(264,144)"/>
<path d="M0 0 C5.28 0 10.56 0 16 0 C16.09040438 7.75391441 16.16377491 15.50754036 16.20724869 23.26183701 C16.22811513 26.86258286 16.25641421 30.46294916 16.30175781 34.06347656 C16.34525125 37.53887913 16.36914421 41.01391688 16.37950897 44.48957062 C16.39048615 46.45945784 16.421707 48.42919847 16.45318604 50.39886475 C16.45348816 51.59980774 16.45379028 52.80075073 16.45410156 54.03808594 C16.46298401 55.09509705 16.47186646 56.15210815 16.48101807 57.2411499 C15.87020325 60.74444145 14.84278382 61.91027966 12 64 C9.84857178 64.48101807 9.84857178 64.48101807 7.50683594 64.45410156 C6.62622498 64.45379944 5.74561401 64.45349731 4.83831787 64.45318604 C3.89651672 64.43254089 2.95471558 64.41189575 1.984375 64.390625 C1.01340881 64.38496521 0.04244263 64.37930542 -0.95794678 64.37347412 C-4.05580169 64.35110311 -7.15249533 64.30090473 -10.25 64.25 C-12.35154578 64.22993597 -14.45310972 64.21168503 -16.5546875 64.1953125 C-21.7035717 64.1512358 -26.85158903 64.08220258 -32 64 C-32 58.72 -32 53.44 -32 48 C-21.44 48 -10.88 48 0 48 C0 32.16 0 16.32 0 0 Z " fill="#000000" transform="translate(376,344)"/>
<path d="M0 0 C21.12 0 42.24 0 64 0 C64 5.28 64 10.56 64 16 C42.88 16 21.76 16 0 16 C0 10.72 0 5.44 0 0 Z " fill="#000000" transform="translate(296,184)"/>
<path d="M0 0 C21.12 0 42.24 0 64 0 C64 5.28 64 10.56 64 16 C42.88 16 21.76 16 0 16 C0 10.72 0 5.44 0 0 Z " fill="#000000" transform="translate(296,112)"/>
<path d="M0 0 C5.28 0 10.56 0 16 0 C16 5.28 16 10.56 16 16 C10.72 16 5.44 16 0 16 C0 10.72 0 5.44 0 0 Z " fill="#000000" transform="translate(280,448)"/>
<path d="M0 0 C5.28 0 10.56 0 16 0 C16 5.28 16 10.56 16 16 C10.72 16 5.44 16 0 16 C0 10.72 0 5.44 0 0 Z " fill="#000000" transform="translate(136,448)"/>
<path d="M0 0 C5.28 0 10.56 0 16 0 C16 5.28 16 10.56 16 16 C10.72 16 5.44 16 0 16 C0 10.72 0 5.44 0 0 Z " fill="#000000" transform="translate(136,320)"/>
<path d="M0 0 C5.28 0 10.56 0 16 0 C16 5.28 16 10.56 16 16 C10.72 16 5.44 16 0 16 C0 10.72 0 5.44 0 0 Z " fill="#000000" transform="translate(264,184)"/>
<path d="M0 0 C5.28 0 10.56 0 16 0 C16 5.28 16 10.56 16 16 C10.72 16 5.44 16 0 16 C0 10.72 0 5.44 0 0 Z " fill="#000000" transform="translate(264,112)"/>
</svg>
