<?xml version="1.0" encoding="UTF-8"?>
<svg version="1.1" xmlns="http://www.w3.org/2000/svg" width="512" height="512">
<path d="M0 0 C1.19012192 -0.00852997 2.38024384 -0.01705994 3.60643005 -0.02584839 C5.55232025 -0.02448883 5.55232025 -0.02448883 7.53752136 -0.02310181 C8.92427939 -0.02908944 10.31103409 -0.03589553 11.69778442 -0.04345703 C15.45825403 -0.06110158 19.21863257 -0.06581179 22.97913957 -0.0670886 C25.3309074 -0.06851177 27.68265219 -0.07278453 30.03441429 -0.07808304 C38.24575135 -0.09657903 46.45702354 -0.1047543 54.66838074 -0.10317993 C62.31138488 -0.10197902 69.9541064 -0.12307241 77.59703904 -0.15466726 C84.16792461 -0.18085823 90.73871803 -0.19154603 97.30965537 -0.19026911 C101.23015673 -0.18976025 105.15040692 -0.1954008 109.07085609 -0.21662521 C112.76049191 -0.23605513 116.44963821 -0.23610013 120.13929176 -0.22159195 C122.12967436 -0.21851929 124.12005725 -0.23514747 126.11036682 -0.25247192 C134.33505102 -0.19490663 139.94346912 0.65860019 146.30387878 6.23226929 C146.84270691 6.88324585 147.38153503 7.53422241 147.93669128 8.20492554 C148.49098816 8.85332397 149.04528503 9.50172241 149.61637878 10.16976929 C153.24166059 15.43132693 153.35882488 20.15310937 153.35221863 26.33700562 C153.35893585 27.24172104 153.36565308 28.14643646 153.37257385 29.0785675 C153.39154681 32.06475339 153.39547781 35.0507144 153.39762878 38.03695679 C153.40405755 40.11814974 153.41078597 42.19934178 153.4178009 44.28053284 C153.42977217 48.64247736 153.43348191 53.0043427 153.43229675 57.36630249 C153.43209366 62.94481226 153.459387 68.52281206 153.49384117 74.10120106 C153.51612307 78.40015476 153.52013388 82.69898603 153.5190773 86.99799156 C153.52143165 89.05401045 153.53024574 91.1100328 153.54574203 93.16599464 C153.56542636 96.04757595 153.55955407 98.9280614 153.54753113 101.80966187 C153.55877014 102.65201385 153.57000916 103.49436584 153.58158875 104.36224365 C153.50979684 111.16321258 151.60266944 116.36778049 147.09684753 121.50961304 C146.44587097 122.04844116 145.79489441 122.58726929 145.12419128 123.14242554 C144.47579285 123.69672241 143.82739441 124.25101929 143.15934753 124.82211304 C138.91885548 127.74386734 135.22962141 128.51826976 130.12338257 128.53485107 C128.93326065 128.54338104 127.74313873 128.55191101 126.51695251 128.56069946 C125.21969238 128.55979309 123.92243225 128.55888672 122.58586121 128.55795288 C121.19910318 128.56394051 119.81234848 128.5707466 118.42559814 128.57830811 C114.66512854 128.59595265 110.90475 128.60066286 107.144243 128.60193968 C104.79247517 128.60336285 102.44073038 128.60763561 100.08896828 128.61293411 C91.87763122 128.6314301 83.66635903 128.63960537 75.45500183 128.63803101 C67.81199769 128.63683009 60.16927617 128.65792348 52.52634352 128.68951833 C45.95545796 128.71570931 39.38466454 128.72639711 32.8137272 128.72512019 C28.89322584 128.72461133 24.97297565 128.73025187 21.05252647 128.75147629 C17.36289065 128.77090621 13.67374436 128.7709512 9.98409081 128.75644302 C7.99370821 128.75337036 6.00332532 128.76999854 4.01301575 128.787323 C-4.21166845 128.72975771 -9.82008655 127.87625088 -16.18049622 122.30258179 C-16.71932434 121.65160522 -17.25815247 121.00062866 -17.81330872 120.32992554 C-18.36760559 119.6815271 -18.92190247 119.03312866 -19.49299622 118.36508179 C-23.12294861 113.09674548 -23.21083022 108.43557474 -23.13362122 102.24789429 C-23.13079132 101.38932327 -23.12796143 100.53075226 -23.12504578 99.64616394 C-23.11388942 96.91560679 -23.0887933 94.18538284 -23.06330872 91.45492554 C-23.05327304 89.5988105 -23.04414821 87.74269029 -23.03596497 85.88656616 C-23.01396497 81.34672508 -22.97946652 76.80713172 -22.93830872 72.26742554 C-34.32584401 72.35180528 -45.71323888 72.44667963 -57.10057354 72.55495262 C-62.38817407 72.60489836 -67.67575479 72.65122869 -72.9634552 72.68930054 C-78.06637503 72.72617491 -83.16912842 72.77254096 -88.2719059 72.82548904 C-90.21871331 72.8440215 -92.16555638 72.85913371 -94.11241722 72.8707695 C-96.83930377 72.88765146 -99.56581011 72.91669143 -102.29255676 72.94857788 C-103.09744537 72.95073807 -103.90233398 72.95289825 -104.73161316 72.9551239 C-110.61669701 73.0420241 -110.61669701 73.0420241 -115.93830872 75.26742554 C-117.71168935 78.83449823 -118.18907713 81.73720854 -118.192276 85.69442749 C-118.19791565 86.77108673 -118.2035553 87.84774597 -118.20936584 88.95703125 C-118.20531738 90.12809418 -118.20126892 91.2991571 -118.19709778 92.50570679 C-118.20060242 93.74686249 -118.20410706 94.98801819 -118.2077179 96.26678467 C-118.21500512 99.66349613 -118.21330679 103.05996351 -118.20695972 106.45666122 C-118.20188837 110.0150866 -118.20659433 113.5735017 -118.20973206 117.13192749 C-118.21336839 123.10712552 -118.20858134 129.08227408 -118.1990509 135.0574646 C-118.18816697 141.96086626 -118.19169279 148.86414977 -118.20270371 155.76754856 C-118.21178607 161.69974814 -118.21305723 167.63191219 -118.20782638 173.56411648 C-118.20471189 177.10493849 -118.20428299 180.64570501 -118.21089935 184.18652344 C-118.21776084 188.13411027 -118.20824452 192.08156526 -118.19709778 196.02914429 C-118.20114624 197.20020721 -118.2051947 198.37127014 -118.20936584 199.57781982 C-118.2037262 200.65447906 -118.19808655 201.73113831 -118.192276 202.84042358 C-118.19152195 203.77323654 -118.1907679 204.7060495 -118.189991 205.66712952 C-117.91092615 208.55033294 -117.22811729 210.67900928 -115.93830872 213.26742554 C-111.89099443 215.73859324 -107.61705965 215.52894569 -103.01252747 215.46273804 C-102.26493668 215.45990814 -101.51734589 215.45707825 -100.74710083 215.4541626 C-98.37316992 215.44302022 -95.99962447 215.41792716 -93.62580872 215.39242554 C-92.01057981 215.38238803 -90.39534496 215.37326353 -88.78010559 215.36508179 C-84.83269278 215.34310043 -80.88556597 215.3086121 -76.93830872 215.26742554 C-77.57639465 214.64094116 -78.21448059 214.01445679 -78.87190247 213.36898804 C-80.11133606 212.1430896 -80.11133606 212.1430896 -81.37580872 210.89242554 C-82.61137512 209.67426147 -82.61137512 209.67426147 -83.87190247 208.43148804 C-87.02325323 205.13120765 -87.2994033 202.82215481 -87.20783997 198.24398804 C-86.93830872 196.26742554 -86.93830872 196.26742554 -85.43830872 193.76742554 C-82.61467254 192.07324383 -80.35960579 191.51526339 -77.05671692 191.69760132 C-74.48119471 192.39038325 -73.25587198 193.39872284 -71.29377747 195.19711304 C-70.6010675 195.83076782 -69.90835754 196.46442261 -69.19465637 197.11727905 C-65.07085035 201.04698687 -61.01933638 205.04277921 -57.00080872 209.07992554 C-56.13907043 209.93779663 -55.27733215 210.79566772 -54.38948059 211.67953491 C-53.57157043 212.49873413 -52.75366028 213.31793335 -51.91096497 214.16195679 C-51.17112366 214.90292603 -50.43128235 215.64389526 -49.66902161 216.40731812 C-46.87475126 219.4104985 -46.40620342 221.96330657 -46.47468567 226.07821655 C-47.04531226 228.77269186 -47.99554504 229.90246863 -49.85627747 231.91976929 C-50.80929749 232.95714233 -50.80929749 232.95714233 -51.78157043 234.01547241 C-55.72177435 238.12962692 -59.71340844 242.18614509 -63.75080872 246.20492554 C-64.60867981 247.06666382 -65.4665509 247.9284021 -66.35041809 248.81625366 C-67.16961731 249.63416382 -67.98881653 250.45207397 -68.83283997 251.29476929 C-69.5738092 252.0346106 -70.31477844 252.7744519 -71.07820129 253.53671265 C-74.20464516 256.44567191 -76.70500005 256.62209171 -80.96174622 256.53695679 C-82.93830872 256.26742554 -82.93830872 256.26742554 -85.43830872 254.76742554 C-87.12106611 251.96282989 -87.67929428 249.70970782 -87.53205872 246.42758179 C-86.35291887 242.13768484 -83.06150606 239.28361827 -79.93830872 236.26742554 C-78.93709788 235.26863784 -77.93690052 234.26883176 -76.93830872 233.26742554 C-78.7384845 233.25340698 -78.7384845 233.25340698 -80.57502747 233.23910522 C-85.05570189 233.19903434 -89.535702 233.1332287 -94.01594543 233.05990601 C-95.94977615 233.03179518 -97.88371965 233.01053175 -99.81770325 232.99642944 C-102.60848827 232.97486233 -105.39793131 232.92814298 -108.18830872 232.87680054 C-109.04384338 232.8755719 -109.89937805 232.87434326 -110.78083801 232.87307739 C-117.67434755 232.70735826 -122.95742409 230.87959447 -128.18049622 226.30258179 C-128.9887384 225.32611694 -128.9887384 225.32611694 -129.81330872 224.32992554 C-130.36760559 223.6815271 -130.92190247 223.03312866 -131.49299622 222.36508179 C-134.41475052 218.12458973 -135.18915294 214.43535566 -135.20573425 209.32911682 C-135.21426422 208.1389949 -135.22279419 206.94887299 -135.23158264 205.72268677 C-135.23067627 204.42542664 -135.2297699 203.1281665 -135.22883606 201.79159546 C-135.23482369 200.40483743 -135.24162978 199.01808274 -135.24919128 197.6313324 C-135.26683583 193.87086279 -135.27154604 190.11048425 -135.27282286 186.34997725 C-135.27424603 183.99820943 -135.27851879 181.64646463 -135.28381729 179.29470253 C-135.30231328 171.08336547 -135.31048855 162.87209328 -135.30891418 154.66073608 C-135.30771327 147.01773194 -135.32880666 139.37501042 -135.36040151 131.73207778 C-135.38659249 125.16119221 -135.39728028 118.59039879 -135.39600337 112.01946145 C-135.39549451 108.09896009 -135.40113505 104.1787099 -135.42235947 100.25826073 C-135.44178939 96.56862491 -135.44183438 92.87947861 -135.4273262 89.18982506 C-135.42425354 87.19944246 -135.44088172 85.20905957 -135.45820618 83.21875 C-135.40064089 74.99406581 -134.54713406 69.3856477 -128.97346497 63.02523804 C-128.3224884 62.48640991 -127.67151184 61.94758179 -127.00080872 61.39242554 C-126.02821106 60.56098022 -126.02821106 60.56098022 -125.03596497 59.71273804 C-119.69459979 56.0324678 -114.92483388 55.98853355 -108.64997864 56.04037476 C-107.25899963 56.03993668 -107.25899963 56.03993668 -105.83992004 56.03948975 C-102.78277648 56.04088018 -99.72587832 56.05642804 -96.66877747 56.07211304 C-94.54600152 56.07584418 -92.42322384 56.07869067 -90.30044556 56.08068848 C-84.71911344 56.08831693 -79.13788576 56.10795874 -73.55659485 56.13009644 C-67.85897738 56.15057177 -62.16134301 56.15969381 -56.46369934 56.16976929 C-45.2885233 56.19120531 -34.1134247 56.22533183 -22.93830872 56.26742554 C-22.96972961 54.55812866 -22.96972961 54.55812866 -23.00178528 52.81430054 C-23.07457486 48.55775685 -23.12024914 44.3012674 -23.15803528 40.04428101 C-23.17806245 38.2072726 -23.20529254 36.37032724 -23.24006653 34.53353882 C-23.28897936 31.88217552 -23.31136635 29.23166013 -23.32893372 26.57992554 C-23.34957886 25.76813843 -23.370224 24.95635132 -23.39149475 24.1199646 C-23.39412617 17.3245776 -21.47091866 12.15752118 -16.97346497 7.02523804 C-16.3224884 6.48640991 -15.67151184 5.94758179 -15.00080872 5.39242554 C-14.35241028 4.83812866 -13.70401184 4.28383179 -13.03596497 3.71273804 C-8.79547291 0.79098373 -5.10623884 0.01658131 0 0 Z M-4.93830872 19.26742554 C-7.40394373 23.26048137 -7.22866428 27.51737931 -7.21296692 32.08358765 C-7.21807785 32.85496567 -7.22318878 33.62634369 -7.22845459 34.4210968 C-7.24231613 36.96240063 -7.24139648 39.50343222 -7.23908997 42.04476929 C-7.24297869 43.81687012 -7.24731372 45.58897002 -7.2520752 47.36106873 C-7.25952993 51.07231673 -7.25925147 54.78346959 -7.25398254 58.49472046 C-7.24818785 63.2438264 -7.26512245 67.99254235 -7.28832722 72.74158382 C-7.3030791 76.40051031 -7.3039343 80.05934318 -7.30081749 83.71829414 C-7.30132993 85.46893651 -7.30655326 87.21958423 -7.31662941 88.97019768 C-7.32900533 91.42101055 -7.32219567 93.87106757 -7.31062317 96.3218689 C-7.31826691 97.0405011 -7.32591064 97.7591333 -7.33378601 98.49954224 C-7.28550643 103.13975409 -6.56165718 106.41369244 -3.93830872 110.26742554 C-0.38502506 112.06196888 2.52964494 112.51941183 6.48196411 112.52812195 C7.55717819 112.53520676 8.63239227 112.54229156 9.7401886 112.54959106 C10.90968048 112.54711365 12.07917236 112.54463623 13.28410339 112.54208374 C14.5236528 112.54719467 15.76320221 112.5523056 17.04031372 112.55757141 C20.43295499 112.56907944 23.82535172 112.57154269 27.21799541 112.56900811 C30.05344935 112.56793688 32.88888087 112.57282563 35.72433001 112.57761353 C42.41517004 112.58870075 49.10595393 112.58915051 55.79679871 112.58309937 C62.69226721 112.57705893 69.58753171 112.58937403 76.48296541 112.61066943 C82.41008805 112.62829924 88.33714584 112.63428464 94.26429373 112.63103169 C97.80127199 112.62922093 101.33810468 112.63183417 104.87505913 112.64574623 C108.82008208 112.66068341 112.7648462 112.65134234 116.70988464 112.63973999 C117.87735229 112.64738373 119.04481995 112.65502747 120.24766541 112.66290283 C128.12914018 112.69527105 128.12914018 112.69527105 135.06169128 109.26742554 C137.5273263 105.27436971 137.35204685 101.01747176 137.33634949 96.45126343 C137.34146042 95.67988541 137.34657135 94.90850739 137.35183716 94.11375427 C137.3656987 91.57245044 137.36477905 89.03141885 137.36247253 86.49008179 C137.36636126 84.71798095 137.37069629 82.94588105 137.37545776 81.17378235 C137.3829125 77.46253434 137.38263404 73.75138149 137.37736511 70.04013062 C137.37157042 65.29102467 137.38850502 60.54230872 137.41170979 55.79326725 C137.42646167 52.13434076 137.42731686 48.47550789 137.42420006 44.81655693 C137.4247125 43.06591456 137.42993583 41.31526684 137.44001198 39.5646534 C137.4523879 37.11384053 137.44557824 34.6637835 137.43400574 32.21298218 C137.44164948 31.49434998 137.44929321 30.77571777 137.45716858 30.03530884 C137.408889 25.39509699 136.68503975 22.12115863 134.06169128 18.26742554 C130.50840762 16.47288219 127.59373763 16.01543924 123.64141846 16.00672913 C122.56620438 15.99964432 121.4909903 15.99255951 120.38319397 15.98526001 C118.62895615 15.98897614 118.62895615 15.98897614 116.83927917 15.99276733 C115.59972977 15.9876564 114.36018036 15.98254547 113.08306885 15.97727966 C109.69042758 15.96577163 106.29803085 15.96330839 102.90538716 15.96584296 C100.06993321 15.96691419 97.2345017 15.96202544 94.39905256 15.95723754 C87.70821253 15.94615033 81.01742864 15.94570057 74.32658386 15.95175171 C67.43111535 15.95779214 60.53585086 15.94547704 53.64041716 15.92418164 C47.71329451 15.90655184 41.78623673 15.90056643 35.85908884 15.90381938 C32.32211058 15.90563014 28.78527788 15.9030169 25.24832344 15.88910484 C21.30330049 15.87416766 17.35853637 15.88350874 13.41349792 15.89511108 C12.24603027 15.88746735 11.07856262 15.87982361 9.87571716 15.87194824 C1.99424238 15.83958002 1.99424238 15.83958002 -4.93830872 19.26742554 Z " fill="#000000" transform="translate(190.9383087158203,191.73257446289063)"/>
<path d="M0 0 C1.19012192 -0.00852997 2.38024384 -0.01705994 3.60643005 -0.02584839 C5.55232025 -0.02448883 5.55232025 -0.02448883 7.53752136 -0.02310181 C8.92427939 -0.02908944 10.31103409 -0.03589553 11.69778442 -0.04345703 C15.45825403 -0.06110158 19.21863257 -0.06581179 22.97913957 -0.0670886 C25.3309074 -0.06851177 27.68265219 -0.07278453 30.03441429 -0.07808304 C38.24575135 -0.09657903 46.45702354 -0.1047543 54.66838074 -0.10317993 C62.31138488 -0.10197902 69.9541064 -0.12307241 77.59703904 -0.15466726 C84.16792461 -0.18085823 90.73871803 -0.19154603 97.30965537 -0.19026911 C101.23015673 -0.18976025 105.15040692 -0.1954008 109.07085609 -0.21662521 C112.76049191 -0.23605513 116.44963821 -0.23610013 120.13929176 -0.22159195 C122.12967436 -0.21851929 124.12005725 -0.23514747 126.11036682 -0.25247192 C134.33505102 -0.19490663 139.94346912 0.65860019 146.30387878 6.23226929 C146.84270691 6.88324585 147.38153503 7.53422241 147.93669128 8.20492554 C148.49098816 8.85332397 149.04528503 9.50172241 149.61637878 10.16976929 C153.24633118 15.4381056 153.33421279 20.09927633 153.25700378 26.28695679 C153.25417389 27.1455278 153.25134399 28.00409882 153.24842834 28.88868713 C153.23727199 31.61924429 153.21217587 34.34946824 153.18669128 37.07992554 C153.17665561 38.93604058 153.16753078 40.79216078 153.15934753 42.64828491 C153.13734754 47.18812599 153.10284909 51.72771935 153.06169128 56.26742554 C154.23409363 56.25854309 155.40649597 56.24966064 156.61442566 56.24050903 C167.67842032 56.15932305 178.74235432 56.09941196 189.80657959 56.06017685 C195.49444522 56.03932735 201.18206982 56.0110575 206.86979675 55.96566772 C212.36168274 55.9221165 217.8533373 55.89826859 223.34538269 55.88791656 C225.43770489 55.88054189 227.53001483 55.86614086 229.62223816 55.84450531 C232.55936271 55.81534839 235.49553839 55.81147471 238.43278503 55.81332397 C239.29234299 55.79894287 240.15190094 55.78456177 241.0375061 55.76974487 C247.90362625 55.81633563 253.11084506 57.68157946 258.30387878 62.23226929 C258.84270691 62.88324585 259.38153503 63.53422241 259.93669128 64.20492554 C260.49098816 64.85332397 261.04528503 65.50172241 261.61637878 66.16976929 C264.53813309 70.41026134 265.31253551 74.09949541 265.32911682 79.20573425 C265.34191177 80.99091713 265.34191177 80.99091713 265.35496521 82.81216431 C265.35405884 84.10942444 265.35315247 85.40668457 265.35221863 86.74325562 C265.35820626 88.13001364 265.36501235 89.51676834 265.37257385 90.90351868 C265.3902184 94.66398828 265.39492861 98.42436682 265.39620543 102.18487382 C265.39762859 104.53664165 265.40190135 106.88838644 265.40719986 109.24014854 C265.42569585 117.4514856 265.43387112 125.66275779 265.43229675 133.87411499 C265.43109584 141.51711913 265.45218923 149.15984065 265.48378408 156.8027733 C265.50997505 163.37365886 265.52066285 169.94445229 265.51938593 176.51538962 C265.51887708 180.43589099 265.52451762 184.35614117 265.54574203 188.27659035 C265.56517195 191.96622617 265.56521695 195.65537246 265.55070877 199.34502602 C265.54763611 201.33540861 265.56426429 203.3257915 265.58158875 205.31610107 C265.52402345 213.54078527 264.67051663 219.14920338 259.09684753 225.50961304 C258.44587097 226.04844116 257.79489441 226.58726929 257.12419128 227.14242554 C256.47579285 227.69672241 255.82739441 228.25101929 255.15934753 228.82211304 C249.82100436 232.50030107 244.88501471 232.5981997 238.60466003 232.68148804 C237.25021538 232.71053726 237.25021538 232.71053726 235.8684082 232.74017334 C232.99543081 232.79976636 230.12241292 232.84627323 227.24919128 232.89242554 C225.29670023 232.93062399 223.34422569 232.9696768 221.39176941 233.00961304 C216.61521145 233.10545123 211.83857462 233.18955705 207.06169128 233.26742554 C207.69977722 233.89390991 208.33786316 234.52039429 208.99528503 235.16586304 C210.23471863 236.39176147 210.23471863 236.39176147 211.49919128 237.64242554 C212.32290222 238.45453491 213.14661316 239.26664429 213.99528503 240.10336304 C217.1466358 243.40364342 217.42278587 245.71269627 217.33122253 250.29086304 C217.06169128 252.26742554 217.06169128 252.26742554 215.56169128 254.76742554 C212.73805511 256.46160724 210.48298836 257.01958768 207.18009949 256.83724976 C204.60457728 256.14446782 203.37925455 255.13612823 201.41716003 253.33773804 C200.72445007 252.70408325 200.03174011 252.07042847 199.31803894 251.41757202 C195.19423292 247.48786421 191.14271895 243.49207186 187.12419128 239.45492554 C186.262453 238.59705444 185.40071472 237.73918335 184.51286316 236.85531616 C183.694953 236.03611694 182.87704285 235.21691772 182.03434753 234.37289429 C181.29450623 233.63192505 180.55466492 232.89095581 179.79240417 232.12753296 C176.99813383 229.12435257 176.52958599 226.57154451 176.59806824 222.45663452 C177.16869482 219.76215921 178.11892761 218.63238244 179.97966003 216.61508179 C180.93268005 215.57770874 180.93268005 215.57770874 181.904953 214.51937866 C185.84515692 210.40522415 189.83679101 206.34870598 193.87419128 202.32992554 C194.73206238 201.46818726 195.58993347 200.60644897 196.47380066 199.71859741 C197.29299988 198.90068726 198.1121991 198.0827771 198.95622253 197.24008179 C199.69719177 196.50024048 200.43816101 195.76039917 201.20158386 194.99813843 C204.32802773 192.08917917 206.82838261 191.91275936 211.08512878 191.99789429 C213.06169128 192.26742554 213.06169128 192.26742554 215.56169128 193.76742554 C217.24444868 196.57202119 217.80267684 198.82514325 217.65544128 202.10726929 C216.47630144 206.39716623 213.18488863 209.25123281 210.06169128 212.26742554 C209.06048045 213.26621323 208.06028308 214.26601932 207.06169128 215.26742554 C211.8122456 215.31699389 216.56264816 215.35322463 221.31340027 215.37728882 C222.92833581 215.3873245 224.54325329 215.40095605 226.15812683 215.41830444 C228.48410003 215.44266018 230.80983223 215.45393301 233.13591003 215.46273804 C233.8538121 215.47306061 234.57171417 215.48338318 235.31137085 215.49401855 C239.3094543 215.4949063 242.6057773 215.3775021 246.06169128 213.26742554 C247.83829905 209.70208994 248.31246017 206.79706083 248.31565857 202.84042358 C248.32129822 201.76376434 248.32693787 200.6871051 248.33274841 199.57781982 C248.32869995 198.4067569 248.32465149 197.23569397 248.32048035 196.02914429 C248.32398499 194.78798859 248.32748962 193.54683289 248.33110046 192.26806641 C248.33838769 188.87135494 248.33668936 185.47488757 248.33034229 182.07818985 C248.32527094 178.51976448 248.3299769 174.96134938 248.33311462 171.40292358 C248.33675096 165.42772555 248.33196391 159.45257699 248.32243347 153.47738647 C248.31154954 146.57398482 248.31507535 139.67070131 248.32608628 132.76730251 C248.33516864 126.83510294 248.3364398 120.90293888 248.33120894 114.9707346 C248.32809446 111.42991258 248.32766555 107.88914606 248.33428192 104.34832764 C248.34114341 100.40074081 248.33162709 96.45328581 248.32048035 92.50570679 C248.32655304 90.7491124 248.32655304 90.7491124 248.33274841 88.95703125 C248.32710876 87.88037201 248.32146912 86.80371277 248.31565857 85.69442749 C248.31490452 84.76161453 248.31415047 83.82880157 248.31337357 82.86772156 C248.03440892 79.98555341 247.34857239 77.85592705 246.06169128 75.26742554 C241.86906859 72.66780859 237.20401862 72.96142829 232.41593933 72.94857788 C231.55689499 72.93853226 230.69785065 72.92848663 229.81277466 72.9181366 C226.98299304 72.88733004 224.15330593 72.87027646 221.32341003 72.85336304 C219.35756621 72.83464936 217.39173039 72.8150758 215.42590332 72.79467773 C210.25895413 72.74337167 205.09197891 72.70373771 199.9249115 72.66653442 C194.64947578 72.62648528 189.37414823 72.57539707 184.09880066 72.52523804 C173.75317354 72.42849678 163.40748532 72.34408615 153.06169128 72.26742554 C153.08263855 73.40695679 153.10358582 74.54648804 153.12516785 75.72055054 C153.19795742 79.97709423 153.24363171 84.23358367 153.28141785 88.49057007 C153.30144502 90.32757847 153.32867511 92.16452383 153.3634491 94.00131226 C153.41236193 96.65267556 153.43474892 99.30319095 153.45231628 101.95492554 C153.483284 103.1726062 153.483284 103.1726062 153.51487732 104.41488647 C153.51750874 111.21027348 151.59430123 116.3773299 147.09684753 121.50961304 C146.44587097 122.04844116 145.79489441 122.58726929 145.12419128 123.14242554 C144.47579285 123.69672241 143.82739441 124.25101929 143.15934753 124.82211304 C138.91885548 127.74386734 135.22962141 128.51826976 130.12338257 128.53485107 C128.93326065 128.54338104 127.74313873 128.55191101 126.51695251 128.56069946 C125.21969238 128.55979309 123.92243225 128.55888672 122.58586121 128.55795288 C121.19910318 128.56394051 119.81234848 128.5707466 118.42559814 128.57830811 C114.66512854 128.59595265 110.90475 128.60066286 107.144243 128.60193968 C104.79247517 128.60336285 102.44073038 128.60763561 100.08896828 128.61293411 C91.87763122 128.6314301 83.66635903 128.63960537 75.45500183 128.63803101 C67.81199769 128.63683009 60.16927617 128.65792348 52.52634352 128.68951833 C45.95545796 128.71570931 39.38466454 128.72639711 32.8137272 128.72512019 C28.89322584 128.72461133 24.97297565 128.73025187 21.05252647 128.75147629 C17.36289065 128.77090621 13.67374436 128.7709512 9.98409081 128.75644302 C7.99370821 128.75337036 6.00332532 128.76999854 4.01301575 128.787323 C-4.21166845 128.72975771 -9.82008655 127.87625088 -16.18049622 122.30258179 C-16.71932434 121.65160522 -17.25815247 121.00062866 -17.81330872 120.32992554 C-18.36760559 119.6815271 -18.92190247 119.03312866 -19.49299622 118.36508179 C-23.11827802 113.10352414 -23.23544232 108.38174171 -23.22883606 102.19784546 C-23.23555328 101.29313004 -23.24227051 100.38841461 -23.24919128 99.45628357 C-23.26816424 96.47009768 -23.27209524 93.48413667 -23.27424622 90.49789429 C-23.28067498 88.41670134 -23.28740341 86.33550929 -23.29441833 84.25431824 C-23.3063896 79.89237371 -23.31009934 75.53050838 -23.30891418 71.16854858 C-23.30871109 65.59003881 -23.33600443 60.01203901 -23.3704586 54.43365002 C-23.3927405 50.13469631 -23.39675131 45.83586504 -23.39569473 41.53685951 C-23.39804908 39.48084062 -23.40686318 37.42481827 -23.42235947 35.36885643 C-23.44204379 32.48727513 -23.43617151 29.60678968 -23.42414856 26.72518921 C-23.43538757 25.88283722 -23.44662659 25.04048523 -23.45820618 24.17260742 C-23.38641427 17.37163849 -21.47928687 12.16707059 -16.97346497 7.02523804 C-16.3224884 6.48640991 -15.67151184 5.94758179 -15.00080872 5.39242554 C-14.35241028 4.83812866 -13.70401184 4.28383179 -13.03596497 3.71273804 C-8.79547291 0.79098373 -5.10623884 0.01658131 0 0 Z M-4.93830872 19.26742554 C-7.40394373 23.26048137 -7.22866428 27.51737931 -7.21296692 32.08358765 C-7.21807785 32.85496567 -7.22318878 33.62634369 -7.22845459 34.4210968 C-7.24231613 36.96240063 -7.24139648 39.50343222 -7.23908997 42.04476929 C-7.24297869 43.81687012 -7.24731372 45.58897002 -7.2520752 47.36106873 C-7.25952993 51.07231673 -7.25925147 54.78346959 -7.25398254 58.49472046 C-7.24818785 63.2438264 -7.26512245 67.99254235 -7.28832722 72.74158382 C-7.3030791 76.40051031 -7.3039343 80.05934318 -7.30081749 83.71829414 C-7.30132993 85.46893651 -7.30655326 87.21958423 -7.31662941 88.97019768 C-7.32900533 91.42101055 -7.32219567 93.87106757 -7.31062317 96.3218689 C-7.31826691 97.0405011 -7.32591064 97.7591333 -7.33378601 98.49954224 C-7.28550643 103.13975409 -6.56165718 106.41369244 -3.93830872 110.26742554 C-0.38502506 112.06196888 2.52964494 112.51941183 6.48196411 112.52812195 C7.55717819 112.53520676 8.63239227 112.54229156 9.7401886 112.54959106 C10.90968048 112.54711365 12.07917236 112.54463623 13.28410339 112.54208374 C14.5236528 112.54719467 15.76320221 112.5523056 17.04031372 112.55757141 C20.43295499 112.56907944 23.82535172 112.57154269 27.21799541 112.56900811 C30.05344935 112.56793688 32.88888087 112.57282563 35.72433001 112.57761353 C42.41517004 112.58870075 49.10595393 112.58915051 55.79679871 112.58309937 C62.69226721 112.57705893 69.58753171 112.58937403 76.48296541 112.61066943 C82.41008805 112.62829924 88.33714584 112.63428464 94.26429373 112.63103169 C97.80127199 112.62922093 101.33810468 112.63183417 104.87505913 112.64574623 C108.82008208 112.66068341 112.7648462 112.65134234 116.70988464 112.63973999 C117.87735229 112.64738373 119.04481995 112.65502747 120.24766541 112.66290283 C128.12914018 112.69527105 128.12914018 112.69527105 135.06169128 109.26742554 C137.5273263 105.27436971 137.35204685 101.01747176 137.33634949 96.45126343 C137.34146042 95.67988541 137.34657135 94.90850739 137.35183716 94.11375427 C137.3656987 91.57245044 137.36477905 89.03141885 137.36247253 86.49008179 C137.36636126 84.71798095 137.37069629 82.94588105 137.37545776 81.17378235 C137.3829125 77.46253434 137.38263404 73.75138149 137.37736511 70.04013062 C137.37157042 65.29102467 137.38850502 60.54230872 137.41170979 55.79326725 C137.42646167 52.13434076 137.42731686 48.47550789 137.42420006 44.81655693 C137.4247125 43.06591456 137.42993583 41.31526684 137.44001198 39.5646534 C137.4523879 37.11384053 137.44557824 34.6637835 137.43400574 32.21298218 C137.44164948 31.49434998 137.44929321 30.77571777 137.45716858 30.03530884 C137.408889 25.39509699 136.68503975 22.12115863 134.06169128 18.26742554 C130.50840762 16.47288219 127.59373763 16.01543924 123.64141846 16.00672913 C122.56620438 15.99964432 121.4909903 15.99255951 120.38319397 15.98526001 C118.62895615 15.98897614 118.62895615 15.98897614 116.83927917 15.99276733 C115.59972977 15.9876564 114.36018036 15.98254547 113.08306885 15.97727966 C109.69042758 15.96577163 106.29803085 15.96330839 102.90538716 15.96584296 C100.06993321 15.96691419 97.2345017 15.96202544 94.39905256 15.95723754 C87.70821253 15.94615033 81.01742864 15.94570057 74.32658386 15.95175171 C67.43111535 15.95779214 60.53585086 15.94547704 53.64041716 15.92418164 C47.71329451 15.90655184 41.78623673 15.90056643 35.85908884 15.90381938 C32.32211058 15.90563014 28.78527788 15.9030169 25.24832344 15.88910484 C21.30330049 15.87416766 17.35853637 15.88350874 13.41349792 15.89511108 C12.24603027 15.88746735 11.07856262 15.87982361 9.87571716 15.87194824 C1.99424238 15.83958002 1.99424238 15.83958002 -4.93830872 19.26742554 Z " fill="#000000" transform="translate(190.9383087158203,31.732574462890625)"/>
<path d="M0 0 C1.19012192 -0.00852997 2.38024384 -0.01705994 3.60643005 -0.02584839 C5.55232025 -0.02448883 5.55232025 -0.02448883 7.53752136 -0.02310181 C8.92427939 -0.02908944 10.31103409 -0.03589553 11.69778442 -0.04345703 C15.45825403 -0.06110158 19.21863257 -0.06581179 22.97913957 -0.0670886 C25.3309074 -0.06851177 27.68265219 -0.07278453 30.03441429 -0.07808304 C38.24575135 -0.09657903 46.45702354 -0.1047543 54.66838074 -0.10317993 C62.31138488 -0.10197902 69.9541064 -0.12307241 77.59703904 -0.15466726 C84.16792461 -0.18085823 90.73871803 -0.19154603 97.30965537 -0.19026911 C101.23015673 -0.18976025 105.15040692 -0.1954008 109.07085609 -0.21662521 C112.76049191 -0.23605513 116.44963821 -0.23610013 120.13929176 -0.22159195 C122.12967436 -0.21851929 124.12005725 -0.23514747 126.11036682 -0.25247192 C134.33505102 -0.19490663 139.94346912 0.65860019 146.30387878 6.23226929 C146.84270691 6.88324585 147.38153503 7.53422241 147.93669128 8.20492554 C148.49098816 8.85332397 149.04528503 9.50172241 149.61637878 10.16976929 C153.24166059 15.43132693 153.35882488 20.15310937 153.35221863 26.33700562 C153.35893585 27.24172104 153.36565308 28.14643646 153.37257385 29.0785675 C153.39154681 32.06475339 153.39547781 35.0507144 153.39762878 38.03695679 C153.40405755 40.11814974 153.41078597 42.19934178 153.4178009 44.28053284 C153.42977217 48.64247736 153.43348191 53.0043427 153.43229675 57.36630249 C153.43209366 62.94481226 153.459387 68.52281206 153.49384117 74.10120106 C153.51612307 78.40015476 153.52013388 82.69898603 153.5190773 86.99799156 C153.52143165 89.05401045 153.53024574 91.1100328 153.54574203 93.16599464 C153.56542636 96.04757595 153.55955407 98.9280614 153.54753113 101.80966187 C153.55877014 102.65201385 153.57000916 103.49436584 153.58158875 104.36224365 C153.50979684 111.16321258 151.60266944 116.36778049 147.09684753 121.50961304 C146.44587097 122.04844116 145.79489441 122.58726929 145.12419128 123.14242554 C144.47579285 123.69672241 143.82739441 124.25101929 143.15934753 124.82211304 C138.91885548 127.74386734 135.22962141 128.51826976 130.12338257 128.53485107 C128.93326065 128.54338104 127.74313873 128.55191101 126.51695251 128.56069946 C125.21969238 128.55979309 123.92243225 128.55888672 122.58586121 128.55795288 C121.19910318 128.56394051 119.81234848 128.5707466 118.42559814 128.57830811 C114.66512854 128.59595265 110.90475 128.60066286 107.144243 128.60193968 C104.79247517 128.60336285 102.44073038 128.60763561 100.08896828 128.61293411 C91.87763122 128.6314301 83.66635903 128.63960537 75.45500183 128.63803101 C67.81199769 128.63683009 60.16927617 128.65792348 52.52634352 128.68951833 C45.95545796 128.71570931 39.38466454 128.72639711 32.8137272 128.72512019 C28.89322584 128.72461133 24.97297565 128.73025187 21.05252647 128.75147629 C17.36289065 128.77090621 13.67374436 128.7709512 9.98409081 128.75644302 C7.99370821 128.75337036 6.00332532 128.76999854 4.01301575 128.787323 C-4.21166845 128.72975771 -9.82008655 127.87625088 -16.18049622 122.30258179 C-16.71932434 121.65160522 -17.25815247 121.00062866 -17.81330872 120.32992554 C-18.36760559 119.6815271 -18.92190247 119.03312866 -19.49299622 118.36508179 C-23.11827802 113.10352414 -23.23544232 108.38174171 -23.22883606 102.19784546 C-23.23555328 101.29313004 -23.24227051 100.38841461 -23.24919128 99.45628357 C-23.26816424 96.47009768 -23.27209524 93.48413667 -23.27424622 90.49789429 C-23.28067498 88.41670134 -23.28740341 86.33550929 -23.29441833 84.25431824 C-23.3063896 79.89237371 -23.31009934 75.53050838 -23.30891418 71.16854858 C-23.30871109 65.59003881 -23.33600443 60.01203901 -23.3704586 54.43365002 C-23.3927405 50.13469631 -23.39675131 45.83586504 -23.39569473 41.53685951 C-23.39804908 39.48084062 -23.40686318 37.42481827 -23.42235947 35.36885643 C-23.44204379 32.48727513 -23.43617151 29.60678968 -23.42414856 26.72518921 C-23.43538757 25.88283722 -23.44662659 25.04048523 -23.45820618 24.17260742 C-23.38641427 17.37163849 -21.47928687 12.16707059 -16.97346497 7.02523804 C-16.3224884 6.48640991 -15.67151184 5.94758179 -15.00080872 5.39242554 C-14.35241028 4.83812866 -13.70401184 4.28383179 -13.03596497 3.71273804 C-8.79547291 0.79098373 -5.10623884 0.01658131 0 0 Z M-4.93830872 19.26742554 C-7.40394373 23.26048137 -7.22866428 27.51737931 -7.21296692 32.08358765 C-7.21807785 32.85496567 -7.22318878 33.62634369 -7.22845459 34.4210968 C-7.24231613 36.96240063 -7.24139648 39.50343222 -7.23908997 42.04476929 C-7.24297869 43.81687012 -7.24731372 45.58897002 -7.2520752 47.36106873 C-7.25952993 51.07231673 -7.25925147 54.78346959 -7.25398254 58.49472046 C-7.24818785 63.2438264 -7.26512245 67.99254235 -7.28832722 72.74158382 C-7.3030791 76.40051031 -7.3039343 80.05934318 -7.30081749 83.71829414 C-7.30132993 85.46893651 -7.30655326 87.21958423 -7.31662941 88.97019768 C-7.32900533 91.42101055 -7.32219567 93.87106757 -7.31062317 96.3218689 C-7.31826691 97.0405011 -7.32591064 97.7591333 -7.33378601 98.49954224 C-7.28550643 103.13975409 -6.56165718 106.41369244 -3.93830872 110.26742554 C-0.38502506 112.06196888 2.52964494 112.51941183 6.48196411 112.52812195 C7.55717819 112.53520676 8.63239227 112.54229156 9.7401886 112.54959106 C10.90968048 112.54711365 12.07917236 112.54463623 13.28410339 112.54208374 C14.5236528 112.54719467 15.76320221 112.5523056 17.04031372 112.55757141 C20.43295499 112.56907944 23.82535172 112.57154269 27.21799541 112.56900811 C30.05344935 112.56793688 32.88888087 112.57282563 35.72433001 112.57761353 C42.41517004 112.58870075 49.10595393 112.58915051 55.79679871 112.58309937 C62.69226721 112.57705893 69.58753171 112.58937403 76.48296541 112.61066943 C82.41008805 112.62829924 88.33714584 112.63428464 94.26429373 112.63103169 C97.80127199 112.62922093 101.33810468 112.63183417 104.87505913 112.64574623 C108.82008208 112.66068341 112.7648462 112.65134234 116.70988464 112.63973999 C117.87735229 112.64738373 119.04481995 112.65502747 120.24766541 112.66290283 C128.12914018 112.69527105 128.12914018 112.69527105 135.06169128 109.26742554 C137.5273263 105.27436971 137.35204685 101.01747176 137.33634949 96.45126343 C137.34146042 95.67988541 137.34657135 94.90850739 137.35183716 94.11375427 C137.3656987 91.57245044 137.36477905 89.03141885 137.36247253 86.49008179 C137.36636126 84.71798095 137.37069629 82.94588105 137.37545776 81.17378235 C137.3829125 77.46253434 137.38263404 73.75138149 137.37736511 70.04013062 C137.37157042 65.29102467 137.38850502 60.54230872 137.41170979 55.79326725 C137.42646167 52.13434076 137.42731686 48.47550789 137.42420006 44.81655693 C137.4247125 43.06591456 137.42993583 41.31526684 137.44001198 39.5646534 C137.4523879 37.11384053 137.44557824 34.6637835 137.43400574 32.21298218 C137.44164948 31.49434998 137.44929321 30.77571777 137.45716858 30.03530884 C137.408889 25.39509699 136.68503975 22.12115863 134.06169128 18.26742554 C130.50840762 16.47288219 127.59373763 16.01543924 123.64141846 16.00672913 C122.56620438 15.99964432 121.4909903 15.99255951 120.38319397 15.98526001 C118.62895615 15.98897614 118.62895615 15.98897614 116.83927917 15.99276733 C115.59972977 15.9876564 114.36018036 15.98254547 113.08306885 15.97727966 C109.69042758 15.96577163 106.29803085 15.96330839 102.90538716 15.96584296 C100.06993321 15.96691419 97.2345017 15.96202544 94.39905256 15.95723754 C87.70821253 15.94615033 81.01742864 15.94570057 74.32658386 15.95175171 C67.43111535 15.95779214 60.53585086 15.94547704 53.64041716 15.92418164 C47.71329451 15.90655184 41.78623673 15.90056643 35.85908884 15.90381938 C32.32211058 15.90563014 28.78527788 15.9030169 25.24832344 15.88910484 C21.30330049 15.87416766 17.35853637 15.88350874 13.41349792 15.89511108 C12.24603027 15.88746735 11.07856262 15.87982361 9.87571716 15.87194824 C1.99424238 15.83958002 1.99424238 15.83958002 -4.93830872 19.26742554 Z " fill="#000000" transform="translate(190.9383087158203,351.7325744628906)"/>
</svg>
