<?xml version="1.0" encoding="UTF-8"?>
<svg version="1.1" xmlns="http://www.w3.org/2000/svg" width="512" height="512">
<path d="M0 0 C0.90298828 0.80630859 0.90298828 0.80630859 1.82421875 1.62890625 C22.16237608 20.54481482 34.96749151 51.41819983 36.12451172 78.96435547 C37.0130992 116.36781746 28.95052968 143.26602037 4.72265625 171.875 C-8.16674786 187.20009335 -18.16176106 203.79622019 -21 224 C-21.185625 225.093125 -21.37125 226.18625 -21.5625 227.3125 C-21.24064648 230.37257531 -21.24064648 230.37257531 -17.8125 232.25 C-17.17828125 232.65734375 -16.5440625 233.0646875 -15.890625 233.484375 C-11.26734584 237.19064011 -9.31340238 242.51068964 -8.58984375 248.2578125 C-8.39377087 255.60628294 -8.71128274 262.16710651 -13.62890625 267.8984375 C-18.45753296 272.52221338 -23.70207648 274.92220146 -30 277 C-29.95359375 277.67804688 -29.9071875 278.35609375 -29.859375 279.0546875 C-29.5580236 286.82524868 -30.43903841 293.60783252 -35.47265625 299.81640625 C-38.75882012 302.9161211 -41.61834537 304.22335976 -45.9375 305.4375 C-52.43772145 307.76182161 -54.34663216 313.41272344 -57.1328125 319.2265625 C-61.68368792 328.71973578 -69.21393906 336.80660026 -78.8359375 341.24609375 C-85.7358774 343.64986343 -93.19981379 343.71543272 -100 341 C-111.08773311 334.82498556 -117.26089018 326.11296998 -123.203125 315.26953125 C-123.79609375 314.19058594 -124.3890625 313.11164063 -125 312 C-125.4846875 311.06414062 -125.969375 310.12828125 -126.46875 309.1640625 C-128.28523077 306.59689324 -129.23532095 306.24238391 -132.25 305.5625 C-138.07533682 303.84805128 -141.92285564 301.09728035 -145.3203125 296.03125 C-148.53210125 289.83227311 -148.41726385 283.85008162 -148 277 C-148.78503906 276.731875 -149.57007813 276.46375 -150.37890625 276.1875 C-158.59101732 273.12433219 -164.19590524 269.67472737 -168.15234375 261.66796875 C-170.42714526 254.50810961 -170.05261414 246.26205927 -166.9375 239.4375 C-165.06404497 236.09551538 -163.4573355 234.46145744 -160.125 232.625 C-158.29431493 231.57115933 -158.29431493 231.57115933 -157 230 C-154.30220918 215.49026019 -165.19038246 195.52851855 -172.953125 184.1328125 C-176.2535817 179.62218834 -179.73274755 175.30049032 -183.3359375 171.03125 C-208.17649619 141.5715651 -216.62702575 111.96613994 -213.79785156 73.23242188 C-210.81546477 45.16422315 -197.26527685 20.17918942 -178 0 C-177.47535156 -0.5878125 -176.95070312 -1.175625 -176.41015625 -1.78125 C-156.56057195 -23.19657759 -125.40165423 -35.27971477 -96.6875 -36.93359375 C-58.89167837 -37.61423884 -27.59899389 -25.95562122 0 0 Z M-173 19 C-175.59607196 22.19747859 -177.83993656 25.49566905 -180 29 C-180.65613281 30.03511719 -181.31226563 31.07023437 -181.98828125 32.13671875 C-187.41289714 40.95859467 -191.04937057 50.09277709 -194 60 C-194.51240234 61.66289062 -194.51240234 61.66289062 -195.03515625 63.359375 C-200.84569569 86.38532666 -198.62950278 113.7109676 -188 135 C-187.31550781 136.38638672 -187.31550781 136.38638672 -186.6171875 137.80078125 C-181.79374398 146.75687362 -175.22816083 154.21569751 -168.70410156 161.96191406 C-151.39994225 182.65749027 -144.88368605 200.93504415 -139 228 C-106 228 -73 228 -39 228 C-36.525 216.615 -36.525 216.615 -34 205 C-32.13602368 199.76500267 -30.351935 194.96989863 -28 190 C-27.55011719 189.04351562 -27.10023438 188.08703125 -26.63671875 187.1015625 C-21.65347248 177.30351772 -14.48169266 168.97760213 -7.5 160.5625 C14.38860078 133.83984427 21.4930694 106.97632495 18.79785156 72.40722656 C18.27621294 68.13766368 17.26464482 64.10413037 16 60 C15.70198486 58.99936523 15.70198486 58.99936523 15.39794922 57.97851562 C6.95977978 30.14203758 -11.67665555 6.93154579 -37.15234375 -7.19335938 C-84.21032886 -31.91369332 -138.01157476 -19.70401023 -173 19 Z M-151.71289062 247.34512329 C-153.22721098 249.97692249 -153.22721098 249.97692249 -153 253.125 C-151.83437265 256.47617862 -150.99447764 257.20784272 -148 259 C-145.63915429 259.44676076 -145.63915429 259.44676076 -143.06616211 259.38095093 C-142.07357391 259.3894104 -141.08098572 259.39786987 -140.05831909 259.40658569 C-138.4342363 259.39747665 -138.4342363 259.39747665 -136.77734375 259.38818359 C-135.05972336 259.39606903 -135.05972336 259.39606903 -133.30740356 259.40411377 C-129.5172975 259.41733186 -125.72761044 259.40856889 -121.9375 259.3984375 C-119.30720946 259.4004577 -116.67691947 259.40336869 -114.04663086 259.40713501 C-108.53201751 259.41259126 -103.01752473 259.40540447 -97.50292969 259.39111328 C-91.12944978 259.3747869 -84.75625778 259.3800755 -78.38278484 259.3965925 C-72.24889497 259.41185171 -66.11513264 259.41023044 -59.98123169 259.4014473 C-57.37208008 259.39944333 -54.76292114 259.40191142 -52.15377808 259.40888596 C-48.50987162 259.41648843 -44.8665212 259.40491224 -41.22265625 259.38818359 C-40.13993439 259.39425629 -39.05721252 259.40032898 -37.94168091 259.40658569 C-36.94909271 259.39812622 -35.95650452 259.38966675 -34.93383789 259.38095093 C-33.64190269 259.37925431 -33.64190269 259.37925431 -32.3238678 259.37752342 C-29.45937202 258.9121724 -28.09750803 257.98001709 -26 256 C-24.82889551 253.1403994 -24.82889551 253.1403994 -25 250 C-26.1758272 247.12890675 -26.1758272 247.12890675 -29 245 C-32.79073504 244.2279472 -36.54916798 244.317584 -40.40625 244.35302734 C-41.5708374 244.34426575 -42.7354248 244.33550415 -43.93530273 244.32647705 C-47.79057915 244.30444382 -51.64471162 244.31905138 -55.5 244.3359375 C-58.17514477 244.33257053 -60.8502546 244.32772684 -63.52539062 244.32144165 C-69.13424101 244.31234747 -74.74276212 244.32432649 -80.3515625 244.34814453 C-86.83427569 244.37535594 -93.31620265 244.36654157 -99.79889679 244.3390125 C-105.36679052 244.31631541 -110.93444769 244.31312409 -116.50237274 244.32620585 C-119.82701192 244.33399735 -123.15120089 244.33308525 -126.47583008 244.31852341 C-130.18234738 244.30585248 -133.88734608 244.32514278 -137.59375 244.35302734 C-138.69517334 244.34290619 -139.79659668 244.33278503 -140.93139648 244.32235718 C-146.85147947 244.2984729 -146.85147947 244.2984729 -151.71289062 247.34512329 Z M-131 279 C-131.55541057 282.81844767 -131.7158743 285.00179262 -129.42919922 288.19030762 C-126.20874203 290.58946731 -123.49606584 290.56291274 -119.6328125 290.51757812 C-118.52966705 290.52809204 -118.52966705 290.52809204 -117.40423584 290.53881836 C-114.97743783 290.55639881 -112.55180951 290.54477639 -110.125 290.53125 C-108.4363584 290.53394492 -106.74771832 290.53782735 -105.05908203 290.54284668 C-101.52165946 290.54874176 -97.98464117 290.54017873 -94.44726562 290.52148438 C-89.91411155 290.49869448 -85.38190473 290.51181756 -80.8487854 290.53577423 C-77.36231353 290.55023214 -73.87606605 290.54562633 -70.3895874 290.53526306 C-68.71824023 290.53259574 -67.04687265 290.53586576 -65.37554932 290.54518127 C-63.03888025 290.55534719 -60.70374256 290.53984749 -58.3671875 290.51757812 C-57.33220123 290.52972351 -57.33220123 290.52972351 -56.27630615 290.54211426 C-52.97942714 290.4839371 -51.24143014 290.17957063 -48.56689453 288.19030762 C-46.30195705 285.02422993 -46.51727104 282.79287043 -47 279 C-48.00012984 277.16761931 -48.00012984 277.16761931 -50 276 C-52.53029842 275.7040527 -54.8148464 275.58995437 -57.34545898 275.61181641 C-58.09049683 275.60655945 -58.83553467 275.60130249 -59.60314941 275.59588623 C-62.06767705 275.58267517 -64.53155946 275.59142878 -66.99609375 275.6015625 C-68.70858382 275.59954186 -70.42107306 275.5966305 -72.13356018 275.59286499 C-75.7239704 275.58843997 -79.3141568 275.59487752 -82.90454102 275.60888672 C-87.50595927 275.62596591 -92.1068521 275.61614675 -96.708251 275.59816933 C-100.2453049 275.58732522 -103.7822344 275.59078092 -107.31929207 275.5985527 C-109.01575851 275.60055365 -110.71223626 275.59809913 -112.4086895 275.59111404 C-114.78114573 275.58349057 -117.1527534 275.59511617 -119.52514648 275.61181641 C-120.22605911 275.60574371 -120.92697174 275.59967102 -121.64912415 275.59341431 C-125.67080026 275.64583107 -128.20902442 275.98327514 -131 279 Z M-108 307 C-104.54561929 314.06903156 -104.54561929 314.06903156 -100 319.875 C-99.34 320.61492187 -98.68 321.35484375 -98 322.1171875 C-95.15143787 324.79884169 -92.99515934 325.87019661 -89.125 326.375 C-81.76402441 325.49168293 -77.33490184 319.50620107 -73 314 C-70.64731418 310.75264328 -70.64731418 310.75264328 -70 307 C-82.54 307 -95.08 307 -108 307 Z " fill="#000000" transform="translate(345,142)"/>
<path d="M0 0 C3.73821058 1.82586908 7.26312595 3.95887636 10.8125 6.125 C12.94082079 7.39681359 15.06974981 8.66760976 17.19921875 9.9375 C18.30571777 10.60136719 19.4122168 11.26523438 20.55224609 11.94921875 C24.06155362 14.04546381 27.59881811 16.09108031 31.14453125 18.125 C32.02341759 18.62929031 32.02341759 18.62929031 32.9200592 19.14376831 C35.76057384 20.77222257 38.60252476 22.39816228 41.44458008 24.02392578 C55.57135585 32.1427117 55.57135585 32.1427117 57 35 C57.11761176 37.18894772 57.16984058 39.38150224 57.19287109 41.57348633 C57.20513733 42.58600212 57.20513733 42.58600212 57.21765137 43.61897278 C57.24249823 45.85664991 57.25901971 48.09426361 57.2734375 50.33203125 C57.27876118 51.09623571 57.28408485 51.86044018 57.28956985 52.64780235 C57.31629881 56.69300712 57.33567417 60.73818106 57.35009766 64.78344727 C57.36674222 68.96011668 57.41151792 73.13599649 57.4624691 77.31236744 C57.49613885 80.52517087 57.50767469 83.73778684 57.51332474 86.95075035 C57.52003843 88.49015014 57.53526385 90.02953755 57.55921555 91.56876564 C57.59086677 93.72593986 57.59090565 95.88098426 57.58349609 98.03833008 C57.59158295 99.26473709 57.5996698 100.4911441 57.60800171 101.75471497 C56.72101956 106.4890929 54.01995763 108.61233496 50.16088867 111.26342773 C49.5857251 111.56708252 49.01056152 111.8707373 48.41796875 112.18359375 C47.74507813 112.54678711 47.0721875 112.90998047 46.37890625 113.28417969 C45.65574219 113.66477539 44.93257813 114.04537109 44.1875 114.4375 C42.58587867 115.3034773 40.98569633 116.17211959 39.38671875 117.04296875 C38.09580322 117.74558838 38.09580322 117.74558838 36.77880859 118.46240234 C31.63726462 121.30737194 26.57111235 124.28186037 21.5 127.25 C20.5102417 127.82806396 19.5204834 128.40612793 18.50073242 129.00170898 C13.00741621 132.21686987 7.54379817 135.47324763 2.11889648 138.80273438 C-1.17659364 140.66482489 -3.19091707 141.26730407 -7 141 C-9.33886719 139.89379883 -9.33886719 139.89379883 -11.984375 138.39453125 C-12.96075928 137.84651855 -13.93714355 137.29850586 -14.94311523 136.73388672 C-15.95188721 136.1617041 -16.96065918 135.58952148 -18 135 C-19.92249597 133.93496751 -21.84567417 132.87116558 -23.76953125 131.80859375 C-34.37827452 125.90168035 -44.95257738 119.93692371 -55.4375 113.8125 C-56.37247314 113.27230225 -57.30744629 112.73210449 -58.27075195 112.17553711 C-59.12886475 111.67030518 -59.98697754 111.16507324 -60.87109375 110.64453125 C-61.62318115 110.20471924 -62.37526855 109.76490723 -63.15014648 109.31176758 C-65 108 -65 108 -67 105 C-67.27415466 102.01541138 -67.27415466 102.01541138 -67.30639648 98.31298828 C-67.31472 97.63783173 -67.32304352 96.96267517 -67.33161926 96.26705933 C-67.35571757 94.03475174 -67.36449105 91.80273637 -67.37109375 89.5703125 C-67.3800604 88.01716016 -67.38918225 86.46400871 -67.39845276 84.91085815 C-67.41494494 81.65425518 -67.42264324 78.39775504 -67.42553711 75.14111328 C-67.43092059 70.97226805 -67.46859677 66.80439197 -67.51428127 62.63582039 C-67.54405513 59.42728159 -67.55126072 56.21897606 -67.55226326 53.01031113 C-67.55646516 51.47371864 -67.56889846 49.93712543 -67.58978081 48.4006691 C-67.61670449 46.24832608 -67.61186987 44.09822741 -67.59936523 41.94580078 C-67.60443588 40.72240997 -67.60950653 39.49901917 -67.61473083 38.23855591 C-66.82710717 34.0891573 -65.20602194 32.65506459 -62 30 C-59.51831055 28.36938477 -59.51831055 28.36938477 -56.88671875 26.94140625 C-55.89712158 26.39718018 -54.90752441 25.8529541 -53.88793945 25.29223633 C-52.83179443 24.72142334 -51.77564941 24.15061035 -50.6875 23.5625 C-48.44422139 22.33010903 -46.20206368 21.09567587 -43.9609375 19.859375 C-42.23955566 18.91094727 -42.23955566 18.91094727 -40.48339844 17.94335938 C-33.85779191 14.24698792 -27.32787854 10.38647383 -20.79370117 6.53149414 C-18.97164043 5.45996122 -17.14568583 4.39500704 -15.31494141 3.33837891 C-13.45149478 2.26103083 -11.60390487 1.15628026 -9.76171875 0.04296875 C-5.89955582 -1.415585 -3.99632123 -1.1253772 0 0 Z M-12.76171875 21.10546875 C-13.88126953 21.75966797 -15.00082031 22.41386719 -16.15429688 23.08789062 C-17.33221194 23.78745626 -18.50994529 24.48732795 -19.6875 25.1875 C-20.84522247 25.86865615 -22.00342157 26.54900287 -23.16210938 27.22851562 C-25.40408509 28.54392782 -27.64484703 29.86141137 -29.88427734 31.18115234 C-33.8880588 33.51841703 -37.93075406 35.77902715 -42 38 C-39.07292101 41.18230467 -36.16810736 43.23237944 -32.38671875 45.3125 C-31.30326172 45.91320312 -30.21980469 46.51390625 -29.10351562 47.1328125 C-27.97623047 47.74898437 -26.84894531 48.36515625 -25.6875 49 C-23.46215681 50.2290168 -21.23689423 51.45817958 -19.01171875 52.6875 C-17.9654834 53.25855469 -16.91924805 53.82960937 -15.84130859 54.41796875 C-13.50112505 55.72097522 -11.23128453 57.08776697 -8.95703125 58.5 C-6.27340337 60.20584691 -6.27340337 60.20584691 -4.16162109 59.77807617 C-1.41813255 58.79055663 0.99852246 57.47667803 3.54296875 56.05078125 C5.15461914 55.14875977 5.15461914 55.14875977 6.79882812 54.22851562 C7.91708984 53.59623047 9.03535156 52.96394531 10.1875 52.3125 C11.28642578 51.69955078 12.38535156 51.08660156 13.51757812 50.45507812 C19.86408525 46.8863505 26.02063379 43.15642388 32 39 C28.85453715 36.5254374 25.56891695 34.51929888 22.09765625 32.53125 C20.96005859 31.87769531 19.82246094 31.22414063 18.65039062 30.55078125 C17.45448782 29.86708125 16.25852373 29.18348843 15.0625 28.5 C12.71956978 27.15708933 10.37740095 25.81285647 8.03515625 24.46875 C6.9975415 23.87513672 5.95992676 23.28152344 4.89086914 22.66992188 C3.02209286 21.59041594 1.1794282 20.46378023 -0.62719727 19.28320312 C-5.46476827 16.66706224 -8.43229033 18.55072993 -12.76171875 21.10546875 Z M-51 53 C-51.22297148 59.01375038 -51.38601105 65.02508338 -51.49438477 71.04199219 C-51.53956701 73.08701491 -51.60092981 75.13174812 -51.67895508 77.17578125 C-51.78852332 80.12051719 -51.83924086 83.06140613 -51.87890625 86.0078125 C-51.92535782 86.9174173 -51.97180939 87.82702209 -52.01966858 88.76419067 C-52.02179025 91.44972638 -51.90424385 93.46745821 -51 96 C-48.31529389 98.6424828 -45.33672454 100.29416757 -42 102 C-40.54339966 102.87289673 -40.54339966 102.87289673 -39.05737305 103.76342773 C-38.21730713 104.23208252 -37.37724121 104.7007373 -36.51171875 105.18359375 C-35.56353271 105.71581543 -34.61534668 106.24803711 -33.63842773 106.79638672 C-32.66462158 107.3379541 -31.69081543 107.87952148 -30.6875 108.4375 C-19.07804371 114.90925257 -19.07804371 114.90925257 -15.046875 117.43359375 C-14.02078125 118.07425781 -12.9946875 118.71492188 -11.9375 119.375 C-11.10089844 119.91898437 -10.26429688 120.46296875 -9.40234375 121.0234375 C-6.17367755 122.33590343 -4.37713333 121.79186891 -1 121 C1.88859375 119.6747035 1.88859375 119.6747035 4.74609375 117.9375 C5.8244751 117.30924316 6.90285645 116.68098633 8.01391602 116.03369141 C9.70859009 115.02701416 9.70859009 115.02701416 11.4375 114 C12.60496084 113.31486513 13.77285033 112.63046015 14.94116211 111.94677734 C18.3012831 109.97656333 21.65120729 107.98941253 25 106 C25.87817383 105.48083008 26.75634766 104.96166016 27.66113281 104.42675781 C34.70895325 100.711566 34.70895325 100.711566 41 96 C41.08874135 92.89748799 41.11518455 89.8173188 41.09765625 86.71484375 C41.0962413 85.78402481 41.09482635 84.85320587 41.09336853 83.8941803 C41.08775172 80.90858809 41.0751964 77.92306971 41.0625 74.9375 C41.05748716 72.91862087 41.05292388 70.89974057 41.04882812 68.88085938 C41.03777683 63.92054428 41.02050095 58.96028468 41 54 C36.8575148 55.26341619 33.30952345 56.80704306 29.5859375 59.01171875 C28.07193359 59.90213867 28.07193359 59.90213867 26.52734375 60.81054688 C25.48707031 61.42994141 24.44679688 62.04933594 23.375 62.6875 C20.28891124 64.50825325 17.20287393 66.32894939 14.11230469 68.14208984 C12.00026676 69.40288437 9.90738964 70.69623167 7.83300781 72.01806641 C-2.03025063 78.17446365 -2.03025063 78.17446365 -6.85888672 77.67529297 C-12.17008879 76.00017496 -16.83826251 72.94628536 -21.5625 70.0625 C-22.72033603 69.3726928 -23.87911538 68.68446657 -25.03881836 67.99780273 C-28.37138362 66.0184966 -31.68621943 64.01060844 -35 62 C-37.37430663 60.57331796 -39.75032233 59.14953144 -42.12670898 57.72631836 C-43.38681939 56.96872644 -44.64429958 56.20673664 -45.89868164 55.43969727 C-48.28347766 53.72561219 -48.28347766 53.72561219 -51 53 Z " fill="#000000" transform="translate(261,170)"/>
<path d="M0 0 C0.96465179 -0.00953201 1.92930359 -0.01906403 2.92318726 -0.02888489 C3.96383331 -0.02797348 5.00447937 -0.02706207 6.07666016 -0.02612305 C7.14816315 -0.03040817 8.21966614 -0.0346933 9.32363892 -0.03910828 C11.59156589 -0.04485428 13.8595113 -0.04534986 16.12744141 -0.04101562 C19.59521021 -0.03786046 23.06212217 -0.06129558 26.52978516 -0.08666992 C28.73290908 -0.08894337 30.9360353 -0.0896462 33.13916016 -0.08862305 C34.69405655 -0.10243767 34.69405655 -0.10243767 36.28036499 -0.11653137 C45.35368109 -0.05832505 45.35368109 -0.05832505 49.24072266 3.2746582 C50.78659141 6.36639572 50.53431787 8.86895373 50.24072266 12.2746582 C48.37363761 14.6396326 46.92010835 15.93496536 44.24072266 17.2746582 C42.69492801 17.3847143 41.14457455 17.43373374 39.5949707 17.45166016 C38.63024338 17.46449539 37.66551605 17.47733063 36.67155457 17.49055481 C35.62574722 17.49794174 34.57993988 17.50532867 33.50244141 17.51293945 C32.42952347 17.5210112 31.35660553 17.52908295 30.25117493 17.53739929 C27.97728088 17.55124681 25.70336599 17.56196596 23.42944336 17.56982422 C19.95272404 17.5870369 16.47695546 17.63091808 13.00048828 17.67504883 C10.79281299 17.68517555 8.58512961 17.69369172 6.37744141 17.70043945 C5.33770676 17.71794754 4.29797211 17.73545563 3.22673035 17.75349426 C-3.98195533 17.73184589 -3.98195533 17.73184589 -7.89282227 15.43164062 C-10.30847406 12.63997501 -10.75927734 10.95688786 -10.75927734 7.2746582 C-8.38086663 2.04215464 -5.71892667 0.03104535 0 0 Z " fill="#000000" transform="translate(419.75927734375,232.725341796875)"/>
<path d="M0 0 C0.96465179 -0.01283524 1.92930359 -0.02567047 2.92318726 -0.03889465 C4.48415634 -0.04997505 4.48415634 -0.04997505 6.07666016 -0.0612793 C7.14816315 -0.06935104 8.21966614 -0.07742279 9.32363892 -0.08573914 C11.59155664 -0.09957281 13.85949513 -0.11029817 16.12744141 -0.11816406 C19.59528952 -0.13539651 23.06218913 -0.17929236 26.52978516 -0.22338867 C28.73290315 -0.23351401 30.93602924 -0.24203061 33.13916016 -0.2487793 C34.17575775 -0.26628738 35.21235535 -0.28379547 36.28036499 -0.30183411 C43.47544088 -0.28015477 43.47544088 -0.28015477 47.39746094 2.06274414 C49.52787533 4.50637177 49.87070828 5.53860601 49.74072266 8.73950195 C49.73041016 9.50391602 49.72009766 10.26833008 49.70947266 11.0559082 C49.13421992 13.65892684 48.32907407 14.55655946 46.24072266 16.17700195 C43.37817065 17.13118596 41.54697638 17.31369993 38.57324219 17.33813477 C37.15629562 17.35254608 37.15629562 17.35254608 35.71072388 17.36724854 C34.6919516 17.37149841 33.67317932 17.37574829 32.62353516 17.38012695 C31.04957474 17.38867706 31.04957474 17.38867706 29.44381714 17.3973999 C27.22297168 17.40684882 25.00211221 17.41338345 22.78125 17.41723633 C19.38598153 17.42694403 15.99131784 17.4579698 12.59619141 17.48950195 C10.43864292 17.49603191 8.2810901 17.50128241 6.12353516 17.50512695 C4.60144943 17.52364716 4.60144943 17.52364716 3.0486145 17.5425415 C-5.84388863 17.51447726 -5.84388863 17.51447726 -9.75927734 14.17700195 C-11.28774396 11.12006873 -10.99170179 8.54715648 -10.75927734 5.17700195 C-8.15646013 0.46714223 -5.09393135 0.05908276 0 0 Z " fill="#000000" transform="translate(52.75927734375,232.822998046875)"/>
<path d="M0 0 C8.28822269 2.32393565 16.19045831 13.52612942 22.18701172 19.54345703 C24.05688073 21.41874524 25.93211219 23.28855426 27.80786133 25.15795898 C28.99893781 26.34969526 30.18970461 27.54174116 31.38012695 28.73413086 C31.94046127 29.29244095 32.50079559 29.85075104 33.07810974 30.42597961 C37.96415559 35.34195105 37.96415559 35.34195105 38.4152832 39.40209961 C38.01312806 43.50408208 37.28304766 44.95230714 34.1027832 47.58959961 C30.98500839 48.34407032 28.23218854 48.26864973 25.1027832 47.58959961 C21.87526001 45.57660401 19.4188297 42.98178528 16.8215332 40.22241211 C16.08197388 39.47248993 15.34241455 38.72256775 14.58044434 37.94992065 C12.23260819 35.55848752 9.91823652 33.13735677 7.6027832 30.71459961 C6.01628057 29.09151028 4.42775844 27.47039231 2.8371582 25.85131836 C-0.05587417 22.8916969 -2.94321825 19.92721868 -5.80541992 16.93774414 C-6.38005981 16.33817902 -6.95469971 15.73861389 -7.54675293 15.12088013 C-9.47561749 12.93375554 -9.88342535 11.7137226 -10.2097168 8.77709961 C-9.59620134 2.51924192 -6.45928329 -0.48251838 0 0 Z " fill="#000000" transform="translate(111.897216796875,87.410400390625)"/>
<path d="M0 0 C2.625 2 2.625 2 4 5 C4.05511512 10.2387092 3.41321587 13.00427315 -0.11108398 16.92163086 C-1.47139781 18.2875572 -2.8509598 19.63450179 -4.24609375 20.96484375 C-4.97240494 21.68362198 -5.69871613 22.40240021 -6.44703674 23.14295959 C-8.76124704 25.42474141 -11.0989195 27.68073012 -13.4375 29.9375 C-15.00740358 31.48085267 -16.57578113 33.02575927 -18.14257812 34.57226562 C-21.00601041 37.38544912 -23.87206399 40.19559329 -26.75952148 42.98413086 C-27.33830551 43.54402206 -27.91708954 44.10391327 -28.51341248 44.68077087 C-31.43294889 47.27162907 -34.17002951 47.39979957 -38.0234375 47.34375 C-40 47 -40 47 -42.5 44.875 C-44.3440701 41.3405323 -44.84682469 39.92618718 -44 36 C-38.65708035 28.53588605 -31.41449311 21.99048942 -25.00341797 15.43359375 C-23.74568902 14.13892085 -22.49700989 12.83539766 -21.25732422 11.5234375 C-19.44552804 9.60815099 -17.60579125 7.72406892 -15.7578125 5.84375 C-15.21375763 5.25638062 -14.66970276 4.66901123 -14.10916138 4.06384277 C-9.83656303 -0.18849491 -5.96997922 -1.20376752 0 0 Z " fill="#000000" transform="translate(406,88)"/>
<path d="M0 0 C2.53189604 2.02370127 3.83461743 3.21971241 4.5146637 6.42822266 C4.52396156 7.78246338 4.52396156 7.78246338 4.53344727 9.1640625 C4.5492836 10.19192871 4.56511993 11.21979492 4.58143616 12.27880859 C4.57399635 13.93517334 4.57399635 13.93517334 4.56640625 15.625 C4.57570412 17.33357178 4.57570412 17.33357178 4.58518982 19.07666016 C4.59229133 21.48404078 4.5891083 23.89147048 4.57641602 26.29882812 C4.56255041 29.986594 4.59662024 33.67182349 4.63476562 37.359375 C4.63571679 39.69791729 4.63385815 42.03646276 4.62890625 44.375 C4.64216446 45.47924316 4.65542267 46.58348633 4.66908264 47.72119141 C4.57618822 55.33965349 4.57618822 55.33965349 1.64819336 58.6953125 C-1.60970888 60.30038575 -3.41155158 60.59807474 -7 60 C-9.64819336 58.6953125 -9.64819336 58.6953125 -12 56 C-12.76240212 52.13312622 -12.67609326 48.30508793 -12.62890625 44.375 C-12.63131821 43.23595215 -12.63373016 42.0969043 -12.63621521 40.92333984 C-12.63523603 38.51591509 -12.62182578 36.10846803 -12.59692383 33.70117188 C-12.56262599 30.01354581 -12.57626054 26.32831641 -12.59570312 22.640625 C-12.58880465 20.30207312 -12.57913227 17.96352743 -12.56640625 15.625 C-12.57384605 13.96863525 -12.57384605 13.96863525 -12.58143616 12.27880859 C-12.56559982 11.25094238 -12.54976349 10.22307617 -12.53344727 9.1640625 C-12.52724869 8.26123535 -12.52105011 7.3584082 -12.5146637 6.42822266 C-11.84018346 3.24597333 -10.46587238 2.0509991 -8 0 C-5.02898609 -1.48550695 -3.16565278 -0.82306972 0 0 Z " fill="#000000" transform="translate(260,28)"/>
</svg>
