<?xml version="1.0" encoding="UTF-8"?>
<svg version="1.1" xmlns="http://www.w3.org/2000/svg" width="512" height="512">
<path d="M0 0 C1.49873154 -0.00832352 1.49873154 -0.00832352 3.02774048 -0.01681519 C6.33302735 -0.02862866 9.63694735 -0.00429914 12.94213867 0.02148438 C15.25078774 0.02319655 17.55943875 0.02312871 19.86808777 0.0213623 C24.71449317 0.02301707 29.56043693 0.04173004 34.40673828 0.07324219 C40.57855076 0.11267546 46.74975179 0.11731647 52.92166615 0.10977936 C57.6962175 0.10668674 62.47063494 0.11891505 67.24515343 0.13591003 C69.51782068 0.14288191 71.79050313 0.14607173 74.06318092 0.1452179 C89.79959247 0.15419219 104.70248521 0.99822699 119.73510742 6.11523438 C120.46366943 6.36241211 121.19223145 6.60958984 121.94287109 6.86425781 C149.15504654 16.60727814 172.81186198 34.98849067 188.04760742 59.61523438 C188.85198242 60.81792969 188.85198242 60.81792969 189.67260742 62.04492188 C202.60157079 82.04441208 206.70320671 105.2755565 208.04760742 128.61523438 C209.33393066 128.58381348 209.33393066 128.58381348 210.64624023 128.55175781 C213.83679215 128.48346911 217.02697088 128.43337924 220.21801758 128.39550781 C221.59737422 128.37542796 222.97664611 128.34815772 224.35571289 128.31347656 C226.34117721 128.2648062 228.32726996 128.2443702 230.31323242 128.22460938 C232.10422363 128.19318848 232.10422363 128.19318848 233.93139648 128.16113281 C237.67797302 128.70709273 238.78090844 129.64429223 241.04760742 132.61523438 C242.23510742 135.67773438 242.23510742 135.67773438 242.04760742 139.61523438 C240.42103146 142.62819243 238.60261433 145.3757335 236.61401367 148.16210938 C234.77851869 150.5515542 234.77851869 150.5515542 235.04760742 153.61523438 C235.71590576 153.98696777 236.3842041 154.35870117 237.07275391 154.74169922 C259.70706111 167.34328228 259.70706111 167.34328228 270.45727539 173.72314453 C276.81094606 177.49057934 283.20841503 181.18009275 289.61010742 184.86523438 C299.49940605 190.55977624 309.36845301 196.28777767 319.21972656 202.04785156 C321.03063919 203.10640816 322.84463674 204.15971331 324.66235352 205.20654297 C326.15278877 206.08676932 327.62394593 207.00155582 329.06176758 207.96533203 C331.01699234 209.30706994 331.01699234 209.30706994 334.04760742 210.61523438 C338.21640618 209.56299902 341.71197935 207.82944059 345.40698242 205.66601562 C346.42808105 205.07224121 347.44917969 204.4784668 348.5012207 203.86669922 C349.58902832 203.22684082 350.67683594 202.58698242 351.79760742 201.92773438 C353.52849835 200.91864293 355.25939507 199.90956126 356.9906311 198.90106201 C358.79339693 197.85011952 360.59481713 196.79689436 362.39624023 195.74365234 C366.00824118 193.63473947 369.63168733 191.54612542 373.25854492 189.46289062 C373.84188599 189.12761856 374.42522705 188.7923465 375.02624512 188.44691467 C377.8228707 186.83973532 380.62003431 185.23349913 383.41772461 183.62817383 C389.03276575 180.39493364 394.57888539 177.09056132 400.04760742 173.61523438 C397.64791061 170.9595765 395.08316553 169.33524884 391.98120117 167.56835938 C390.95188477 166.97861328 389.92256836 166.38886719 388.86206055 165.78125 C387.74766602 165.14896484 386.63327148 164.51667969 385.48510742 163.86523438 C384.31359281 163.19582091 383.14237366 162.52589012 381.97143555 161.85546875 C379.53816908 160.46283441 377.10364511 159.0724369 374.66821289 157.68359375 C369.11603178 154.51493688 363.58277212 151.31348912 358.04760742 148.11523438 C355.88364554 146.86636209 353.71958266 145.61766481 351.55541992 144.36914062 C350.48324219 143.75055176 349.41106445 143.13196289 348.30639648 142.49462891 C345.03061177 140.60543272 341.7540485 138.71759329 338.47729492 136.83007812 C327.98528537 130.78468214 317.50287967 124.72398118 307.04760742 118.61523438 C298.4545801 113.59589926 289.85115547 108.59492634 281.23510742 103.61523438 C280.18000977 103.00421875 279.12491211 102.39320312 278.0378418 101.76367188 C276.02411921 100.60126876 274.00545617 99.44737343 271.98144531 98.30297852 C269.98561941 97.154843 268.01362706 95.96447928 266.06494141 94.73803711 C263.41938905 93.13144903 260.9476699 91.69701068 258.04760742 90.61523438 C254.46456805 91.31060642 254.46456805 91.31060642 251.73510742 93.67773438 C247.74411615 96.60155745 245.05888523 98.30589624 240.04760742 98.61523438 C236.07288679 97.08649567 234.42907078 96.1874294 232.04760742 92.61523438 C231.61010742 89.24023438 231.61010742 89.24023438 232.04760742 85.61523438 C235.81992704 81.11633958 240.37281771 78.26352642 245.36010742 75.30273438 C246.08133789 74.84833984 246.80256836 74.39394531 247.5456543 73.92578125 C252.39505581 71.0335373 256.39487908 69.37077777 262.04760742 70.61523438 C265.23633455 71.85781076 268.10753157 73.49795616 271.04760742 75.24023438 C271.90644531 75.73096436 272.7652832 76.22169434 273.65014648 76.72729492 C276.45975133 78.33921888 279.25384998 79.97602052 282.04760742 81.61523438 C283.97935399 82.73466514 285.91165238 83.85314416 287.84448242 84.97070312 C292.90369677 87.90387769 297.94958852 90.85924564 302.99194336 93.82128906 C307.96387897 96.74025541 312.94285549 99.64712817 317.92260742 102.55273438 C318.9085791 103.12813965 319.89455078 103.70354492 320.91040039 104.29638672 C332.59848797 111.11143795 344.3234319 117.86252675 356.04760742 124.61523438 C397.24626168 148.34419221 397.24626168 148.34419221 417.36010742 160.30273438 C418.19654785 160.79604248 419.03298828 161.28935059 419.89477539 161.79760742 C420.66321777 162.2569165 421.43166016 162.71622559 422.22338867 163.18945312 C423.22752808 163.78632935 423.22752808 163.78632935 424.25195312 164.39526367 C426.87021185 166.17411328 428.79339448 167.56291105 429.55151367 170.70117188 C429.57084961 171.4565625 429.59018555 172.21195313 429.61010742 172.99023438 C429.65264648 173.74046875 429.69518555 174.49070313 429.73901367 175.26367188 C427.66673721 182.3117534 417.06040188 186.22827455 411.17260742 189.55273438 C409.42690548 190.5488916 407.68121085 191.54506207 405.93608093 192.54222107 C404.74338313 193.22340543 403.5502749 193.90387165 402.35676575 194.58363342 C394.40264906 199.11472686 386.50618931 203.74454679 378.60620117 208.36914062 C375.00399451 210.47776463 371.392485 212.56853672 367.77026367 214.64257812 C366.9672583 215.10559326 366.16425293 215.5686084 365.33691406 216.0456543 C363.85122804 216.90201912 362.36229829 217.75279009 360.86962891 218.59692383 C359.22872798 219.54730896 357.63198034 220.57333697 356.04760742 221.61523438 C356.04760742 222.27523437 356.04760742 222.93523437 356.04760742 223.61523438 C357.11567627 224.22443726 357.11567627 224.22443726 358.20532227 224.84594727 C374.54505132 234.16818993 390.87335044 243.50941891 407.15063477 252.94042969 C409.88968031 254.52393318 412.63400457 256.09787925 415.37963867 257.66992188 C416.93582528 258.56801806 418.49182947 259.46643045 420.04760742 260.36523438 C421.08921021 260.95667236 421.08921021 260.95667236 422.15185547 261.56005859 C425.26935 263.37234067 427.01196846 264.56177593 429.04760742 267.61523438 C429.71734324 274.53583782 429.71734324 274.53583782 427.50854492 278.09570312 C424.41795134 281.25988227 421.19418523 283.02519449 417.29760742 285.05273438 C415.66601268 285.93037013 414.0358782 286.81072442 412.40698242 287.69335938 C411.10277344 288.3981543 411.10277344 288.3981543 409.7722168 289.1171875 C404.9772019 291.75358637 400.26578955 294.53188595 395.54760742 297.30273438 C385.76408992 303.03506666 375.95461792 308.72023642 366.12768555 314.37768555 C364.16009339 315.5108694 362.20230414 316.66134693 360.25750732 317.83322144 C357.04760742 319.61523437 357.04760742 319.61523437 353.87908936 320.7986908 C350.20026472 322.34153192 347.82814358 323.73026219 345.04760742 326.61523438 C342.82640383 332.74710235 343.61334819 339.74945584 343.79760742 346.15429688 C343.80771656 348.0828539 343.81193978 350.01144994 343.81054688 351.94003296 C343.8200121 357.00628545 343.89763881 362.06906402 343.9932251 367.13433838 C344.13526821 375.24673766 344.17564056 383.3601458 344.21203613 391.47358322 C344.23480678 394.30442084 344.2878196 397.13345842 344.34545898 399.96377563 C344.36532025 401.69996414 344.38455942 403.43615991 344.40307617 405.17236328 C344.42695908 405.95690384 344.45084198 406.7414444 344.47544861 407.54975891 C344.49301373 411.28287519 344.20267331 413.37416703 342.16192627 416.54673767 C340.02303633 418.63927296 338.09338257 420.02884762 335.46948242 421.45507812 C334.56866943 421.95313965 333.66785645 422.45120117 332.73974609 422.96435547 C331.76884033 423.48852051 330.79793457 424.01268555 329.79760742 424.55273438 C327.70427749 425.70869065 325.61185681 426.86629475 323.52026367 428.02539062 C322.44534668 428.61852051 321.37042969 429.21165039 320.26293945 429.82275391 C315.21090109 432.6391598 310.22289468 435.56199002 305.23510742 438.49023438 C296.89682323 443.372242 288.54395457 448.22762209 280.17260742 453.05273438 C279.09406494 453.67446533 278.01552246 454.29619629 276.90429688 454.93676758 C272.52214906 457.46215606 268.13935705 459.98642546 263.7565918 462.51074219 C251.18736586 469.75130342 238.63247196 477.01477573 226.1081543 484.33276367 C217.45488779 489.38550023 208.78734735 494.41347928 200.0949707 499.39868164 C195.5603782 501.9998002 191.03342918 504.60148121 186.57885742 507.33789062 C185.6268042 507.91337646 185.6268042 507.91337646 184.65551758 508.50048828 C183.08845738 509.45202808 181.53218888 510.42128495 179.97729492 511.39257812 C176.128188 512.99893875 173.09243429 513.49044828 169.04760742 512.61523438 C164.86989099 510.81988636 161.0161696 508.55928247 157.11010742 506.24023438 C155.99692139 505.59755615 154.88373535 504.95487793 153.73681641 504.29272461 C150.49687231 502.41706613 147.27074991 500.51958136 144.04760742 498.61523438 C142.54806008 497.73815792 141.04812386 496.86174559 139.54760742 495.98632812 C136.88846799 494.430345 134.23608352 492.86349341 131.58666992 491.29101562 C125.91432129 487.93377973 120.1975386 484.65362812 114.48510742 481.36523438 C105.99104443 476.47378114 97.50995172 471.56136136 89.04760742 466.61523438 C80.76986324 461.77842414 72.47816615 456.96663133 64.17260742 452.17773438 C63.09672363 451.55729248 62.02083984 450.93685059 60.91235352 450.29760742 C55.38702837 447.11264802 49.85919361 443.93210937 44.32885742 440.75585938 C37.89303683 437.05731702 31.46639257 433.34325989 25.04760742 429.61523438 C24.04713379 429.03515625 23.04666016 428.45507812 22.01586914 427.85742188 C19.20808875 426.22393981 16.40787258 424.57829768 13.61010742 422.92773438 C12.78140137 422.44667236 11.95269531 421.96561035 11.09887695 421.4699707 C9.96168213 420.79357544 9.96168213 420.79357544 8.80151367 420.10351562 C8.14481689 419.71719971 7.48812012 419.33088379 6.81152344 418.93286133 C4.5830555 417.26821891 3.44389313 416.05726951 2.04760742 413.61523438 C1.88637158 410.796865 1.89519339 408.22956903 2.05957031 405.42871094 C2.13167428 403.72181543 2.20292831 402.01488386 2.27345276 400.30792236 C2.31555941 399.40418129 2.35766605 398.50044022 2.40104866 397.56931305 C2.60506951 392.75445623 2.69285619 387.93703938 2.7956543 383.11914062 C2.92710806 376.99804003 3.09337579 370.88698151 3.42236328 364.77294922 C5.45462588 344.07842125 5.45462588 344.07842125 -0.16729736 324.82927322 C-6.31744792 318.08813672 -14.96086729 314.90586466 -23.38276672 311.97172546 C-29.01362986 309.831945 -33.97501489 306.71689118 -39.07739258 303.55273438 C-41.01075701 302.41379618 -42.94662921 301.2790944 -44.88598633 300.15039062 C-45.86035645 299.58078613 -46.83472656 299.01118164 -47.83862305 298.42431641 C-51.23432819 296.45143142 -54.6406551 294.49791826 -58.05004883 292.54882812 C-59.24456818 291.86470077 -60.43906703 291.18053762 -61.63354492 290.49633789 C-63.91649746 289.18886024 -66.20230139 287.88687103 -68.48999023 286.58764648 C-69.5230127 285.99604736 -70.55603516 285.40444824 -71.62036133 284.79492188 C-72.53068115 284.27655762 -73.44100098 283.75819336 -74.37890625 283.22412109 C-81.31659352 278.8868325 -81.31659352 278.8868325 -82.95239258 275.61523438 C-83.64945644 268.52841847 -83.64945644 268.52841847 -81.16333008 265.27148438 C-76.8213387 261.2676806 -71.35750588 258.71834862 -66.20239258 255.92773438 C-63.92428199 254.67391834 -61.64693867 253.41870721 -59.37036133 252.16210938 C-58.26354004 251.55302734 -57.15671875 250.94394531 -56.01635742 250.31640625 C-52.14393665 248.16636418 -48.32069025 245.94307865 -44.51489258 243.67773438 C-37.00914804 239.21932021 -29.45406813 234.8484694 -21.88989258 230.49023438 C-21.29588654 230.14791779 -20.70188049 229.8056012 -20.08987427 229.45291138 C-16.71127637 227.50604103 -13.33209329 225.56018958 -9.95239258 223.61523438 C-9.95239258 222.95523438 -9.95239258 222.29523438 -9.95239258 221.61523438 C-10.94529297 221.04361572 -10.94529297 221.04361572 -11.95825195 220.46044922 C-31.78212519 209.04432676 -51.60128636 197.61858987 -71.26489258 185.92773438 C-72.10133301 185.43442627 -72.93777344 184.94111816 -73.79956055 184.43286133 C-74.56800293 183.97355225 -75.33644531 183.51424316 -76.12817383 183.04101562 C-76.7976001 182.64309814 -77.46702637 182.24518066 -78.15673828 181.83520508 C-80.7541559 180.07051496 -82.67832072 178.65789907 -83.49145508 175.56445312 C-83.51981445 174.81808594 -83.54817383 174.07171875 -83.57739258 173.30273438 C-83.6315332 172.56410156 -83.68567383 171.82546875 -83.74145508 171.06445312 C-81.64821949 164.56713277 -73.69865635 161.11046918 -68.01489258 158.11523438 C-66.41070523 157.246579 -64.8079124 156.37534489 -63.20629883 155.50195312 C-62.35567871 155.03837402 -61.50505859 154.57479492 -60.62866211 154.09716797 C-55.8564534 151.45464773 -51.15716618 148.68798617 -46.45239258 145.92773438 C-38.01005252 140.98296412 -29.55431094 136.063019 -21.07739258 131.17773438 C-19.46018311 130.24550049 -19.46018311 130.24550049 -17.81030273 129.29443359 C-13.42776057 126.76877917 -9.04455335 124.24428009 -4.66137695 121.71972656 C-2.47130764 120.45812692 -0.2814473 119.19616444 1.90820312 117.93383789 C4.06998483 116.68811745 6.23257242 115.4437944 8.39599609 114.20092773 C13.88187658 111.04390761 19.34234595 107.85150799 24.77026367 104.59570312 C25.8561377 103.94867432 26.94201172 103.30164551 28.06079102 102.63500977 C30.12034236 101.40564675 32.17443354 100.16707192 34.22192383 98.91772461 C39.21862798 95.94465521 43.1657458 93.69947979 49.04760742 93.61523438 C51.92777824 94.8313065 53.49999241 95.91826981 55.42260742 98.36523438 C56.39006558 101.84808375 56.02229891 104.14289595 55.04760742 107.61523438 C49.89096335 112.69400966 43.55965166 115.95156328 37.29760742 119.49023438 C35.54964746 120.48824249 33.80169242 121.48625933 32.05404663 122.4848175 C30.24660482 123.51658154 28.43775905 124.54584833 26.62866211 125.57470703 C21.04637043 128.75206101 15.48509959 131.96588715 9.92260742 135.17773438 C8.8465625 135.79825684 7.77051758 136.4187793 6.66186523 137.05810547 C-1.5281677 141.78369289 -9.69750824 146.54407778 -17.86108398 151.31518555 C-29.53028601 158.13014707 -41.24108823 164.8729669 -52.95239258 171.61523438 C-52.95239258 172.60523438 -52.95239258 173.59523437 -52.95239258 174.61523438 C-52.28409424 174.98696777 -51.6157959 175.35870117 -50.92724609 175.74169922 C-28.61169351 188.1658166 -28.61169351 188.1658166 -19.20239258 193.74023438 C-18.55173828 194.12260254 -17.90108398 194.5049707 -17.23071289 194.89892578 C-14.23910631 196.65899495 -11.25612262 198.42999641 -8.29272461 200.23730469 C-5.46039126 201.96430154 -2.6136576 203.66551386 0.23510742 205.36523438 C1.12101562 205.9158252 2.00692383 206.46641602 2.91967773 207.03369141 C7.64291305 209.93115413 7.64291305 209.93115413 12.98901367 210.33007812 C13.99834961 209.76417969 15.00768555 209.19828125 16.04760742 208.61523438 C16.80259521 208.20063965 17.55758301 207.78604492 18.33544922 207.35888672 C21.18660293 205.76325542 23.99179317 204.10176103 26.79760742 202.42773438 C28.95866375 201.1523134 31.12013642 199.87759765 33.28198242 198.60351562 C34.39766602 197.94432129 35.51334961 197.28512695 36.6628418 196.60595703 C42.1035288 193.40606076 47.57587477 190.26164536 53.04760742 187.11523438 C72.78919451 175.74204366 92.44802375 164.2313166 112.04760742 152.61523438 C111.30704102 151.52855469 111.30704102 151.52855469 110.55151367 150.41992188 C109.91084961 149.453125 109.27018555 148.48632812 108.61010742 147.49023438 C107.65297852 146.06324219 107.65297852 146.06324219 106.67651367 144.60742188 C104.47867199 140.57013956 103.57643952 137.34285001 104.79760742 132.86523438 C106.04760742 130.61523438 106.04760742 130.61523438 109.04760742 128.61523438 C112.05029297 128.38818359 112.05029297 128.38818359 115.68432617 128.41992188 C116.98305664 128.42636719 118.28178711 128.4328125 119.61987305 128.43945312 C120.99162049 128.45616377 122.36336528 128.47309366 123.73510742 128.49023438 C125.11856461 128.50026764 126.50202869 128.50939288 127.88549805 128.51757812 C131.27304194 128.5411847 134.66023814 128.57411401 138.04760742 128.61523438 C137.87397196 115.54904727 137.87397196 115.54904727 133.04760742 103.61523438 C132.62479492 102.92042969 132.20198242 102.225625 131.76635742 101.50976562 C127.2289307 94.79185328 121.08971008 90.20618763 113.24040222 88.03741455 C108.67174556 87.15780818 104.0203953 87.31596902 99.38354492 87.30664062 C97.10489636 87.28149639 94.82625058 87.25609815 92.54760742 87.23046875 C88.97502269 87.20166552 85.40248612 87.17762909 81.82983398 87.15893555 C78.36832889 87.13730708 74.90736362 87.09788911 71.44604492 87.05664062 C70.37824799 87.05652481 69.31045105 87.056409 68.21029663 87.05628967 C58.97718438 86.93289519 58.97718438 86.93289519 55.04760742 83.61523438 C52.94659147 80.94121408 53.04913767 79.57238753 53.17260742 76.11523438 C54.14893193 72.20993635 54.95149251 71.08194864 58.04760742 68.61523438 C60.52915955 68.1072998 60.52915955 68.1072998 63.34423828 68.09765625 C64.40311752 68.08504761 65.46199677 68.07243896 66.55296326 68.05944824 C68.26540977 68.07159363 68.26540977 68.07159363 70.01245117 68.08398438 C71.1967421 68.08015747 72.38103302 68.07633057 73.60121155 68.0723877 C76.11207934 68.06966431 78.6229753 68.07705512 81.13378906 68.09375 C84.93970861 68.11498112 88.74370317 68.09404959 92.54956055 68.06835938 C94.9955282 68.07100591 97.44149467 68.07613759 99.88745117 68.08398438 C101.01086411 68.07588745 102.13427704 68.06779053 103.29173279 68.05944824 C118.18336717 68.23214405 131.10730669 73.33762848 141.98120117 83.45507812 C153.14128222 95.12147665 156.25546254 108.41006482 156.34277344 124.01733398 C156.35434459 125.45949067 156.37487692 126.90160286 156.40429688 128.34350586 C156.44692621 130.43567761 156.46312775 132.52658891 156.47338867 134.61914062 C156.49526245 136.48807983 156.49526245 136.48807983 156.51757812 138.39477539 C156.04760742 141.61523438 156.04760742 141.61523438 154.27099609 143.98999023 C149.90092612 147.18440726 145.05403651 146.89448157 139.79760742 147.17773438 C138.67999023 147.24250977 138.67999023 147.24250977 137.53979492 147.30859375 C135.70925842 147.41420162 133.87845566 147.51517639 132.04760742 147.61523438 C132.71405273 148.51242188 133.38049805 149.40960938 134.06713867 150.33398438 C139.40884489 157.5545449 144.63176456 164.83786566 149.69360352 172.25732422 C154.16483401 178.80804936 158.71626478 185.30139447 163.27734375 191.78979492 C163.8396167 192.59070557 164.40188965 193.39161621 164.98120117 194.21679688 C165.51213379 194.9712207 166.04306641 195.72564453 166.59008789 196.50292969 C167.88351379 198.3774223 169.1135593 200.27812593 170.33276367 202.20117188 C170.89866211 202.9978125 171.46456055 203.79445312 172.04760742 204.61523438 C172.70760742 204.61523438 173.36760742 204.61523438 174.04760742 204.61523438 C175.71902593 202.39905724 177.26775852 200.17724738 178.79760742 197.86523438 C179.79533529 196.38541322 180.79408026 194.90627744 181.79370117 193.42773438 C182.32334473 192.64140625 182.85298828 191.85507813 183.39868164 191.04492188 C186.17495207 186.95409521 189.01841182 182.91076183 191.86010742 178.86523438 C193.03727794 177.1869101 194.21436009 175.50852385 195.39135742 173.83007812 C195.98561523 172.98300293 196.57987305 172.13592773 197.19213867 171.26318359 C199.13665 168.48816124 201.0769761 165.71025031 203.01635742 162.93164062 C203.65984131 162.0102832 204.3033252 161.08892578 204.96630859 160.13964844 C206.20938994 158.35955979 207.45176366 156.57897674 208.69335938 154.79785156 C209.52806763 153.60337402 209.52806763 153.60337402 210.37963867 152.38476562 C210.87181885 151.67940674 211.36399902 150.97404785 211.87109375 150.24731445 C213.04760742 148.61523437 213.04760742 148.61523437 214.04760742 147.61523438 C212.40211914 147.54175781 212.40211914 147.54175781 210.72338867 147.46679688 C209.26893817 147.39172846 207.81451226 147.31618241 206.36010742 147.24023438 C205.27826172 147.19382813 205.27826172 147.19382813 204.17456055 147.14648438 C199.37693699 146.88360089 195.39203917 146.40286807 191.45117188 143.39794922 C189.49879662 140.91817115 189.57310367 139.07704771 189.42260742 135.94335938 C189.35783203 134.8113208 189.29305664 133.67928223 189.22631836 132.51293945 C189.16734375 131.30919678 189.10836914 130.1054541 189.04760742 128.86523438 C186.92321749 95.00610324 174.69326165 66.37145275 149.04760742 43.61523438 C126.76140952 25.47382292 100.644201 19.34941741 72.59727669 19.27970886 C69.33934802 19.27134075 66.08168916 19.25076886 62.82383728 19.22717285 C54.74398543 19.17109305 46.6640685 19.13549347 38.58410645 19.09954834 C31.72957283 19.06829956 24.87517444 19.02913874 18.02075005 18.97929382 C14.81395018 18.95925733 11.6072552 18.95091649 8.40040588 18.94299316 C6.43783177 18.93002359 4.4752612 18.91650369 2.51269531 18.90234375 C1.62380112 18.90332565 0.73490692 18.90430756 -0.18092346 18.90531921 C-5.4357875 18.85246496 -9.7348064 18.67988358 -13.76489258 14.92773438 C-15.48801287 11.57218434 -15.47447347 9.33506072 -14.95239258 5.61523438 C-10.75888876 -0.2804654 -6.67568562 -0.09432182 0 0 Z M123.04760742 167.61523438 C122.07041748 168.1789978 122.07041748 168.1789978 121.07348633 168.75415039 C119.09074435 169.89803999 117.10799635 171.04191916 115.12524414 172.18579102 C112.79089101 173.5325586 110.45657507 174.87939045 108.12231445 176.22631836 C102.20782253 179.63900736 96.29272301 183.05062844 90.37573242 186.45898438 C77.76418002 193.72533747 65.16656812 201.01459002 52.60620117 208.36914062 C49.00399451 210.47776463 45.392485 212.56853672 41.77026367 214.64257812 C40.9672583 215.10559326 40.16425293 215.5686084 39.33691406 216.0456543 C37.85122804 216.90201912 36.36229829 217.75279009 34.86962891 218.59692383 C33.22872798 219.54730896 31.63198034 220.57333697 30.04760742 221.61523438 C30.04760742 222.27523437 30.04760742 222.93523437 30.04760742 223.61523438 C30.61866211 223.93572754 31.1897168 224.2562207 31.77807617 224.58642578 C43.86135024 231.37486294 55.8932139 238.24212345 67.85473633 245.24291992 C75.19589288 249.53875529 82.55338371 253.80523021 89.92260742 258.05273438 C91.54042114 258.98533081 91.54042114 258.98533081 93.19091797 259.93676758 C96.47621518 261.8300519 99.76184731 263.72275355 103.04760742 265.61523438 C127.28549513 279.57539463 127.28549513 279.57539463 138.44213867 286.08959961 C140.44718823 287.25958721 142.4536671 288.42712927 144.46166992 289.59204102 C149.19641413 292.34248688 153.90122474 295.12724798 158.55932617 298.00585938 C159.42436768 298.53147461 160.28940918 299.05708984 161.18066406 299.59863281 C162.79303276 300.57992353 164.3959188 301.57704263 165.98681641 302.59277344 C170.2454492 305.20077044 170.2454492 305.20077044 175.11791992 305.15820312 C178.57311944 303.33846471 181.96378477 301.45917455 185.29760742 299.42773438 C186.81117328 298.52152082 188.32555061 297.61666171 189.84057617 296.71289062 C191.08266846 295.97063232 191.08266846 295.97063232 192.34985352 295.21337891 C197.40896936 292.21636784 202.51248949 289.29610068 207.61010742 286.36523438 C216.1044508 281.47427179 224.58526644 276.56135942 233.04760742 271.61523438 C244.58459649 264.8739984 256.15612611 258.19356462 267.73461914 251.52392578 C271.09074823 249.59037993 274.4462629 247.65577268 277.80151367 245.72070312 C279.46585449 244.76091553 279.46585449 244.76091553 281.16381836 243.78173828 C283.35381488 242.51803108 285.54328057 241.25340344 287.73217773 239.98779297 C292.77792839 237.07117858 297.82962546 234.16703042 302.90307617 231.29882812 C303.79776611 230.7899707 304.69245605 230.28111328 305.61425781 229.75683594 C307.27793756 228.81124222 308.9449375 227.87145822 310.61572266 226.93847656 C312.45947449 225.88678358 314.25959699 224.75913021 316.04760742 223.61523438 C316.04760742 222.95523438 316.04760742 222.29523438 316.04760742 221.61523438 C315.38567383 221.23415527 314.72374023 220.85307617 314.04174805 220.46044922 C301.04290966 212.97471073 288.05822084 205.46646743 275.10791016 197.89697266 C267.62407229 193.52612102 260.12042804 189.1903987 252.61010742 184.86523438 C242.72267885 179.17089225 232.86635361 173.42716631 223.04760742 167.61523438 C218.98883173 171.2661905 216.18724898 175.61175138 213.17260742 180.11523438 C212.01080039 181.83202578 210.8480073 183.54815022 209.68432617 185.26367188 C208.78593018 186.58963379 208.78593018 186.58963379 207.86938477 187.94238281 C203.2401401 194.73425773 198.4920781 201.44403667 193.76293945 208.16650391 C192.04409033 210.62025522 190.33931041 213.08326999 188.63745117 215.54882812 C187.56584412 217.0918021 186.49422987 218.63477108 185.42260742 220.17773438 C184.69545532 221.24048584 184.69545532 221.24048584 183.95361328 222.32470703 C179.59214828 228.57693604 179.59214828 228.57693604 176.04760742 230.61523438 C172.43524529 231.15324576 170.72471611 231.06701017 167.66479492 229.02539062 C164.59733499 226.20058051 162.38384631 223.07517896 160.11010742 219.61523438 C159.13977347 218.17183967 158.16836854 216.72916452 157.19604492 215.28710938 C156.68525391 214.52591797 156.17446289 213.76472656 155.64819336 212.98046875 C152.89239423 208.90814082 150.06199717 204.88838882 147.23510742 200.86523438 C146.05524262 199.18436923 144.8755573 197.50337809 143.69604492 195.82226562 C143.10146484 194.97486816 142.50688477 194.1274707 141.89428711 193.25439453 C139.97265455 190.50811638 138.06000769 187.75575149 136.14916992 185.00195312 C135.51470947 184.08961914 134.88024902 183.17728516 134.2265625 182.23730469 C133.00785802 180.48441071 131.79144421 178.72992131 130.57763672 176.97363281 C130.02760986 176.18375977 129.47758301 175.39388672 128.91088867 174.58007812 C128.42918213 173.88519287 127.94747559 173.19030762 127.45117188 172.47436523 C126.10140664 170.68649565 124.6713906 169.15439237 123.04760742 167.61523438 Z M3.88354492 236.36914062 C2.85640381 236.96911865 1.8292627 237.56909668 0.77099609 238.18725586 C-0.33397217 238.84411377 -1.43894043 239.50097168 -2.57739258 240.17773438 C-3.73401548 240.85709115 -4.89116949 241.53554444 -6.04882812 242.21313477 C-8.4647949 243.62800106 -10.878401 245.04678534 -13.29077148 246.46777344 C-16.84605365 248.55783767 -20.41761513 250.61860017 -23.99536133 252.66992188 C-40.11397026 261.90829193 -40.11397026 261.90829193 -55.95239258 271.61523438 C-52.64700681 274.37270437 -49.36296801 276.64418911 -45.59301758 278.71679688 C-44.05689819 279.56745728 -44.05689819 279.56745728 -42.48974609 280.43530273 C-41.40491943 281.03093018 -40.32009277 281.62655762 -39.20239258 282.24023438 C-31.92925482 286.27231425 -24.66480826 290.30524182 -17.51489258 294.55273438 C-10.505408 298.71350476 -3.45437185 302.79852639 3.61010742 306.86523438 C12.10417008 311.75668742 20.5852912 316.66905966 29.04760742 321.61523438 C38.55903193 327.17354199 48.08639587 332.70362231 57.64208984 338.18554688 C62.70251736 341.0910408 67.74306314 344.01928418 72.73510742 347.04101562 C73.60611084 347.56284424 74.47711426 348.08467285 75.37451172 348.62231445 C76.98223763 349.58796065 78.58322189 350.56496049 80.17578125 351.55541992 C80.8824292 351.97734619 81.58907715 352.39927246 82.31713867 352.83398438 C82.92146729 353.20458984 83.5257959 353.57519531 84.1484375 353.95703125 C86.82744502 354.8855059 88.34811934 354.44186466 91.04760742 353.61523438 C92.98287884 352.66068771 94.88052883 351.62814347 96.74682617 350.54492188 C97.8614624 349.90280762 98.97609863 349.26069336 100.12451172 348.59912109 C101.32815309 347.89634632 102.53168234 347.19337946 103.73510742 346.49023438 C104.97929461 345.76972245 106.22384746 345.04984163 107.46875 344.33056641 C110.04387686 342.84157652 112.61676022 341.34880738 115.18823242 339.85351562 C118.90311621 337.69561206 122.63004503 335.55926226 126.36010742 333.42773438 C127.52855911 332.75875908 128.69693603 332.0896532 129.86523438 331.42041016 C132.05302536 330.16730029 134.24161892 328.9155902 136.43115234 327.66552734 C142.46153011 324.19644689 148.31900614 320.56394493 154.04760742 316.61523438 C151.53925622 313.797394 148.74837805 312.15799715 145.47338867 310.31445312 C143.77835205 309.35430298 143.77835205 309.35430298 142.04907227 308.37475586 C141.44842957 308.03741425 140.84778687 307.70007263 140.22894287 307.35250854 C137.03662544 305.55929963 133.85344097 303.74998004 130.66870117 301.94335938 C129.69891327 301.39415077 129.69891327 301.39415077 128.70953369 300.83384705 C122.75128939 297.45666183 116.83198732 294.01467471 110.92260742 290.55273438 C102.68771537 285.73461398 94.4384014 280.9426634 86.17260742 276.17773438 C84.55418945 275.24477539 84.55418945 275.24477539 82.90307617 274.29296875 C79.6181775 272.39994311 76.33295639 270.5074784 73.04760742 268.61523438 C60.03306599 261.11932194 47.02305382 253.61618415 34.04760742 246.05273438 C33.08709473 245.49320068 32.12658203 244.93366699 31.13696289 244.35717773 C30.22060059 243.82229736 29.30423828 243.28741699 28.36010742 242.73632812 C27.47838867 242.22312012 26.59666992 241.70991211 25.68823242 241.18115234 C23.87227788 240.10427249 22.07075267 239.00280301 20.28198242 237.88134766 C19.40026367 237.33075684 18.51854492 236.78016602 17.61010742 236.21289062 C16.82764648 235.714104 16.04518555 235.21531738 15.23901367 234.70141602 C10.71029908 232.45673562 7.88326003 234.00807375 3.88354492 236.36914062 Z M328.32104492 236.15039062 C327.38534668 236.70460693 326.44964844 237.25882324 325.4855957 237.82983398 C324.47480957 238.43964111 323.46402344 239.04944824 322.42260742 239.67773438 C320.24076311 240.9727592 318.05845577 242.26700418 315.87573242 243.56054688 C314.7471582 244.2324707 313.61858398 244.90439453 312.45581055 245.59667969 C307.05494266 248.7954172 301.61417937 251.9239131 296.17260742 255.05273438 C293.990249 256.31043106 291.80795773 257.56824426 289.62573242 258.82617188 C286.33610452 260.72117737 283.04634814 262.61595968 279.7565918 264.51074219 C267.18650817 271.75179749 254.62944381 279.01356988 242.10595703 286.33496094 C234.58299157 290.72950925 227.03677087 295.08272554 219.48510742 299.42773438 C210.27911035 304.72632133 201.12001011 310.09094957 192.04760742 315.61523438 C194.99099902 318.81278827 197.9353988 320.89221771 201.71948242 323.01367188 C203.41186035 323.97019653 203.41186035 323.97019653 205.13842773 324.94604492 C206.03350037 325.44604507 206.03350037 325.44604507 206.94665527 325.95614624 C209.45905752 327.35977267 211.96324511 328.77776205 214.46795654 330.1950531 C215.75486583 330.92311264 217.04218194 331.65045352 218.32989502 332.37709045 C224.68418203 335.9648855 230.99591696 339.62327052 237.29760742 343.30273438 C238.26537109 343.86589355 239.23313477 344.42905273 240.23022461 345.00927734 C241.14449219 345.54311035 242.05875977 346.07694336 243.00073242 346.62695312 C244.29333984 347.3779126 244.29333984 347.3779126 245.61206055 348.14404297 C247.19662037 349.10119589 248.75545187 350.10276765 250.2800293 351.15283203 C250.96129883 351.62124512 251.64256836 352.0896582 252.34448242 352.57226562 C253.20831543 353.20032104 253.20831543 353.20032104 254.08959961 353.84106445 C257.03498269 355.00562926 259.01906491 354.40167387 262.04760742 353.61523438 C264.75526672 352.38849261 264.75526672 352.38849261 267.40698242 350.76367188 C268.42679199 350.1673999 269.44660156 349.57112793 270.49731445 348.95678711 C271.58641113 348.30782471 272.67550781 347.6588623 273.79760742 346.99023438 C274.95312021 346.31095221 276.1092188 345.63266564 277.26586914 344.95532227 C279.66835633 343.54741843 282.06826984 342.13526746 284.46655273 340.72021484 C290.01032956 337.45466399 295.5941883 334.25859634 301.17260742 331.05273438 C309.47894995 326.26520632 317.76979495 321.45190814 326.04760742 316.61523438 C337.57450601 309.88014002 349.13562173 303.20528968 360.70385742 296.54150391 C365.31538167 293.88489421 369.92612882 291.2269388 374.53637695 288.56811523 C376.71425624 287.3121054 378.89230248 286.05638499 381.07055664 284.80102539 C388.07592685 280.76128823 395.0660357 276.69595762 402.04760742 272.61523438 C399.64791061 269.9595765 397.08316553 268.33524884 393.98120117 266.56835938 C392.9505957 265.97788818 391.91999023 265.38741699 390.8581543 264.77905273 C389.74504883 264.14749268 388.63194336 263.51593262 387.48510742 262.86523438 C386.32530811 262.20241866 385.16580733 261.53908032 384.0065918 260.87524414 C381.58508275 259.48913338 379.16228809 258.10531056 376.73852539 256.72314453 C370.83063776 253.35197041 364.93971373 249.95138571 359.04760742 246.55273438 C357.46677368 245.64346191 357.46677368 245.64346191 355.85400391 244.71582031 C354.84539307 244.13477539 353.83678223 243.55373047 352.79760742 242.95507812 C351.83338867 242.40062012 350.86916992 241.84616211 349.87573242 241.27490234 C346.26804896 239.15775523 342.72849059 236.93629877 339.20385742 234.68383789 C334.87826938 232.54014463 332.1376511 233.86215389 328.32104492 236.15039062 Z M157.51635742 335.15039062 C156.57381104 335.70484863 155.63126465 336.25930664 154.66015625 336.83056641 C153.63301514 337.44013184 152.60587402 338.04969727 151.54760742 338.67773438 C149.35395307 339.96870419 147.15993 341.25904761 144.96557617 342.54882812 C144.39771896 342.88325928 143.82986176 343.21769043 143.24479675 343.56225586 C136.05610125 347.79412129 128.83037798 351.96192313 121.59521484 356.11376953 C116.36815598 359.11407213 111.15807523 362.13572327 105.98510742 365.22851562 C104.55847778 366.0713208 104.55847778 366.0713208 103.10302734 366.93115234 C101.33029428 367.9791713 99.56426678 369.03865447 97.80664062 370.11181641 C97.01604248 370.57571777 96.22544434 371.03961914 95.41088867 371.51757812 C94.39442261 372.1284729 94.39442261 372.1284729 93.35742188 372.75170898 C89.00234069 374.37985846 85.32117965 374.14725269 81.06347656 372.36865234 C80.07984131 371.78744629 79.09620605 371.20624023 78.08276367 370.60742188 C76.96434082 369.95692871 75.84591797 369.30643555 74.69360352 368.63623047 C73.49893075 367.92118919 72.30443605 367.20585032 71.11010742 366.49023438 C69.86955774 365.76177849 68.62817191 365.03474481 67.38598633 364.30908203 C64.84444965 362.82137424 62.30804905 361.32544756 59.77563477 359.82226562 C56.27001321 357.74294253 52.74936034 355.69112456 49.22338867 353.64648438 C45.24213653 351.33712304 41.26250695 349.0251996 37.28979492 346.70117188 C36.42322266 346.19424805 35.55665039 345.68732422 34.66381836 345.16503906 C31.0993636 343.05350875 27.5708332 340.88395351 24.0480957 338.70361328 C22.13436928 337.45593255 22.13436928 337.45593255 20.04760742 337.61523438 C20.04760742 360.05523437 20.04760742 382.49523437 20.04760742 405.61523438 C28.29760742 410.23523438 36.54760742 414.85523438 45.04760742 419.61523438 C53.48510742 424.55273438 53.48510742 424.55273438 57.50854492 426.93945312 C63.18089355 430.29668902 68.89767625 433.57684063 74.61010742 436.86523438 C83.10416977 441.75668724 91.58531504 446.66901922 100.04760742 451.61523438 C109.43958082 457.10428145 118.85427586 462.55276054 128.28393555 467.97680664 C133.85526286 471.1845278 139.41457423 474.41107963 144.95385742 477.67382812 C146.61481445 478.65029297 146.61481445 478.65029297 148.30932617 479.64648438 C150.42870116 480.89407785 152.54597856 482.14524322 154.66088867 483.40039062 C155.60319336 483.9546875 156.54549805 484.50898438 157.51635742 485.08007812 C158.34586914 485.57113037 159.17538086 486.06218262 160.0300293 486.56811523 C161.96461407 487.76878523 161.96461407 487.76878523 164.04760742 487.61523438 C164.04760742 436.46523438 164.04760742 385.31523437 164.04760742 332.61523438 C161.29019987 332.61523438 159.88955936 333.74550855 157.51635742 335.15039062 Z M182.04760742 332.61523438 C182.04760742 383.76523437 182.04760742 434.91523438 182.04760742 487.61523438 C185.13408563 486.38064309 187.78686224 485.30308896 190.62963867 483.72460938 C191.30124023 483.35247314 191.9728418 482.98033691 192.66479492 482.59692383 C193.75147461 481.98723755 193.75147461 481.98723755 194.86010742 481.36523438 C195.63999023 480.92977295 196.41987305 480.49431152 197.22338867 480.0456543 C205.78114585 475.24278023 214.2437846 470.2772945 222.71166992 465.31835938 C229.10042777 461.57888823 235.50879975 457.87403941 241.92260742 454.17773438 C243.53981689 453.24550049 243.53981689 453.24550049 245.18969727 452.29443359 C249.57223943 449.76877917 253.95544665 447.24428009 258.33862305 444.71972656 C270.9108133 437.47745773 283.47597266 430.22450705 295.99145508 422.88452148 C305.96560117 417.04726514 316.01129424 411.35027048 326.04760742 405.61523438 C326.04760742 383.17523438 326.04760742 360.73523438 326.04760742 337.61523438 C322.18411352 339.16063194 318.92340044 340.72729988 315.34838867 342.78320312 C314.23343018 343.42233643 313.11847168 344.06146973 311.96972656 344.7199707 C310.76646755 345.41413404 309.56326242 346.10839077 308.36010742 346.80273438 C307.11863868 347.51612866 305.87701871 348.22925985 304.63525391 348.94213867 C301.41467687 350.79220789 298.19649169 352.6463956 294.97900391 354.50183105 C292.46010343 355.9539162 289.93998169 357.40387428 287.4198761 358.85386658 C282.35760365 361.76697208 277.29700666 364.68298572 272.23901367 367.60351562 C270.91172241 368.369823 270.91172241 368.369823 269.55761719 369.15161133 C267.82875122 370.15973811 266.12034463 371.20350996 264.43041992 372.27563477 C261.04682538 374.17786666 258.88684423 374.07936268 255.04760742 373.61523438 C252.22883213 372.51793336 249.70220432 371.0403579 247.11010742 369.49023438 C246.33924805 369.04574951 245.56838867 368.60126465 244.77416992 368.14331055 C242.1899749 366.64836597 239.619041 365.13200955 237.04760742 363.61523438 C235.18247526 362.52930418 233.31656806 361.44470422 231.44995117 360.36132812 C227.45130389 358.03713946 223.45686032 355.70595061 219.46557617 353.36914062 C213.17986425 349.69067599 206.89001781 346.01954795 200.58862305 342.36801147 C198.8951457 341.3855614 197.20377479 340.39948325 195.51245117 339.41333008 C194.47862305 338.81480225 193.44479492 338.21627441 192.37963867 337.59960938 C191.46931885 337.07077148 190.55899902 336.54193359 189.62109375 335.99707031 C186.70887738 334.37144907 186.70887738 334.37144907 182.04760742 332.61523438 Z " fill="#000000" transform="translate(82.952392578125,-0.615234375)"/>
<path d="M0 0 C1.10336449 -0.01073296 1.10336449 -0.01073296 2.22901917 -0.02168274 C4.65063344 -0.03853633 7.07038774 -0.01919112 9.49194336 0.00219727 C11.179155 0.00136834 12.86636655 -0.00109195 14.55357361 -0.00511169 C18.08511741 -0.00796726 21.61602613 0.00670888 25.14746094 0.03417969 C29.67277156 0.06828879 34.19694874 0.06223361 38.72231388 0.04351711 C42.20451803 0.03294686 45.68645859 0.04188462 49.16863823 0.05690193 C50.83718521 0.06208229 52.50575973 0.06160369 54.17430305 0.05535698 C56.50612693 0.04990317 58.83632966 0.07028129 61.16796875 0.09765625 C61.85638855 0.09113037 62.54480835 0.08460449 63.25408936 0.07788086 C66.6054284 0.14474729 68.25991817 0.42460663 70.91624451 2.53944397 C73.58864873 6.02641294 74.03720337 8.22881527 73.51928711 12.63110352 C70.96904345 15.7327512 69.34229464 17.35676767 65.51928711 18.63110352 C63.26148193 18.73601168 61.00068536 18.77978623 58.74047852 18.79223633 C58.05556839 18.79720123 57.37065826 18.80216614 56.66499329 18.80728149 C54.40026849 18.82188067 52.13561372 18.82870117 49.87084961 18.83422852 C48.2952779 18.83998161 46.7197062 18.84573932 45.14413452 18.85150146 C41.84047113 18.86200492 38.53683203 18.86785194 35.2331543 18.87133789 C31.00404821 18.87682272 26.77526406 18.90085304 22.54625893 18.92930984 C19.29142321 18.94795117 16.03666483 18.9531426 12.78178024 18.95467377 C11.22288629 18.95769722 9.6639936 18.96571542 8.10515213 18.97885895 C5.9221484 18.99595202 3.73992863 18.99403177 1.55688477 18.98754883 C0.31572906 18.99119446 -0.92542664 18.99484009 -2.20419312 18.99859619 C-6.74513309 18.48928683 -9.29544968 16.81636673 -12.48071289 13.63110352 C-13.11586517 8.09620504 -13.11586517 8.09620504 -12.48071289 5.63110352 C-8.72067046 0.90950794 -5.83280539 -0.09935718 0 0 Z " fill="#000000" transform="translate(63.480712890625,33.368896484375)"/>
<path d="M0 0 C4.11867381 4.61215546 3.44364799 10.17254837 3.375 16 C3.38660156 16.98484375 3.39820313 17.9696875 3.41015625 18.984375 C3.37287238 28.18106329 3.37287238 28.18106329 0 32 C-4.10460518 33.85868914 -6.03380718 34.34637101 -10.3125 32.8125 C-13 31 -13 31 -15 28 C-15.49013484 24.0578318 -15.41651039 20.09436806 -15.4375 16.125 C-15.47037109 15.03574219 -15.50324219 13.94648438 -15.53710938 12.82421875 C-15.59107962 4.80718386 -15.59107962 4.80718386 -12.66015625 0.8046875 C-7.85484597 -2.45530273 -5.32733037 -2.09287979 0 0 Z " fill="#000000" transform="translate(390,368)"/>
<path d="M0 0 C1.70446289 -0.01643555 1.70446289 -0.01643555 3.44335938 -0.03320312 C11.7790785 0.0405643 11.7790785 0.0405643 14.73413086 2.38305664 C17.12439347 5.44137316 17.36999311 7.71460716 17.4375 11.5625 C16.21684376 14.45352794 15.30370014 16.02831408 12.62475586 17.68041992 C8.5798399 19.31166017 4.30581525 18.88967558 0 18.875 C-0.94166016 18.89111328 -1.88332031 18.90722656 -2.85351562 18.92382812 C-11.59563517 18.92999758 -11.59563517 18.92999758 -15.5625 15.5625 C-18.06281654 11.81202518 -18.09853554 10.00393734 -17.5625 5.5625 C-13.24381372 -1.10919248 -7.16898722 -0.150969 0 0 Z " fill="#000000" transform="translate(102.5625,67.4375)"/>
<path d="M0 0 C2.43119623 1.87015094 3.64069173 3.28138345 5 6 C5.26752525 9.59821462 5.23158496 13.2054541 5.25 16.8125 C5.270625 17.81087891 5.29125 18.80925781 5.3125 19.83789062 C5.36266411 29.24993219 5.36266411 29.24993219 2 33 C-1.61623139 34.5402467 -3.88806222 35.25271313 -7.75 34.375 C-10.31466782 32.807703 -11.42718465 31.55471888 -13 29 C-13.6443004 25.04466983 -13.50947856 21.06482233 -13.5 17.0625 C-13.52835937 15.97775391 -13.55671875 14.89300781 -13.5859375 13.77539062 C-13.60540823 5.85567132 -13.60540823 5.85567132 -10.72265625 1.78125 C-6.59163112 -0.92140059 -4.86154386 -0.69450627 0 0 Z " fill="#000000" transform="translate(354,384)"/>
<path d="M0 0 C1.71316406 -0.00773437 1.71316406 -0.00773437 3.4609375 -0.015625 C4.64945313 -0.00015625 5.83796875 0.0153125 7.0625 0.03125 C8.25101563 0.01578125 9.43953125 0.0003125 10.6640625 -0.015625 C11.80617188 -0.01046875 12.94828125 -0.0053125 14.125 0 C15.16785156 0.00451172 16.21070313 0.00902344 17.28515625 0.01367188 C20.74895484 0.65917583 21.91222689 1.79114503 24.0625 4.53125 C25.22989517 8.1890882 25.41634129 9.78986824 23.75 13.28125 C21.34680683 16.48550756 19.98146871 17.82347789 16.0625 18.53125 C13.085691 18.74457065 10.10875664 18.71635341 7.125 18.71875 C6.32642578 18.73099609 5.52785156 18.74324219 4.70507812 18.75585938 C-0.50748635 18.76881521 -4.43287 18.42205383 -8.72265625 15.18359375 C-10.28847553 13.05387813 -10.37056997 11.72076021 -10.375 9.09375 C-10.39433594 8.33191406 -10.41367187 7.57007813 -10.43359375 6.78515625 C-9.19553259 1.16026419 -5.2300046 0.02262672 0 0 Z " fill="#000000" transform="translate(26.9375,-0.53125)"/>
</svg>
