<?xml version="1.0" encoding="UTF-8"?>
<svg version="1.1" xmlns="http://www.w3.org/2000/svg" width="512" height="512">
<path d="M0 0 C1.14160226 -0.00630794 2.28320451 -0.01261588 3.45940077 -0.01911497 C5.35682337 -0.02190797 5.35682337 -0.02190797 7.29257774 -0.02475739 C8.64153854 -0.03020178 9.9904977 -0.03606502 11.33945501 -0.0423131 C15.05920198 -0.0581954 18.77894234 -0.06768968 22.49871278 -0.07607794 C25.6861381 -0.0840723 28.87354549 -0.09576489 32.06095894 -0.10749274 C43.47988795 -0.14943588 54.89883803 -0.17661009 66.31781578 -0.20114899 C67.66926395 -0.20411134 67.66926395 -0.20411134 69.0480141 -0.20713353 C86.93239297 -0.24629353 104.81677875 -0.28000671 122.70118713 -0.30221558 C126.63475746 -0.30718503 130.56832769 -0.31222933 134.50189781 -0.31735992 C135.47958997 -0.3186306 136.45728213 -0.31990127 137.46460132 -0.32121044 C153.30216344 -0.34256999 169.13951804 -0.39156322 184.97697575 -0.45160407 C201.23117394 -0.51271741 217.48526506 -0.54740243 233.7395767 -0.55668879 C242.86813318 -0.56260195 251.99633828 -0.58037658 261.12478065 -0.62807465 C268.89944298 -0.66866102 276.6736966 -0.68555895 284.44846018 -0.67142183 C288.4152721 -0.66495134 292.38121343 -0.66982223 296.34789085 -0.70529556 C299.98170863 -0.73753102 303.61404243 -0.73727126 307.24789827 -0.71147853 C309.18055747 -0.706111 311.11321826 -0.73520126 313.04564536 -0.76563025 C318.89145762 -0.6921109 322.72626953 -0.43756408 327.25363636 3.4659071 C328.41181391 4.66805776 329.54602195 5.89381249 330.65375328 7.14260101 C331.91466899 8.37461393 333.18149747 9.60062892 334.45635033 10.81821442 C335.78370087 12.13972229 337.10841676 13.46388036 338.43085289 14.79030609 C339.52747246 15.88429718 339.52747246 15.88429718 340.64624596 17.0003891 C343.03536575 19.38514652 345.42085547 21.7734963 347.80609703 24.16213226 C349.47363998 25.829001 351.14133131 27.49572132 352.80916405 29.16230011 C356.28966778 32.64133487 359.76836937 36.12215888 363.2457943 39.60427094 C367.71033158 44.07453172 372.17937906 48.54025243 376.64976215 53.00466633 C380.08724406 56.4385437 383.52235185 59.87478804 386.9567337 63.31176567 C388.60469217 64.96039232 390.25339684 66.60827341 391.9028511 68.25540352 C394.19846198 70.54848678 396.49086334 72.84473021 398.78241539 75.14186859 C399.81012802 76.16654488 399.81012802 76.16654488 400.85860252 77.21192169 C401.47947746 77.83561646 402.1003524 78.45931122 402.74004173 79.10190582 C403.28180518 79.6440463 403.82356863 80.18618677 404.38174915 80.74475574 C407.0593164 83.68721845 406.78164176 86.13817044 406.78797436 89.99977684 C406.7924322 91.25531455 406.79689005 92.51085226 406.80148298 93.80443656 C406.80139367 95.2106863 406.8012038 96.61693602 406.8009243 98.02318573 C406.80422191 99.50699018 406.80794725 100.99079374 406.81206578 102.47459614 C406.82210543 106.56692292 406.82580571 110.65923502 406.82845509 114.75157237 C406.83235226 119.15929589 406.8419309 123.56700773 406.85066795 127.97472382 C406.87044765 138.62583342 406.88049988 149.276944 406.88939574 159.92806739 C406.89377565 164.93942018 406.89914317 169.95077192 406.90438461 174.96212387 C406.92139739 191.6127901 406.93589312 208.26345567 406.94313335 224.91412926 C406.94504336 229.23686855 406.94696367 233.55960784 406.9489193 237.88234711 C406.94940304 238.95678818 406.94988678 240.03122925 406.95038518 241.13822915 C406.95869131 258.55625484 406.98403785 275.97421199 407.01649997 293.39220773 C407.04953005 311.26004783 407.06757839 329.12785304 407.0707776 346.99572384 C407.07294631 357.03395215 407.08174782 367.07208046 407.10723877 377.11027908 C407.12889039 385.65646829 407.13702356 394.20253322 407.12727199 402.74874674 C407.12271131 407.11177743 407.12471549 411.47455142 407.14403343 415.8375473 C407.16155239 419.82856957 407.16076009 423.81914572 407.14513614 427.81017198 C407.14274281 429.25701631 407.14717217 430.70389062 407.15896479 432.15068887 C407.17396332 434.11165249 407.16208463 436.07276735 407.14873791 438.0337429 C407.14971472 439.12473443 407.15069152 440.21572595 407.15169793 441.33977783 C406.65375328 444.14260101 406.65375328 444.14260101 405.12921017 446.49294436 C401.67849389 448.79251867 398.55997711 448.69463657 394.55145836 448.64596558 C393.72411501 448.65177934 392.89677166 448.6575931 392.0443573 448.66358304 C389.25370813 448.67825765 386.46392825 448.66426322 383.67328453 448.65053558 C381.65977591 448.65514155 379.64627064 448.66149241 377.63277245 448.66944456 C372.08547341 448.68620278 366.53844825 448.67786205 360.99114799 448.66549969 C355.01424326 448.65647802 349.03738681 448.67040456 343.06049156 448.68141937 C332.0237526 448.69820918 320.98708932 448.69671036 309.95034981 448.6857735 C299.75528349 448.67572003 289.56024932 448.67308037 279.36517906 448.67786407 C278.68949729 448.67816962 278.01381552 448.67847516 277.31765854 448.67878995 C274.57499846 448.68003526 271.83233839 448.68130886 269.08967835 448.68262901 C243.34979303 448.6948711 217.6099636 448.68376152 191.87008691 448.66224142 C168.99065409 448.64325831 146.11131032 448.64495679 123.23187828 448.66408539 C97.53974096 448.68549366 71.84765304 448.69400298 46.15550804 448.68163633 C43.41778121 448.68035342 40.68005436 448.67910206 37.9423275 448.67786407 C37.26820576 448.67754777 36.59408402 448.67723146 35.89953434 448.67690556 C25.70968364 448.67235142 15.51986858 448.67768466 5.33002281 448.68778229 C-6.25373355 448.69920382 -17.83740515 448.69600699 -29.42115211 448.67465931 C-35.33551443 448.6641203 -41.24969566 448.66007555 -47.16405678 448.67325592 C-52.57240309 448.68512666 -57.98039952 448.67870543 -63.38871384 448.65734571 C-65.35096387 448.652857 -67.31324312 448.65519632 -69.27547455 448.66484886 C-71.93206068 448.67692018 -74.58743043 448.66463302 -77.2439518 448.64596558 C-78.40085549 448.66001257 -78.40085549 448.66001257 -79.58113098 448.67434335 C-82.92790254 448.6269707 -85.0092154 448.3674381 -87.82065612 446.49189687 C-89.77316326 443.48518136 -89.85050632 441.62825101 -89.85799122 438.05050278 C-89.8702723 436.79344977 -89.88255339 435.53639676 -89.89520663 434.24125123 C-89.88863091 432.84364028 -89.88167109 431.4460311 -89.87436867 430.04842377 C-89.88112378 428.56573632 -89.88961344 427.08305592 -89.89969188 425.60038733 C-89.9222643 421.52020453 -89.91974785 417.44036043 -89.91312253 413.3601346 C-89.9102539 408.96187416 -89.93028622 404.5637095 -89.94727516 400.1654892 C-89.97666897 391.54593363 -89.98392364 382.92649507 -89.98269965 374.30689457 C-89.98186802 367.30094054 -89.98771877 360.29502358 -89.99832535 353.28907776 C-90.03102016 331.26682985 -90.03998144 309.24469599 -90.03123561 287.22242734 C-90.02525503 269.8459455 -90.05563958 252.46974592 -90.10285833 235.09333447 C-90.15094911 217.25703025 -90.17303466 199.42086197 -90.16754752 181.58449149 C-90.16496981 171.56845637 -90.17298039 161.55269149 -90.20861816 151.53671265 C-90.23872391 143.00815686 -90.24451562 134.48001192 -90.21880915 125.9514344 C-90.20637761 121.59986425 -90.20521269 117.24906649 -90.23451805 112.89756012 C-90.26106648 108.912241 -90.25519145 104.92832198 -90.2236881 100.94305107 C-90.21796042 99.50292694 -90.22400805 98.0626967 -90.24314412 96.62268832 C-90.39281149 84.54200245 -90.39281149 84.54200245 -86.02167892 79.46763134 C-84.82129352 78.33251986 -83.59594674 77.22318096 -82.34624672 76.14260101 C-81.11277385 74.88311345 -79.88659826 73.61640261 -78.67063332 72.34000397 C-77.34912544 71.01265342 -76.02496738 69.68793753 -74.69854164 68.3655014 C-73.96921425 67.63442169 -73.23988686 66.90334198 -72.48845863 66.15010834 C-70.10370121 63.76098854 -67.71535143 61.37549882 -65.32671547 58.99025726 C-63.65984673 57.32271431 -61.99312641 55.65502298 -60.32654762 53.98719025 C-56.84751286 50.50668651 -53.36668885 47.02798493 -49.8845768 43.55056 C-45.41431601 39.08602272 -40.94859531 34.61697523 -36.4841814 30.14659214 C-33.05030404 26.70911023 -29.61405969 23.27400245 -26.17708206 19.83962059 C-24.52845541 18.19166212 -22.88057432 16.54295745 -21.23344421 14.89350319 C-18.94036095 12.59789232 -16.64411753 10.30549096 -14.34697914 8.0139389 C-13.66386162 7.32879715 -12.98074409 6.6436554 -12.27692604 5.93775177 C-11.65323128 5.31687683 -11.02953651 4.69600189 -10.38694191 4.05631256 C-9.84480144 3.51454911 -9.30266096 2.97278566 -8.74409199 2.41460514 C-5.92805195 -0.14792065 -3.69558522 0.01273052 0 0 Z M-35.97124672 47.58010101 C-36.62700314 48.33140919 -37.28275955 49.08271736 -37.95838737 49.85679245 C-51.81893245 63.80124799 -51.81893245 63.80124799 -60.34624672 80.14260101 C-6.22624672 80.14260101 47.89375328 80.14260101 103.65375328 80.14260101 C108.76819509 56.30005148 108.76819509 56.30005148 113.52875328 32.39260101 C113.83838427 30.78577912 114.14828078 29.17900837 114.45844078 27.57228851 C115.19322411 23.7629656 115.92458626 19.95300278 116.65375328 16.14260101 C98.99683164 14.22521125 81.33760534 12.93517753 63.59125328 12.20510101 C62.29117584 12.15131916 60.9910984 12.09753731 59.65162468 12.0421257 C18.57447094 10.54154837 -8.41725982 15.95254753 -35.97124672 47.58010101 Z M133.65375328 16.14260101 C129.01049234 37.43365118 124.81557061 58.73896904 120.65375328 80.14260101 C145.73375328 80.14260101 170.81375328 80.14260101 196.65375328 80.14260101 C194.69437828 70.13947601 192.73500328 60.13635101 190.71625328 49.83010101 C190.09887291 46.67278412 189.48149254 43.51546722 188.84540367 40.26247406 C188.35589564 37.76805854 187.86624103 35.27367178 187.37640953 32.77931976 C187.24995552 32.13106735 187.12350151 31.48281494 186.99321556 30.81491852 C186.62026653 28.90384739 186.24460469 26.99330628 185.86884117 25.08278656 C185.65788307 24.00578995 185.44692497 22.92879333 185.2295742 21.81916046 C184.68719818 19.06022763 184.68719818 19.06022763 183.65375328 16.14260101 C167.15375328 16.14260101 150.65375328 16.14260101 133.65375328 16.14260101 Z M200.65375328 16.14260101 C202.19876313 24.04465801 203.74589971 31.94629433 205.29575825 39.84740162 C206.01534062 43.51615382 206.7341877 47.18504692 207.4513607 50.85427094 C208.1434094 54.39480997 208.83738125 57.93496706 209.53269196 61.47486687 C209.79771677 62.82592768 210.06204663 64.177125 210.32567215 65.52845955 C210.69483358 67.42013747 211.06668849 69.31128916 211.43866539 71.20241547 C211.64962349 72.27941208 211.86058159 73.35640869 212.07793236 74.46604156 C212.62030838 77.2249744 212.62030838 77.2249744 213.65375328 80.14260101 C267.77375328 80.14260101 321.89375328 80.14260101 377.65375328 80.14260101 C375.67375328 77.83260101 373.69375328 75.52260101 371.65375328 73.14260101 C370.25350844 71.1557941 368.88443724 69.1466075 367.54926109 67.1155014 C362.13214151 59.0962071 356.19901236 51.55233486 349.90375328 44.20510101 C349.33267467 43.53782612 348.76159607 42.87055122 348.17321205 42.18305588 C332.64959287 24.38371371 317.10077548 14.70047039 293.26071739 12.77707672 C262.44854843 10.96982178 231.33139708 13.15939464 200.65375328 16.14260101 Z M-73.34624672 96.14260101 C-73.34624672 207.02260101 -73.34624672 317.90260101 -73.34624672 432.14260101 C79.77375328 432.14260101 232.89375328 432.14260101 390.65375328 432.14260101 C390.65375328 321.26260101 390.65375328 210.38260101 390.65375328 96.14260101 C332.57375328 96.14260101 274.49375328 96.14260101 214.65375328 96.14260101 C214.44360948 131.55035508 214.44360948 131.55035508 214.26581383 166.95827484 C214.21588707 173.80019379 214.21588707 173.80019379 214.18874168 177.00128937 C214.17257208 179.24112473 214.16229725 181.48100728 214.15663719 183.72089386 C214.14693571 187.11017407 214.11864095 190.49883466 214.08612633 193.88796234 C214.08755229 194.88895116 214.08897825 195.88993998 214.09044743 196.92126179 C214.07791841 197.83221953 214.06538939 198.74317728 214.0524807 199.68173981 C214.04787173 200.47540357 214.04326277 201.26906733 214.03851414 202.0867815 C213.5491912 204.70128772 212.77794894 205.57299666 210.65375328 207.14260101 C206.38835869 207.86554925 204.096849 208.10552075 200.45844078 205.67775726 C198.42812875 203.90591669 196.52529343 202.08053727 194.65375328 200.14260101 C194.08269859 199.57154633 193.51164391 199.00049164 192.92328453 198.41213226 C192.50433922 197.99318695 192.08539391 197.57424164 191.65375328 197.14260101 C188.46815376 198.53893208 186.41431483 200.18817594 184.02875328 202.70510101 C180.93995463 205.949014 179.61085596 207.01058685 175.02875328 207.64260101 C170.17497332 207.61607763 167.78258159 205.22465194 164.41547203 201.96681976 C163.83410484 201.36482758 163.25273766 200.76283539 162.65375328 200.14260101 C162.08269859 199.57154633 161.51164391 199.00049164 160.92328453 198.41213226 C160.50433922 197.99318695 160.08539391 197.57424164 159.65375328 197.14260101 C156.46815376 198.53893208 154.41431483 200.18817594 152.02875328 202.70510101 C148.93995463 205.949014 147.61085596 207.01058685 143.02875328 207.64260101 C138.17497332 207.61607763 135.78258159 205.22465194 132.41547203 201.96681976 C131.83410484 201.36482758 131.25273766 200.76283539 130.65375328 200.14260101 C130.08269859 199.57154633 129.51164391 199.00049164 128.92328453 198.41213226 C128.50433922 197.99318695 128.08539391 197.57424164 127.65375328 197.14260101 C124.46815376 198.53893208 122.41431483 200.18817594 120.02875328 202.70510101 C116.22070383 206.70438439 114.27259821 207.25965354 108.62640953 207.47072601 C106.02283534 207.03765625 105.28617143 206.19041353 103.65375328 204.14260101 C103.26899242 202.0867815 103.26899242 202.0867815 103.25502586 199.68173981 C103.23623233 198.31530319 103.23623233 198.31530319 103.21705914 196.92126179 C103.2184851 195.92027297 103.21991106 194.91928415 103.22138023 193.88796234 C103.20596955 192.28164586 103.20596955 192.28164586 103.19024754 190.64287853 C103.16031365 187.17007268 103.15081038 183.69754941 103.14203453 180.22463226 C103.12657489 178.08314264 103.10977921 175.94166222 103.09161949 173.80019379 C103.03361954 165.85193129 103.00151862 157.90349689 102.96625328 149.95510101 C102.86312828 132.19697601 102.76000328 114.43885101 102.65375328 96.14260101 C44.57375328 96.14260101 -13.50624672 96.14260101 -73.34624672 96.14260101 Z M118.65375328 96.14260101 C118.65375328 123.53260101 118.65375328 150.92260101 118.65375328 179.14260101 C120.63375328 178.15260101 120.63375328 178.15260101 122.65375328 177.14260101 C126.90898631 176.50431606 129.22425884 176.18960472 132.84515953 178.60353851 C134.87661947 180.37685713 136.78094134 182.20334785 138.65375328 184.14260101 C139.22480797 184.7136557 139.79586266 185.28471039 140.38422203 185.87306976 C140.80316734 186.29201508 141.22211266 186.71096039 141.65375328 187.14260101 C144.8393528 185.74626995 146.89319173 184.09702609 149.27875328 181.58010101 C152.36755193 178.33618802 153.6966506 177.27461518 158.27875328 176.64260101 C163.13253324 176.6691244 165.52492497 179.06055009 168.89203453 182.31838226 C169.76408531 183.22137054 169.76408531 183.22137054 170.65375328 184.14260101 C171.22480797 184.7136557 171.79586266 185.28471039 172.38422203 185.87306976 C172.80316734 186.29201508 173.22211266 186.71096039 173.65375328 187.14260101 C176.8393528 185.74626995 178.89319173 184.09702609 181.27875328 181.58010101 C184.51829835 178.17787137 185.63285424 177.19199935 190.52875328 176.95510101 C194.1554536 176.87925747 195.11352946 177.3724891 198.65375328 179.14260101 C198.65375328 151.75260101 198.65375328 124.36260101 198.65375328 96.14260101 C172.25375328 96.14260101 145.85375328 96.14260101 118.65375328 96.14260101 Z " fill="#000000" transform="translate(97.34624671936035,31.857398986816406)"/>
<path d="M0 0 C0.66525948 -0.00581376 1.33051895 -0.01162753 2.01593781 -0.01761746 C4.25529344 -0.03226843 6.49356169 -0.01830973 8.73291016 -0.00457001 C10.35043907 -0.00917694 11.9679638 -0.01552846 13.58547974 -0.02347898 C18.03825017 -0.04022408 22.49067903 -0.03190255 26.94345093 -0.01953411 C31.74243521 -0.01050705 36.54135955 -0.02444167 41.34033203 -0.0354538 C50.74463538 -0.05326873 60.14881125 -0.04938581 69.55311966 -0.03780323 C77.19411518 -0.02878086 84.8350749 -0.02753972 92.47607422 -0.0318985 C93.56231897 -0.03251143 94.64856373 -0.03312436 95.76772499 -0.03375587 C97.97419994 -0.03503473 100.18067488 -0.03633158 102.38714981 -0.03764623 C123.0921028 -0.04906074 143.79698503 -0.03592467 164.50192642 -0.01444477 C182.27947728 0.00342699 200.05692368 0.00032313 217.83447266 -0.01811981 C238.46379314 -0.03951115 259.09305156 -0.04796203 279.72238159 -0.03567076 C281.92087808 -0.03439652 284.11937458 -0.03313904 286.31787109 -0.0318985 C287.94055373 -0.03097285 287.94055373 -0.03097285 289.59601784 -0.03002849 C297.23053091 -0.02657038 304.86500472 -0.03241386 312.49951172 -0.04181671 C321.79958405 -0.05301879 331.0995213 -0.05003443 340.39957809 -0.02869374 C345.14740182 -0.01815915 349.89500006 -0.01410235 354.64282227 -0.02729034 C358.9853561 -0.03917042 363.3274545 -0.03272466 367.66994858 -0.01138014 C369.24458254 -0.00689537 370.81925296 -0.00922212 372.39386368 -0.01888329 C374.52775375 -0.03097616 376.6601352 -0.01864756 378.79394531 0 C379.9810611 0.00064941 381.16817688 0.00129882 382.39126587 0.00196791 C386.03162778 0.60923449 387.21684709 1.56980814 389.39697266 4.50336456 C389.79014818 7.12363689 389.93820618 9.32471459 389.90490723 11.94281769 C389.91426717 13.07077129 389.91426717 13.07077129 389.9238162 14.22151184 C389.93977938 16.74286443 389.92712955 19.2632547 389.91455078 21.78461456 C389.91997044 23.59150507 389.92709222 25.39839116 389.93579102 27.20526886 C389.95404587 32.11434486 389.94694792 37.02308508 389.93427467 41.93216705 C389.92415821 47.06593491 389.93353658 52.19967372 389.93981934 57.33344269 C389.94709969 65.95524007 389.93749785 74.57690047 389.91845703 83.19867706 C389.89668757 93.17125425 389.90373867 103.14350435 389.92576265 113.11607361 C389.94390559 121.67328698 389.94648039 130.23040179 389.93600798 138.78762817 C389.92976696 143.90069186 389.92895412 149.01360173 389.94215393 154.12665558 C389.9536957 158.93334032 389.94571735 163.73960272 389.9225769 168.54624176 C389.91728085 170.31192066 389.91881887 172.077635 389.92762756 173.84329987 C389.93853167 176.25065269 389.92488311 178.65664567 389.90490723 181.06391144 C389.91383011 181.76546608 389.922753 182.46702072 389.93194628 183.18983459 C389.8817207 186.3024764 389.65564606 188.15529607 387.77820158 190.68156767 C384.62867828 193.09116034 382.73931381 193.00457082 378.79394531 193.00672913 C378.12868584 193.01254289 377.46342636 193.01835665 376.77800751 193.02434659 C374.53865187 193.03899756 372.30038363 193.02503886 370.06103516 193.01129913 C368.44350624 193.01590607 366.82598151 193.02225759 365.20846558 193.03020811 C360.75569514 193.04695321 356.30326628 193.03863168 351.85049438 193.02626324 C347.05151011 193.01723618 342.25258576 193.03117079 337.45361328 193.04218292 C328.04930993 193.05999785 318.64513406 193.05611494 309.24082565 193.04453236 C301.59983013 193.03550999 293.95887041 193.03426885 286.31787109 193.03862762 C285.23162634 193.03924056 284.14538158 193.03985349 283.02622032 193.04048499 C280.81974537 193.04176386 278.61327043 193.04306071 276.4067955 193.04437536 C255.70184251 193.05578987 234.99696028 193.0426538 214.29201889 193.02117389 C196.51446803 193.00330213 178.73702163 193.006406 160.95947266 193.02484894 C140.33015217 193.04624027 119.70089375 193.05469115 99.07156372 193.04239988 C96.87306723 193.04112565 94.67457073 193.03986816 92.47607422 193.03862762 C91.39428579 193.03801052 90.31249737 193.03739342 89.19792747 193.03675762 C81.5634144 193.0332995 73.92894059 193.03914299 66.29443359 193.04854584 C56.99436126 193.05974792 47.69442402 193.05676356 38.39436722 193.03542286 C33.64654349 193.02488828 28.89894526 193.02083147 24.15112305 193.03401947 C19.80858921 193.04589954 15.46649081 193.03945378 11.12399673 193.01810926 C9.54936277 193.0136245 7.97469235 193.01595125 6.40008163 193.02561241 C4.26619157 193.03770528 2.13381011 193.02537669 0 193.00672913 C-1.18711578 193.00607972 -2.37423157 193.00543031 -3.59732056 193.00476122 C-7.23768247 192.39749464 -8.42290178 191.43692098 -10.60302734 188.50336456 C-10.99620287 185.88309224 -11.14426087 183.68201453 -11.11096191 181.06391144 C-11.11720188 180.31194237 -11.12344184 179.5599733 -11.12987089 178.78521729 C-11.14583406 176.2638647 -11.13318423 173.74347443 -11.12060547 171.22211456 C-11.12602513 169.41522405 -11.13314691 167.60833796 -11.1418457 165.80146027 C-11.16010056 160.89238426 -11.1530026 155.98364404 -11.14032936 151.07456207 C-11.1302129 145.94079422 -11.13959127 140.8070554 -11.14587402 135.67328644 C-11.15315437 127.05148905 -11.14355254 118.42982866 -11.12451172 109.80805206 C-11.10274226 99.83547488 -11.10979335 89.86322478 -11.13181734 79.89065552 C-11.14996028 71.33344215 -11.15253507 62.77632734 -11.14206266 54.21910095 C-11.13582165 49.10603726 -11.1350088 43.9931274 -11.14820862 38.88007355 C-11.15975039 34.07338881 -11.15177204 29.2671264 -11.12863159 24.46048737 C-11.12333554 22.69480847 -11.12487356 20.92909413 -11.13368225 19.16342926 C-11.14458635 16.75607643 -11.1309378 14.35008346 -11.11096191 11.94281769 C-11.1198848 11.24126305 -11.12880769 10.5397084 -11.13800097 9.81689453 C-11.08777539 6.70425273 -10.86170075 4.85143306 -8.98425627 2.32516146 C-5.83473297 -0.08443122 -3.9453685 0.00215831 0 0 Z M5.39697266 16.50336456 C5.39697266 69.30336456 5.39697266 122.10336456 5.39697266 176.50336456 C126.83697266 176.50336456 248.27697266 176.50336456 373.39697266 176.50336456 C373.39697266 123.70336456 373.39697266 70.90336456 373.39697266 16.50336456 C251.95697266 16.50336456 130.51697266 16.50336456 5.39697266 16.50336456 Z " fill="#000000" transform="translate(66.60302734375,255.49663543701172)"/>
<path d="M0 0 C5.28 0 10.56 0 16 0 C16 42.24 16 84.48 16 128 C10.72 128 5.44 128 0 128 C0 85.76 0 43.52 0 0 Z " fill="#000000" transform="translate(376,288)"/>
<path d="M0 0 C5.28 0 10.56 0 16 0 C16 42.24 16 84.48 16 128 C10.72 128 5.44 128 0 128 C0 85.76 0 43.52 0 0 Z " fill="#000000" transform="translate(344,288)"/>
<path d="M0 0 C5.28 0 10.56 0 16 0 C16 42.24 16 84.48 16 128 C10.72 128 5.44 128 0 128 C0 85.76 0 43.52 0 0 Z " fill="#000000" transform="translate(280,288)"/>
<path d="M0 0 C5.28 0 10.56 0 16 0 C16 42.24 16 84.48 16 128 C10.72 128 5.44 128 0 128 C0 85.76 0 43.52 0 0 Z " fill="#000000" transform="translate(216,288)"/>
<path d="M0 0 C5.28 0 10.56 0 16 0 C16 42.24 16 84.48 16 128 C10.72 128 5.44 128 0 128 C0 85.76 0 43.52 0 0 Z " fill="#000000" transform="translate(152,288)"/>
<path d="M0 0 C5.28 0 10.56 0 16 0 C16 42.24 16 84.48 16 128 C10.72 128 5.44 128 0 128 C0 85.76 0 43.52 0 0 Z " fill="#000000" transform="translate(120,288)"/>
<path d="M0 0 C5.28 0 10.56 0 16 0 C16 31.68 16 63.36 16 96 C10.72 96 5.44 96 0 96 C0 64.32 0 32.64 0 0 Z " fill="#000000" transform="translate(312,288)"/>
<path d="M0 0 C5.28 0 10.56 0 16 0 C16 31.68 16 63.36 16 96 C10.72 96 5.44 96 0 96 C0 64.32 0 32.64 0 0 Z " fill="#000000" transform="translate(248,288)"/>
<path d="M0 0 C5.28 0 10.56 0 16 0 C16 31.68 16 63.36 16 96 C10.72 96 5.44 96 0 96 C0 64.32 0 32.64 0 0 Z " fill="#000000" transform="translate(184,288)"/>
<path d="M0 0 C5.05462228 -0.09190222 10.10634023 -0.17151221 15.16113281 -0.21972656 C16.87998279 -0.23982628 18.59876452 -0.26711089 20.31738281 -0.30175781 C22.78988489 -0.35035034 25.2614821 -0.37298435 27.734375 -0.390625 C28.88459137 -0.42159271 28.88459137 -0.42159271 30.05804443 -0.45318604 C33.3816931 -0.45457983 35.62457828 -0.22713602 38.4921875 1.5078125 C40.62581052 5.03437076 40.4981693 8.27116738 40.390625 12.265625 C40.38496521 13.05902283 40.37930542 13.85242065 40.37347412 14.66986084 C40.35113147 17.19719473 40.30094176 19.72309665 40.25 22.25 C40.22993214 23.96612532 40.21168187 25.68227292 40.1953125 27.3984375 C40.15467892 31.59995013 40.07639313 35.79837767 40 40 C34.72 40 29.44 40 24 40 C24 32.08 24 24.16 24 16 C16.08 16 8.16 16 0 16 C0 10.72 0 5.44 0 0 Z " fill="#000000" transform="translate(432,144)"/>
<path d="M0 0 C0.79339783 0.00565979 1.58679565 0.01131958 2.40423584 0.01715088 C4.93156973 0.03949353 7.45747165 0.08968324 9.984375 0.140625 C11.70050032 0.16069286 13.41664792 0.17894313 15.1328125 0.1953125 C19.33432513 0.23594608 23.53275267 0.31423187 27.734375 0.390625 C27.734375 5.670625 27.734375 10.950625 27.734375 16.390625 C19.814375 16.390625 11.894375 16.390625 3.734375 16.390625 C3.734375 24.310625 3.734375 32.230625 3.734375 40.390625 C-1.545625 40.390625 -6.825625 40.390625 -12.265625 40.390625 C-12.35752722 35.33600272 -12.43713721 30.28428477 -12.48535156 25.22949219 C-12.50545128 23.51064221 -12.53273589 21.79186048 -12.56738281 20.07324219 C-12.61597534 17.60074011 -12.63860935 15.1291429 -12.65625 12.65625 C-12.67689514 11.88943909 -12.69754028 11.12262817 -12.71881104 10.33258057 C-12.72020483 7.0089319 -12.49276102 4.76604672 -10.7578125 1.8984375 C-7.23125424 -0.23518552 -3.99445762 -0.1075443 0 0 Z " fill="#000000" transform="translate(44.265625,143.609375)"/>
<path d="M0 0 C5.28 0 10.56 0 16 0 C16 5.28 16 10.56 16 16 C10.72 16 5.44 16 0 16 C0 10.72 0 5.44 0 0 Z " fill="#000000" transform="translate(312,400)"/>
<path d="M0 0 C5.28 0 10.56 0 16 0 C16 5.28 16 10.56 16 16 C10.72 16 5.44 16 0 16 C0 10.72 0 5.44 0 0 Z " fill="#000000" transform="translate(248,400)"/>
<path d="M0 0 C5.28 0 10.56 0 16 0 C16 5.28 16 10.56 16 16 C10.72 16 5.44 16 0 16 C0 10.72 0 5.44 0 0 Z " fill="#000000" transform="translate(184,400)"/>
<path d="M0 0 C5.28 0 10.56 0 16 0 C16 5.28 16 10.56 16 16 C10.72 16 5.44 16 0 16 C0 10.72 0 5.44 0 0 Z " fill="#000000" transform="translate(456,200)"/>
</svg>
