<?xml version="1.0" encoding="UTF-8"?>
<svg version="1.1" xmlns="http://www.w3.org/2000/svg" width="512" height="512">
<path d="M0 0 C0.94774796 -0.00287018 1.89549591 -0.00574036 2.8719635 -0.00869751 C4.86801758 -0.01073079 6.86409193 -0.00525266 8.86010742 0.00732422 C11.89743116 0.02337027 14.93342072 0.00745943 17.97070312 -0.01171875 C19.91797166 -0.00973584 21.86523937 -0.00589117 23.8125 0 C24.71169662 -0.00607269 25.61089325 -0.01214539 26.53733826 -0.0184021 C33.03996232 0.05329065 38.57019514 0.93192179 43.98291016 4.85571289 C47.56641132 9.0712513 48.71975575 12.68740359 49.76733398 18.07543945 C50.98880229 23.88576429 52.228389 29.54810652 57.37548828 33.01855469 C63.35194023 35.66164703 69.65924904 37.08259591 75.99853516 38.5859375 C80.32542723 39.76800094 84.15426047 41.60338351 88.09765625 43.7109375 C89.0266272 44.20074097 89.0266272 44.20074097 89.97436523 44.70043945 C92.70430927 46.15592887 95.38247909 47.64737081 98.02734375 49.25390625 C100.92665357 50.68909691 100.92665357 50.68909691 103.9296875 49.77734375 C104.93386719 49.32230469 105.93804687 48.86726563 106.97265625 48.3984375 C108.61814453 47.66947266 108.61814453 47.66947266 110.296875 46.92578125 C111.40675781 46.40113281 112.51664062 45.87648437 113.66015625 45.3359375 C122.32462166 41.2485484 122.32462166 41.2485484 127.16015625 41.0859375 C127.87558594 41.04855469 128.59101563 41.01117188 129.328125 40.97265625 C136.5035178 42.12792629 141.76992716 46.58518977 146.73828125 51.59765625 C147.63930573 52.48938286 147.63930573 52.48938286 148.55853271 53.39912415 C149.81712038 54.65065502 151.07067353 55.90726762 152.31933594 57.16870117 C154.21620696 59.07944106 156.13585574 60.96494295 158.05859375 62.84960938 C159.28660881 64.07667303 160.51321959 65.30514399 161.73828125 66.53515625 C162.58836761 67.3653553 162.58836761 67.3653553 163.45562744 68.21232605 C168.36289845 73.23467335 171.45530579 78.8416531 172.47265625 85.8359375 C171.3283381 93.98920431 167.27365332 100.94179396 163.14453125 107.953125 C161.68454359 110.54769712 161.68454359 110.54769712 161.97265625 114.3984375 C163.58321899 114.3670166 163.58321899 114.3670166 165.22631836 114.33496094 C169.24619986 114.26203921 173.26602403 114.2164501 177.28637695 114.17871094 C179.0195502 114.1587134 180.752657 114.13150602 182.4855957 114.09667969 C202.79017489 113.69912386 202.79017489 113.69912386 209.53076172 119.8112793 C213.89224945 124.63207414 215.22407678 129.16398202 215.21557617 135.53613281 C215.2186528 136.75641174 215.22172943 137.97669067 215.22489929 139.23394775 C215.21412102 141.21029205 215.21412102 141.21029205 215.203125 143.2265625 C215.20192925 144.6168412 215.20148087 146.00712071 215.20173645 147.3973999 C215.2001719 150.3227643 215.19190336 153.24800631 215.1784668 156.17333984 C215.16178926 159.84289702 215.15772722 163.51231726 215.15829277 167.18190765 C215.15756889 184.60714694 214.85145512 201.99154698 213.97265625 219.3984375 C214.86782959 219.3569458 215.76300293 219.3154541 216.68530273 219.27270508 C226.49216672 218.88733537 233.65071066 220.38688183 241.28515625 226.7109375 C248.8798128 233.95342248 252.84997426 241.77159382 253.34765625 252.4609375 C252.43751819 262.01738715 249.1912328 270.54049429 242.05078125 277.1875 C234.68106399 282.9861535 227.28374585 285.531724 217.8972168 285.51196289 C216.69634933 285.51188736 215.49548187 285.51181183 214.25822449 285.51173401 C212.32829399 285.50399208 212.32829399 285.50399208 210.359375 285.49609375 C209.02130689 285.49422706 207.6832381 285.49280434 206.34516907 285.49180603 C202.83529755 285.48800064 199.32546786 285.47818738 195.81561279 285.46710205 C192.22929449 285.45684527 188.64296939 285.45229929 185.05664062 285.44726562 C178.02862872 285.43656322 171.0006445 285.41951071 163.97265625 285.3984375 C161.49583422 289.2660204 161.49583422 289.2660204 161.45825195 293.63330078 C161.85101318 294.32149902 162.24377441 295.00969727 162.6484375 295.71875 C163.06520752 296.49573242 163.48197754 297.27271484 163.91137695 298.07324219 C164.36472412 298.88180664 164.81807129 299.69037109 165.28515625 300.5234375 C168.98570335 307.69200057 172.17245715 314.1826065 169.97265625 322.3984375 C167.20968153 327.83363677 163.98481589 331.83046573 159.66796875 336.1015625 C159.06636932 336.7060321 158.4647699 337.31050171 157.84494019 337.93328857 C156.57950853 339.20074951 155.31032934 340.464479 154.03759766 341.72460938 C152.09960117 343.64650873 150.17817465 345.58393552 148.2578125 347.5234375 C147.02049219 348.75877573 145.78224176 349.9931832 144.54296875 351.2265625 C143.97401886 351.80158508 143.40506897 352.37660767 142.81887817 352.96905518 C138.09090427 357.61532476 133.42478065 360.80228907 126.59765625 361.0859375 C119.2912361 360.95791512 113.77044822 357.71221445 107.5390625 354.24609375 C103.48383731 352.06422209 103.48383731 352.06422209 98.97265625 351.3984375 C96.36992626 352.48241873 94.04968922 353.60574902 91.59765625 354.9609375 C64.12401745 369.3984375 64.12401745 369.3984375 51.97265625 369.3984375 C51.72515625 370.6359375 51.47765625 371.8734375 51.22265625 373.1484375 C46.90474593 392.15923709 46.90474593 392.15923709 39.97265625 397.3984375 C34.1223143 400.46665097 29.27309721 400.85285063 22.7265625 400.83203125 C21.2716465 400.83989403 21.2716465 400.83989403 19.78733826 400.84791565 C17.74422153 400.85431429 15.70106786 400.85302695 13.65795898 400.84448242 C10.54799211 400.83597262 7.43986393 400.86476441 4.33007812 400.89648438 C2.33724013 400.89809673 0.34439891 400.8975182 -1.6484375 400.89453125 C-2.5695079 400.90576523 -3.49057831 400.91699921 -4.43955994 400.92857361 C-12.03210789 400.84742695 -17.25410338 398.92508331 -22.8828125 393.796875 C-25.42371165 390.43922062 -25.93284869 386.87015418 -26.73388672 382.80932617 C-28.00141798 376.98184864 -29.26206364 371.2771565 -34.41845703 367.77392578 C-40.37658635 365.12159725 -46.67317616 363.70291776 -53.00146484 362.2109375 C-57.49572253 361.0041528 -61.55724559 359.14889989 -65.71484375 357.0859375 C-66.39015137 356.75940186 -67.06545898 356.43286621 -67.76123047 356.09643555 C-70.52229259 354.73786829 -73.12274441 353.3337567 -75.671875 351.60546875 C-77.92774198 350.21227308 -77.92774198 350.21227308 -80.328125 350.45703125 C-83.36868003 351.51748532 -86.14135636 352.86610708 -89.00415039 354.33325195 C-102.46123793 361.19777844 -102.46123793 361.19777844 -110.02734375 359.3984375 C-115.77250515 356.59346736 -120.35680788 352.52593309 -124.828125 348.03125 C-125.43117966 347.43343719 -126.03423431 346.83562439 -126.65556335 346.21969604 C-127.9171158 344.96451741 -129.17488149 343.70552204 -130.42895508 342.44287109 C-132.34035682 340.52292214 -134.26975796 338.62244782 -136.20117188 336.72265625 C-137.43212064 335.493319 -138.66197691 334.26288664 -139.890625 333.03125 C-140.74845329 332.19027267 -140.74845329 332.19027267 -141.62361145 331.33230591 C-146.14227161 326.73434413 -149.435953 321.77512665 -149.5 315.06640625 C-149.30725597 309.62225304 -147.00988335 305.42663495 -144.46484375 300.7109375 C-141.13324059 294.81016151 -141.13324059 294.81016151 -140.01953125 288.27734375 C-141.27871447 284.68037462 -142.9160264 281.37108675 -144.71484375 278.0234375 C-147.58430462 272.48278821 -150.15150442 266.93062711 -152.33984375 261.0859375 C-152.59636719 260.42037842 -152.85289062 259.75481934 -153.1171875 259.0690918 C-154.58556322 255.11399823 -155.24791056 251.50417036 -155.71484375 247.3359375 C-156.18132468 244.62697372 -156.18132468 244.62697372 -158.02734375 242.3984375 C-162.52326907 239.83699534 -167.45615157 238.40461816 -172.390625 236.93359375 C-178.7371699 235.00309554 -183.2807705 232.01829738 -187.02734375 226.3984375 C-189.15217289 221.32776846 -189.33418407 216.81634342 -189.328125 211.4140625 C-189.33241013 210.55842712 -189.33669525 209.70279175 -189.34111023 208.82122803 C-189.34683416 207.01591879 -189.34736812 205.2105865 -189.34301758 203.40527344 C-189.33986951 200.67081391 -189.36329931 197.93745011 -189.38867188 195.203125 C-189.47240032 174.80883392 -189.47240032 174.80883392 -184.63330078 168.61376953 C-180.11963722 164.2391113 -174.59900281 162.4063684 -168.71484375 160.5234375 C-167.80927734 160.21664062 -166.90371094 159.90984375 -165.97070312 159.59375 C-159.39946638 157.3984375 -159.39946638 157.3984375 -157.02734375 157.3984375 C-156.92502441 156.78822754 -156.82270508 156.17801758 -156.71728516 155.54931641 C-155.58010267 149.29301528 -153.82680979 143.64208699 -151.40234375 137.7734375 C-151.05550537 136.9189502 -150.70866699 136.06446289 -150.35131836 135.18408203 C-146.98938367 127.04195552 -143.11067146 119.19850988 -139.02734375 111.3984375 C-138.69734375 110.7384375 -138.36734375 110.0784375 -138.02734375 109.3984375 C-138.72170758 107.58479075 -138.72170758 107.58479075 -139.86328125 105.6171875 C-140.26804688 104.85664063 -140.6728125 104.09609375 -141.08984375 103.3125 C-141.94995605 101.73050774 -142.81691277 100.15221326 -143.69140625 98.578125 C-146.86672035 92.56914452 -149.22197448 86.41271369 -147.5907135 79.56575012 C-145.7637988 73.85418974 -142.6241591 70.28968875 -138.3828125 66.16015625 C-137.73540604 65.5127095 -137.08799957 64.86526276 -136.42097473 64.19819641 C-135.05768265 62.84023719 -133.68831372 61.48835403 -132.31323242 60.14233398 C-130.21739539 58.08843808 -128.14378397 56.01393837 -126.07226562 53.93554688 C-124.7395405 52.61331289 -123.40559625 51.29230632 -122.0703125 49.97265625 C-121.14656075 49.04920662 -121.14656075 49.04920662 -120.20414734 48.10710144 C-115.39734841 43.42983157 -110.69976972 40.01277571 -103.77734375 39.6484375 C-96.71854522 39.74586132 -91.26346901 42.87557419 -85.25878906 46.28417969 C-81.09827786 48.69128215 -81.09827786 48.69128215 -76.453125 49.40625 C-73.09236082 48.00999049 -69.8682394 46.40701079 -66.65234375 44.7109375 C-61.29612919 41.96529936 -55.9256539 39.39342764 -50.33984375 37.1484375 C-49.11910156 36.65085938 -47.89835938 36.15328125 -46.640625 35.640625 C-43.02734375 34.3984375 -43.02734375 34.3984375 -39.4453125 33.84375 C-35.58204924 33.19913693 -33.24631579 32.66828288 -30.02734375 30.3984375 C-27.36056113 25.68959608 -26.06919588 20.51138817 -24.6875 15.31640625 C-23.24314294 10.39310665 -21.12199464 6.57728412 -17.02734375 3.3984375 C-11.27975672 0.28607351 -6.46499741 -0.04356307 0 0 Z M-9.97363281 16.0949707 C-11.12473575 18.61134146 -12.0343167 21.06107844 -12.82421875 23.71484375 C-13.14390625 24.72611328 -13.46359375 25.73738281 -13.79296875 26.77929688 C-14.44897394 28.89959935 -15.08964328 31.02470777 -15.71484375 33.15429688 C-18.19711736 40.87200074 -18.19711736 40.87200074 -22.3046875 43.4765625 C-23.53316406 43.78078125 -24.76164063 44.085 -26.02734375 44.3984375 C-27.27128906 44.76324219 -28.51523438 45.12804687 -29.796875 45.50390625 C-31.14451815 45.86463228 -32.49217498 46.22530719 -33.83984375 46.5859375 C-47.05049555 50.30999983 -59.37839093 56.09893166 -71.1328125 63.1484375 C-74.85227975 64.75468516 -76.99171294 64.93877301 -81.02734375 64.3984375 C-84.36387352 62.98424065 -87.45968082 61.21801375 -90.58984375 59.3984375 C-92.23030373 58.44930506 -93.87732003 57.51139792 -95.53125 56.5859375 C-96.25127197 56.16699219 -96.97129395 55.74804688 -97.71313477 55.31640625 C-100.82899121 54.08045096 -102.69333316 53.86770681 -106.02734375 54.3984375 C-108.44546668 56.25601861 -110.39190584 57.99053773 -112.484375 60.1640625 C-113.07280685 60.75386902 -113.66123871 61.34367554 -114.26750183 61.95135498 C-115.505724 63.19862262 -116.7366641 64.4531564 -117.96069336 65.71435547 C-119.83509266 67.64354753 -121.73242431 69.54761506 -123.63476562 71.44921875 C-124.83606069 72.66526033 -126.03597889 73.88266393 -127.234375 75.1015625 C-127.80098343 75.6715094 -128.36759186 76.2414563 -128.95137024 76.82867432 C-132.5852995 80.56531372 -132.5852995 80.56531372 -134.02734375 85.3984375 C-132.87337965 88.11724685 -131.67313132 90.62251638 -130.27734375 93.2109375 C-128.84613236 95.93279487 -127.42755669 98.66049713 -126.02734375 101.3984375 C-125.70701172 102.01251465 -125.38667969 102.6265918 -125.05664062 103.25927734 C-123.04207883 107.43180654 -122.6266151 109.98248572 -124.02734375 114.3984375 C-125.40633891 117.17358136 -126.99303363 119.80674832 -128.58984375 122.4609375 C-135.66399554 134.69231662 -146.02734375 153.90186457 -146.02734375 168.3984375 C-146.56359375 168.55699219 -147.09984375 168.71554688 -147.65234375 168.87890625 C-150.44646985 169.71071024 -153.23681612 170.5546351 -156.02734375 171.3984375 C-156.69121094 171.59663086 -157.35507813 171.79482422 -158.0390625 171.99902344 C-160.20378624 172.6466662 -162.36568139 173.30315647 -164.52734375 173.9609375 C-165.23375 174.17065186 -165.94015625 174.38036621 -166.66796875 174.59643555 C-170.72593687 175.82279873 -170.72593687 175.82279873 -174.02734375 178.3984375 C-175.25641796 182.66344263 -175.20472559 186.99724329 -175.23046875 191.40234375 C-175.23616882 192.16264389 -175.2418689 192.92294403 -175.2477417 193.70628357 C-175.25715338 195.30734887 -175.26371037 196.9084332 -175.26757812 198.50952148 C-175.2773263 200.95655777 -175.30840156 203.40276834 -175.33984375 205.84960938 C-175.34637066 207.4088492 -175.35162235 208.968095 -175.35546875 210.52734375 C-175.36781555 211.25659561 -175.38016235 211.98584747 -175.3928833 212.73719788 C-175.37963623 215.75768626 -175.20364549 218.04466743 -173.84667969 220.76757812 C-171.53644104 222.83848448 -169.56615997 223.49741236 -166.58984375 224.36328125 C-165.53023437 224.68876953 -164.470625 225.01425781 -163.37890625 225.34960938 C-161.1455863 226.00685097 -158.9112065 226.66050189 -156.67578125 227.31054688 C-155.61617187 227.63732422 -154.5565625 227.96410156 -153.46484375 228.30078125 C-152.00884766 228.72605103 -152.00884766 228.72605103 -150.5234375 229.15991211 C-146.74188259 231.03626462 -145.6056291 233.72674773 -144.26293945 237.6081543 C-144.07820068 238.34718994 -143.89346191 239.08622559 -143.703125 239.84765625 C-143.48342041 240.6869165 -143.26371582 241.52617676 -143.03735352 242.39086914 C-142.69208618 243.72492798 -142.69208618 243.72492798 -142.33984375 245.0859375 C-138.56163493 258.93053756 -133.24527372 271.80959126 -125.1796875 283.72265625 C-123.55794777 287.48839088 -123.97116704 289.43674742 -125.02734375 293.3984375 C-126.97109609 297.55727932 -129.29807197 301.49630801 -131.609375 305.45898438 C-132.05925781 306.26529297 -132.50914062 307.07160156 -132.97265625 307.90234375 C-133.59938232 308.98237671 -133.59938232 308.98237671 -134.23876953 310.08422852 C-135.35352948 313.35568657 -135.07071488 315.09717824 -134.02734375 318.3984375 C-132.34266389 320.81424153 -130.34986516 322.84806863 -128.26953125 324.92578125 C-127.6882547 325.51895645 -127.10697815 326.11213165 -126.50808716 326.72328186 C-125.27875163 327.96911888 -124.04281604 329.20847347 -122.80078125 330.44165039 C-120.90614656 332.332143 -119.04882439 334.25465534 -117.19140625 336.18164062 C-115.99039755 337.39012772 -114.78733797 338.59658081 -113.58203125 339.80078125 C-113.03070526 340.37771225 -112.47937927 340.95464325 -111.91134644 341.54905701 C-108.99145886 344.3844479 -107.56399267 345.39854683 -103.43212891 345.39770508 C-100.36613634 344.49786946 -97.79686344 343.52574377 -94.99609375 342.0078125 C-94.10277344 341.54632813 -93.20945312 341.08484375 -92.2890625 340.609375 C-90.44141804 339.63197892 -88.6002385 338.64226688 -86.765625 337.640625 C-79.96046662 334.16439691 -79.96046662 334.16439691 -75.4296875 335.30078125 C-74.30691406 335.99300781 -73.18414062 336.68523437 -72.02734375 337.3984375 C-70.60554825 338.16241247 -69.17946896 338.91844979 -67.75 339.66796875 C-66.99759033 340.07893799 -66.24518066 340.48990723 -65.4699707 340.91333008 C-58.74003218 344.5823857 -52.02834008 348.03140934 -44.83984375 350.7109375 C-44.19724609 350.95980713 -43.55464844 351.20867676 -42.89257812 351.46508789 C-39.5095496 352.71587344 -36.38001413 353.54269961 -32.79296875 353.95703125 C-28.30114369 354.6146999 -24.43437028 355.20639878 -21.02734375 358.3984375 C-16.979463 365.65684074 -14.92848872 373.84228136 -12.94018555 381.86401367 C-12.19727348 384.71476618 -12.19727348 384.71476618 -9.02734375 386.3984375 C-6.0173667 386.63104349 -3.10226752 386.75052694 -0.08984375 386.76953125 C0.78663818 386.77855972 1.66312012 386.7875882 2.56616211 386.79689026 C4.41874778 386.81139322 6.27138468 386.82027961 8.12402344 386.82397461 C10.96246021 386.83589468 13.79873939 386.88509719 16.63671875 386.93554688 C18.43618729 386.94500838 20.2356692 386.95224472 22.03515625 386.95703125 C22.8852124 386.97656357 23.73526855 386.99609589 24.61108398 387.01622009 C26.83949606 386.99909614 28.80900956 386.93185345 30.97265625 386.3984375 C33.07379852 384.25103353 33.07379852 384.25103353 33.97265625 381.3984375 C34.2761499 380.6262085 34.57964355 379.85397949 34.89233398 379.05834961 C35.14442627 378.27210205 35.39651855 377.48585449 35.65625 376.67578125 C35.94435547 375.80759766 36.23246094 374.93941406 36.52929688 374.04492188 C37.11731362 372.23654221 37.70063845 370.42663028 38.27929688 368.61523438 C38.56869141 367.74833984 38.85808594 366.88144531 39.15625 365.98828125 C39.40947021 365.20316162 39.66269043 364.41804199 39.92358398 363.60913086 C41.67181087 359.92512004 43.77309153 357.89370931 47.54370117 356.33691406 C48.98386597 355.94197754 48.98386597 355.94197754 50.453125 355.5390625 C52.06368774 355.07862549 52.06368774 355.07862549 53.70678711 354.60888672 C55.41620483 354.13346436 55.41620483 354.13346436 57.16015625 353.6484375 C70.39829899 349.77631044 82.23149581 344.93005541 93.97265625 337.7109375 C97.40900348 335.83329268 99.40155504 334.92663993 103.22265625 336.0234375 C105.3828125 336.98828125 105.3828125 336.98828125 107.97265625 338.3984375 C108.55128418 338.71312988 109.12991211 339.02782227 109.72607422 339.35205078 C110.36303223 339.69864746 110.99999023 340.04524414 111.65625 340.40234375 C112.3152832 340.75925293 112.97431641 341.11616211 113.65332031 341.48388672 C114.96851802 342.20612546 116.27445078 342.94555903 117.56933594 343.70361328 C121.6292265 346.00535935 124.33693344 347.06637118 128.97265625 346.3984375 C131.40187916 344.56610293 133.35906159 342.85460842 135.46484375 340.703125 C136.05564728 340.11806183 136.64645081 339.53299866 137.25515747 338.9302063 C138.49780551 337.69163353 139.7329392 336.44548171 140.9609375 335.19238281 C142.84160415 333.27959298 144.75211859 331.40091162 146.66796875 329.5234375 C147.8730222 328.31441907 149.07621302 327.10354064 150.27734375 325.890625 C151.13499832 325.05118851 151.13499832 325.05118851 152.00997925 324.1947937 C154.51659702 321.59721641 155.89360609 319.89726043 156.46533203 316.28955078 C155.96039998 313.32651539 155.21972184 311.27921009 153.78515625 308.6484375 C153.33398438 307.7925 152.8828125 306.9365625 152.41796875 306.0546875 C151.94101562 305.178125 151.4640625 304.3015625 150.97265625 303.3984375 C145.1872017 292.76571023 145.1872017 292.76571023 145.97265625 287.3984375 C146.30265625 286.4084375 146.63265625 285.4184375 146.97265625 284.3984375 C141.68926726 284.19982821 136.40807465 284.0551242 131.12182617 283.95898438 C129.32619357 283.91889102 127.53081991 283.86439764 125.73608398 283.79492188 C115.6501254 283.01954788 115.6501254 283.01954788 106.3737793 286.04125977 C104.61895693 288.0693878 103.3041504 290.07687199 101.97265625 292.3984375 C85.8532102 308.85724031 64.95036657 319.18745496 42.97265625 325.3984375 C41.18794922 325.91083984 41.18794922 325.91083984 39.3671875 326.43359375 C19.36560526 331.12316865 -4.36627129 330.10903166 -24.02734375 324.3984375 C-25.11909912 324.08495361 -25.11909912 324.08495361 -26.23291016 323.76513672 C-58.9123522 314.03347151 -85.9628557 291.27588486 -102.1875 261.48046875 C-109.07410852 248.44203534 -113.41662918 234.93376729 -116.02734375 220.3984375 C-116.21425781 219.35816406 -116.40117188 218.31789063 -116.59375 217.24609375 C-120.66042245 181.15895532 -110.82544015 146.93765415 -88.34741211 118.59545898 C-70.94168569 97.16691896 -47.65770364 82.52469982 -21.02734375 75.3984375 C-19.76792969 75.05941406 -18.50851563 74.72039062 -17.2109375 74.37109375 C15.86670792 67.12805737 51.56495425 73.38143562 80.18408203 91.24121094 C89.13815789 97.03459335 99.08708489 103.93907635 105.56347656 112.50170898 C109.05999705 115.25449249 112.4191003 114.8974813 116.67578125 114.7890625 C117.93246613 114.78057281 117.93246613 114.78057281 119.21453857 114.77191162 C121.88449791 114.74956079 124.55310412 114.69936848 127.22265625 114.6484375 C129.03513684 114.62837075 130.84763851 114.61012028 132.66015625 114.59375 C137.09817584 114.54970044 141.53518681 114.48068316 145.97265625 114.3984375 C146.13411133 113.85606445 146.29556641 113.31369141 146.46191406 112.75488281 C148.58024884 105.99417826 151.61887196 99.99791513 155.0078125 93.796875 C155.40355469 93.04148437 155.79929687 92.28609375 156.20703125 91.5078125 C156.57022461 90.83717773 156.93341797 90.16654297 157.30761719 89.47558594 C158.23256587 86.58664929 158.02374674 85.26394187 156.97265625 82.3984375 C155.113978 80.1044459 153.28398174 78.0542337 151.21484375 75.96875 C150.34292892 75.07686478 150.34292892 75.07686478 149.45339966 74.16696167 C148.22293632 72.91628733 146.98702552 71.6709522 145.74609375 70.43066406 C143.85357002 68.52937865 141.99533216 66.59843728 140.13671875 64.6640625 C138.93556275 63.45117188 137.73249838 62.24016758 136.52734375 61.03125 C135.70035477 60.16114792 135.70035477 60.16114792 134.85665894 59.27346802 C131.91496017 56.39920928 130.51457956 55.39563583 126.33642578 55.41723633 C123.51353698 56.24066426 121.15755106 57.05034249 118.59765625 58.46484375 C117.8396875 58.86767578 117.08171875 59.27050781 116.30078125 59.68554688 C114.74704905 60.53671057 113.19496344 61.3908868 111.64453125 62.24804688 C106.90969945 64.75638039 103.45743201 66.25916405 97.97265625 65.3984375 C95.28783842 64.26888031 92.87772003 62.81310436 90.41015625 61.2734375 C78.5063243 54.23301735 64.50989231 47.17919555 50.69335938 45.04663086 C48.00813706 44.50587232 46.24534079 43.94778689 43.97265625 42.3984375 C41.61244953 38.26607232 40.38538169 33.89907066 39.09765625 29.3359375 C38.37971292 26.9466119 37.65354393 24.55973775 36.91796875 22.17578125 C36.61391113 21.11609131 36.30985352 20.05640137 35.99658203 18.96459961 C35.13309956 16.09573234 35.13309956 16.09573234 31.97265625 14.3984375 C28.96241985 14.17785983 26.04700839 14.07038574 23.03515625 14.0625 C22.15867432 14.0558432 21.28219238 14.0491864 20.37915039 14.04232788 C18.5265513 14.03220563 16.67391578 14.02751073 14.82128906 14.02783203 C11.98311619 14.02345364 9.14649196 13.98711645 6.30859375 13.94921875 C4.50911991 13.9433516 2.70963867 13.93938153 0.91015625 13.9375 C0.0601001 13.92312897 -0.78995605 13.90875793 -1.66577148 13.89395142 C-6.20084877 13.86439183 -6.20084877 13.86439183 -9.97363281 16.0949707 Z M-74.4375 122.46484375 C-95.81879298 146.68407607 -105.55993767 176.69504749 -104.19140625 208.78710938 C-102.21213342 240.29053527 -86.40558204 267.32918639 -63.71484375 288.5859375 C-38.01759913 310.55367051 -7.08377618 317.05148433 25.97265625 315.3984375 C37.93204205 314.18932649 49.11899959 310.44938162 59.97265625 305.3984375 C60.58560547 305.11516602 61.19855469 304.83189453 61.83007812 304.54003906 C72.32855659 299.59668682 81.29869118 293.08812284 89.97265625 285.3984375 C89.97265625 285.0684375 89.97265625 284.7384375 89.97265625 284.3984375 C88.84705292 284.38813004 87.72144958 284.37782257 86.56173706 284.36720276 C75.71552059 284.26749791 64.86933726 284.16466164 54.02317619 284.05909824 C48.45312604 284.00497764 42.88307096 283.95179443 37.31298828 283.90112305 C25.43692775 283.79252219 13.56120613 283.6700424 1.68561935 283.51760292 C-3.75458551 283.44817497 -9.19467519 283.38614008 -14.63513184 283.34002686 C-19.9659598 283.29452355 -25.29625306 283.23018352 -30.62670517 283.15244865 C-32.61213552 283.12668039 -34.5976642 283.10750141 -36.58322525 283.09546089 C-49.50227069 283.01190651 -60.32726016 282.76698733 -70.26953125 273.46875 C-77.81128471 264.58624037 -78.81814296 254.58259771 -78.02734375 243.3984375 C-76.04334226 234.43457535 -70.57309728 227.51317165 -62.96484375 222.5234375 C-59.79944865 220.60947767 -56.53573343 219.54411942 -53.02734375 218.3984375 C-53.02369812 217.28867554 -53.02005249 216.17891357 -53.01629639 215.03552246 C-52.97930146 204.55994516 -52.92147945 194.0846606 -52.84344101 183.60930634 C-52.80398831 178.22422596 -52.77178889 172.83930857 -52.75634766 167.45410156 C-52.74116671 162.25379707 -52.70669518 157.05394073 -52.65903473 151.85383606 C-52.64423584 149.87323407 -52.63630359 147.8925681 -52.6354599 145.91191101 C-52.63308402 143.13024521 -52.60595447 140.34981167 -52.57324219 137.56835938 C-52.58078773 136.34915298 -52.58078773 136.34915298 -52.58848572 135.10531616 C-52.46458408 128.26341651 -50.54482877 122.85137162 -45.58984375 118.0234375 C-39.92868477 114.43343424 -35.33672411 114.10105475 -28.79003906 114.10791016 C-27.40611465 114.09783432 -27.40611465 114.09783432 -25.99423218 114.08755493 C-22.9479227 114.06857737 -19.90183365 114.06465059 -16.85546875 114.0625 C-14.73183095 114.05607101 -12.60819405 114.04934257 -10.48455811 114.04232788 C-6.03265328 114.03035507 -1.58082604 114.02664698 2.87109375 114.02783203 C8.56160137 114.02803501 14.2516084 114.00075434 19.94199753 113.96628761 C24.32934836 113.94399172 28.71657934 113.93999535 33.10398102 113.94105148 C35.20103935 113.93869876 37.29810114 113.92989384 39.39510345 113.91438675 C42.33634416 113.89467634 45.27651356 113.90058523 48.21777344 113.91259766 C49.07523163 113.90135864 49.93268982 113.89011963 50.81613159 113.87854004 C57.34589717 113.9459256 63.68656753 115.33764013 68.60251999 119.91655922 C72.93489383 124.99751184 73.13443921 128.617385 73.17797852 135.07080078 C73.18787811 135.96842133 73.19777771 136.86604187 73.20797729 137.79086304 C73.23964125 140.76679825 73.26436906 143.74274944 73.2890625 146.71875 C73.3096278 148.77855857 73.33062416 150.83836289 73.35203552 152.89816284 C73.40729997 158.32656408 73.45668995 163.75500367 73.50488281 169.18347168 C73.55506593 174.72000554 73.61076862 180.25648351 73.66601562 185.79296875 C73.77365068 196.66141062 73.87508376 207.52990096 73.97265625 218.3984375 C78.26265625 218.3984375 82.55265625 218.3984375 86.97265625 218.3984375 C86.98882996 217.27392685 87.00500366 216.1494162 87.02166748 214.99082947 C87.17678147 204.38227709 87.35230681 193.77423171 87.54771042 183.16634274 C87.64751155 177.71296765 87.74017134 172.25966768 87.81640625 166.8059082 C87.89027162 161.54059058 87.98303216 156.27591117 88.08878326 151.01114082 C88.12578693 149.00466697 88.15603399 146.99805653 88.17934418 144.99137688 C88.21321648 142.17579982 88.27131267 139.36167085 88.33496094 136.54663086 C88.33928131 135.72088058 88.34360168 134.89513031 88.34805298 134.0443573 C88.51151575 128.36806279 89.94948608 125.18485328 92.97265625 120.3984375 C91.66980858 113.72590926 81.22280243 107.95515992 75.81640625 104.21484375 C26.88423199 73.14775787 -34.34858537 80.96310394 -74.4375 122.46484375 Z M-39.02734375 130.3984375 C-39.4084429 133.33111416 -39.53330838 135.88525713 -39.48144531 138.81713867 C-39.48192745 139.68977262 -39.48240959 140.56240656 -39.48290634 141.46148396 C-39.47991871 144.28853845 -39.44945066 147.1145403 -39.41796875 149.94140625 C-39.41208822 151.68574516 -39.40800713 153.4300911 -39.40576172 155.17443848 C-39.38478317 161.64504573 -39.3289383 168.11550194 -39.27734375 174.5859375 C-39.19484375 189.0440625 -39.11234375 203.5021875 -39.02734375 218.3984375 C-6.35734375 218.3984375 26.31265625 218.3984375 59.97265625 218.3984375 C60.05515625 203.9403125 60.13765625 189.4821875 60.22265625 174.5859375 C60.25907227 170.01903076 60.29548828 165.45212402 60.33300781 160.74682617 C60.3463847 156.65672143 60.3463847 156.65672143 60.35443115 152.56660461 C60.36057768 150.74336343 60.37465478 148.92013861 60.3949585 147.09700012 C60.42416445 144.33675852 60.42828295 141.57751122 60.42675781 138.81713867 C60.44834646 137.59670632 60.44834646 137.59670632 60.47037125 136.35161877 C60.46873893 131.94763264 60.46873893 131.94763264 58.11035156 128.39355469 C55.37381371 127.11967069 53.3473032 127.05735271 50.33203125 127.10546875 C49.26210938 127.11513672 48.1921875 127.12480469 47.08984375 127.13476562 C45.97867188 127.15990234 44.8675 127.18503906 43.72265625 127.2109375 C42.59601563 127.22447266 41.469375 127.23800781 40.30859375 127.25195312 C37.52946361 127.28728105 34.75130262 127.3366123 31.97265625 127.3984375 C30.55586216 131.64881978 30.65638792 135.97031686 30.54296875 140.41796875 C30.29897674 145.87728996 28.98136674 149.05494193 25.47265625 153.1484375 C21.41852282 156.52688202 15.63359299 155.6602915 10.66015625 155.7109375 C9.2534668 155.75444336 9.2534668 155.75444336 7.81835938 155.79882812 C2.05722781 155.85160805 -1.6259891 155.51319231 -6.02734375 151.3984375 C-9.40235929 146.49063239 -9.55400269 141.78614292 -9.71484375 136.0234375 C-9.76608398 134.77626953 -9.76608398 134.77626953 -9.81835938 133.50390625 C-9.90021521 131.46920399 -9.96547076 129.43384542 -10.02734375 127.3984375 C-14.11054259 127.3113233 -18.19350239 127.25800702 -22.27734375 127.2109375 C-24.01564453 127.17323242 -24.01564453 127.17323242 -25.7890625 127.13476562 C-26.90410156 127.12509766 -28.01914063 127.11542969 -29.16796875 127.10546875 C-30.19438477 127.0897583 -31.22080078 127.07404785 -32.27832031 127.05786133 C-35.62794564 127.47284599 -36.72943193 127.9169526 -39.02734375 130.3984375 Z M3.97265625 127.3984375 C3.97265625 132.3484375 3.97265625 137.2984375 3.97265625 142.3984375 C8.26265625 142.3984375 12.55265625 142.3984375 16.97265625 142.3984375 C16.97265625 137.4484375 16.97265625 132.4984375 16.97265625 127.3984375 C12.68265625 127.3984375 8.39265625 127.3984375 3.97265625 127.3984375 Z M101.97265625 130.3984375 C101.31254065 159.73511034 100.79266141 189.05373981 100.97265625 218.3984375 C121.52190247 219.4457335 142.02912434 219.52340778 162.59796143 219.46710205 C166.82962526 219.45666625 171.06129561 219.45226217 175.29296875 219.44726562 C183.51954838 219.43670572 191.74609748 219.41975835 199.97265625 219.3984375 C200.63645982 198.79929331 201.12951949 178.2003681 201.25976562 157.59002686 C201.27669808 155.33658618 201.30062859 153.08318726 201.33154297 150.82989502 C201.37325951 147.65070791 201.38917222 144.47239424 201.3984375 141.29296875 C201.4159053 140.3352507 201.43337311 139.37753265 201.45137024 138.39079285 C201.55010687 133.47203882 201.55010687 133.47203882 199.31225586 129.29833984 C196.42729626 128.18867053 194.20638827 128.05812528 191.11328125 128.10546875 C189.99824219 128.11513672 188.88320313 128.12480469 187.734375 128.13476562 C186.57550781 128.15990234 185.41664063 128.18503906 184.22265625 128.2109375 C183.04832031 128.22447266 181.87398438 128.23800781 180.6640625 128.25195312 C177.76646327 128.2872897 174.86979198 128.33662771 171.97265625 128.3984375 C171.946875 129.61660156 171.92109375 130.83476562 171.89453125 132.08984375 C171.83821684 133.71357585 171.78087028 135.33727239 171.72265625 136.9609375 C171.70847656 137.76080078 171.69429688 138.56066406 171.6796875 139.38476562 C171.44447978 145.14735477 170.46799103 148.74776556 166.97265625 153.3984375 C161.97922819 157.0320481 156.91702442 156.88401695 150.97265625 156.8359375 C149.6578125 156.8659082 149.6578125 156.8659082 148.31640625 156.89648438 C142.72507302 156.89227403 139.3065459 156.26326287 134.97265625 152.3984375 C131.1911717 147.98938743 131.46402086 143.19238001 131.34765625 137.6484375 C131.2968734 135.92435973 131.24239082 134.20038557 131.18359375 132.4765625 C131.16603027 131.71762695 131.1484668 130.95869141 131.13037109 130.17675781 C131.16223378 128.37405642 131.16223378 128.37405642 129.97265625 127.3984375 C126.4181689 127.11738303 122.8494236 127.16656473 119.28515625 127.1484375 C118.29064453 127.1278125 117.29613281 127.1071875 116.27148438 127.0859375 C115.30275391 127.08078125 114.33402344 127.075625 113.3359375 127.0703125 C112.45204346 127.0609668 111.56814941 127.05162109 110.6574707 127.04199219 C107.32216629 127.48479881 104.89569974 128.7755659 101.97265625 130.3984375 Z M144.97265625 128.3984375 C144.97265625 133.3484375 144.97265625 138.2984375 144.97265625 143.3984375 C149.26265625 143.3984375 153.55265625 143.3984375 157.97265625 143.3984375 C157.97265625 138.4484375 157.97265625 133.4984375 157.97265625 128.3984375 C153.68265625 128.3984375 149.39265625 128.3984375 144.97265625 128.3984375 Z M-62.48675156 240.40743351 C-65.11419405 244.85204676 -65.99298628 249.32388746 -65.02734375 254.3984375 C-63.07722134 260.30358346 -60.09254752 263.88380631 -55.02734375 267.3984375 C-51.14695377 269.27916825 -47.99786719 269.66586671 -43.703125 269.71728516 C-42.39891098 269.73712967 -41.09469696 269.75697418 -39.7509613 269.77742004 C-38.28059141 269.78943842 -36.8102187 269.80111626 -35.33984375 269.8125 C-33.73538988 269.83167672 -32.13094354 269.85149149 -30.52650452 269.87187195 C-25.99593392 269.92577343 -21.46533895 269.9649823 -16.93458939 270.00033951 C-14.02227861 270.02347774 -11.11000444 270.04941805 -8.19772339 270.07601929 C8.38124587 270.22440391 24.96047103 270.31090457 41.53989887 270.38714695 C44.07804037 270.39892659 46.61618013 270.41103664 49.15431976 270.42321014 C73.16755969 270.53793932 97.18074242 270.62623746 121.19421959 270.67164993 C123.27311581 270.67559992 125.35201202 270.67956085 127.4309082 270.68353271 C128.45968319 270.68548842 129.48845817 270.68744412 130.54840815 270.68945909 C137.84391578 270.70427794 145.13934981 270.72909463 152.43481445 270.75787354 C161.45650869 270.79319737 170.4780995 270.8138518 179.49986464 270.81646496 C184.19178868 270.81818652 188.88346933 270.82648802 193.57533073 270.85175133 C197.93018613 270.8749418 202.28465173 270.87935148 206.63955307 270.86912227 C208.22603611 270.86865316 209.81253849 270.87497869 211.39896202 270.88872838 C223.58438149 271.01793694 223.58438149 271.01793694 233.71484375 264.80078125 C238.28741286 258.88797637 238.85224309 253.7150008 237.97265625 246.3984375 C235.80186952 240.74690654 232.32285533 237.24428808 226.97265625 234.3984375 C223.3469913 233.18563172 219.81009835 233.23999645 216.00830078 233.19311523 C215.29841885 233.18323546 214.58853691 233.17335569 213.8571434 233.16317654 C211.43995299 233.13114212 209.02274754 233.10643785 206.60546875 233.08203125 C204.82308718 233.06092325 203.04070809 233.03960463 201.2583313 233.01809692 C195.20485589 232.9479378 189.1512875 232.89077663 183.09765625 232.8359375 C182.05123459 232.82633373 181.00481293 232.81672997 179.92668152 232.80683517 C162.98477265 232.65334327 146.04264221 232.54199867 129.10035276 232.44152528 C124.12266116 232.41184524 119.14498357 232.38038125 114.16730964 232.34787482 C91.81771576 232.20201402 69.468263 232.08415499 47.11827278 232.01999378 C37.16841218 231.99100838 27.21880736 231.9523159 17.269104 231.88839722 C8.6658793 231.83331597 0.06288538 231.79955891 -8.54051769 231.79233336 C-13.00320366 231.78797198 -17.46530162 231.77369661 -21.92782211 231.73364639 C-26.06568705 231.69683868 -30.20264662 231.68830398 -34.34064507 231.70153344 C-35.84418099 231.70145651 -37.34775852 231.69123448 -38.85114074 231.66973674 C-48.33027587 231.54136198 -56.50291085 232.17017998 -62.48675156 240.40743351 Z " fill="#1E81CE" transform="translate(224.02734375,55.6015625)"/>
<path d="M0 0 C0.84175781 -0.02384766 1.68351562 -0.04769531 2.55078125 -0.07226562 C6.98194445 -0.06179831 8.94168946 0.14482718 12.5859375 2.87109375 C14.5 5.5625 14.5 5.5625 14.625 9.1875 C13.5 12.5625 13.5 12.5625 11.4609375 14.25 C7.53595274 15.98983493 4.24297455 16.00345297 0 15.9375 C-0.74636719 15.94910156 -1.49273437 15.96070313 -2.26171875 15.97265625 C-7.23718373 15.94623785 -10.82140965 15.24109035 -14.5 11.5625 C-14.875 8.25 -14.875 8.25 -14.5 4.5625 C-10.28152286 -0.23665821 -5.96764982 -0.07767997 0 0 Z " fill="#1E81CD" transform="translate(202.5,298.4375)"/>
<path d="M0 0 C1.8042327 2.64876716 2.00804779 3.80282905 1.875 7.0625 C1 10 1 10 -0.46484375 11.66015625 C-4.36370515 13.72072552 -8.09658432 13.43423918 -12.4375 13.375 C-13.7069043 13.39240234 -13.7069043 13.39240234 -15.00195312 13.41015625 C-19.7824067 13.38769523 -23.16489145 13.17809792 -27 10 C-28.1719255 7.03112206 -28.09641114 5.41456789 -27.375 2.3125 C-22.9037975 -5.20724966 -6.94972105 -2.88325022 0 0 Z " fill="#1E81CE" transform="translate(432,302)"/>
<path d="M0 0 C1.3931543 -0.00676758 1.3931543 -0.00676758 2.81445312 -0.01367188 C3.82894531 -0.01882813 4.8434375 -0.02398437 5.88867188 -0.02929688 C6.94699219 -0.01382812 8.0053125 0.00164062 9.09570312 0.01757812 C10.68318359 -0.005625 10.68318359 -0.005625 12.30273438 -0.02929688 C13.82447266 -0.0215625 13.82447266 -0.0215625 15.37695312 -0.01367188 C16.30572266 -0.00916016 17.23449219 -0.00464844 18.19140625 0 C20.59570312 0.51757812 20.59570312 0.51757812 22.39453125 2.36328125 C24.04220025 5.3183689 24.08177053 7.18454452 23.59570312 10.51757812 C22.22460938 12.67382812 22.22460938 12.67382812 19.59570312 14.51757812 C16.0882397 15.11896715 12.64613088 15.07538699 9.09570312 15.01757812 C8.14566406 15.03304688 7.195625 15.04851562 6.21679688 15.06445312 C-0.67985907 15.02565337 -0.67985907 15.02565337 -4.03320312 12.67382812 C-5.9039163 9.73185185 -5.90379405 7.94270159 -5.40429688 4.51757812 C-3.86437625 1.75573674 -3.14278785 0.67655465 0 0 Z " fill="#1D82CE" transform="translate(265.404296875,299.482421875)"/>
<path d="M0 0 C0.89783203 -0.01095703 1.79566406 -0.02191406 2.72070312 -0.03320312 C9.188247 0.03892562 9.188247 0.03892562 12.53125 2.375 C14.58159996 5.56443326 14.40888206 7.85878378 13.9375 11.5625 C12.30101731 13.83897371 11.4107438 14.48305979 8.625 14.95068359 C7.738125 14.95406738 6.85125 14.95745117 5.9375 14.9609375 C4.968125 14.96480469 3.99875 14.96867187 3 14.97265625 C1.989375 14.96105469 0.97875 14.94945312 -0.0625 14.9375 C-1.073125 14.94910156 -2.08375 14.96070313 -3.125 14.97265625 C-4.094375 14.96878906 -5.06375 14.96492188 -6.0625 14.9609375 C-6.949375 14.95755371 -7.83625 14.95416992 -8.75 14.95068359 C-11.53029606 14.48397427 -12.38164766 13.7876596 -14.0625 11.5625 C-15.0625 8.6875 -15.0625 8.6875 -15.0625 5.5625 C-10.89772135 -0.35861537 -6.66699771 -0.1778507 0 0 Z " fill="#1D81CD" transform="translate(347.0625,299.4375)"/>
</svg>
