<?xml version="1.0" encoding="UTF-8"?>
<svg version="1.1" xmlns="http://www.w3.org/2000/svg" width="512" height="512">
<path d="M0 0 C7.86958246 5.83572077 12.83222437 12.48684019 16.3125 21.71484375 C16.3125 23.03484375 16.3125 24.35484375 16.3125 25.71484375 C17.38245712 25.71040253 18.45241425 25.7059613 19.55479431 25.7013855 C29.66196891 25.66075691 39.76912683 25.6308198 49.87636471 25.61121941 C55.07198948 25.60080376 60.26754807 25.58668517 65.46313477 25.56396484 C70.48168649 25.54215723 75.50017475 25.53025845 80.51877022 25.52508926 C82.42881837 25.5214077 84.33886323 25.51421864 86.2488842 25.50338364 C88.93414563 25.4887634 91.61914822 25.48687019 94.30444336 25.48779297 C95.08560013 25.48060242 95.8667569 25.47341187 96.67158508 25.46600342 C107.08927557 25.5044794 116.56956257 27.98420383 124.13671875 35.53515625 C133.27050614 46.90062469 132.87025695 58.6998493 132.76660156 72.58642578 C132.76547215 74.70610025 132.76610878 76.82577627 132.76837158 78.94544983 C132.76951597 84.67828423 132.74605102 90.41078167 132.71807575 96.143538 C132.69301628 102.14262068 132.69071651 108.14171168 132.68597412 114.14083862 C132.67355772 125.49139735 132.64075409 136.84180138 132.60057616 148.19229209 C132.55581695 161.11849564 132.53386096 174.0447067 132.51379442 186.97096848 C132.47202037 213.5523459 132.4016942 240.13358614 132.3125 266.71484375 C133.11350128 266.7059613 133.91450256 266.69707886 134.73977661 266.68792725 C142.30197175 266.60765727 149.86395926 266.54681676 157.4264698 266.50759506 C161.31412103 266.48675255 165.20141915 266.45849694 169.08886719 266.41308594 C172.84308195 266.36950756 176.59695786 266.34568156 180.3514061 266.33533478 C181.78111986 266.32796477 183.21081583 266.31357261 184.64038467 266.29192352 C186.64825481 266.26273615 188.65646857 266.26120855 190.66455078 266.26074219 C191.80594513 266.25185974 192.94733948 266.24297729 194.12332153 266.23382568 C198.82364696 266.94276734 201.92309455 269.23002848 205.1328125 272.66015625 C206.50385307 275.04812757 206.90642608 276.85576111 207.1875 279.58984375 C207.28804688 280.41226562 207.38859375 281.2346875 207.4921875 282.08203125 C207.23927015 285.78782025 206.33041716 287.52595418 204.3125 290.71484375 C202.81608453 291.99876708 201.27824331 293.23501096 199.71594238 294.43789673 C191.46215252 300.97164448 184.01055085 307.47345161 182.52514648 318.37713623 C181.66095026 326.6988638 181.94474519 335.09342157 182.21441841 343.44028425 C182.32776574 347.6557227 182.32175158 351.87108316 182.32849121 356.08779907 C182.35807455 364.04730808 182.48555803 372.00182519 182.65290403 379.95951045 C182.89469585 391.65554876 182.99382732 403.35302822 183.08444977 415.0510807 C183.09799935 416.7813378 183.11155671 418.51159483 183.12512207 420.24185181 C183.13470436 421.50896545 183.13470436 421.50896545 183.14448023 422.80167735 C183.18574952 427.80521397 183.25815455 432.80707344 183.35852623 437.80976653 C183.41855532 440.91392525 183.46330414 444.01819735 183.50546455 447.12264442 C183.52884555 448.55867984 183.55933319 449.99462024 183.59753227 451.43033791 C183.9184971 463.63168871 183.9184971 463.63168871 181.45837402 467.47085571 C177.68671788 471.41496016 174.5316334 474.54562571 168.86224031 474.84364492 C167.38742732 474.84632777 167.38742732 474.84632777 165.88282013 474.84906483 C164.74804371 474.85352267 163.6132673 474.85798051 162.44410372 474.86257344 C161.19189641 474.86238908 159.93968911 474.86220472 158.64953613 474.86201477 C157.31010058 474.86531368 155.97066602 474.8690393 154.63123274 474.87315625 C150.94233297 474.88318171 147.25344947 474.88689393 143.564538 474.88954556 C139.58887604 474.89344711 135.61322698 474.9030257 131.63757324 474.91175842 C122.03097673 474.93152924 112.42437916 474.94159079 102.81776738 474.95048621 C98.29346348 474.95486896 93.76916076 474.96023588 89.24485779 474.96547508 C74.20346571 474.98248959 59.16207436 474.99698287 44.12067413 475.00422382 C40.21651712 475.00613372 36.31236011 475.00805405 32.40820312 475.01000977 C30.95266538 475.01073538 30.95266538 475.01073538 29.46772283 475.01147565 C13.75518247 475.01977256 -1.95728168 475.04510276 -17.66978878 475.07759044 C-33.80312545 475.11067605 -49.93642341 475.12867403 -66.06979418 475.13186806 C-75.12734227 475.134032 -84.1847793 475.14276334 -93.24229431 475.16832924 C-100.95785864 475.19005693 -108.67328493 475.19807657 -116.38887638 475.18836246 C-120.32343562 475.18382345 -124.25771018 475.18568039 -128.19223022 475.2051239 C-131.79993919 475.22279779 -135.40715669 475.22172417 -139.01487118 475.20622661 C-140.92632191 475.2027411 -142.83777804 475.21884547 -144.74915648 475.23583108 C-155.19781321 475.1582473 -164.24656139 473.09300632 -171.96875 465.703125 C-178.18818796 458.50836608 -180.93357264 450.18271652 -180.94476891 440.71537399 C-180.94827498 440.04368504 -180.95178105 439.37199608 -180.95539337 438.67995292 C-180.96467161 436.43700323 -180.95979342 434.19431522 -180.95492554 431.95135498 C-180.95866361 430.32385493 -180.96326575 428.69635667 -180.96865618 427.06886125 C-180.98088226 422.60227115 -180.98062617 418.13575598 -180.97826743 413.66915298 C-180.97785917 408.84964962 -180.98889935 404.03017026 -180.99838257 399.2106781 C-181.01499145 389.770384 -181.02049207 380.33011487 -181.02160732 370.88980737 C-181.02255786 363.21557933 -181.02666844 355.54135953 -181.03300858 347.86713409 C-181.05062076 326.10588553 -181.05984749 304.34465668 -181.05834763 282.58340093 C-181.05826772 281.41038546 -181.0581878 280.23736999 -181.05810547 279.02880859 C-181.05802371 277.85435968 -181.05794195 276.67991077 -181.05785771 275.4698725 C-181.05704484 256.43702759 -181.07618285 237.40426181 -181.1043822 218.37143978 C-181.13311336 198.82533492 -181.14692236 179.27926865 -181.14519465 159.73314214 C-181.14453082 148.76082978 -181.15001988 137.7886004 -181.17155075 126.81630707 C-181.18976557 117.47406754 -181.19410737 108.13194859 -181.1805319 98.78969899 C-181.17400379 94.02477619 -181.17387947 89.26008471 -181.1912384 84.49518394 C-181.206981 80.12898167 -181.20409341 75.76319389 -181.18667014 71.39700165 C-181.18360286 69.82165362 -181.18722238 68.24627457 -181.19839029 66.67096314 C-181.27683049 54.81666304 -180.22627923 44.38677443 -171.66796875 35.5 C-162.83928674 27.54199669 -154.37944329 25.38009441 -142.67944336 25.48779297 C-141.40463104 25.48735489 -141.40463104 25.48735489 -140.10406494 25.48690796 C-137.32838296 25.48828798 -134.55297814 25.50378587 -131.77734375 25.51953125 C-129.83964688 25.52326611 -127.9019481 25.52611085 -125.96424866 25.52810669 C-120.8893198 25.5357059 -115.81450725 25.55532216 -110.73962402 25.57751465 C-105.55104139 25.59805342 -100.36243978 25.60712552 -95.17382812 25.6171875 C-85.01166793 25.63857183 -74.84959368 25.6726625 -64.6875 25.71484375 C-64.54650879 24.78148193 -64.40551758 23.84812012 -64.26025391 22.88647461 C-62.53362987 13.32527563 -56.06362399 5.66980105 -48.44140625 0.0625 C-33.38000949 -9.79367804 -15.08219825 -9.88560751 0 0 Z M-43.6875 18.71484375 C-46.06926705 21.93556177 -46.06926705 21.93556177 -46.6875 25.71484375 C-31.8375 25.71484375 -16.9875 25.71484375 -1.6875 25.71484375 C-3.0658286 20.20152936 -5.9092537 16.46566312 -10.7578125 13.41015625 C-22.66016217 7.39310125 -34.44966127 8.75099601 -43.6875 18.71484375 Z M-161.125 49.27734375 C-163.72550178 53.33412653 -163.81395137 56.44923673 -163.81892776 61.17361927 C-163.8209804 61.83543734 -163.82303303 62.4972554 -163.82514787 63.17912856 C-163.83083409 65.41247236 -163.82935863 67.64575482 -163.82794189 69.87910461 C-163.8305246 71.49021529 -163.83353749 73.10132533 -163.8369453 74.71243447 C-163.84502963 79.15209131 -163.84680566 83.59173199 -163.84754276 88.03139532 C-163.84939082 92.81473754 -163.85693687 97.59807133 -163.86367798 102.38140869 C-163.87727175 112.84617505 -163.88328757 123.31093758 -163.88768864 133.7757113 C-163.89044916 140.30681137 -163.89468615 146.83790995 -163.89919281 153.36900902 C-163.91138658 171.44286284 -163.92168585 189.51671547 -163.9250679 207.59057331 C-163.92528747 208.74779458 -163.92550703 209.90501584 -163.92573325 211.09730441 C-163.92595153 212.25733202 -163.92616981 213.41735963 -163.9263947 214.61253959 C-163.92683817 216.96329137 -163.92728473 219.31404314 -163.92773438 221.66479492 C-163.9279558 222.83085493 -163.92817723 223.99691494 -163.92840537 225.1983101 C-163.93235464 244.09897388 -163.94981212 262.99959913 -163.9730939 281.90024803 C-163.99679033 301.29364633 -164.00926896 320.68702529 -164.01043582 340.08043832 C-164.01135351 350.97383133 -164.01712959 361.86717415 -164.03525543 372.76055336 C-164.05063335 382.03530852 -164.05579054 391.30999797 -164.04751733 400.58476344 C-164.0436027 405.31862502 -164.04457999 410.05235417 -164.05857468 414.78619957 C-164.07126485 419.11831156 -164.07015927 423.45019096 -164.05798396 427.7823024 C-164.05601847 429.35095195 -164.05914454 430.91961771 -164.06782833 432.48824445 C-164.0788769 434.61862807 -164.07146445 436.74818445 -164.0594368 438.87854481 C-164.06003389 440.06240546 -164.06063097 441.24626611 -164.06124616 442.46600133 C-163.5646052 446.78312453 -162.13215313 450.16726368 -159.15234375 453.359375 C-154.18252534 457.15982438 -151.52585688 457.8593064 -145.39208984 457.82836914 C-144.64077286 457.82851517 -143.88945587 457.82866119 -143.1153717 457.82881165 C-140.6263645 457.82811371 -138.13743167 457.82032689 -135.6484375 457.8125 C-133.92493735 457.8106354 -132.20143666 457.80921169 -130.47793579 457.80821228 C-125.93724103 457.80439044 -121.39657815 457.79456297 -116.855896 457.7835083 C-112.22424755 457.77328704 -107.59259397 457.76871312 -102.9609375 457.76367188 C-93.86977764 457.75294042 -84.77864147 457.73586797 -75.6875 457.71484375 C-75.6875 453.75484375 -75.6875 449.79484375 -75.6875 445.71484375 C-76.55558289 445.70453629 -77.42366577 445.69422882 -78.3180542 445.68360901 C-86.49905087 445.58563 -94.67997541 445.48311489 -102.86085129 445.37550449 C-107.06671308 445.32034104 -111.2725819 445.26693162 -115.47851562 445.2175293 C-119.53748814 445.16978865 -123.59637752 445.11744244 -127.65525055 445.061903 C-129.2037677 445.04152337 -130.7523076 445.02280311 -132.30086517 445.00576973 C-134.46986613 444.98162828 -136.63871117 444.95158739 -138.80761719 444.92016602 C-140.65960724 444.89684959 -140.65960724 444.89684959 -142.54901123 444.87306213 C-145.12009961 444.7434477 -147.24406704 444.47303179 -149.6875 443.71484375 C-150.76341435 440.21351879 -150.813887 436.98223997 -150.81613445 433.33045959 C-150.81788749 432.68883735 -150.81964053 432.04721511 -150.82144669 431.38614976 C-150.82611345 429.2275452 -150.82363946 427.0690078 -150.82121277 424.91040039 C-150.82308039 423.35062384 -150.8253809 421.79084776 -150.82807809 420.23107243 C-150.83420835 415.93803204 -150.83406106 411.6450111 -150.83288372 407.35196733 C-150.83268002 402.72478464 -150.83819541 398.09760824 -150.84294128 393.47042847 C-150.85125472 384.40305347 -150.85399642 375.33568498 -150.85455366 366.26830649 C-150.85502842 358.90096681 -150.85708115 351.53362928 -150.86025429 344.16629028 C-150.86906214 323.29259871 -150.87367337 302.41891227 -150.87292381 281.54521883 C-150.87288386 280.419447 -150.8728439 279.29367518 -150.87280273 278.13378906 C-150.87276185 277.00664793 -150.87272097 275.87950679 -150.87267885 274.71820986 C-150.87227217 256.44028729 -150.881847 238.16238529 -150.8959411 219.88446867 C-150.91028848 201.13063546 -150.91721222 182.37681229 -150.91634732 163.62297344 C-150.91601482 153.08849405 -150.91878512 142.55403623 -150.92952538 132.01956177 C-150.93860877 123.05257005 -150.94082343 114.0856097 -150.93401595 105.11861539 C-150.93074 100.54096775 -150.93073265 95.96338037 -150.9393692 91.38573837 C-150.94718771 87.19876135 -150.94585079 83.01189285 -150.93708507 78.82491863 C-150.93553978 77.30680701 -150.9374046 75.78868747 -150.94294515 74.27058518 C-150.94995865 72.21333305 -150.94474873 70.15646652 -150.93638897 68.09922791 C-150.93660634 66.9546408 -150.93682371 65.81005369 -150.93704766 64.63078213 C-150.69028757 61.7474162 -150.28895875 60.10149843 -148.6875 57.71484375 C-145.08619903 55.75689213 -141.94291871 55.4499491 -137.88745117 55.39599609 C-136.74664597 55.3761264 -135.60584076 55.35625671 -134.4304657 55.33578491 C-133.20946671 55.3242337 -131.98846771 55.3126825 -130.73046875 55.30078125 C-129.47236893 55.2814151 -128.2142691 55.26204895 -126.91804504 55.24209595 C-123.58575681 55.19251298 -120.25357669 55.15121277 -116.92114258 55.11395264 C-113.51568761 55.07382751 -110.1103981 55.02277415 -106.70507812 54.97265625 C-100.03264966 54.87666874 -93.36016467 54.792613 -86.6875 54.71484375 C-86.6875 50.75484375 -86.6875 46.79484375 -86.6875 42.71484375 C-94.89390683 42.62421914 -103.09992 42.5509426 -111.30669403 42.50759506 C-115.11806435 42.48678296 -118.92907246 42.45858378 -122.74023438 42.41308594 C-126.42313664 42.36939796 -130.10569208 42.34565876 -133.78883362 42.33533478 C-135.18898472 42.32798425 -136.58911836 42.31363077 -137.98912048 42.29192352 C-147.27563792 42.1537539 -154.3924749 42.19956095 -161.125 49.27734375 Z M-69.6875 42.71484375 C-69.6875 51.29484375 -69.6875 59.87484375 -69.6875 68.71484375 C-64.9461691 73.82365848 -64.9461691 73.82365848 -58.98057556 74.38137817 C-57.88320824 74.36383987 -57.88320824 74.36383987 -56.76367188 74.34594727 C-55.98093399 74.35310257 -55.19819611 74.36025787 -54.39173889 74.36763 C-51.81264304 74.38449458 -49.23529104 74.36512909 -46.65625 74.34375 C-44.85933285 74.34457891 -43.06241578 74.34703914 -41.26550293 74.35105896 C-37.5027784 74.35391541 -33.74064963 74.33923096 -29.97802734 74.31176758 C-25.1591341 74.27768483 -20.34130599 74.28370432 -15.52236176 74.30243015 C-11.81279653 74.31300758 -8.10347841 74.30405561 -4.39393616 74.28904533 C-2.61736281 74.2838685 -0.84076361 74.28433927 0.93580627 74.29059029 C3.42065762 74.2960516 5.90399333 74.27563979 8.38867188 74.24829102 C9.4860392 74.25807983 9.4860392 74.25807983 10.60557556 74.26806641 C16.00748868 74.16716063 16.68816441 73.41431222 21.3125 69.71484375 C21.3125 60.80484375 21.3125 51.89484375 21.3125 42.71484375 C-8.7175 42.71484375 -38.7475 42.71484375 -69.6875 42.71484375 Z M39.3125 42.71484375 C39.3125 46.67484375 39.3125 50.63484375 39.3125 54.71484375 C40.98272217 54.73466309 42.65294434 54.75448242 44.3737793 54.77490234 C50.57054725 54.85097442 56.76708089 54.93968991 62.96362305 55.03222656 C65.6455514 55.07158911 68.32747842 55.10618611 71.00952148 55.13671875 C74.86460682 55.18238328 78.71933969 55.24037674 82.57421875 55.30078125 C84.37290657 55.31810806 84.37290657 55.31810806 86.20793152 55.33578491 C87.32871597 55.3556546 88.44950043 55.37552429 89.60424805 55.39599609 C91.07984444 55.4159816 91.07984444 55.4159816 92.58525085 55.43637085 C95.54008451 55.73808186 97.67371248 56.35652969 100.3125 57.71484375 C102.83581171 61.49981131 102.60167448 64.51097557 102.5909729 68.89616394 C102.5996615 70.16182653 102.5996615 70.16182653 102.60852563 71.45305806 C102.62557977 74.29060241 102.62840678 77.12798465 102.63134766 79.96557617 C102.6406421 81.9955536 102.65081004 84.0255272 102.66178894 86.05549622 C102.68915757 91.57579551 102.70425866 97.09606919 102.71721697 102.6164186 C102.73281753 108.3820298 102.7596175 114.14758846 102.7852478 119.91316223 C102.83209014 130.83532693 102.86880782 141.75750145 102.90192068 152.67971545 C102.94010357 165.11247088 102.98952373 177.5451736 103.03990483 189.97788465 C103.14330581 215.55683199 103.23253961 241.13581316 103.3125 266.71484375 C107.2725 266.71484375 111.2325 266.71484375 115.3125 266.71484375 C115.38255336 239.17711976 115.4354702 211.63940911 115.46793652 184.101614 C115.48341126 171.3155965 115.50451247 158.52963433 115.53881836 145.74365234 C115.56870202 134.60055493 115.58807058 123.45749759 115.59476548 112.31436121 C115.59867947 106.41311027 115.60789067 100.51197397 115.62969017 94.61075974 C115.6500389 89.05732903 115.65633701 83.5040603 115.65182304 77.95059586 C115.65264896 75.9116096 115.65862413 73.87261798 115.67011642 71.83366394 C115.68503515 69.05048017 115.68145576 66.26790854 115.67326355 63.48471069 C115.68200207 62.6773067 115.6907406 61.86990271 115.69974393 61.03803194 C115.65585437 55.524041 114.64121957 51.32921959 110.84765625 47.0703125 C105.75264494 43.02944146 102.471594 42.58852556 96.07519531 42.60131836 C94.18368744 42.60143166 94.18368744 42.60143166 92.25396729 42.60154724 C90.88285279 42.60665347 89.51173869 42.61186945 88.140625 42.6171875 C86.73386689 42.61905347 85.32710812 42.62047653 83.92034912 42.62147522 C80.22469273 42.62528631 76.52907587 42.63510455 72.83343506 42.6461792 C69.05953506 42.65642361 65.28562865 42.66097933 61.51171875 42.66601562 C54.11195909 42.67672812 46.71224013 42.69431348 39.3125 42.71484375 Z M-134.6875 71.71484375 C-134.6875 189.52484375 -134.6875 307.33484375 -134.6875 428.71484375 C-115.2175 428.71484375 -95.7475 428.71484375 -75.6875 428.71484375 C-75.11556568 407.38171471 -75.11556568 407.38171471 -74.73267651 386.04750729 C-74.62786354 378.40801632 -74.4954172 370.77251792 -74.25415039 363.13598633 C-74.04241869 356.43102003 -73.93377281 349.73125921 -73.88483238 343.02280617 C-73.8500159 340.4783931 -73.78201948 337.93418779 -73.67862892 335.3916378 C-72.94989748 319.6420073 -72.94989748 319.6420073 -79.90316772 306.03359985 C-83.86901439 301.88621867 -88.1737166 298.25362858 -92.60800743 294.62275124 C-95.99969936 291.51091784 -98.17003338 288.03325719 -99.18359375 283.4921875 C-99.03511137 278.82984066 -98.31822879 275.57324597 -95.6875 271.71484375 C-90.65826317 267.49707412 -86.8840731 267.13231384 -80.61206055 267.18139648 C-79.71855896 267.17278091 -78.82505737 267.16416534 -77.90447998 267.1552887 C-74.96076192 267.13265018 -72.01799779 267.1393653 -69.07421875 267.1484375 C-67.01926899 267.14319989 -64.96432163 267.13692291 -62.90937805 267.12965393 C-58.60459067 267.11925276 -54.30013389 267.12380561 -49.99536133 267.13842773 C-44.49415033 267.15558919 -38.99398639 267.13215099 -33.49289227 267.09693813 C-29.24875541 267.07491239 -25.0048669 267.07641861 -20.76069069 267.08470345 C-18.73341539 267.08552062 -16.70612143 267.07870211 -14.67889977 267.06393242 C-11.83566568 267.04639683 -8.99428467 267.06110492 -6.15112305 267.08374023 C-4.90937065 267.06620193 -4.90937065 267.06620193 -3.64253235 267.04830933 C5.40171115 267.19387404 11.80634749 271.66962172 18.00390625 278.015625 C18.47948471 278.49686325 18.95506317 278.9781015 19.4450531 279.47392273 C20.93154538 280.98244098 22.40334331 282.50436427 23.875 284.02734375 C24.89293158 285.06538422 25.9118057 286.1025013 26.93164062 287.13867188 C29.40287311 289.65352083 31.86115576 292.18058686 34.3125 294.71484375 C37.89606672 293.20530501 40.08966692 291.11875473 42.76171875 288.3203125 C43.61056641 287.44697266 44.45941406 286.57363281 45.33398438 285.67382812 C47.09609106 283.84201173 48.85398834 282.00613576 50.60742188 280.16601562 C62.62001876 267.84563555 66.84424917 267.73948853 86.3125 266.71484375 C86.3125 202.36484375 86.3125 138.01484375 86.3125 71.71484375 C70.4725 71.71484375 54.6325 71.71484375 38.3125 71.71484375 C36.3325 75.34484375 34.3525 78.97484375 32.3125 82.71484375 C25.52806257 88.75916073 18.71073254 90.01853166 9.85791016 89.98950195 C9.04229111 89.99461288 8.22667206 89.99972382 7.38633728 90.00498962 C4.70800297 90.01881357 2.0299281 90.01793421 -0.6484375 90.015625 C-2.52259414 90.01951605 -4.3967499 90.02385156 -6.27090454 90.02861023 C-10.19300194 90.0360571 -14.11500929 90.03579241 -18.03710938 90.03051758 C-23.04592717 90.0247268 -28.05437471 90.04165198 -33.06313133 90.06486225 C-36.93234385 90.07964428 -40.80146813 90.08046519 -44.67070389 90.07735252 C-46.51655434 90.07786355 -48.36241001 90.08305991 -50.20823288 90.09316444 C-52.79710206 90.1055978 -55.38526198 90.09869621 -57.97412109 90.0871582 C-58.72557907 90.09480194 -59.47703705 90.10244568 -60.25126648 90.11032104 C-66.80931673 90.04620558 -72.64229552 88.41449276 -78.375 85.21484375 C-80.6875 82.71484375 -80.6875 82.71484375 -86.6875 71.71484375 C-102.5275 71.71484375 -118.3675 71.71484375 -134.6875 71.71484375 Z M-78.6875 283.71484375 C-77.30782807 285.37045007 -75.91765282 287.01808566 -74.48498535 288.62805176 C-72.6875 290.71484375 -72.6875 290.71484375 -71.13513184 292.93347168 C-68.09286205 296.80009282 -65.87923047 298.49448899 -60.96801758 299.40258789 C-56.25829675 299.74462629 -51.56000704 299.61543164 -46.84375 299.49609375 C-45.10643123 299.48115478 -43.36907853 299.46977558 -41.63171387 299.46179199 C-37.08029541 299.43138701 -32.53095102 299.35292903 -27.98034668 299.26416016 C-23.32832899 299.1820143 -18.67597291 299.14571954 -14.0234375 299.10546875 C-4.91055186 299.01991973 4.20080097 298.88355766 13.3125 298.71484375 C11.42021842 295.95526645 9.40454676 293.32590635 7.3125 290.71484375 C6.54407776 289.69226723 6.54407776 289.69226723 5.76013184 288.64903259 C2.11291513 284.60862601 -1.06516408 283.33782282 -6.51824188 282.98302555 C-10.52661487 282.87042165 -14.52309412 282.94250712 -18.53125 283.03125 C-20.26857501 283.04432164 -22.00592599 283.05427841 -23.74328613 283.06126404 C-28.29447902 283.08786708 -32.84408375 283.15651972 -37.39465332 283.23419189 C-42.04673788 283.30607056 -46.69908154 283.33782785 -51.3515625 283.37304688 C-60.46423573 283.44790053 -69.57573531 283.56721801 -78.6875 283.71484375 Z M57.3125 298.71484375 C72.06403668 299.04319591 86.81508436 299.28939169 101.56954384 299.44021416 C108.42196066 299.5121361 115.27209587 299.61000817 122.12304688 299.77099609 C128.74307095 299.92648218 135.36136065 300.00697586 141.98328781 300.04312515 C144.50081915 300.06886165 147.01823076 300.11912378 149.53474808 300.19506454 C165.54814016 300.99229908 165.54814016 300.99229908 179.11476707 293.65913582 C183.81542377 289.17612006 183.81542377 289.17612006 186.3125 283.71484375 C171.47406039 283.52759713 156.63577805 283.3867114 141.7963953 283.30034637 C134.90544602 283.25917136 128.01523263 283.20308194 121.12475586 283.11132812 C114.47229652 283.02278632 107.82039941 282.97653932 101.16732597 282.95582581 C98.63196229 282.94106894 96.09663938 282.91225128 93.56160164 282.8690033 C90.00377985 282.81073256 86.44909302 282.80293906 82.89086914 282.80664062 C81.84789169 282.77787842 80.80491425 282.74911621 79.73033142 282.71948242 C68.67720519 282.84351787 62.9851683 289.93135735 57.3125 298.71484375 Z M-58.6875 315.71484375 C-58.6875 362.57484375 -58.6875 409.43484375 -58.6875 457.71484375 C-30.6375 457.71484375 -2.5875 457.71484375 26.3125 457.71484375 C26.3125 410.85484375 26.3125 363.99484375 26.3125 315.71484375 C-1.7375 315.71484375 -29.7875 315.71484375 -58.6875 315.71484375 Z M43.3125 315.71484375 C43.3125 362.57484375 43.3125 409.43484375 43.3125 457.71484375 C83.9025 457.71484375 124.4925 457.71484375 166.3125 457.71484375 C166.3125 410.85484375 166.3125 363.99484375 166.3125 315.71484375 C125.7225 315.71484375 85.1325 315.71484375 43.3125 315.71484375 Z " fill="#000000" transform="translate(242.6875,22.28515625)"/>
<path d="M0 0 C0.85651657 -0.00997513 1.71303314 -0.01995026 2.59550476 -0.03022766 C3.52704376 -0.03089233 4.45858276 -0.03155701 5.41835022 -0.03224182 C6.40576706 -0.04056534 7.3931839 -0.04888885 8.41052246 -0.0574646 C11.67627396 -0.08157065 14.94182582 -0.09033682 18.20765686 -0.09693909 C20.4768276 -0.10590379 22.74599773 -0.1150256 25.01516724 -0.1242981 C29.77229754 -0.14079148 34.52935742 -0.14848906 39.28651428 -0.15138245 C45.3844451 -0.15677156 51.48171516 -0.19447263 57.57945919 -0.24012661 C62.26603622 -0.26985393 66.95245316 -0.27710504 71.63911629 -0.2781086 C73.88742161 -0.28231821 76.1357271 -0.29478201 78.38393974 -0.31562614 C81.52741668 -0.34245442 84.66934886 -0.33774034 87.81288147 -0.32521057 C88.74239624 -0.34004486 89.67191101 -0.35487915 90.6295929 -0.37016296 C95.11719004 -0.31917561 97.07774237 -0.17791121 100.76577759 2.58895874 C103.26291409 6.09127075 103.29363516 8.05756559 102.68031311 12.27415466 C100.9201618 15.45919036 100.18140395 16.10712438 96.68031311 17.27415466 C95.29562546 17.37032607 93.90684453 17.41326152 92.5188446 17.42132568 C91.67211685 17.42848099 90.8253891 17.43563629 89.95300293 17.44300842 C89.02721939 17.44569733 88.10143585 17.44838623 87.14759827 17.45115662 C85.6813224 17.46101341 85.6813224 17.46101341 84.1854248 17.47106934 C80.94674099 17.4907999 77.70810348 17.50246311 74.46937561 17.51243591 C73.36407879 17.51651144 72.25878197 17.52058697 71.1199913 17.524786 C65.27226193 17.54564355 59.42455601 17.55994787 53.57679749 17.56932068 C47.53164201 17.58039742 41.48685337 17.61481307 35.44182777 17.65449238 C30.79730027 17.68060876 26.15286093 17.68900799 21.50826645 17.69260216 C19.27950431 17.6974793 17.05074639 17.70912516 14.82205582 17.72764015 C11.70501141 17.75193001 8.58892665 17.75108516 5.47181702 17.74412537 C4.55008194 17.75693542 3.62834686 17.76974548 2.67868042 17.78294373 C-1.45915863 17.74923479 -3.7493761 17.61234366 -7.37306213 15.46353149 C-10.04823929 12.4547488 -10.24868183 10.25043774 -10.31968689 6.27415466 C-9.51507664 3.56773836 -8.92216499 2.63600845 -6.50763607 1.18582058 C-4.1531919 0.2047802 -2.53861338 0.0159108 0 0 Z " fill="#000000" transform="translate(204.31968688964844,200.72584533691406)"/>
<path d="M0 0 C0.85376724 -0.00860046 1.70753448 -0.01720093 2.58717346 -0.02606201 C3.52590302 -0.03032196 4.46463257 -0.03458191 5.43180847 -0.03897095 C6.41893326 -0.04714844 7.40605804 -0.05532593 8.4230957 -0.06375122 C11.69967537 -0.08862578 14.97621168 -0.10512583 18.25285339 -0.11953735 C19.92872308 -0.12752287 19.92872308 -0.12752287 21.63844872 -0.13566971 C27.55100697 -0.16240922 33.46354405 -0.18178228 39.37614441 -0.19619751 C45.48979148 -0.21285456 51.60290045 -0.25763945 57.71634388 -0.30856895 C62.41148514 -0.34218784 67.1064978 -0.35376907 71.80174828 -0.35942459 C74.05564681 -0.366151 76.30953647 -0.38140886 78.56331825 -0.4053154 C81.7165454 -0.43685624 84.86830941 -0.43702006 88.02165222 -0.42959595 C88.95430908 -0.44600128 89.88696594 -0.46240662 90.84788513 -0.47930908 C95.34489837 -0.43592337 97.3089427 -0.30659729 101.00045776 2.47161865 C102.92082214 5.15390015 102.92082214 5.15390015 103.54582214 8.65390015 C102.73577168 13.19018273 101.58940431 14.38672533 97.92082214 17.15390015 C94.63599656 17.88078719 91.42262816 17.8272565 88.06925964 17.78500366 C87.08169678 17.79215897 86.09413391 17.79931427 85.0766449 17.8066864 C81.81589848 17.82357949 78.55652568 17.80416631 75.29582214 17.7828064 C73.0280801 17.78363503 70.76033812 17.78609421 68.49259949 17.79011536 C63.74127613 17.79297379 58.99042404 17.77826702 54.23918152 17.75082397 C48.14914149 17.71674173 42.05994425 17.72275931 35.96986389 17.74148655 C31.28753131 17.75205553 26.6053948 17.74311951 21.92308044 17.72810173 C19.67760297 17.72291875 17.43210503 17.7234031 15.18663025 17.72964668 C12.04810054 17.73509745 8.91077693 17.71472697 5.77238464 17.68734741 C4.84444092 17.69387329 3.91649719 17.70039917 2.96043396 17.7071228 C-1.18462254 17.64564229 -3.50520523 17.49619566 -7.12849426 15.33540344 C-9.8592628 12.28150962 -10.15043554 10.21558801 -10.07917786 6.15390015 C-7.23120737 1.63642972 -5.24034714 0.03925653 0 0 Z " fill="#000000" transform="translate(204.0791778564453,147.84609985351563)"/>
<path d="M0 0 C2.78227332 2.49691195 3.80269892 4.19285922 4.6875 7.8125 C3.03361213 15.48052556 -5.71343825 21.89582335 -11.125 27.3125 C-11.81464844 28.01439453 -12.50429687 28.71628906 -13.21484375 29.43945312 C-21.64661274 37.89540501 -21.64661274 37.89540501 -26.8125 38.125 C-31.53220381 36.45922218 -34.45733826 33.46200569 -38 30 C-39.33611328 28.70449219 -39.33611328 28.70449219 -40.69921875 27.3828125 C-48.8487609 19.3611519 -48.8487609 19.3611519 -49.3125 15.1875 C-48.92835642 11.2692355 -47.70743683 9.78706733 -45 7 C-42.12427621 5.5621381 -40.19253822 5.65821975 -37 6 C-34.2265625 7.96875 -34.2265625 7.96875 -31.625 10.5 C-30.75101563 11.3353125 -29.87703125 12.170625 -28.9765625 13.03125 C-28.32429688 13.6809375 -27.67203125 14.330625 -27 15 C-22.77444393 13.37478613 -20.05317898 10.20432645 -17 7 C-8.22976782 -2.20440209 -8.22976782 -2.20440209 0 0 Z " fill="#000000" transform="translate(179,191)"/>
<path d="M0 0 C2.78227332 2.49691195 3.80269892 4.19285922 4.6875 7.8125 C2.99023647 15.68163091 -6.14735832 22.32999428 -11.6875 27.875 C-12.43322266 28.63296875 -13.17894531 29.3909375 -13.94726562 30.171875 C-15.03104492 31.25855469 -15.03104492 31.25855469 -16.13671875 32.3671875 C-16.78342529 33.01800293 -17.43013184 33.66881836 -18.09643555 34.33935547 C-20.92815733 36.80971222 -22.97171359 37.97662985 -26.75 38.0625 C-31.55058477 36.49307806 -34.42960708 33.48910551 -38 30 C-39.33611328 28.70449219 -39.33611328 28.70449219 -40.69921875 27.3828125 C-48.8487609 19.3611519 -48.8487609 19.3611519 -49.3125 15.1875 C-48.91645896 11.14788144 -48.01158942 9.70270845 -45 7 C-40.74027876 5.65897665 -38.86297085 5.55125516 -34.875 7.625 C-32.06766365 9.94410394 -29.49951926 12.3534502 -27 15 C-22.77444393 13.37478613 -20.05317898 10.20432645 -17 7 C-8.22976782 -2.20440209 -8.22976782 -2.20440209 0 0 Z " fill="#000000" transform="translate(179,138)"/>
<path d="M0 0 C1.07030457 -0.00717545 1.07030457 -0.00717545 2.16223145 -0.01449585 C3.66498022 -0.0178856 5.16780366 -0.00874758 6.67041016 0.01220703 C8.96294475 0.03899467 11.25058534 0.01243719 13.54296875 -0.01953125 C15.00782324 -0.01622698 16.4726747 -0.00982036 17.9375 0 C18.95801453 -0.01518173 18.95801453 -0.01518173 19.99914551 -0.03067017 C23.80678024 0.06249081 25.39734714 0.60680482 28.40429688 3.01806641 C30.46875 5.6640625 30.46875 5.6640625 31.03125 8.6640625 C30.34517343 12.32313754 29.04140686 14.01573926 26.46875 16.6640625 C22.08750169 18.85468666 16.21543656 17.93239052 11.34790039 17.95922852 C9.17464761 17.97641699 7.00292654 18.02030057 4.83007812 18.06445312 C3.4427195 18.07458276 2.05534796 18.08309802 0.66796875 18.08984375 C-0.59184814 18.10442627 -1.85166504 18.11900879 -3.1496582 18.1340332 C-7.1101446 17.58360823 -8.72444813 16.45205072 -11.53125 13.6640625 C-12.97555855 10.77544541 -12.90813506 8.86758549 -12.53125 5.6640625 C-8.84206093 0.88759816 -5.81862331 -0.08656102 0 0 Z " fill="#000000" transform="translate(311.53125,457.3359375)"/>
<path d="M0 0 C1.14257263 -0.00717545 1.14257263 -0.00717545 2.30822754 -0.01449585 C3.91530427 -0.01789143 5.52245038 -0.00871253 7.12939453 0.01220703 C9.58653045 0.03898382 12.03909955 0.01245445 14.49609375 -0.01953125 C16.05990589 -0.01622708 17.6237152 -0.00982069 19.1875 0 C19.91988892 -0.01012115 20.65227783 -0.02024231 21.40686035 -0.03067017 C25.18654062 0.05597657 26.78312064 0.36716636 29.55664062 3.01806641 C31.45084658 6.27877227 31.71290216 7.94914952 31.09375 11.6640625 C29.55664062 14.31005859 29.55664062 14.31005859 27.09375 16.6640625 C24.25577916 17.17358978 22.02269197 17.36730557 19.1875 17.328125 C18.04492737 17.33530045 18.04492737 17.33530045 16.87927246 17.34262085 C15.27219573 17.34601643 13.66504962 17.33683753 12.05810547 17.31591797 C9.60096955 17.28914118 7.14840045 17.31567055 4.69140625 17.34765625 C3.12759411 17.34435208 1.5637848 17.33794569 0 17.328125 C-0.73238892 17.33824615 -1.46477783 17.34836731 -2.21936035 17.35879517 C-5.99904062 17.27214843 -7.59562064 16.96095864 -10.36914062 14.31005859 C-12.26334658 11.04935273 -12.52540216 9.37897548 -11.90625 5.6640625 C-8.83052806 0.3694827 -5.75920756 -0.07958863 0 0 Z " fill="#000000" transform="translate(310.90625,434.3359375)"/>
</svg>
