<?xml version="1.0" standalone="no"?>
<!DOCTYPE svg PUBLIC "-//W3C//DTD SVG 20010904//EN"
 "http://www.w3.org/TR/2001/REC-SVG-20010904/DTD/svg10.dtd">
<svg version="1.0" xmlns="http://www.w3.org/2000/svg"
 width="512.000000pt" height="512.000000pt" viewBox="0 0 512.000000 512.000000"
 preserveAspectRatio="xMidYMid meet">

<g transform="translate(0.000000,512.000000) scale(0.100000,-0.100000)"
fill="#000000" stroke="none">
<path d="M1990 4797 c-305 -178 -796 -460 -1090 -627 -294 -167 -543 -310
-552 -318 -17 -14 -18 -88 -18 -1287 0 -1002 3 -1275 12 -1287 7 -9 285 -171
618 -361 333 -190 825 -474 1094 -631 269 -157 498 -286 508 -286 10 0 35 11
56 24 97 63 1127 659 1712 991 239 135 441 254 448 263 9 12 12 285 12 1287 0
1199 -1 1273 -17 1287 -10 8 -259 151 -553 318 -294 166 -782 447 -1085 623
-302 176 -559 322 -570 324 -13 3 -226 -116 -575 -320z m1142 -140 c315 -183
774 -447 1021 -587 246 -139 447 -256 447 -259 0 -8 -951 -554 -964 -554 -20
1 -2021 1163 -2021 1173 0 8 927 558 942 560 2 0 261 -150 575 -333z m-636
-884 c792 -459 1011 -590 1002 -599 -7 -6 -221 -131 -476 -278 l-463 -265
-1019 587 c-561 323 -1020 589 -1020 592 0 5 949 550 959 550 2 0 460 -264
1017 -587z m-1011 -663 l1015 -585 0 -1178 0 -1178 -22 12 c-13 7 -237 137
-498 289 -261 152 -577 334 -701 405 l-225 128 -302 650 -302 650 0 699 c0
457 3 699 10 696 5 -1 467 -266 1025 -588z m3185 -587 l0 -1178 -503 -284
c-276 -157 -718 -410 -982 -564 -264 -154 -499 -291 -522 -304 l-43 -25 0
1179 0 1178 473 273 c261 149 477 272 480 272 4 0 7 -141 7 -314 0 -314 0
-315 22 -330 30 -21 54 -20 78 4 19 19 20 33 20 369 l0 348 478 276 c262 152
480 276 485 276 4 1 7 -529 7 -1176z m-3991 -997 c105 -225 190 -411 188 -412
-1 -1 -96 50 -209 114 l-208 117 1 335 c1 334 1 335 19 295 10 -22 104 -224
209 -449z"/>
<path d="M1497 1602 c-24 -26 -21 -59 7 -85 14 -12 167 -105 340 -206 258
-150 320 -182 341 -177 33 9 52 48 38 79 -14 29 -651 407 -686 407 -13 0 -31
-8 -40 -18z"/>
<path d="M1502 1224 c-26 -18 -29 -54 -4 -82 21 -25 636 -384 667 -390 28 -5
65 29 65 59 0 11 -10 29 -22 40 -37 33 -647 389 -666 389 -10 0 -28 -7 -40
-16z"/>
<path d="M3191 1426 c-179 -105 -329 -199 -335 -208 -16 -25 4 -71 36 -82 23
-8 61 11 345 178 326 193 363 218 363 246 0 29 -30 60 -58 59 -16 0 -155 -76
-351 -193z"/>
<path d="M3191 1047 c-178 -106 -329 -200 -335 -209 -15 -25 4 -71 36 -82 23
-8 62 12 361 188 184 108 338 204 341 212 15 40 -15 85 -56 83 -13 0 -169 -87
-347 -192z"/>
</g>
</svg>
