<?xml version="1.0" standalone="no"?>
<!DOCTYPE svg PUBLIC "-//W3C//DTD SVG 20010904//EN"
 "http://www.w3.org/TR/2001/REC-SVG-20010904/DTD/svg10.dtd">
<svg version="1.0" xmlns="http://www.w3.org/2000/svg"
 width="980.000000pt" height="980.000000pt" viewBox="0 0 980.000000 980.000000"
 preserveAspectRatio="xMidYMid meet">

<g transform="translate(0.000000,980.000000) scale(0.100000,-0.100000)"
fill="#000000" stroke="none">
<path d="M5565 9043 c-33 -2 -62 -7 -65 -12 -3 -4 -54 -12 -115 -19 -60 -7
-111 -16 -113 -22 -2 -5 -11 -10 -21 -10 -61 0 -84 -104 -33 -148 24 -21 33
-23 82 -17 30 4 57 10 60 15 7 10 173 30 253 30 38 0 67 4 67 10 0 6 27 10 60
10 33 0 60 -4 60 -10 0 -6 26 -10 59 -10 90 0 266 -20 269 -31 2 -5 13 -9 25
-9 35 0 137 -24 137 -32 0 -4 23 -10 51 -14 28 -4 56 -12 62 -18 7 -7 33 -18
60 -25 26 -8 47 -17 47 -20 0 -4 20 -13 45 -20 25 -7 45 -16 45 -20 0 -4 16
-13 35 -20 19 -7 35 -16 35 -21 0 -5 18 -15 40 -21 22 -7 40 -16 40 -21 0 -4
9 -8 20 -8 11 0 20 5 20 10 0 6 8 10 18 10 29 0 42 21 42 66 0 51 -8 74 -25
74 -7 0 -15 7 -19 15 -3 8 -12 15 -20 15 -8 0 -21 6 -28 13 -21 19 -56 37 -73
37 -8 0 -15 4 -15 8 0 5 -18 14 -40 21 -22 6 -40 16 -40 20 0 5 -22 14 -50 21
-27 7 -50 15 -50 20 0 4 -27 13 -60 20 -33 7 -60 16 -60 20 0 4 -30 13 -67 20
-38 7 -70 16 -73 20 -6 8 -136 30 -179 30 -16 0 -31 4 -33 10 -3 11 -350 21
-453 13z"/>
<path d="M4978 8924 c-10 -3 -18 -9 -18 -14 0 -4 -13 -13 -30 -20 -16 -7 -30
-18 -30 -25 0 -8 -5 -15 -12 -17 -19 -7 -12 -74 8 -96 44 -45 105 -39 165 17
31 31 39 45 39 74 0 60 -60 99 -122 81z"/>
<path d="M5510 8710 c0 -5 -19 -10 -42 -10 -70 0 -268 -22 -268 -30 0 -5 -38
-13 -85 -20 -47 -7 -85 -15 -85 -19 0 -4 -29 -13 -65 -20 -36 -7 -65 -16 -65
-20 0 -3 -30 -12 -66 -19 -36 -7 -72 -19 -79 -26 -8 -7 -30 -17 -50 -20 -19
-4 -35 -10 -35 -15 0 -4 -25 -14 -55 -21 -30 -7 -55 -17 -55 -21 0 -4 -16 -13
-35 -19 -19 -6 -35 -15 -35 -19 0 -4 -22 -13 -50 -20 -27 -7 -50 -17 -50 -22
0 -4 -18 -14 -40 -20 -22 -7 -40 -16 -40 -20 0 -5 -18 -14 -40 -20 -22 -7 -40
-16 -40 -20 0 -4 -17 -13 -37 -19 -21 -7 -42 -18 -48 -24 -5 -7 -26 -18 -45
-26 -19 -8 -38 -19 -43 -26 -4 -7 -21 -15 -37 -19 -17 -4 -30 -10 -30 -15 0
-4 -13 -13 -30 -20 -16 -7 -30 -16 -30 -20 0 -5 -13 -11 -30 -15 -16 -4 -33
-12 -37 -19 -5 -7 -23 -18 -40 -25 -18 -8 -33 -17 -33 -21 0 -5 -13 -13 -30
-19 -16 -5 -30 -14 -30 -20 0 -5 -13 -12 -30 -16 -16 -4 -33 -12 -37 -19 -5
-7 -23 -18 -40 -25 -18 -8 -33 -17 -33 -21 0 -4 -13 -13 -30 -20 -16 -7 -30
-15 -30 -19 0 -3 -14 -12 -32 -20 -36 -16 -47 -25 -111 -88 -59 -60 -68 -71
-87 -108 -8 -17 -19 -33 -25 -37 -6 -4 -10 -59 -10 -128 0 -69 4 -124 10 -128
6 -4 17 -20 25 -36 19 -38 54 -76 69 -76 6 0 14 -6 17 -14 3 -8 19 -18 35 -21
16 -4 36 -13 43 -21 24 -24 149 -36 240 -23 45 6 83 14 86 19 3 4 31 13 63 20
31 7 57 16 57 20 0 4 21 13 46 19 26 7 52 18 60 26 7 7 32 16 54 20 22 4 40
10 40 14 0 4 26 14 58 21 31 8 60 18 63 22 3 5 34 14 70 20 35 7 66 15 69 19
3 3 39 12 80 20 41 7 77 16 80 19 6 8 170 30 222 30 20 0 38 4 40 9 4 12 174
18 185 7 4 -4 1 -11 -7 -16 -10 -7 -11 -10 -2 -10 7 0 12 -14 12 -36 0 -41 19
-124 29 -124 4 0 13 -16 20 -35 7 -19 16 -35 21 -35 5 0 12 -9 15 -20 3 -11
12 -20 20 -20 8 0 16 -8 19 -18 4 -10 22 -25 41 -32 19 -8 35 -18 35 -22 0 -5
11 -13 25 -18 14 -5 25 -14 25 -19 0 -5 20 -14 45 -20 25 -6 45 -15 45 -21 0
-5 27 -14 60 -21 33 -6 60 -15 60 -20 0 -4 34 -13 75 -20 41 -6 75 -15 75 -19
0 -4 25 -13 55 -20 30 -7 55 -17 55 -21 0 -5 18 -14 40 -20 22 -7 40 -16 40
-20 0 -4 17 -13 38 -20 20 -6 41 -18 45 -25 4 -8 14 -14 21 -14 7 0 23 -9 36
-20 l23 -20 -1412 0 c-1382 0 -1491 -2 -1511 -30 -3 -4 -16 -13 -29 -20 -34
-18 -111 -92 -111 -107 0 -7 -4 -13 -8 -13 -4 0 -14 -17 -21 -37 -8 -21 -19
-41 -25 -45 -15 -10 -16 -2875 -1 -2886 9 -6 35 -69 35 -84 0 -4 -18 -9 -40
-13 -22 -4 -40 -11 -40 -16 0 -5 -20 -14 -45 -20 -25 -6 -45 -15 -45 -18 0 -4
-16 -13 -35 -21 -19 -8 -35 -17 -35 -21 0 -3 -13 -12 -30 -19 -17 -7 -30 -16
-30 -20 0 -4 -13 -13 -29 -20 -16 -6 -32 -18 -35 -26 -3 -8 -10 -14 -16 -14
-6 0 -45 -34 -85 -75 -41 -41 -78 -75 -84 -75 -5 0 -19 -14 -32 -31 -28 -37
-529 -542 -533 -537 -1 1 -8 17 -15 35 -7 17 -19 34 -27 37 -8 3 -14 10 -14
16 0 19 -97 109 -124 116 -14 3 -26 10 -26 15 0 13 -70 29 -132 29 -65 0 -158
-18 -158 -30 0 -4 -13 -13 -30 -19 -16 -5 -30 -14 -30 -20 0 -5 -14 -12 -31
-16 -17 -4 -33 -13 -36 -21 -3 -8 -11 -14 -19 -14 -8 0 -19 -9 -26 -20 -7 -11
-18 -20 -24 -20 -7 0 -22 -11 -35 -25 -13 -13 -28 -25 -32 -25 -12 0 -62 -52
-70 -72 -3 -10 -11 -18 -16 -18 -5 0 -15 -16 -22 -35 -7 -19 -16 -35 -20 -35
-4 0 -13 -20 -20 -45 -7 -25 -17 -45 -21 -45 -4 0 -8 -43 -8 -95 0 -52 4 -95
8 -95 4 0 14 -20 21 -45 7 -25 17 -45 22 -45 5 0 14 -11 19 -25 5 -14 13 -25
18 -25 4 0 14 -16 22 -35 8 -19 18 -35 22 -35 5 0 13 -11 18 -25 5 -14 13 -25
18 -25 4 0 14 -16 22 -35 8 -19 18 -35 22 -35 5 0 13 -11 18 -25 5 -14 14 -25
19 -25 5 0 12 -14 16 -30 4 -17 15 -35 25 -40 10 -5 21 -23 25 -40 4 -16 11
-30 16 -30 5 0 14 -11 19 -25 5 -14 13 -25 18 -25 4 0 14 -16 22 -35 8 -19 18
-35 22 -35 5 0 13 -11 18 -25 5 -14 13 -25 18 -25 4 0 14 -16 22 -35 8 -19 18
-35 22 -35 5 0 13 -11 18 -25 5 -14 13 -25 18 -25 4 0 14 -16 22 -35 8 -19 18
-35 22 -35 5 0 13 -11 18 -25 5 -14 13 -25 18 -25 4 0 14 -16 22 -35 8 -19 17
-35 21 -35 3 0 12 -13 19 -30 7 -16 16 -30 20 -30 4 0 15 -18 25 -40 10 -22
21 -40 25 -40 4 0 13 -13 20 -30 7 -16 16 -30 20 -30 4 0 13 -13 20 -30 7 -16
16 -30 21 -30 4 0 10 -9 14 -20 8 -25 124 -140 141 -140 8 0 14 -4 14 -10 0
-16 71 -30 152 -30 75 0 168 17 168 31 0 4 14 12 30 19 17 7 30 16 30 21 0 5
6 9 13 9 17 0 59 34 146 121 88 88 110 115 117 146 3 12 12 24 19 26 7 3 16
18 20 34 3 15 12 31 18 35 16 10 16 196 0 206 -6 4 -14 23 -18 44 -7 35 -6 36
27 43 18 4 35 11 38 16 3 5 42 14 85 21 44 6 83 16 86 21 8 12 430 11 438 -1
3 -5 59 -15 124 -22 64 -7 117 -16 117 -20 0 -4 41 -13 90 -19 50 -7 90 -16
90 -20 0 -4 45 -14 100 -21 55 -7 100 -16 100 -20 0 -4 53 -13 118 -20 64 -7
120 -18 125 -24 5 -8 10 -7 16 3 6 10 10 10 13 1 5 -15 437 -17 447 -3 3 5 51
14 106 21 55 7 102 17 103 22 2 6 13 10 25 10 33 0 137 23 137 31 0 3 27 12
60 19 33 7 60 16 60 21 0 4 25 13 55 20 30 7 55 15 55 19 0 4 18 13 40 20 22
7 40 16 40 20 0 4 16 11 35 14 19 4 40 13 47 20 7 7 28 19 46 27 17 7 32 17
32 20 0 3 18 12 40 19 22 7 40 16 40 20 0 3 16 12 35 20 19 8 35 17 35 21 0 3
14 12 30 19 17 7 30 16 30 20 0 4 14 14 32 21 18 7 40 20 49 29 31 27 45 37
70 50 13 7 28 19 32 26 4 8 14 14 22 14 8 0 19 9 25 20 6 11 16 20 23 20 7 0
23 12 36 25 13 14 28 25 35 25 6 0 17 9 24 20 7 11 17 20 22 20 6 0 27 16 48
35 111 105 145 135 152 135 10 0 660 650 660 660 0 5 14 21 30 37 17 15 30 31
30 35 0 5 8 17 18 27 33 37 39 47 51 83 7 20 17 38 24 41 19 6 23 249 4 268
-8 8 -18 26 -22 39 -10 33 -98 118 -129 126 -14 3 -26 10 -26 14 0 5 -33 14
-72 21 -83 14 -244 0 -260 -23 -6 -8 -7 0 -3 22 4 19 9 52 12 73 3 20 10 37
14 37 5 0 9 604 9 1374 0 1369 0 1374 20 1369 11 -3 20 -8 20 -12 0 -4 21 -13
48 -20 26 -8 50 -18 53 -23 3 -5 45 -14 92 -21 48 -6 87 -15 87 -19 0 -4 47
-8 105 -8 63 0 105 4 105 10 0 6 13 10 28 10 40 0 142 21 142 30 0 4 25 13 55
20 30 7 55 16 55 20 0 4 18 13 40 20 22 7 40 16 40 20 0 4 18 13 39 20 22 7
42 19 45 25 2 7 18 16 35 20 17 4 31 10 31 15 0 4 14 13 30 19 17 5 30 14 30
18 0 5 16 15 35 22 19 7 35 16 35 21 0 4 14 13 30 19 17 5 30 14 30 19 0 4 16
14 35 22 19 8 35 16 35 20 0 3 16 12 35 19 19 7 35 16 35 20 0 4 20 16 45 27
25 10 45 21 45 24 0 4 16 12 35 20 19 8 35 17 35 21 0 3 14 12 30 19 17 7 30
16 30 21 0 5 9 9 20 9 11 0 20 -7 20 -15 0 -8 4 -15 9 -15 5 0 12 -16 15 -35
4 -19 13 -40 20 -48 7 -7 16 -22 20 -34 13 -41 105 -123 152 -135 24 -7 44
-16 44 -20 0 -4 32 -8 70 -8 39 0 70 4 70 8 0 4 34 14 75 21 41 8 75 17 75 21
0 4 20 13 45 19 25 6 45 15 45 20 0 4 18 13 40 20 22 6 40 16 40 21 0 6 6 10
13 10 22 0 137 100 137 119 0 4 9 18 19 30 11 12 22 40 26 62 4 21 11 39 16
39 5 0 9 36 9 80 0 44 -4 80 -9 80 -4 0 -14 27 -21 60 -7 33 -16 60 -20 60 -4
0 -13 27 -20 60 -7 33 -16 60 -20 60 -4 0 -13 27 -20 60 -7 33 -16 60 -20 60
-4 0 -13 27 -20 60 -7 33 -16 60 -20 60 -4 0 -13 27 -20 60 -7 33 -16 60 -20
60 -4 0 -13 27 -20 60 -7 33 -16 60 -20 60 -4 0 -13 27 -20 60 -7 33 -16 60
-20 60 -4 0 -13 26 -20 57 -7 31 -18 63 -25 70 -7 7 -16 31 -20 53 -4 22 -11
40 -16 40 -5 0 -9 9 -9 20 0 26 -23 100 -31 100 -3 0 -12 27 -19 60 -7 33 -16
60 -20 60 -4 0 -10 10 -14 23 -6 27 -29 58 -78 106 -51 50 -59 56 -97 69 -63
22 -280 9 -301 -18 -3 -3 -24 -12 -47 -20 -24 -7 -43 -16 -43 -20 0 -3 -16
-12 -35 -19 -19 -7 -35 -16 -35 -21 0 -5 -10 -12 -22 -16 -13 -3 -40 -24 -61
-45 -21 -22 -43 -39 -48 -39 -5 0 -9 -4 -9 -9 0 -5 -16 -25 -34 -45 -20 -20
-38 -50 -42 -71 -3 -19 -10 -35 -15 -35 -5 0 -9 -35 -9 -79 l0 -78 -42 -7
c-49 -8 -248 3 -248 14 0 3 -35 12 -77 18 -42 7 -80 16 -83 20 -3 5 -31 14
-62 21 -32 7 -58 16 -58 20 0 4 -22 14 -50 21 -27 7 -50 16 -50 20 0 3 -25 14
-55 25 -30 10 -55 22 -55 26 0 4 -20 13 -45 20 -25 7 -45 17 -45 21 0 3 -16
12 -35 19 -19 7 -35 16 -35 19 0 4 -18 13 -40 20 -22 7 -40 16 -40 20 0 4 -18
13 -40 20 -22 7 -40 17 -40 22 0 4 -7 8 -15 8 -14 0 -54 19 -65 30 -3 4 -24
12 -47 18 -24 7 -43 16 -43 21 0 4 -25 14 -55 21 -30 7 -55 17 -55 21 0 4 -25
13 -55 20 -30 7 -55 16 -55 20 0 4 -33 13 -72 20 -40 7 -75 16 -78 19 -6 9
-171 30 -228 30 -23 0 -42 5 -42 10 0 6 -53 10 -140 10 -87 0 -140 -4 -140
-10z m317 -181 c70 -6 130 -14 133 -18 3 -4 41 -13 85 -20 44 -7 82 -17 85
-21 3 -4 31 -13 63 -20 31 -7 57 -17 57 -21 0 -4 23 -12 50 -19 28 -7 50 -15
50 -19 0 -4 20 -13 45 -20 25 -7 45 -16 45 -21 0 -4 18 -13 40 -20 22 -7 40
-16 40 -20 0 -4 25 -15 55 -25 30 -11 55 -23 55 -27 0 -4 18 -13 40 -19 22 -7
40 -16 40 -20 0 -5 18 -14 40 -20 22 -7 40 -16 40 -20 0 -4 17 -13 37 -20 21
-6 43 -18 51 -25 7 -7 28 -16 47 -20 19 -3 35 -10 35 -14 0 -4 20 -13 45 -19
25 -6 45 -15 45 -20 0 -4 27 -14 60 -21 33 -7 60 -16 60 -20 0 -5 33 -14 73
-20 39 -7 74 -16 77 -20 10 -15 242 -33 341 -26 l97 7 13 -56 c7 -30 15 -55
19 -55 4 0 13 -27 20 -60 7 -33 16 -60 20 -60 4 0 13 -27 20 -60 7 -33 16 -60
20 -60 4 0 13 -27 20 -60 7 -33 16 -60 20 -60 3 0 13 -29 20 -65 7 -36 17 -65
20 -65 4 0 13 -27 20 -60 7 -33 16 -60 20 -60 4 0 13 -27 20 -60 7 -33 17 -60
21 -60 5 0 9 -9 9 -19 0 -13 -9 -21 -30 -26 -16 -4 -30 -11 -30 -16 0 -6 -13
-15 -30 -20 -16 -6 -30 -14 -30 -19 0 -4 -15 -13 -32 -21 -18 -7 -36 -18 -41
-25 -4 -7 -21 -15 -37 -19 -17 -4 -30 -11 -30 -16 0 -6 -13 -15 -30 -20 -16
-6 -30 -14 -30 -18 0 -4 -16 -13 -35 -21 -19 -8 -35 -16 -35 -19 0 -4 -15 -13
-32 -21 -18 -7 -41 -22 -52 -31 -10 -10 -32 -21 -47 -24 -16 -4 -29 -11 -29
-16 0 -6 -13 -15 -30 -20 -16 -6 -30 -14 -30 -19 0 -4 -15 -13 -32 -21 -18 -7
-35 -15 -38 -18 -3 -4 -18 -13 -35 -21 -16 -8 -36 -20 -43 -27 -7 -7 -28 -15
-47 -19 -19 -3 -35 -10 -35 -14 0 -4 -24 -14 -52 -20 -29 -7 -55 -17 -58 -21
-8 -11 -130 -29 -202 -29 -66 0 -198 21 -198 31 0 4 -18 10 -40 14 -22 4 -46
12 -53 19 -7 7 -29 19 -50 25 -20 7 -37 16 -37 20 0 4 -18 13 -40 20 -22 6
-40 16 -40 20 0 5 -13 14 -30 21 -16 7 -30 16 -30 20 0 5 -13 13 -30 19 -16 5
-30 14 -30 19 0 5 -18 17 -40 27 -22 10 -40 21 -40 25 0 4 -13 13 -30 20 -16
7 -30 16 -30 21 0 5 -11 14 -25 19 -14 5 -25 14 -25 20 0 5 -6 10 -12 10 -7 0
-26 11 -42 25 -16 13 -37 27 -47 30 -11 4 -19 10 -19 15 0 4 -13 13 -30 19
-16 5 -30 14 -30 19 0 5 -18 14 -40 21 -22 6 -40 15 -40 20 0 4 -18 13 -40 20
-22 6 -40 15 -40 20 0 4 -25 13 -55 20 -30 7 -55 16 -55 20 0 5 -34 14 -75 20
-41 7 -75 16 -75 20 0 5 -27 14 -60 20 -33 7 -60 15 -60 19 0 4 -20 14 -45 21
-25 7 -45 17 -45 22 0 5 -6 9 -14 9 -8 0 -21 8 -28 18 -7 9 -25 23 -40 31 -15
8 -30 22 -33 33 -4 10 -13 25 -22 34 -11 10 -18 40 -21 87 -4 65 -2 75 20 99
13 15 38 30 56 34 17 4 32 10 32 15 0 5 32 9 70 9 39 0 70 -3 70 -8 0 -4 30
-13 67 -20 37 -7 70 -17 73 -22 3 -4 33 -14 68 -21 34 -7 62 -16 62 -20 0 -4
37 -12 83 -19 45 -7 84 -16 87 -21 7 -10 251 -29 386 -29 134 0 366 18 374 29
3 4 12 10 22 14 36 13 34 125 -3 134 -10 3 -19 9 -19 14 0 14 -88 11 -92 -3
-6 -16 -535 -18 -546 -3 -4 6 -52 16 -107 23 -54 7 -102 16 -105 20 -3 5 -32
14 -65 21 -33 8 -62 17 -65 21 -3 5 -34 14 -70 21 -36 7 -68 18 -72 24 -10 14
-286 14 -296 -1 -4 -6 -19 -14 -35 -18 -15 -3 -42 -21 -61 -39 l-33 -33 -194
-13 c-106 -6 -196 -16 -199 -20 -3 -4 -50 -13 -105 -20 -54 -6 -102 -15 -105
-19 -3 -4 -39 -13 -80 -20 -41 -7 -77 -16 -80 -20 -3 -4 -34 -14 -70 -21 -36
-7 -67 -16 -70 -21 -3 -4 -31 -13 -62 -20 -32 -7 -58 -16 -58 -19 0 -4 -20
-13 -45 -20 -25 -7 -45 -16 -45 -21 0 -4 -25 -13 -55 -20 -30 -7 -55 -16 -55
-19 0 -8 -74 -31 -100 -31 -11 0 -20 -4 -20 -10 0 -6 -33 -10 -80 -10 -47 0
-80 4 -80 10 0 6 -6 10 -13 10 -26 0 -67 26 -79 50 -7 14 -17 28 -22 31 -11 9
-10 90 2 98 5 3 13 17 17 31 10 31 84 103 124 121 17 8 31 18 31 22 0 4 14 13
30 18 17 6 30 14 30 19 0 4 14 13 30 20 17 7 30 16 30 20 0 5 14 13 30 19 17
5 30 14 30 20 0 5 13 12 30 16 16 4 33 12 37 19 5 7 23 18 41 25 17 8 32 17
32 21 0 5 14 13 30 19 17 5 30 14 30 19 0 5 18 14 40 21 22 6 40 15 40 19 0 4
15 13 33 21 17 8 34 17 37 20 10 12 50 31 64 31 8 0 16 6 19 14 3 8 19 17 36
21 17 4 31 11 31 15 0 5 18 15 40 21 22 7 40 16 40 20 0 5 18 14 40 20 22 7
40 16 40 20 0 4 17 13 37 20 21 6 43 18 50 24 6 7 32 19 57 26 26 7 46 16 46
20 0 4 23 12 50 19 28 7 50 15 50 19 0 4 21 13 48 20 26 8 49 18 52 22 3 5 36
14 73 21 37 7 67 15 67 19 0 3 28 12 63 19 34 7 64 16 67 20 6 7 139 30 174
30 14 0 26 4 28 9 3 11 181 27 310 30 42 0 135 -4 205 -10z m2442 -240 c17 -6
31 -17 31 -24 0 -7 7 -15 15 -19 8 -3 18 -23 21 -46 4 -22 10 -40 15 -40 5 0
9 -9 9 -20 0 -11 -4 -20 -9 -20 -5 0 -12 -15 -15 -33 -8 -41 -52 -97 -77 -97
-11 0 -19 -4 -19 -10 0 -14 -88 -12 -106 3 -76 63 -85 75 -91 125 -3 28 -3 66
1 85 7 35 48 90 76 100 27 10 116 7 149 -4z m137 -631 c79 -65 93 -107 50
-152 -34 -37 -83 -35 -125 4 -23 23 -31 39 -31 65 0 19 4 35 9 35 5 0 11 9 14
20 3 12 14 20 26 20 12 0 21 5 21 10 0 14 18 13 36 -2z m118 -254 c9 -3 16
-10 16 -16 0 -5 6 -16 14 -23 7 -8 16 -36 20 -64 4 -28 10 -51 15 -51 4 0 14
-31 21 -70 7 -38 17 -70 21 -70 7 0 29 -109 29 -143 0 -30 -37 -57 -78 -57
-51 0 -77 31 -94 110 -6 33 -15 60 -19 60 -4 0 -12 29 -19 65 -7 36 -15 65
-19 65 -4 0 -12 31 -19 70 -13 76 -5 115 25 123 28 7 70 8 87 1z m-4374 -934
c0 -88 3 -160 8 -160 4 0 13 -22 19 -50 13 -53 18 -61 74 -118 58 -58 80 -71
131 -78 26 -4 48 -10 48 -15 0 -5 115 -9 255 -9 140 0 255 4 255 9 0 5 18 11
40 15 23 3 43 13 46 21 4 8 13 15 20 15 8 0 19 11 24 24 5 13 13 25 19 27 20
7 31 112 31 295 l0 184 514 0 c411 0 517 -3 528 -13 7 -7 28 -20 46 -28 17 -7
32 -20 32 -27 0 -7 6 -15 14 -18 34 -13 36 -93 36 -1447 0 -1284 -3 -1417 -28
-1417 -4 0 -13 -13 -20 -29 -7 -17 -26 -34 -45 -42 -18 -7 -35 -18 -39 -23
-11 -16 -2926 -15 -2936 0 -4 7 -39 13 -79 16 -83 4 -113 25 -135 96 -7 23
-16 42 -20 42 -11 0 -10 2718 1 2724 5 3 12 20 15 38 3 18 21 47 39 65 68 66
42 63 600 63 l507 0 0 -160z m2539 -3038 c3 -5 20 -13 36 -19 21 -6 33 -19 40
-41 5 -18 13 -32 17 -32 4 0 8 -27 8 -60 0 -33 -4 -60 -10 -60 -5 0 -10 -7
-10 -15 0 -38 -47 -97 -212 -267 -65 -67 -118 -124 -118 -128 0 -11 -59 -70
-70 -70 -6 0 -10 -4 -10 -9 0 -14 -81 -91 -97 -91 -7 0 -13 -6 -13 -13 0 -15
-76 -97 -90 -97 -8 0 -49 -40 -112 -109 -21 -23 -42 -41 -47 -41 -5 0 -31 -22
-58 -50 -26 -27 -52 -50 -56 -50 -4 0 -23 -16 -43 -35 -19 -19 -39 -35 -43
-35 -5 0 -19 -11 -32 -25 -13 -13 -29 -25 -36 -25 -7 0 -17 -9 -23 -20 -6 -11
-17 -20 -26 -20 -8 0 -17 -6 -20 -14 -3 -8 -19 -20 -35 -26 -16 -7 -29 -16
-29 -21 0 -5 -11 -14 -25 -19 -14 -5 -25 -13 -25 -18 0 -4 -16 -14 -35 -22
-19 -8 -35 -18 -35 -22 0 -5 -13 -14 -30 -19 -16 -6 -30 -15 -30 -19 0 -5 -16
-14 -35 -21 -19 -7 -35 -16 -35 -19 0 -4 -16 -12 -35 -20 -19 -8 -35 -17 -35
-21 0 -5 -18 -14 -40 -20 -22 -7 -40 -16 -40 -20 0 -5 -18 -14 -40 -20 -22 -7
-40 -15 -40 -18 0 -4 -20 -13 -45 -20 -25 -7 -45 -16 -45 -21 0 -4 -25 -13
-55 -20 -30 -7 -55 -16 -55 -20 0 -4 -27 -13 -60 -20 -33 -7 -60 -16 -60 -20
0 -4 -35 -13 -77 -20 -43 -7 -80 -16 -83 -20 -11 -14 -197 -30 -356 -30 -166
0 -384 17 -394 30 -3 4 -49 13 -102 20 -54 7 -98 16 -98 20 0 3 -43 13 -95 20
-52 7 -95 16 -95 20 0 7 -150 30 -197 30 -17 0 -33 4 -35 10 -6 19 -328 33
-490 20 -84 -6 -155 -15 -158 -19 -3 -5 -35 -14 -73 -21 -37 -8 -67 -17 -67
-21 0 -5 -76 -29 -93 -29 -3 0 -10 13 -17 30 -7 16 -16 30 -19 30 -4 0 -13 16
-21 35 -8 19 -18 35 -22 35 -5 0 -13 11 -18 25 -5 14 -13 25 -18 25 -4 0 -14
16 -22 35 -8 19 -17 35 -20 35 -3 0 -12 16 -20 35 -8 19 -18 35 -22 35 -5 0
-13 11 -18 25 -5 14 -13 25 -17 25 -5 0 -15 15 -23 33 -14 32 -22 44 -52 77
-9 10 -19 27 -22 38 -4 11 -18 32 -31 48 -14 16 -25 35 -25 42 0 6 -5 12 -10
12 -6 0 -15 11 -20 25 -5 14 -13 25 -18 25 -4 0 -14 16 -22 35 -8 19 -16 35
-19 35 -4 0 -13 15 -20 33 -8 17 -21 37 -29 43 -11 8 15 38 127 151 78 77 141
144 141 148 0 10 89 95 100 95 6 0 10 4 10 9 0 14 65 81 79 81 6 0 11 5 11 11
0 5 43 51 95 102 128 124 157 149 188 166 15 8 27 18 27 23 0 5 11 13 25 18
14 5 25 13 25 18 0 5 18 15 40 22 22 7 40 16 40 20 0 4 19 13 43 20 23 8 45
18 48 22 3 4 42 13 88 20 63 9 100 9 159 0 42 -7 114 -12 160 -12 45 0 82 -3
82 -8 0 -4 30 -13 67 -20 37 -7 70 -16 73 -21 3 -4 31 -13 63 -21 31 -7 57
-17 57 -21 0 -4 18 -10 40 -14 22 -4 46 -13 53 -20 7 -7 39 -18 70 -25 31 -7
57 -17 57 -21 0 -4 25 -13 55 -19 30 -6 55 -15 55 -19 0 -5 34 -14 75 -20 41
-7 75 -16 75 -20 0 -13 165 -31 278 -31 61 0 102 -4 102 -10 0 -15 57 -12 64
3 5 10 7 10 12 0 4 -8 28 -13 67 -13 72 0 187 -19 187 -30 0 -5 13 -11 29 -15
16 -3 42 -17 58 -31 15 -13 33 -24 39 -24 6 0 17 -13 24 -30 7 -16 16 -30 20
-30 12 0 26 -84 20 -128 -4 -28 -14 -48 -29 -60 -13 -9 -32 -25 -42 -34 -35
-32 -90 -38 -391 -38 -192 0 -298 -4 -298 -10 0 -5 -19 -10 -42 -10 -66 0
-218 -22 -218 -31 0 -5 -11 -9 -24 -9 -30 0 -129 -22 -136 -30 -3 -3 -34 -11
-69 -19 -35 -7 -70 -18 -77 -26 -8 -7 -32 -16 -54 -20 -22 -4 -40 -10 -40 -14
0 -4 -18 -13 -40 -20 -22 -6 -40 -16 -40 -21 0 -6 -6 -10 -14 -10 -26 0 -35
-65 -16 -114 8 -23 15 -26 57 -26 56 0 121 16 139 35 7 7 30 16 51 20 21 4 40
11 43 15 3 5 34 14 70 21 36 7 67 16 70 20 3 4 41 13 85 20 44 7 82 16 85 20
12 16 275 29 529 27 177 -1 275 1 279 8 4 6 33 16 65 24 31 7 57 17 57 22 0 5
8 12 18 15 23 9 112 95 112 110 0 6 9 15 20 18 11 3 20 10 20 14 0 5 27 14 60
21 33 7 60 16 60 20 0 4 27 13 60 20 33 7 60 16 60 20 0 5 23 14 50 21 28 7
50 15 50 19 0 3 20 12 45 19 25 7 45 17 45 21 0 4 20 14 45 21 25 7 45 17 45
20 0 4 14 10 31 14 17 4 33 13 35 20 3 6 23 18 45 25 21 7 39 16 39 20 0 3 16
12 35 19 19 7 35 16 35 21 0 4 14 13 30 19 17 5 30 14 30 20 0 5 14 12 31 16
17 4 33 13 36 21 3 8 11 14 17 14 7 0 21 8 32 19 11 10 31 24 44 31 27 15 43
27 73 56 12 11 30 23 40 27 9 3 17 10 17 15 0 5 14 15 30 22 17 7 30 16 30 21
0 5 11 14 25 19 14 5 25 13 25 18 0 4 16 14 35 22 19 7 36 19 39 25 2 7 21 15
40 19 20 4 36 11 36 16 0 20 166 22 179 2z m-1176 -29 c334 -3 607 -10 607
-15 0 -5 -11 -13 -25 -18 -14 -5 -25 -14 -25 -20 0 -5 -6 -10 -14 -10 -8 0
-21 -8 -28 -18 -7 -10 -28 -25 -45 -33 -18 -7 -33 -17 -33 -22 0 -4 -11 -12
-25 -17 -14 -5 -25 -14 -25 -19 0 -5 -14 -12 -31 -16 -17 -4 -33 -13 -35 -20
-3 -6 -23 -18 -45 -25 -21 -7 -39 -16 -39 -20 0 -3 -16 -12 -35 -20 -19 -8
-35 -17 -35 -21 0 -4 -17 -13 -37 -20 -21 -6 -43 -18 -51 -25 -7 -7 -28 -16
-47 -20 -19 -3 -35 -10 -35 -14 0 -4 -18 -13 -40 -20 -22 -7 -40 -16 -40 -20
0 -4 -25 -12 -55 -19 -30 -7 -55 -16 -55 -21 0 -4 -18 -11 -40 -15 -22 -4 -47
-13 -54 -21 -8 -8 -25 -14 -39 -14 -21 0 -25 7 -36 55 -7 30 -16 55 -21 55 -4
0 -11 11 -14 24 -7 27 -108 132 -137 141 -10 4 -19 10 -19 15 0 5 -19 15 -42
22 -24 6 -45 15 -48 18 -7 9 -94 30 -124 30 -14 0 -26 5 -26 10 0 6 -48 10
-122 10 -163 0 -412 18 -416 30 -2 6 -14 10 -27 10 -31 0 -129 22 -135 31 -3
3 -29 12 -57 19 -29 6 -53 16 -53 21 0 5 127 10 283 12 155 1 379 3 497 5 118
1 488 -1 823 -5z m-4168 -905 c35 -42 137 -216 182 -312 23 -48 23 -68 1 -113
-24 -50 -100 -36 -141 25 -47 72 -172 286 -184 317 -29 75 -3 125 66 125 34 0
45 -6 76 -42z m339 -532 c29 -27 36 -41 36 -71 0 -40 -20 -64 -52 -65 -10 0
-18 -4 -18 -10 0 -5 -9 -10 -20 -10 -11 0 -20 5 -20 10 0 6 -6 10 -14 10 -16
0 -50 43 -60 78 -5 15 -1 34 14 57 19 30 27 35 60 35 30 0 46 -7 74 -34z m356
-424 c0 -5 11 -14 24 -20 34 -15 66 -44 66 -59 0 -6 8 -19 18 -29 21 -22 25
-145 5 -151 -7 -3 -13 -10 -13 -17 0 -21 -60 -65 -97 -72 -19 -4 -56 -4 -83
-2 -41 4 -56 11 -85 42 -19 21 -35 46 -35 57 0 10 -4 19 -10 19 -6 0 -10 27
-10 60 0 33 4 60 9 60 5 0 13 10 17 22 10 32 55 78 76 78 10 0 18 5 18 10 0 6
23 10 50 10 28 0 50 -4 50 -8z"/>
<path d="M2357 6473 c-28 -7 -37 -45 -37 -147 0 -79 3 -95 20 -114 31 -33 97
-31 127 5 20 23 23 37 23 117 0 83 -2 93 -25 114 -24 23 -74 35 -108 25z"/>
<path d="M2370 5850 c0 -5 -7 -10 -15 -10 -9 0 -20 -12 -25 -26 -6 -15 -10
-298 -10 -735 0 -696 0 -709 20 -729 24 -24 95 -27 125 -4 20 15 20 27 20 746
0 582 -3 732 -13 736 -7 2 -19 10 -26 18 -17 16 -76 19 -76 4z"/>
<path d="M5500 1643 c-26 -11 -69 -60 -76 -87 -3 -14 -10 -26 -15 -26 -13 0
-11 -28 4 -46 42 -53 49 -56 88 -51 39 5 99 50 99 74 0 6 4 13 10 15 5 2 12
17 16 33 11 56 -69 112 -126 88z"/>
<path d="M5200 1460 c0 -5 -18 -15 -40 -21 -22 -7 -40 -16 -40 -20 0 -5 -18
-14 -40 -20 -22 -7 -40 -16 -40 -20 0 -5 -20 -14 -45 -20 -25 -6 -45 -15 -45
-19 0 -4 -27 -13 -60 -20 -33 -7 -60 -16 -60 -20 0 -5 -33 -14 -72 -21 -40 -7
-75 -16 -78 -20 -3 -5 -51 -14 -105 -20 -55 -7 -103 -17 -107 -23 -10 -15
-506 -15 -516 0 -4 5 -52 15 -107 22 -54 7 -102 16 -105 21 -9 15 -121 29
-156 19 -41 -11 -58 -57 -43 -113 8 -28 16 -36 47 -45 20 -5 43 -10 50 -10 6
0 12 -4 12 -9 0 -5 41 -15 90 -22 50 -6 90 -15 90 -19 0 -9 254 -30 371 -30
120 0 372 19 379 29 3 4 43 12 89 19 47 6 87 16 90 20 3 5 39 14 79 21 39 7
72 16 72 20 0 4 25 13 55 20 30 7 55 16 55 20 0 4 23 14 50 21 28 7 50 17 50
20 0 4 18 12 40 19 22 6 40 16 40 21 0 4 13 11 29 15 34 7 91 52 91 71 0 8 5
14 10 14 6 0 10 9 10 20 0 11 -4 20 -10 20 -5 0 -10 9 -10 21 0 12 -8 23 -20
26 -11 3 -20 9 -20 14 0 5 -18 9 -40 9 -22 0 -40 -4 -40 -10z"/>
</g>
</svg>
