<?xml version="1.0" standalone="no"?>
<!DOCTYPE svg PUBLIC "-//W3C//DTD SVG 20010904//EN"
 "http://www.w3.org/TR/2001/REC-SVG-20010904/DTD/svg10.dtd">
<svg version="1.0" xmlns="http://www.w3.org/2000/svg"
 width="512.000000pt" height="512.000000pt" viewBox="0 0 512.000000 512.000000"
 preserveAspectRatio="xMidYMid meet">

<g transform="translate(0.000000,512.000000) scale(0.100000,-0.100000)"
fill="#000000" stroke="none">
<path d="M2752 4927 l-22 -23 0 -1026 0 -1027 26 -20 c27 -21 29 -21 1165 -21
625 0 1145 3 1154 6 46 18 45 0 45 1074 l0 1011 -25 24 -24 25 -1149 0 -1149
0 -21 -23z m2198 -387 l0 -250 -1030 0 -1030 0 0 250 0 250 1030 0 1030 0 0
-250z m0 -660 l0 -250 -1030 0 -1030 0 0 250 0 250 1030 0 1030 0 0 -250z m0
-660 l0 -250 -1030 0 -1030 0 0 250 0 250 1030 0 1030 0 0 -250z"/>
<path d="M3082 4597 c-30 -32 -29 -81 3 -112 24 -25 25 -25 218 -25 l194 0 27
26 c32 32 34 72 5 108 l-20 26 -203 0 c-199 0 -203 0 -224 -23z"/>
<path d="M3992 4600 c-35 -33 -33 -84 4 -117 59 -53 148 3 128 81 -13 54 -90
75 -132 36z"/>
<path d="M4322 4600 c-35 -33 -33 -84 4 -117 59 -53 148 3 128 81 -13 54 -90
75 -132 36z"/>
<path d="M4652 4597 c-14 -15 -22 -36 -22 -59 0 -84 118 -106 150 -28 33 81
-69 150 -128 87z"/>
<path d="M3082 3937 c-32 -34 -30 -89 4 -116 25 -20 40 -21 221 -21 l194 0 24
26 c32 35 32 78 0 109 -24 25 -25 25 -223 25 -195 0 -199 0 -220 -23z"/>
<path d="M3992 3940 c-35 -33 -33 -84 4 -117 66 -60 161 16 120 95 -24 47 -85
58 -124 22z"/>
<path d="M4320 3935 c-32 -34 -30 -83 5 -112 60 -52 147 0 130 78 -13 60 -92
80 -135 34z"/>
<path d="M4652 3937 c-32 -34 -30 -89 4 -116 62 -49 146 3 129 80 -13 58 -92
80 -133 36z"/>
<path d="M3082 3277 c-32 -34 -30 -89 4 -116 25 -20 40 -21 221 -21 193 0 194
0 218 25 16 15 25 36 25 55 0 19 -9 40 -25 55 -24 25 -25 25 -223 25 -195 0
-199 0 -220 -23z"/>
<path d="M3990 3275 c-33 -35 -31 -81 4 -112 69 -59 164 14 122 95 -26 50 -87
58 -126 17z"/>
<path d="M4320 3275 c-32 -34 -30 -83 5 -112 68 -59 162 15 121 95 -26 50 -87
58 -126 17z"/>
<path d="M4652 3277 c-32 -34 -30 -89 4 -116 49 -38 115 -16 130 43 7 28 -18
81 -41 90 -34 13 -72 6 -93 -17z"/>
<path d="M1759 4514 c-23 -24 -24 -33 -27 -164 l-3 -139 -57 -6 c-154 -16
-294 -47 -380 -82 -450 -183 -684 -599 -708 -1263 l-7 -165 28 -25 27 -25 279
0 c346 0 319 -15 330 177 5 73 13 165 20 203 48 288 183 458 406 509 l61 14 4
-140 c3 -139 3 -140 31 -164 31 -26 57 -30 89 -13 39 21 673 580 691 610 38
59 33 64 -344 393 -307 269 -353 306 -382 306 -23 0 -41 -8 -58 -26z m363
-431 c117 -102 217 -189 221 -193 5 -4 -92 -96 -215 -204 l-223 -196 -5 90
c-7 124 -19 135 -134 132 -224 -6 -415 -108 -527 -280 -86 -131 -144 -326
-156 -524 l-6 -98 -166 0 -166 0 7 132 c26 453 174 773 436 942 150 97 313
143 569 161 45 3 90 8 98 11 29 12 45 60 45 139 0 41 2 75 5 75 2 0 100 -84
217 -187z"/>
<path d="M3930 2467 c-36 -18 -50 -54 -50 -130 0 -37 -5 -111 -11 -163 -38
-340 -173 -532 -416 -588 l-61 -14 -4 140 c-3 139 -3 140 -31 164 -31 26 -57
30 -89 13 -39 -21 -673 -580 -691 -610 -38 -59 -33 -64 344 -393 380 -332 378
-332 436 -282 28 24 28 25 31 164 l3 141 57 6 c154 16 294 47 380 82 450 183
684 599 708 1263 l7 165 -28 25 -27 25 -266 3 c-202 2 -273 -1 -292 -11z m438
-289 c-26 -452 -173 -773 -433 -941 -153 -98 -314 -144 -572 -162 -45 -3 -89
-8 -98 -11 -28 -11 -40 -47 -45 -134 l-5 -84 -215 188 c-118 104 -219 192
-223 196 -5 4 92 96 215 204 l223 196 5 -90 c7 -124 19 -135 134 -132 224 6
415 108 527 280 86 131 144 326 156 524 l6 98 166 0 166 0 -7 -132z"/>
<path d="M42 2303 c-7 -3 -19 -18 -27 -33 -13 -25 -15 -167 -15 -1040 l0
-1011 25 -24 24 -25 1149 0 1149 0 21 23 22 23 0 1026 0 1027 -26 20 c-27 21
-28 21 -1168 20 -627 0 -1147 -3 -1154 -6z m2188 -403 l0 -250 -1030 0 -1030
0 0 250 0 250 1030 0 1030 0 0 -250z m0 -660 l0 -250 -1030 0 -1030 0 0 250 0
250 1030 0 1030 0 0 -250z m0 -660 l0 -250 -1030 0 -1030 0 0 250 0 250 1030
0 1030 0 0 -250z"/>
<path d="M362 1960 c-12 -11 -24 -31 -28 -44 -7 -28 18 -81 41 -90 9 -3 103
-6 209 -6 192 0 193 0 216 25 32 34 30 83 -5 113 -25 21 -33 22 -219 22 -179
0 -194 -1 -214 -20z"/>
<path d="M1265 1955 c-51 -50 -15 -135 58 -135 45 0 77 34 77 82 0 70 -86 103
-135 53z"/>
<path d="M1595 1955 c-51 -50 -15 -135 58 -135 45 0 77 34 77 82 0 70 -86 103
-135 53z"/>
<path d="M1925 1955 c-51 -50 -15 -135 58 -135 45 0 77 34 77 82 0 70 -86 103
-135 53z"/>
<path d="M369 1307 c-27 -20 -41 -56 -34 -88 12 -55 30 -59 245 -59 196 0 197
0 220 25 32 34 30 83 -5 113 -25 21 -33 22 -218 22 -135 -1 -197 -4 -208 -13z"/>
<path d="M1265 1295 c-51 -50 -15 -135 58 -135 70 0 103 85 52 135 -15 16 -36
25 -55 25 -19 0 -40 -9 -55 -25z"/>
<path d="M1595 1294 c-32 -35 -32 -78 0 -109 52 -53 135 -18 135 57 0 71 -87
104 -135 52z"/>
<path d="M1926 1294 c-34 -34 -34 -77 -1 -109 52 -53 135 -18 135 57 0 71 -83
103 -134 52z"/>
<path d="M373 648 c-28 -13 -46 -58 -37 -92 13 -52 31 -56 244 -56 184 0 198
1 218 20 35 33 33 84 -4 118 -24 21 -32 22 -212 21 -109 0 -196 -5 -209 -11z"/>
<path d="M1266 634 c-51 -52 -19 -134 53 -134 74 0 109 83 56 135 -32 33 -75
33 -109 -1z"/>
<path d="M1596 634 c-51 -52 -19 -134 53 -134 74 0 109 83 56 135 -32 33 -75
33 -109 -1z"/>
<path d="M1926 634 c-51 -52 -17 -134 57 -134 70 0 103 85 52 135 -32 33 -75
33 -109 -1z"/>
</g>
</svg>
