<?xml version="1.0" standalone="no"?>
<!DOCTYPE svg PUBLIC "-//W3C//DTD SVG 20010904//EN"
 "http://www.w3.org/TR/2001/REC-SVG-20010904/DTD/svg10.dtd">
<svg version="1.0" xmlns="http://www.w3.org/2000/svg"
 width="512.000000pt" height="512.000000pt" viewBox="0 0 512.000000 512.000000"
 preserveAspectRatio="xMidYMid meet">

<g transform="translate(0.000000,512.000000) scale(0.100000,-0.100000)"
fill="#000000" stroke="none">
<path d="M1555 5094 c-44 -22 -85 -64 -101 -101 -12 -27 -14 -202 -14 -1007
l0 -975 -464 -3 -464 -3 -38 -31 c-21 -16 -47 -43 -58 -58 -21 -27 -21 -35
-24 -1017 l-2 -989 -144 0 c-132 0 -146 -2 -177 -23 -59 -39 -69 -73 -69 -231
0 -122 2 -143 21 -176 33 -58 81 -80 178 -80 l81 0 0 -142 c0 -160 9 -190 72
-228 29 -18 51 -20 194 -20 151 0 163 1 194 22 69 47 75 64 78 224 l4 144 734
0 734 0 0 -137 c0 -124 3 -142 23 -177 38 -67 68 -76 247 -76 179 0 209 9 247
76 20 35 23 53 23 177 l0 137 289 0 c159 0 297 3 306 6 24 10 46 60 39 89 -15
59 98 55 -1681 55 l-1633 0 0 105 0 105 2410 0 2410 0 0 -105 0 -105 -624 0
c-615 0 -624 0 -650 -21 -36 -28 -36 -80 0 -108 26 -20 38 -21 314 -21 l288 0
4 -144 c3 -160 9 -177 78 -224 31 -21 43 -22 194 -22 143 0 165 2 194 20 63
38 72 68 72 228 l0 142 81 0 c97 0 145 22 178 80 19 33 21 54 21 177 0 156
-10 190 -70 231 -30 20 -44 22 -176 22 l-144 0 -2 989 c-3 982 -3 990 -24
1017 -11 15 -37 42 -58 58 l-38 31 -464 3 -464 3 0 419 0 419 -26 20 c-15 12
-34 21 -44 21 -10 0 -29 -9 -44 -21 l-26 -20 0 -384 c0 -377 -4 -429 -33 -447
-7 -4 -433 -8 -947 -8 -514 0 -940 4 -947 8 -31 20 -33 69 -33 975 0 715 3
917 13 937 l13 25 267 3 267 2 0 -365 c0 -407 3 -426 65 -465 66 -41 109 -27
272 82 40 26 77 48 83 48 6 0 43 -22 83 -48 40 -27 93 -61 118 -75 83 -48 162
-29 199 48 19 39 20 63 20 408 l0 367 267 -2 267 -3 13 -25 c10 -19 13 -120
13 -412 0 -375 1 -389 20 -408 11 -11 33 -20 50 -20 17 0 39 9 50 20 19 19 20
33 20 434 0 269 -4 425 -11 443 -14 38 -56 81 -101 104 -36 18 -72 19 -1010
19 -861 0 -976 -2 -1003 -16z m1275 -480 l0 -346 -27 18 c-16 9 -66 43 -112
73 -72 48 -91 56 -131 56 -40 0 -59 -8 -131 -56 -46 -30 -96 -64 -111 -73
l-28 -18 0 346 0 346 270 0 270 0 0 -346z m-1740 -2121 c0 -345 1 -369 20
-408 37 -77 116 -96 199 -48 25 14 78 48 118 75 40 26 76 48 82 48 5 0 62 -34
126 -75 96 -61 125 -75 157 -75 54 0 94 26 118 75 19 39 20 63 20 408 l0 367
267 -2 267 -3 13 -25 c10 -20 12 -218 10 -953 l-2 -929 -24 -19 c-22 -18 -52
-19 -950 -19 -822 0 -929 2 -949 16 l-22 15 0 948 c0 723 3 950 12 959 9 9 84
12 275 12 l263 0 0 -367z m690 22 l0 -346 -54 35 c-30 19 -80 52 -112 73 -86
57 -126 54 -235 -18 -46 -30 -96 -64 -111 -73 l-28 -18 0 346 0 346 270 0 270
0 0 -345z m1410 -20 c0 -407 3 -426 65 -465 66 -41 109 -27 272 82 40 26 76
48 82 48 5 0 62 -34 126 -75 96 -61 125 -75 157 -75 54 0 94 26 118 75 19 39
20 63 20 408 l0 367 263 0 c191 0 266 -3 275 -12 9 -9 12 -236 12 -959 l0
-948 -22 -15 c-20 -14 -127 -16 -951 -16 l-928 0 -25 25 -24 24 2 934 c3 774
5 937 17 950 12 15 44 17 277 17 l264 0 0 -365z m690 20 l0 -346 -54 35 c-30
19 -80 52 -112 73 -86 57 -126 54 -235 -18 -46 -30 -96 -64 -111 -73 l-28 -18
0 346 0 346 270 0 270 0 0 -345z m-3210 -2235 l0 -120 -125 0 -125 0 0 120 0
120 125 0 125 0 0 -120z m2010 0 l0 -120 -120 0 -120 0 0 120 0 120 120 0 120
0 0 -120z m2020 0 l0 -120 -125 0 -125 0 0 120 0 120 125 0 125 0 0 -120z"/>
<path d="M723 1704 c-20 -20 -24 -31 -19 -57 13 -62 10 -62 311 -65 l275 -3
25 25 c30 31 32 65 4 100 l-20 26 -275 0 -275 0 -26 -26z"/>
<path d="M725 1455 c-14 -13 -25 -36 -25 -50 0 -14 11 -37 25 -50 l24 -25 271
0 271 0 24 25 c14 13 25 36 25 50 0 14 -11 37 -25 50 l-24 25 -271 0 -271 0
-24 -25z"/>
<path d="M731 1213 c-11 -10 -24 -32 -27 -50 -5 -26 -1 -37 19 -57 l26 -26
271 0 271 0 24 25 c14 13 25 36 25 50 0 14 -11 37 -25 50 l-24 25 -269 0
c-242 0 -272 -2 -291 -17z"/>
<path d="M2823 1704 c-20 -20 -24 -31 -19 -57 13 -62 10 -62 311 -65 l275 -3
25 25 c32 32 32 70 0 101 l-24 25 -271 0 -271 0 -26 -26z"/>
<path d="M2825 1455 c-14 -13 -25 -36 -25 -50 0 -14 11 -37 25 -50 l24 -25
271 0 271 0 24 25 c14 13 25 36 25 50 0 14 -11 37 -25 50 l-24 25 -271 0 -271
0 -24 -25z"/>
<path d="M2825 1205 c-14 -13 -25 -36 -25 -50 0 -14 11 -37 25 -50 l24 -25
271 0 271 0 24 25 c14 13 25 36 25 50 0 14 -11 37 -25 50 l-24 25 -271 0 -271
0 -24 -25z"/>
<path d="M1773 3804 c-20 -20 -24 -31 -19 -57 13 -66 18 -67 318 -67 l269 0
24 25 c14 13 25 36 25 50 0 14 -11 37 -25 50 l-24 25 -271 0 -271 0 -26 -26z"/>
<path d="M1775 3555 c-14 -13 -25 -36 -25 -50 0 -14 11 -37 25 -50 l24 -25
271 0 271 0 24 25 c14 13 25 36 25 50 0 14 -11 37 -25 50 l-24 25 -271 0 -271
0 -24 -25z"/>
<path d="M1792 3320 c-22 -9 -42 -46 -42 -76 0 -8 11 -26 25 -39 l24 -25 271
0 271 0 24 25 c14 13 25 36 25 50 0 14 -11 37 -25 50 l-24 25 -263 -1 c-145 0
-273 -4 -286 -9z"/>
</g>
</svg>
